<?xml version="1.0" encoding="UTF-8"?>
<svg version="1.1" xmlns="http://www.w3.org/2000/svg" width="512" height="512">
<path d="M0 0 C0.65352565 -0.00350607 1.30705129 -0.00701215 1.98038074 -0.01062447 C4.16147726 -0.01989871 6.34230442 -0.01502561 8.52341175 -0.01015663 C10.10640311 -0.01389486 11.68939262 -0.01849707 13.27237922 -0.02388728 C17.61566532 -0.03611051 21.95887436 -0.03585763 26.30217373 -0.03349853 C30.98861795 -0.03309021 35.67503751 -0.04413061 40.36147022 -0.05361366 C49.53872787 -0.0702188 58.71595982 -0.07572291 67.89323124 -0.07683842 C75.34965146 -0.07778872 82.8060632 -0.08189811 90.26248074 -0.08823967 C111.39513872 -0.10584747 132.5277764 -0.11507877 153.66044178 -0.11357872 C155.36895766 -0.11345885 155.36895766 -0.11345885 157.11198902 -0.11333656 C158.25238673 -0.1132548 159.39278443 -0.11317304 160.56773964 -0.1130888 C179.06859273 -0.11227509 197.56936457 -0.1314354 216.07019415 -0.1596133 C235.05916926 -0.18830707 254.04810469 -0.20215566 273.03710204 -0.20042574 C283.70123084 -0.19976083 294.36527435 -0.20529787 305.02938366 -0.22678185 C314.10429448 -0.2449471 323.17908133 -0.24937912 332.25400241 -0.235763 C336.88641798 -0.22921092 341.51859534 -0.22919663 346.15098858 -0.2464695 C350.38791687 -0.26210594 354.62441624 -0.25943415 358.86133347 -0.24190123 C360.39752627 -0.2388105 361.93375034 -0.24254103 363.46990629 -0.25362138 C365.55189489 -0.26764949 367.6323593 -0.25723266 369.71429443 -0.24050903 C371.45151899 -0.24116114 371.45151899 -0.24116114 373.22383898 -0.24182642 C376.16838551 0.25726891 376.16838551 0.25726891 378.54030591 1.79760396 C380.77932219 5.1802579 380.72102265 8.18668153 380.67175007 12.1096859 C380.67756383 12.91001527 380.68337759 13.71034464 380.68936753 14.53492641 C380.70403886 17.23369122 380.69004938 19.93155666 380.67632008 22.63031578 C380.68092618 24.57782776 380.68727712 26.52533626 380.69522905 28.47283745 C380.71198545 33.83771441 380.70364738 39.20230814 380.69128418 44.56718636 C380.68226177 50.34777088 380.69618942 56.12830551 380.70720387 61.90888023 C380.72502376 73.23825407 380.72113365 84.56752213 380.7095533 95.89690018 C380.70053289 105.10158598 380.69928894 114.30624206 380.70364857 123.51093102 C380.7042615 124.81920467 380.70487443 126.12747832 380.70550594 127.47539663 C380.70678479 130.13283158 380.70808164 132.79026652 380.7093963 135.44770145 C380.72088878 159.67599539 380.7089705 183.90423577 380.68802591 208.13252056 C380.66904283 230.2600718 380.67074131 252.38753097 380.68986988 274.51508141 C380.71127857 299.36341599 380.71971354 324.2116989 380.70742083 349.06004143 C380.70614658 351.70789654 380.7048891 354.35575167 380.70364857 357.0036068 C380.70272291 358.95798267 380.70272291 358.95798267 380.70177856 360.95184088 C380.69831967 370.14928451 380.70416559 379.34669555 380.71356678 388.54413414 C380.72476599 399.74728366 380.72179052 410.95032103 380.7004438 422.15345764 C380.68990541 427.87339643 380.68585899 433.593148 380.69904041 439.31308556 C380.71091244 444.54379558 380.70448781 449.77414387 380.6831302 455.00482082 C380.67864204 456.9024682 380.68097962 458.8001458 380.69063336 460.69777393 C380.70270764 463.26724121 380.69041474 465.83545152 380.67175007 468.40485191 C380.68111473 469.15045152 380.6904794 469.89605112 380.70012784 470.66424465 C380.65230574 473.9332446 380.36339635 475.96032786 378.55327278 478.71658468 C375.37919014 480.76710468 373.27915835 480.75858944 369.50682449 480.76063347 C368.83522032 480.76644723 368.16361616 480.77226099 367.47166035 480.77825093 C365.21065647 480.79290328 362.95072935 480.77894238 360.68973255 480.76520348 C359.05656854 480.76981041 357.42340867 480.77616193 355.79025751 480.78411245 C351.29399462 480.80085877 346.79806996 480.79253532 342.30180562 480.78016758 C337.45565248 480.77114051 332.6095587 480.78507549 327.76341724 480.79608727 C318.26452201 480.813905 308.76575297 480.81001722 299.26685273 480.7984367 C291.54487245 480.78941171 283.8229276 480.78817434 276.10094357 480.79253197 C275.00284306 480.7931449 273.90474256 480.79375783 272.77336629 480.79438934 C270.54266646 480.79566823 268.31196664 480.79696508 266.08126683 480.7982797 C245.14480893 480.80969599 224.20842099 480.7965573 203.27197457 480.77507824 C185.31301197 480.75722376 167.35415285 480.76029573 149.39519215 480.77875328 C128.5456977 480.80017156 107.69626472 480.80857887 86.84676081 480.79630423 C84.62201982 480.79503003 82.39727882 480.79377255 80.1725378 480.79253197 C79.07791381 480.79191487 77.98328982 480.79129776 76.8554954 480.79066196 C69.1476274 480.78721064 61.43979842 480.7930331 53.73193645 480.80245018 C44.33105495 480.81368293 34.93030701 480.81060398 25.52944075 480.7893272 C20.73416952 480.77883132 15.93912075 480.7746698 11.14385128 480.78792381 C6.74975909 480.79988489 2.35609451 480.79322409 -2.03795915 480.7720136 C-3.62348487 480.76756302 -5.20904706 480.76977893 -6.79454912 480.77951676 C-20.2560217 480.85581989 -30.84565985 478.79017457 -40.83161449 469.25726891 C-51.10416051 458.49652269 -52.42624717 446.9977976 -52.33954906 432.67781639 C-52.3441642 431.01045022 -52.35052121 429.34308813 -52.35845804 427.67573446 C-52.37509059 423.11740693 -52.36693274 418.55941621 -52.35451317 414.00108778 C-52.34543997 409.07596582 -52.3594437 404.15090061 -52.37043285 399.22579002 C-52.38819884 389.58648049 -52.38438652 379.9472957 -52.37278229 370.30798132 C-52.36374017 362.47176073 -52.36252734 354.63557505 -52.36687756 346.79935074 C-52.36749049 345.68305986 -52.36810342 344.56676898 -52.36873493 343.41665111 C-52.37001386 341.14874875 -52.37131071 338.8808464 -52.37262529 336.61294406 C-52.3840256 315.35738387 -52.37092625 294.10189273 -52.34942383 272.84634387 C-52.33155582 254.61943338 -52.33465559 236.39262481 -52.35309887 218.16571617 C-52.37451949 196.98655073 -52.38292443 175.8074458 -52.37064981 154.62827104 C-52.36937565 152.36851498 -52.36811817 150.10875892 -52.36687756 147.84900284 C-52.36626045 146.7372357 -52.36564335 145.62546856 -52.36500755 144.48001151 C-52.36155805 136.65631438 -52.36737443 128.83265571 -52.37679577 121.00896454 C-52.38803046 111.46994235 -52.38494485 101.93105178 -52.36367279 92.39204461 C-52.35318185 87.52774284 -52.34900715 82.66366028 -52.3622694 77.79936028 C-52.37423981 73.34134942 -52.36755452 68.88375975 -52.34635919 64.42578679 C-52.34191273 62.81824532 -52.34411512 61.21066784 -52.35386235 59.60314978 C-52.44174331 43.89775352 -48.58736819 28.82455221 -37.64411449 16.94086266 C-27.36562882 7.39338997 -14.2890423 0.01737483 0 0 Z " fill="#000000" transform="translate(91.83161449432373,15.742731094360352)"/>
<path d="M0 0 C116.16 0 232.32 0 352 0 C352 33.33 352 66.66 352 101 C351.01 100.01 350.02 99.02 349 98 C346.18585747 97.25366463 343.49048119 96.68581724 340.62890625 96.19921875 C339.72628555 96.03661057 338.82366486 95.87400238 337.89369202 95.70646667 C334.59853669 95.12062887 331.29989936 94.55849937 328 94 C326.64800751 93.77005599 325.29601789 93.54009515 323.94403076 93.31011963 C313.77250914 91.58401258 303.5942945 89.89882468 293.41473389 88.22088623 C286.84899455 87.1384864 280.28371864 86.05330384 273.7189045 84.96530724 C271.44353177 84.58884583 269.16782124 84.21447962 266.89207458 83.84028625 C265.50477729 83.61081238 264.11749322 83.38125851 262.73022461 83.15161133 C261.52337509 82.95271805 260.31652557 82.75382477 259.07310486 82.54890442 C257.30484328 82.23306534 255.54035873 81.88467799 253.79811096 81.44755554 C250.75594707 80.69035127 248.112482 80.72209982 245 81 C241.79547632 83.22288815 240.72460809 85.3364297 239.90483093 89.02702332 C239.6070714 90.69246448 239.32712361 92.36114975 239.0612793 94.03198242 C238.823908 95.40105743 238.823908 95.40105743 238.58174133 96.79779053 C238.06315536 99.81453032 237.56814817 102.83460171 237.07421875 105.85546875 C236.7198764 107.95829356 236.3644581 110.06093733 236.00801086 112.16340637 C235.26417314 116.57254106 234.53166578 120.98336554 233.80737305 125.39575195 C232.88073145 131.03678797 231.92901623 136.67323262 230.96904278 142.30868053 C230.23150224 146.65244397 229.50603812 150.99815699 228.78428078 155.34456825 C228.437993 157.42264503 228.08832118 159.50016093 227.73514366 161.57707787 C227.24197494 164.48989336 226.76481583 167.40490639 226.29174805 170.32104492 C226.14482513 171.17072342 225.99790222 172.02040192 225.8465271 172.89582825 C224.95640903 178.5235967 225.15909095 183.35990619 226 189 C231.30714132 191.51458526 236.22418439 192.79994236 242.00537109 193.73339844 C242.87951157 193.88174637 243.75365204 194.0300943 244.65428162 194.18293762 C247.52588275 194.66759305 250.39945727 195.13904895 253.2734375 195.609375 C255.28218688 195.94335255 257.29086298 196.27777114 259.29946899 196.61260986 C263.50303622 197.31109309 267.70765453 198.00277476 271.91308594 198.68994141 C277.2874499 199.56888009 282.65842792 200.46687127 288.02872276 201.37029648 C292.1744465 202.06514258 296.32197796 202.74866711 300.47011185 203.42896271 C302.450554 203.75535562 304.43038511 204.08547994 306.40955734 204.419487 C309.18321572 204.88605499 311.95900043 205.33698897 314.73583984 205.78417969 C315.54340225 205.92332291 316.35096466 206.06246613 317.18299866 206.20582581 C322.30782789 207.00999007 328.01521066 207.76823783 333 206 C335.52185282 202.20661988 335.87337019 197.76334928 336.57226562 193.34765625 C336.78734016 192.03968582 336.78734016 192.03968582 337.00675964 190.70529175 C337.31681199 188.81456756 337.62386615 186.92334982 337.92826843 185.03170776 C338.41012701 182.03841609 338.90008756 179.0465515 339.39221191 176.05493164 C340.43538682 169.70446094 341.46841469 163.35236222 342.5 157 C343.69538509 149.63898096 344.8949036 142.27868725 346.10539246 134.9201355 C346.58814018 131.97176186 347.06305767 129.02219429 347.53771973 126.07250977 C347.83400722 124.26572474 348.13065913 122.45899942 348.42773438 120.65234375 C348.55766281 119.83144257 348.68759125 119.01054138 348.82145691 118.1647644 C349.46295119 114.31292907 350.23161906 111.53676188 352 108 C352 180.6 352 253.2 352 328 C346.39 328 340.78 328 335 328 C334.608125 325.628125 334.21625 323.25625 333.8125 320.8125 C330.74861522 303.88259472 323.16982101 289.01989489 312 276 C311.53207031 275.38769531 311.06414062 274.77539062 310.58203125 274.14453125 C300.31487397 260.98691327 282.25735789 251.80199984 266 249 C263.7930595 248.88761147 261.58338174 248.82425176 259.3737793 248.79467773 C258.72931351 248.78477814 258.08484772 248.77487854 257.42085266 248.76467896 C255.30534451 248.73326613 253.18981395 248.70838721 251.07421875 248.68359375 C249.60162292 248.66300672 248.12903276 248.6420098 246.65644836 248.62062073 C242.79154067 248.56558057 238.92658126 248.51609214 235.06158447 248.46777344 C231.11327543 248.41742608 227.16504097 248.36180928 223.21679688 248.30664062 C215.47792785 248.19928011 207.73899655 248.09778662 200 248 C199.99191315 247.27052155 199.98382629 246.54104309 199.97549438 245.78945923 C199.89717889 238.87584839 199.80978043 231.96240388 199.71247292 225.04903603 C199.66277243 221.49578287 199.61644291 217.94255573 199.578125 214.38916016 C199.53380147 210.29311404 199.47426281 206.19740629 199.4140625 202.1015625 C199.39673569 200.21034164 199.39673569 200.21034164 199.37905884 198.28091431 C199.1522998 184.58055376 197.20393048 172.66340969 187 162.6875 C183.20035605 159.47141911 179.24793215 157.86029497 174.625 156.1875 C168.41154273 153.75411813 168.41154273 153.75411813 166.578125 150.39453125 C165.875 147.5 165.875 147.5 165.421875 144.62109375 C164.65936142 139.88362511 162.05934864 136.97571585 158.625 133.8125 C155.85623568 131.90073416 153.0480711 130.41770749 150 129 C152.52635677 126.03956132 155.28192125 124.86240187 158.8125 123.3125 C164.64552608 120.44875861 167.92054654 117.70004795 171 112 C171.40992188 111.24847656 171.81984375 110.49695313 172.2421875 109.72265625 C175.70685627 102.35127475 176.46085176 94.35098511 174.3046875 86.453125 C173.36416204 84.16108817 172.28112148 82.11908774 171 80 C170.61070312 79.30132812 170.22140625 78.60265625 169.8203125 77.8828125 C165.44527153 71.02254115 158.24425787 67.32113409 150.45703125 65.359375 C139.86961001 63.81081736 132.49986353 65.76411205 123.75 71.75 C117.31853268 76.82342841 113.63067665 83.88819975 112.62890625 92.0078125 C112.42654492 101.50689158 114.53735181 109.73730241 120.3125 117.4375 C125.49726409 122.38111227 131.38634622 125.38209538 138 128 C137.01 128.66 136.02 129.32 135 130 C128.66545713 134.43548073 123.53136618 138.42353321 121 146 C120.6917377 149.0171275 120.6917377 149.0171275 120.7215271 152.29585266 C120.71036362 153.56484909 120.69920013 154.83384552 120.68769836 156.14129639 C120.68533363 157.5399167 120.68315794 158.93853733 120.68115234 160.3371582 C120.67185028 161.81571499 120.66168119 163.29426654 120.65071106 164.77281189 C120.62342831 168.78064135 120.60826678 172.78843569 120.59528303 176.79633355 C120.57964495 180.9870813 120.55285688 185.17775741 120.5272522 189.36845398 C120.48047642 197.30143718 120.44372649 205.23443388 120.41057932 213.16748446 C120.37234946 222.20012095 120.32294155 231.23268548 120.27259517 240.26526129 C120.16929317 258.84345485 120.08002713 277.42169234 120 296 C118.38061523 296.07021362 118.38061523 296.07021362 116.72851562 296.1418457 C115.28773579 296.2151753 113.84698182 296.28901428 112.40625 296.36328125 C111.69758789 296.39264771 110.98892578 296.42201416 110.25878906 296.45227051 C99.43776441 297.03996409 89.7829806 301.88734829 82.35546875 309.73828125 C77.64744336 315.49518319 76.02130355 320.74887148 73 328 C48.91 328 24.82 328 0 328 C0 219.76 0 111.52 0 0 Z " fill="#86CDE8" transform="translate(104,32)"/>
<path d="M0 0 C116.16 0 232.32 0 352 0 C352 13.2 352 26.4 352 40 C235.84 40 119.68 40 0 40 C0 26.8 0 13.6 0 0 Z " fill="#32B1CC" transform="translate(104,376)"/>
<path d="M0 0 C0.65072797 -0.00230769 1.30145594 -0.00461538 1.97190294 -0.006993 C4.15550339 -0.01229278 6.33880975 -0.00330924 8.52239513 0.00558662 C10.10238485 0.00471455 11.68237429 0.00296354 13.26236218 0.00040829 C17.60650359 -0.00406892 21.9505466 0.00394359 26.29467547 0.01396441 C30.97833958 0.02259122 35.66199802 0.0196793 40.34566784 0.01815987 C48.46126466 0.01711053 56.57682936 0.02339224 64.6924181 0.03463554 C76.42623228 0.05088095 88.16003091 0.05609757 99.89385512 0.05861153 C118.93062234 0.06299014 137.96737244 0.07630374 157.00413036 0.09521675 C175.4979446 0.11357126 193.99175418 0.12772986 212.48557568 0.13623238 C214.19515372 0.13702055 214.19515372 0.13702055 215.93926869 0.13782464 C221.6568307 0.14043469 227.37439275 0.14296211 233.09195483 0.14544845 C280.53429026 0.16618611 327.97660667 0.2015647 375.41892529 0.24609566 C375.41892529 5.52609566 375.41892529 10.80609566 375.41892529 16.24609566 C248.69892529 16.24609566 121.97892529 16.24609566 -8.58107471 16.24609566 C-8.58107471 21.52609566 -8.58107471 26.80609566 -8.58107471 32.24609566 C118.13892529 32.24609566 244.85892529 32.24609566 375.41892529 32.24609566 C375.41892529 37.52609566 375.41892529 42.80609566 375.41892529 48.24609566 C326.89057643 48.33732478 278.36223846 48.40812338 229.83382067 48.45035698 C224.10600384 48.45535987 218.37818718 48.46053715 212.6503706 48.46582222 C211.51005424 48.46687146 210.36973788 48.4679207 209.19486648 48.46900174 C190.7253785 48.48641209 172.25594026 48.51795328 153.7864818 48.55470684 C134.83839834 48.59209868 115.89034096 48.6143278 96.94222212 48.62244964 C85.24801966 48.62794104 73.5539578 48.64529197 61.85979861 48.67776152 C53.84320877 48.6988877 45.82669173 48.70529999 37.81007606 48.70010117 C33.1832797 48.69753645 28.55672923 48.7014979 23.92997646 48.72291756 C19.69319226 48.74238868 15.45681922 48.74336208 11.22001606 48.72969124 C9.68824705 48.72800172 8.15645234 48.73307129 6.62473387 48.74562839 C-2.74773817 48.81798942 -9.68278818 48.52237755 -17.04201221 42.09765816 C-22.98707265 35.18197561 -25.11808076 30.17227833 -24.88185596 20.98437691 C-24.02678657 13.19991396 -19.6129781 8.90003566 -13.89748096 3.91015816 C-9.35578786 0.64749161 -5.5429888 -0.00363356 0 0 Z " fill="#E1E1D6" transform="translate(80.58107471466064,431.75390434265137)"/>
<path d="M0 0 C0 126.39 0 252.78 0 383 C-6.27 383.66 -12.54 384.32 -19 385 C-23.66222863 386.89521489 -27.71822375 388.55546706 -32 391 C-32.09126083 359.9076226 -32.16204406 328.81528063 -32.20426132 297.72280109 C-32.20926411 294.05161001 -32.2144414 290.3804192 -32.21972656 286.70922852 C-32.2207758 285.97836407 -32.22182505 285.24749962 -32.22290608 284.49448777 C-32.2403088 272.66219875 -32.27184574 260.8299875 -32.30861118 248.99774461 C-32.34602434 236.85573242 -32.36823664 224.71376095 -32.37635398 212.57169348 C-32.381841 205.0800439 -32.3991678 197.58861416 -32.43166587 190.09703226 C-32.45531985 184.35135673 -32.45781889 178.60582192 -32.45243073 172.86010742 C-32.4535319 170.5038626 -32.46149813 168.14760951 -32.4768219 165.79141426 C-32.49671589 162.57494592 -32.4919406 159.35941909 -32.48101807 156.14292908 C-32.49849512 154.74359041 -32.49849512 154.74359041 -32.51632524 153.31598228 C-32.46166633 147.36315697 -31.43471249 143.89580054 -28 139 C-24.28369507 135.68276137 -21.01102092 135 -16 135 C-16 129.72 -16 124.44 -16 119 C-24.01089084 120.44291642 -24.01089084 120.44291642 -32 122 C-32.7618209 104.37231076 -32.7618209 104.37231076 -28 99 C-24.00327725 95.86512978 -21.21211818 95 -16 95 C-16 89.72 -16 84.44 -16 79 C-24.01005927 80.44739009 -24.01005927 80.44739009 -32 82 C-32.10196962 74.92004795 -32.17170349 67.84028743 -32.21972656 60.75976562 C-32.23976034 58.35442019 -32.26699522 55.94912297 -32.30175781 53.54394531 C-32.35063808 50.07344622 -32.37305205 46.60359474 -32.390625 43.1328125 C-32.41127014 42.06886261 -32.43191528 41.00491272 -32.45318604 39.90872192 C-32.45660472 28.36348027 -28.09131089 18.39461268 -20.1171875 10.0234375 C-14.66736739 5.00105426 -7.73114416 0 0 0 Z " fill="#78B3C5" transform="translate(88,33)"/>
<path d="M0 0 C31.86626572 -0.16121214 31.86626572 -0.16121214 45.26953125 -0.1953125 C54.50643853 -0.2190023 63.74319933 -0.24677808 72.97998047 -0.30175781 C79.70855046 -0.34178872 86.43700107 -0.36747124 93.16568685 -0.37635398 C96.72426346 -0.38154145 100.28249872 -0.3936212 103.84096527 -0.42292023 C107.82609308 -0.45546213 111.81063797 -0.45594909 115.79589844 -0.45410156 C116.9590004 -0.46848267 118.12210236 -0.48286377 119.32044983 -0.49768066 C136.30260867 -0.41293866 150.17986003 7.19959315 162 19 C162.69996094 19.68835938 163.39992188 20.37671875 164.12109375 21.0859375 C174.92626096 32.41767232 183 48.23657814 183 64 C177.72 64 172.44 64 167 64 C166.443125 61.875625 165.88625 59.75125 165.3125 57.5625 C163.6246706 51.51526035 161.57218068 46.18672562 158 41 C157.54367187 40.33742188 157.08734375 39.67484375 156.6171875 38.9921875 C143.95425636 22.76581845 123.21519372 18.70729533 104 16 C104 21.28 104 26.56 104 32 C106.64 32 109.28 32 112 32 C123.53606644 33.6037946 136.14956718 37.96799694 144 47 C148.27040804 52.85240011 149.94800293 56.63602052 151 64 C101.17 64 51.34 64 0 64 C0 42.88 0 21.76 0 0 Z " fill="#195B84" transform="translate(240,296)"/>
<path d="M0 0 C9.36161851 1.29271979 18.67848646 2.74532486 27.9921875 4.34765625 C29.93402505 4.6788774 31.87586293 5.01009657 33.81772041 5.34120083 C37.17041706 5.91339004 40.52269176 6.48804035 43.875 7.0625 C47.90686456 7.75330139 51.93881229 8.44359694 55.97122192 9.13121033 C58.46684548 9.55693551 60.96220157 9.98423258 63.45724487 10.41334534 C69.29533396 11.4091785 75.1152597 12.32990155 81 13 C79.62469509 22.96334966 78.06420682 32.88628183 76.3984375 42.8046875 C76.15452985 44.26439051 75.91076846 45.72411797 75.66714478 47.18386841 C75.03404103 50.97495448 74.39898834 54.7657114 73.76348877 58.55639648 C73.11195069 62.44494773 72.46231215 66.33381628 71.8125 70.22265625 C70.54349541 77.8154109 69.27242578 85.40781785 68 93 C58.9302589 93.37497638 50.38125547 91.93007972 41.4921875 90.375 C39.91476561 90.10523518 38.33721803 89.83620441 36.759552 89.56787109 C32.63857228 88.864962 28.51935904 88.15219444 24.40045166 87.43725586 C20.18466944 86.70733673 15.96726841 85.98689827 11.75 85.265625 C3.49840008 83.85294614 -4.75135527 82.42983277 -13 81 C-11.7489146 70.35181672 -10.21638137 59.78723975 -8.3984375 49.21875 C-8.15436822 47.78435363 -7.91061042 46.34990423 -7.66714478 44.91540527 C-7.03567081 41.1996855 -6.40006398 37.48468517 -5.76348877 33.76983643 C-5.1105809 29.95506961 -4.46172904 26.13961306 -3.8125 22.32421875 C-2.54555706 14.88214514 -1.27423194 7.44082945 0 0 Z " fill="#CBEBF3" transform="translate(358,129)"/>
<path d="M0 0 C3.77844528 1.16788309 5.03634714 1.98264868 7.4375 5.0625 C7.9765625 8.15625 7.9765625 8.15625 8.0625 11.5625 C8.00889874 17.22707028 8.00889874 17.22707028 10.4375 22.0625 C13.02304798 22.83461444 15.42466938 23.39371787 18.0625 23.875 C26.69472285 25.73463182 31.72752245 29.05184745 36.875 36.3125 C39.37870597 40.7190225 39.55627814 43.91207993 39.53515625 48.91796875 C39.53265869 50.12864014 39.53016113 51.33931152 39.52758789 52.58666992 C39.51848389 54.12556885 39.50937988 55.66446777 39.5 57.25 C39.479375 62.138125 39.45875 67.02625 39.4375 72.0625 C23.5975 72.0625 7.7575 72.0625 -8.5625 72.0625 C-8.76304405 55.54212709 -8.76304405 55.54212709 -8.80664062 48.49023438 C-8.83650983 43.68160354 -8.87181157 38.87344954 -8.93969727 34.06518555 C-8.99409709 30.18776419 -9.02393691 26.31085425 -9.03688622 22.43308067 C-9.04611202 20.95506426 -9.06412858 19.47707529 -9.09115028 17.99927711 C-9.12755088 15.92574626 -9.13244139 13.85431746 -9.13012695 11.78051758 C-9.14123001 10.60137283 -9.15233307 9.42222809 -9.16377258 8.20735168 C-8.14504327 2.87906516 -5.43651911 0.09537753 0 0 Z " fill="#185B84" transform="translate(248.5625,175.9375)"/>
<path d="M0 0 C39.6 0 79.2 0 120 0 C120 5.28 120 10.56 120 16 C80.4 16 40.8 16 0 16 C0 10.72 0 5.44 0 0 Z " fill="#000000" transform="translate(320,48)"/>
<path d="M0 0 C21.12 0 42.24 0 64 0 C64 5.28 64 10.56 64 16 C48.16 16 32.32 16 16 16 C16 31.84 16 47.68 16 64 C10.72 64 5.44 64 0 64 C0 42.88 0 21.76 0 0 Z " fill="#000000" transform="translate(120,48)"/>
<path d="M0 0 C29.04 0 58.08 0 88 0 C88 5.28 88 10.56 88 16 C58.96 16 29.92 16 0 16 C0 10.72 0 5.44 0 0 Z " fill="#000000" transform="translate(120,288)"/>
<path d="M0 0 C29.04 0 58.08 0 88 0 C88 5.28 88 10.56 88 16 C58.96 16 29.92 16 0 16 C0 10.72 0 5.44 0 0 Z " fill="#000000" transform="translate(120,256)"/>
<path d="M0 0 C29.04 0 58.08 0 88 0 C88 5.28 88 10.56 88 16 C58.96 16 29.92 16 0 16 C0 10.72 0 5.44 0 0 Z " fill="#000000" transform="translate(120,192)"/>
<path d="M0 0 C29.04 0 58.08 0 88 0 C88 5.28 88 10.56 88 16 C58.96 16 29.92 16 0 16 C0 10.72 0 5.44 0 0 Z " fill="#000000" transform="translate(120,160)"/>
<path d="M0 0 C6.32348338 0 10.01271647 0.59670587 15.75 2.5625 C16.54059814 2.8313501 17.33119629 3.1002002 18.14575195 3.37719727 C32.56828082 8.50399587 42.96133736 17.39191889 50 31 C54.57709437 41.91815709 56.1454842 52.21577992 56 64 C50.72 64 45.44 64 40 64 C39.7525 61.586875 39.505 59.17375 39.25 56.6875 C37.67956453 43.45039627 33.44017124 32.82130041 22.828125 24.30859375 C15.79287554 19.272678 8.41461682 17.75304517 0 16 C0 10.72 0 5.44 0 0 Z " fill="#020303" transform="translate(256,64)"/>
<path d="M0 0 C23.76 0 47.52 0 72 0 C72 5.28 72 10.56 72 16 C48.24 16 24.48 16 0 16 C0 10.72 0 5.44 0 0 Z " fill="#000000" transform="translate(120,224)"/>
<path d="M0 0 C23.76 0 47.52 0 72 0 C72 5.28 72 10.56 72 16 C48.24 16 24.48 16 0 16 C0 10.72 0 5.44 0 0 Z " fill="#000000" transform="translate(320,80)"/>
<path d="M0 0 C4.35699098 2.46622131 7.04335342 5.33670683 9.3125 9.875 C9.85610446 14.82982094 9.87687074 18.74625852 7.625 23.25 C4.45995126 26.84275803 1.10048338 30.56912413 -3.859375 31.11328125 C-9.70596537 31.28159218 -13.11942863 30.89925335 -17.6875 26.875 C-22.17485572 22.02380463 -23.06694978 18.50237243 -22.96875 11.8984375 C-22.33090739 7.3095143 -19.40142374 4.50393282 -16.0625 1.5625 C-10.83094803 -2.15465535 -5.95356591 -1.81634214 0 0 Z " fill="#D31669" transform="translate(254.6875,113.125)"/>
<path d="M0 0 C15.84 0 31.68 0 48 0 C48 5.28 48 10.56 48 16 C32.16 16 16.32 16 0 16 C0 10.72 0 5.44 0 0 Z " fill="#358FBC" transform="translate(240,264)"/>
<path d="M0 0 C10.56 0 21.12 0 32 0 C32 5.28 32 10.56 32 16 C21.44 16 10.88 16 0 16 C0 10.72 0 5.44 0 0 Z " fill="#000000" transform="translate(408,80)"/>
<path d="M0 0 C0 5.28 0 10.56 0 16 C-9.9 16 -19.8 16 -30 16 C-28.41938183 9.67752734 -24.02480223 4.8716479 -18.4375 1.5 C-12.66109315 -1.1079619 -6.17159759 -0.23736914 0 0 Z " fill="#2C789E" transform="translate(224,344)"/>
<path d="M0 0 C5.28 0 10.56 0 16 0 C16 5.28 16 10.56 16 16 C10.72 16 5.44 16 0 16 C0 10.72 0 5.44 0 0 Z " fill="#000000" transform="translate(256,216)"/>
<path d="M0 0 C5.28 0 10.56 0 16 0 C16 5.28 16 10.56 16 16 C10.72 16 5.44 16 0 16 C0 10.72 0 5.44 0 0 Z " fill="#000000" transform="translate(200,48)"/>
</svg>
