<?xml version="1.0" encoding="UTF-8"?>
<svg version="1.1" xmlns="http://www.w3.org/2000/svg" width="512" height="512">
<path d="M0 0 C1.91301877 -0.00570941 3.82603414 -0.01267587 5.73904419 -0.02079773 C10.91269594 -0.03868182 16.08617764 -0.03756961 21.25985098 -0.03185534 C25.58867577 -0.02875641 29.91746824 -0.03486383 34.24628842 -0.04089409 C44.46369901 -0.05492232 54.68102596 -0.05339238 64.8984375 -0.04199219 C75.41741707 -0.03051442 85.93614158 -0.04458489 96.45508754 -0.07138866 C105.50680005 -0.09358486 114.55843271 -0.10017415 123.61017048 -0.09431225 C129.0073356 -0.09095065 134.40433727 -0.09330464 139.80147934 -0.11056328 C144.8790988 -0.12609271 149.95634207 -0.1220105 155.03394699 -0.10325813 C156.88980541 -0.09958873 158.74569208 -0.10263222 160.60152435 -0.11314392 C177.59783486 -0.20201082 190.00199004 2.83063752 202.81298828 14.71655273 C213.08880668 25.57402123 215.54066178 37.54990118 215.35595703 52.06811523 C215.35171219 53.34133636 215.34746735 54.6145575 215.34309387 55.92636108 C215.32923743 59.27694368 215.30238569 62.62688794 215.26898193 65.97729492 C215.23804232 69.40985665 215.22453803 72.84248488 215.20947266 76.27514648 C215.17653915 82.98495501 215.12644191 89.69446711 215.06298828 96.40405273 C212.42298828 96.40405273 209.78298828 96.40405273 207.06298828 96.40405273 C207.06298828 101.35405273 207.06298828 106.30405273 207.06298828 111.40405273 C210.24955078 111.31124023 210.24955078 111.31124023 213.50048828 111.21655273 C243.65036632 110.98668074 270.70215434 124.45215289 292.40283203 144.68530273 C310.3441432 163.02179697 323.10556098 189.55351554 324.06298828 215.40405273 C324.14033203 217.33764648 324.14033203 217.33764648 324.21923828 219.31030273 C324.69925136 237.2909579 322.10529226 256.71576367 313.25048828 272.66967773 C311.7674487 275.23983381 311.7674487 275.23983381 312.71790218 277.28947258 C314.35423013 279.86190762 316.23509079 281.81849847 318.39686584 283.97171021 C319.30689865 284.88304718 320.21693146 285.79438416 321.15454102 286.7333374 C322.1656831 287.73580693 323.17691664 288.73818422 324.18823242 289.74047852 C325.25136749 290.80141194 326.31405485 291.86279416 327.37632751 292.92459106 C329.66299662 295.20832828 331.95278502 297.48887458 334.2450428 299.76700211 C337.86725591 303.36695421 341.48237225 306.9739765 345.09654236 310.58200073 C350.81117992 316.28525933 356.53047175 321.98382424 362.25180477 327.68036544 C372.50488875 337.88910138 382.75237354 348.10345051 392.9946813 358.32299793 C396.59118448 361.91107786 400.19047695 365.49632976 403.79201329 369.07935739 C406.02788703 371.30461275 408.26175112 373.53187738 410.49511147 375.759655 C411.53390639 376.79497003 412.57357241 377.82941185 413.61415482 378.8629303 C415.03041402 380.2697835 416.4433507 381.67997912 417.85609436 383.09036255 C418.64900407 383.87975283 419.44191378 384.6691431 420.25885105 385.4824543 C423.1094517 388.5186478 423.61212315 391.04786471 423.50830078 395.23413086 C422.97821816 397.81712116 422.21666587 398.8149433 420.43798828 400.74780273 C419.48375977 401.78541748 419.48375977 401.78541748 418.51025391 402.84399414 C417.29885742 404.11122314 417.29885742 404.11122314 416.06298828 405.40405273 C415.31118286 406.19208282 415.31118286 406.19208282 414.54418945 406.99603271 C410.90813531 410.7955785 407.23079278 414.55208135 403.52929688 418.2878418 C402.21304313 419.62076526 400.90219362 420.95904605 399.59667969 422.30249023 C397.69127611 424.26271528 395.76988384 426.20592076 393.84423828 428.14624023 C393.26798706 428.74516083 392.69173584 429.34408142 392.09802246 429.96115112 C388.39926198 433.64100219 385.42754473 435.74904252 380.06298828 436.40405273 C375.61906523 434.58421523 372.57458525 432.28809172 369.20339966 428.90522766 C367.81531349 427.52332748 367.81531349 427.52332748 366.39918518 426.11351013 C365.39130845 425.09501819 364.38357706 424.07638241 363.37597656 423.05761719 C362.30185833 421.98265209 361.22707778 420.90834844 360.15168762 419.83465576 C357.24248817 416.92631535 354.34261698 414.00883308 351.44435358 411.08959985 C348.41082092 408.03728518 345.36876323 404.99349105 342.3276062 401.94877625 C336.57375721 396.18561128 330.82759696 390.41484324 325.08417118 384.64129275 C318.54354004 378.06710372 311.9943657 371.50145375 305.44446588 364.93650115 C291.97445672 351.43515311 278.51519389 337.92313843 265.06298828 324.40405273 C261.17663075 325.68161414 257.36244333 327.05873519 253.55712891 328.56152344 C245.4799436 331.72100031 237.63142546 333.92445147 229.06298828 335.40405273 C228.35142578 335.53553711 227.63986328 335.66702148 226.90673828 335.80249023 C220.35906044 336.82903295 213.66529231 336.46753643 207.06298828 336.40405273 C207.06298828 341.68405273 207.06298828 346.96405273 207.06298828 352.40405273 C209.70298828 352.40405273 212.34298828 352.40405273 215.06298828 352.40405273 C215.15599569 363.93127706 215.22690869 375.45841094 215.27023697 386.98593521 C215.29104077 392.33963603 215.31922583 397.69307861 215.36474609 403.04663086 C215.40846201 408.22082784 215.43217948 413.39477767 215.44249725 418.5691452 C215.44984265 420.535356 215.46418555 422.50155449 215.48590851 424.467659 C215.67287565 442.10388759 213.12393941 454.81757357 200.75048828 468.15405273 C188.20317212 480.02919124 174.46309956 480.85219385 158.12597656 480.80810547 C156.21295779 480.81381488 154.29994242 480.82078134 152.38693237 480.8289032 C147.21328062 480.84678729 142.03979892 480.84567508 136.86612558 480.83996081 C132.53730079 480.83686187 128.20850833 480.8429693 123.87968814 480.84899956 C113.66227755 480.86302779 103.4449506 480.86149785 93.22753906 480.85009766 C82.70855949 480.83861989 72.18983499 480.85269036 61.67088902 480.87949413 C52.61917652 480.90169033 43.56754385 480.90827962 34.51580608 480.90241772 C29.11864096 480.89905612 23.72163929 480.90141011 18.32449722 480.91866875 C13.24687776 480.93419818 8.1696345 480.93011597 3.09202957 480.9113636 C1.23617115 480.9076942 -0.61971551 480.91073769 -2.47554779 480.92124939 C-19.4718583 481.01011629 -31.87601348 477.97746795 -44.68701172 466.09155273 C-55.78611463 454.36419871 -57.38805832 441.44369273 -57.32469177 425.94485474 C-57.32886915 424.27835351 -57.33434887 422.61185512 -57.34101158 420.94536197 C-57.35543198 416.3848299 -57.35123213 411.82447908 -57.34384477 407.26393723 C-57.33910696 402.33812161 -57.35162838 397.41234485 -57.36186218 392.48654175 C-57.37904353 382.84377501 -57.37989156 373.20107345 -57.37464928 363.55829538 C-57.37060509 355.71919414 -57.3720541 347.88011214 -57.37739754 340.04101181 C-57.37814596 338.92458544 -57.37889438 337.80815908 -57.37966548 336.65790161 C-57.38119699 334.38975772 -57.38273533 332.12161383 -57.38428045 329.85346995 C-57.39800311 308.59125192 -57.39256946 287.3290707 -57.38109524 266.06685351 C-57.37116328 246.62424784 -57.38410333 227.18173735 -57.40802943 207.73914637 C-57.43242446 187.76466274 -57.44202729 167.79022343 -57.4353767 147.81572521 C-57.43188537 136.60589319 -57.43411094 125.39613437 -57.45162773 114.18631363 C-57.46635473 104.64361391 -57.46697857 95.10103892 -57.44955682 85.55834164 C-57.44104859 80.69201707 -57.43889303 75.82591527 -57.45420837 70.95960236 C-57.46807058 66.4997085 -57.46327263 62.04022794 -57.44396914 57.58035789 C-57.44021353 55.97211059 -57.44311839 54.36383005 -57.45358079 52.75561239 C-57.55107555 36.61391251 -53.7634268 24.65991168 -42.62451172 12.65405273 C-30.07719556 0.77891423 -16.337123 -0.04408839 0 0 Z " fill="#010102" transform="translate(72.93701171875,15.595947265625)"/>
<path d="M0 0 C1.91301877 -0.00570941 3.82603414 -0.01267587 5.73904419 -0.02079773 C10.91269594 -0.03868182 16.08617764 -0.03756961 21.25985098 -0.03185534 C25.58867577 -0.02875641 29.91746824 -0.03486383 34.24628842 -0.04089409 C44.46369901 -0.05492232 54.68102596 -0.05339238 64.8984375 -0.04199219 C75.41741707 -0.03051442 85.93614158 -0.04458489 96.45508754 -0.07138866 C105.50680005 -0.09358486 114.55843271 -0.10017415 123.61017048 -0.09431225 C129.0073356 -0.09095065 134.40433727 -0.09330464 139.80147934 -0.11056328 C144.8790988 -0.12609271 149.95634207 -0.1220105 155.03394699 -0.10325813 C156.88980541 -0.09958873 158.74569208 -0.10263222 160.60152435 -0.11314392 C177.59783486 -0.20201082 190.00199004 2.83063752 202.81298828 14.71655273 C213.08880668 25.57402123 215.54066178 37.54990118 215.35595703 52.06811523 C215.35171219 53.34133636 215.34746735 54.6145575 215.34309387 55.92636108 C215.32923743 59.27694368 215.30238569 62.62688794 215.26898193 65.97729492 C215.23804232 69.40985665 215.22453803 72.84248488 215.20947266 76.27514648 C215.17653904 82.98497765 215.12482668 89.69442822 215.06298828 96.40405273 C209.78298828 96.40405273 204.50298828 96.40405273 199.06298828 96.40405273 C199.06298828 91.12405273 199.06298828 85.84405273 199.06298828 80.40405273 C119.86298828 80.40405273 40.66298828 80.40405273 -40.93701172 80.40405273 C-40.93701172 186.00405273 -40.93701172 291.60405273 -40.93701172 400.40405273 C38.26298828 400.40405273 117.46298828 400.40405273 199.06298828 400.40405273 C199.06298828 384.56405273 199.06298828 368.72405273 199.06298828 352.40405273 C204.34298828 352.40405273 209.62298828 352.40405273 215.06298828 352.40405273 C215.15599569 363.93127706 215.22690869 375.45841094 215.27023697 386.98593521 C215.29104077 392.33963603 215.31922583 397.69307861 215.36474609 403.04663086 C215.40846201 408.22082784 215.43217948 413.39477767 215.44249725 418.5691452 C215.44984265 420.535356 215.46418555 422.50155449 215.48590851 424.467659 C215.67287565 442.10388759 213.12393941 454.81757357 200.75048828 468.15405273 C188.20317212 480.02919124 174.46309956 480.85219385 158.12597656 480.80810547 C156.21295779 480.81381488 154.29994242 480.82078134 152.38693237 480.8289032 C147.21328062 480.84678729 142.03979892 480.84567508 136.86612558 480.83996081 C132.53730079 480.83686187 128.20850833 480.8429693 123.87968814 480.84899956 C113.66227755 480.86302779 103.4449506 480.86149785 93.22753906 480.85009766 C82.70855949 480.83861989 72.18983499 480.85269036 61.67088902 480.87949413 C52.61917652 480.90169033 43.56754385 480.90827962 34.51580608 480.90241772 C29.11864096 480.89905612 23.72163929 480.90141011 18.32449722 480.91866875 C13.24687776 480.93419818 8.1696345 480.93011597 3.09202957 480.9113636 C1.23617115 480.9076942 -0.61971551 480.91073769 -2.47554779 480.92124939 C-19.4718583 481.01011629 -31.87601348 477.97746795 -44.68701172 466.09155273 C-55.78611463 454.36419871 -57.38805832 441.44369273 -57.32469177 425.94485474 C-57.32886915 424.27835351 -57.33434887 422.61185512 -57.34101158 420.94536197 C-57.35543198 416.3848299 -57.35123213 411.82447908 -57.34384477 407.26393723 C-57.33910696 402.33812161 -57.35162838 397.41234485 -57.36186218 392.48654175 C-57.37904353 382.84377501 -57.37989156 373.20107345 -57.37464928 363.55829538 C-57.37060509 355.71919414 -57.3720541 347.88011214 -57.37739754 340.04101181 C-57.37814596 338.92458544 -57.37889438 337.80815908 -57.37966548 336.65790161 C-57.38119699 334.38975772 -57.38273533 332.12161383 -57.38428045 329.85346995 C-57.39800311 308.59125192 -57.39256946 287.3290707 -57.38109524 266.06685351 C-57.37116328 246.62424784 -57.38410333 227.18173735 -57.40802943 207.73914637 C-57.43242446 187.76466274 -57.44202729 167.79022343 -57.4353767 147.81572521 C-57.43188537 136.60589319 -57.43411094 125.39613437 -57.45162773 114.18631363 C-57.46635473 104.64361391 -57.46697857 95.10103892 -57.44955682 85.55834164 C-57.44104859 80.69201707 -57.43889303 75.82591527 -57.45420837 70.95960236 C-57.46807058 66.4997085 -57.46327263 62.04022794 -57.44396914 57.58035789 C-57.44021353 55.97211059 -57.44311839 54.36383005 -57.45358079 52.75561239 C-57.55107555 36.61391251 -53.7634268 24.65991168 -42.62451172 12.65405273 C-30.07719556 0.77891423 -16.337123 -0.04408839 0 0 Z " fill="#000000" transform="translate(72.93701171875,15.595947265625)"/>
<path d="M0 0 C79.2 0 158.4 0 240 0 C240 5.28 240 10.56 240 16 C242.64 16 245.28 16 248 16 C248 21.28 248 26.56 248 32 C245.4425 32.20625 242.885 32.4125 240.25 32.625 C224.34063195 34.25925257 210.2401069 39.22846237 196.40625 47.14453125 C193.70599786 48.61542548 191.90836743 49.37501886 189 50 C188.35675781 49.23816406 187.71351563 48.47632813 187.05078125 47.69140625 C172.29640104 30.65390692 151.74558583 18.95986792 129.11230469 16.71337891 C103.39640627 15.04901443 80.69055906 22.38424296 61 39 C60.28585938 39.60070312 59.57171875 40.20140625 58.8359375 40.8203125 C43.50704855 54.92777603 33.73254846 76.94625824 32.6171875 97.56640625 C32.25918921 109.32962542 33.27385479 119.82156437 37 131 C37.350625 132.11375 37.70125 133.2275 38.0625 134.375 C41.55537679 144.46553294 47.41204992 152.88709799 53.48828125 161.55078125 C64.09075248 176.80537826 81.03345331 204.49922871 78 224 C77.17749756 224.70890381 76.35499512 225.41780762 75.50756836 226.14819336 C72.2579876 229.84387565 72.32262652 232.75296007 72.44140625 237.44140625 C72.44373764 238.24609848 72.44606903 239.05079071 72.44847107 239.87986755 C72.45818495 241.57521213 72.47991794 243.27052538 72.51293945 244.96557617 C72.56240684 247.55761866 72.57442575 250.14776208 72.58007812 252.74023438 C72.59416332 254.39064515 72.61036745 256.04103949 72.62890625 257.69140625 C72.63426895 258.46440567 72.63963165 259.23740509 72.64515686 260.03382874 C72.75000118 265.3323954 72.75000118 265.3323954 75 270 C78.14562313 271.57281156 81.51262031 271.14726686 84.96630859 271.14526367 C85.78922897 271.14862228 86.61214935 271.1519809 87.46000671 271.15544128 C90.18949886 271.16496615 92.91892975 271.16689522 95.6484375 271.16796875 C97.54171779 271.17118047 99.43499783 271.17454447 101.32827759 271.17805481 C105.30121435 271.18405007 109.27412934 271.18589432 113.24707031 271.18530273 C118.34051352 271.18520114 123.43381725 271.19884921 128.5272274 271.21607494 C132.43912396 271.22718865 136.35098676 271.22922213 140.26289749 271.22869301 C142.14078883 271.22987423 144.01868102 271.23430398 145.89655685 271.24202538 C148.52277157 271.25181172 151.14868285 271.2489525 153.77490234 271.24291992 C154.55219193 271.24853943 155.32948151 271.25415894 156.13032532 271.25994873 C161.40212779 271.27057327 161.40212779 271.27057327 166 269 C167.25996724 265.22009827 167.18178062 261.65845675 167.203125 257.71875 C167.20882507 256.9088562 167.21452515 256.0989624 167.22039795 255.26452637 C167.22983733 253.55315453 167.23637771 251.84176461 167.24023438 250.13037109 C167.24996372 247.50977118 167.28100579 244.88994792 167.3125 242.26953125 C167.31902799 240.60677549 167.32427926 238.94401413 167.328125 237.28125 C167.3466452 236.10459778 167.3466452 236.10459778 167.36553955 234.9041748 C167.39407518 230.71481031 167.39407518 230.71481031 165.60449219 227.04492188 C163.97314234 225.93933782 163.97314234 225.93933782 162 225 C162.11398665 223.37419034 162.24155659 221.74932843 162.375 220.125 C162.44460937 219.22007812 162.51421875 218.31515625 162.5859375 217.3828125 C163 215 163 215 165 213 C165.71542969 213.82242188 166.43085938 214.64484375 167.16796875 215.4921875 C188.96323308 240.10261173 215.63841122 251.34173344 248 255 C248 260.61 248 266.22 248 272 C245.36 272 242.72 272 240 272 C240 287.84 240 303.68 240 320 C160.8 320 81.6 320 0 320 C0 214.4 0 108.8 0 0 Z " fill="#7495CC" transform="translate(32,96)"/>
<path d="M0 0 C1.11632812 -0.01224609 2.23265625 -0.02449219 3.3828125 -0.03710938 C26.20901401 -0.07701532 47.29525676 9.05735661 64.25 24.1875 C65.06984375 24.91324219 65.8896875 25.63898438 66.734375 26.38671875 C83.60229987 42.23313885 94.59092551 65.12414153 95.59375 88.29296875 C96.24049176 115.86371543 89.1543678 141.40146425 69.82910156 161.68505859 C51.21337122 180.55330515 28.24071339 191.05650357 1.70727539 191.47973633 C-9.7999443 191.54598445 -19.88894202 191.32954323 -30.75 187.1875 C-31.79800781 186.80207031 -32.84601563 186.41664063 -33.92578125 186.01953125 C-59.52100691 175.97007162 -78.4698228 157.44834063 -89.46875 132.42578125 C-98.50966223 109.57542687 -99.41625524 81.91702813 -89.87304688 59.08984375 C-80.96052036 38.53994186 -66.14455147 22.20003842 -46.75 11.1875 C-45.75226563 10.61257812 -44.75453125 10.03765625 -43.7265625 9.4453125 C-30.00841998 2.05296224 -15.41843597 0.00878043 0 0 Z " fill="#A0B1C5" transform="translate(284.75,143.8125)"/>
<path d="M0 0 C0.88558594 -0.00773438 1.77117187 -0.01546875 2.68359375 -0.0234375 C19.06675105 0.0246775 34.81164326 6.77335299 46.75 18 C60.69515273 32.80068357 65.27201875 49.97324464 64.875 69.71875 C64.09152294 86.10461307 55.24218335 101.1440926 43.5 112.25 C28.26423025 124.89297263 10.40545002 128.64068719 -8.98632812 127.50439453 C-24.97690252 125.88607882 -38.72124302 115.95180302 -49.24609375 104.3203125 C-59.53980385 91.43312219 -65.22997307 73.73949014 -63.5 57.25 C-61.26695062 39.01704337 -52.58021547 24.63762244 -38.73828125 12.91015625 C-26.8311096 3.78868524 -14.86589005 -0.1298331 0 0 Z " fill="#ADCEF0" transform="translate(283.5,175.75)"/>
<path d="M0 0 C10.90472581 9.21808369 10.90472581 9.21808369 12.55078125 14.15625 C12.01710937 14.64351562 11.4834375 15.13078125 10.93359375 15.6328125 C2.33943368 23.81064648 -4.33638437 33.10929696 -9.94921875 43.53125 C-13.49383209 49.70180395 -17.63649071 53.15692442 -23.44921875 57.15625 C-25.03683233 58.28202484 -26.62403557 59.40837847 -28.2109375 60.53515625 C-29.93455529 61.74453198 -31.65983181 62.95154695 -33.38671875 64.15625 C-34.2281543 64.745271 -35.06958984 65.33429199 -35.93652344 65.94116211 C-36.73348633 66.48651611 -37.53044922 67.03187012 -38.3515625 67.59375 C-39.06820068 68.08746094 -39.78483887 68.58117187 -40.52319336 69.08984375 C-42.44921875 70.15625 -42.44921875 70.15625 -45.44921875 70.15625 C-47.69140625 68.57421875 -47.69140625 68.57421875 -50.32421875 66.34375 C-51.30132812 65.52261719 -52.2784375 64.70148438 -53.28515625 63.85546875 C-54.34016784 62.95610921 -55.39484855 62.05636139 -56.44921875 61.15625 C-57.52428063 60.24555169 -58.59980522 59.33539932 -59.67578125 58.42578125 C-61.31797176 57.03678327 -62.95974704 55.64731785 -64.59985352 54.25585938 C-72.37609631 47.66217885 -80.21438709 41.17310408 -88.44921875 35.15625 C-88.70445313 35.71828125 -88.9596875 36.2803125 -89.22265625 36.859375 C-90.60614656 39.45011482 -92.24860458 41.60732845 -94.07421875 43.90625 C-94.70585938 44.70546875 -95.3375 45.5046875 -95.98828125 46.328125 C-96.47039062 46.93140625 -96.9525 47.5346875 -97.44921875 48.15625 C-96.92457031 48.37152344 -96.39992188 48.58679688 -95.859375 48.80859375 C-92.5038422 50.68486411 -89.75841177 53.19120649 -86.88671875 55.71875 C-85.62715872 56.81348639 -84.36673341 57.90722798 -83.10546875 59 C-82.48414063 59.53882813 -81.8628125 60.07765625 -81.22265625 60.6328125 C-77.95564867 63.43927276 -74.60214259 66.13833185 -71.2578125 68.8515625 C-67.3878899 72.02715963 -63.57718749 75.27115114 -59.77514648 78.52758789 C-57.39576361 80.55605326 -55.05504852 82.41903015 -52.44921875 84.15625 C-52.16314931 87.14660306 -52.07122976 89.92890438 -52.10864258 92.92041016 C-52.10798546 94.28147133 -52.10798546 94.28147133 -52.10731506 95.67002869 C-52.10941036 98.67867314 -52.13277631 101.68676502 -52.15625 104.6953125 C-52.16184332 106.77753393 -52.16611466 108.8597593 -52.16911316 110.94198608 C-52.18058272 116.42971647 -52.21006808 121.91720969 -52.2432251 127.40484619 C-52.27388052 133.00163565 -52.2876088 138.59846333 -52.30273438 144.1953125 C-52.33493578 155.18241278 -52.38772095 166.16927459 -52.44921875 177.15625 C-58.38921875 177.15625 -64.32921875 177.15625 -70.44921875 177.15625 C-70.66835937 175.92132813 -70.8875 174.68640625 -71.11328125 173.4140625 C-76.18579564 145.88499009 -86.64582379 120.72563884 -103.76171875 98.40625 C-114.95836372 83.37796628 -118.14287475 64.48688065 -116.44921875 46.15625 C-113.9980841 31.84337444 -107.09615982 18.88798766 -97.44921875 8.15625 C-96.93101563 7.54523438 -96.4128125 6.93421875 -95.87890625 6.3046875 C-88.19211099 -2.15464999 -77.19936692 -8.25371907 -66.44921875 -11.84375 C-65.39734375 -12.235625 -64.34546875 -12.6275 -63.26171875 -13.03125 C-41.89999995 -19.20241321 -17.31978703 -13.34265075 0 0 Z " fill="#FDEB9F" transform="translate(196.44921875,142.84375)"/>
<path d="M0 0 C0.76169518 -0.00382555 1.52339036 -0.00765109 2.30816722 -0.01159257 C4.850515 -0.02187895 7.39263509 -0.01793872 9.93499756 -0.01396179 C11.76200061 -0.01831077 13.58900184 -0.02349454 15.41600037 -0.02944946 C20.37279057 -0.04283302 25.32950449 -0.04341867 30.28630924 -0.04088616 C34.42871613 -0.03981567 38.57110764 -0.044702 42.71351123 -0.04949158 C52.49063949 -0.06058529 62.26772933 -0.06102543 72.04486084 -0.05497742 C82.11841388 -0.04894161 92.19182711 -0.06123898 102.2653563 -0.08254749 C110.92374505 -0.10018658 119.5820894 -0.10616107 128.24049544 -0.10290974 C133.40736043 -0.10109988 138.57412576 -0.1037031 143.74097443 -0.11762428 C148.60343456 -0.13023497 153.46567759 -0.12822789 158.32813454 -0.11521339 C160.10742836 -0.11285484 161.8867376 -0.11555632 163.66601372 -0.12383652 C176.49964643 -0.17922809 188.18943285 0.33968674 198.246521 9.26069641 C208.94500481 21.81712303 207.246521 30.07348384 207.246521 48.26069641 C128.046521 48.26069641 48.846521 48.26069641 -32.753479 48.26069641 C-32.753479 18.74634763 -32.753479 18.74634763 -22.753479 8.26069641 C-15.67583536 2.52996521 -9.15673537 -0.04920492 0 0 Z " fill="#90A0B2" transform="translate(64.75347900390625,31.739303588867188)"/>
<path d="M0 0 C79.2 0 158.4 0 240 0 C240 26.01333333 240 26.01333333 235 34 C234.58878906 34.67933594 234.17757812 35.35867188 233.75390625 36.05859375 C229.14121986 42.42327972 221.26572269 45.57809244 214 48 C211.49910078 48.10185233 209.02578954 48.14781101 206.52462769 48.14717102 C205.75662311 48.15084771 204.98861853 48.1545244 204.19734108 48.1583125 C201.61576624 48.16935312 199.03423164 48.17319385 196.45263672 48.17700195 C194.60475028 48.1832664 192.75686511 48.18991319 190.90898132 48.19691467 C184.83255898 48.21796253 178.75613637 48.22831884 172.6796875 48.23828125 C170.58759676 48.24232876 168.49550615 48.24644568 166.40341568 48.25063133 C156.5731146 48.26968586 146.74282103 48.28391544 136.91250503 48.2922433 C125.5684753 48.30201226 114.22464088 48.32832184 102.88067997 48.36874419 C94.11112296 48.39891949 85.34162188 48.41371359 76.57201397 48.41702431 C71.33522259 48.41937351 66.09863979 48.42831684 60.86190414 48.45348549 C55.93215516 48.47679535 51.00275165 48.48098766 46.07296181 48.47072411 C44.26743863 48.47022932 42.46189829 48.47653289 40.65642738 48.49028015 C23.2722087 48.61519857 23.2722087 48.61519857 16 44 C14.80310547 43.33097656 14.80310547 43.33097656 13.58203125 42.6484375 C6.21053408 37.34356316 2.82948911 30.48846733 0 22 C0 14.74 0 7.48 0 0 Z " fill="#90A0B2" transform="translate(32,432)"/>
<path d="M0 0 C1.15113281 -0.01611328 2.30226563 -0.03222656 3.48828125 -0.04882812 C24.36797829 -0.06059797 43.73014704 9.00488554 58.75 23.3125 C66.52768819 31.65306451 72.36069361 40.78055016 76.75 51.3125 C77.183125 52.31667969 77.61625 53.32085937 78.0625 54.35546875 C80.96582628 62.47066893 81.12775734 70.38385912 81.1875 78.9375 C81.19773193 80.06953857 81.20796387 81.20157715 81.21850586 82.36791992 C81.00173097 103.22227038 72.23148654 121.59554214 57.75 136.3125 C56.98816406 137.08722656 56.22632813 137.86195313 55.44140625 138.66015625 C38.47004903 154.90695635 17.76077666 159.88419115 -5.1484375 159.58203125 C-25.13799137 158.96022931 -44.10187443 148.58748902 -57.99609375 134.53515625 C-75.46065086 114.73135861 -79.69389217 92.08476534 -78.25 66.3125 C-76.07135538 47.48332055 -64.37267699 29.90764343 -50.3359375 17.69921875 C-41.54971918 10.9038018 -31.98397639 5.35458142 -21.25 2.3125 C-20.09886719 1.95671875 -18.94773437 1.6009375 -17.76171875 1.234375 C-11.91420399 -0.19648012 -5.9858253 -0.01653543 0 0 Z M-21.25 19.3125 C-22.3534375 19.76496094 -23.456875 20.21742188 -24.59375 20.68359375 C-40.3309558 27.81665334 -52.46264597 40.34426511 -59.21875 56.3671875 C-65.58205281 74.54116598 -64.15543981 92.29090018 -56.1875 109.625 C-47.75457851 125.30158482 -33.3968497 136.38549661 -16.5703125 141.92578125 C-11.3647892 143.43852211 -6.52553317 143.81460698 -1.125 143.75 C-0.21556641 143.74170166 0.69386719 143.73340332 1.63085938 143.72485352 C19.09757962 143.29431418 34.43493473 137.4335905 47.1796875 125.171875 C61.90401294 108.79162239 65.76652951 90.76853368 64.75 69.3125 C63.08844751 54.0428326 53.88396505 40.43706712 42.75 30.3125 C25.65864335 16.89075816 -0.57196149 10.62398683 -21.25 19.3125 Z " fill="#020203" transform="translate(283.25,159.6875)"/>
<path d="M0 0 C3.40890785 1.47369277 5.62521822 3.37807411 8.23944092 5.99893188 C9.07794083 6.83468246 9.91644073 7.67043304 10.78034973 8.5315094 C11.69169174 9.45004196 12.60303375 10.36857452 13.54199219 11.31494141 C14.51750956 12.29102309 15.49346788 13.26666426 16.46983337 14.24189758 C19.11657103 16.8880615 21.75709755 19.54034587 24.3965559 22.19376802 C27.15697073 24.96668658 29.92305155 27.73394125 32.6885376 30.50180054 C37.92336137 35.74284012 43.15306606 40.98895703 48.38095307 46.23691499 C54.33345265 52.2117704 60.29163323 58.18094679 66.25029898 64.14965177 C78.50653378 76.42679086 90.75561142 88.71104648 103 101 C101.3413812 104.52344644 99.43342692 106.79901878 96.6484375 109.546875 C95.79765625 110.39121094 94.946875 111.23554688 94.0703125 112.10546875 C92.73613281 113.41451172 92.73613281 113.41451172 91.375 114.75 C90.4778125 115.63816406 89.580625 116.52632813 88.65625 117.44140625 C86.44192996 119.63216969 84.22307565 121.81812763 82 124 C78.59109215 122.52630723 76.37478178 120.62192589 73.76055908 118.00106812 C72.92205917 117.16531754 72.08355927 116.32956696 71.21965027 115.4684906 C69.85263725 114.09069176 69.85263725 114.09069176 68.45800781 112.68505859 C67.48249044 111.70897691 66.50653212 110.73333574 65.53016663 109.75810242 C62.88342897 107.1119385 60.24290245 104.45965413 57.6034441 101.80623198 C54.84302927 99.03331342 52.07694845 96.26605875 49.3114624 93.49819946 C44.07663863 88.25715988 38.84693394 83.01104297 33.61904693 77.76308501 C27.66654735 71.7882296 21.70836677 65.81905321 15.74970102 59.85034823 C3.49346622 47.57320914 -8.75561142 35.28895352 -21 23 C-19.73828669 19.21486007 -18.16132093 18.38855359 -15 16 C-9.03252676 11.2650245 -4.59061194 6.0641417 0 0 Z " fill="#90A0B2" transform="translate(373,307)"/>
<path d="M0 0 C52.8 0 105.6 0 160 0 C160 5.28 160 10.56 160 16 C107.2 16 54.4 16 0 16 C0 10.72 0 5.44 0 0 Z " fill="#000000" transform="translate(72,48)"/>
<path d="M0 0 C-0.0721875 0.59683594 -0.144375 1.19367188 -0.21875 1.80859375 C-2.67697935 24.78620974 -0.48081452 48.03837097 10 69 C9.4859855 76.17448413 8.01561703 83.05601404 6.4375 90.0625 C6.08655273 91.64708008 6.08655273 91.64708008 5.72851562 93.26367188 C5.15654355 95.84338268 4.57886089 98.42182623 4 101 C-1.94 101 -7.88 101 -14 101 C-14.27156218 89.16023721 -14.49150716 77.32255547 -14.62174606 65.48037815 C-14.68426866 59.98093672 -14.76899885 54.48374322 -14.90527344 48.9855957 C-15.03606804 43.67505418 -15.10749036 38.36666811 -15.13852692 33.05463982 C-15.16063003 31.03261312 -15.20379856 29.01069918 -15.26876068 26.98959541 C-15.74474379 11.56126933 -15.74474379 11.56126933 -12.7971344 7.23420334 C-9.4958592 3.81032264 -4.91846828 0 0 0 Z " fill="#FDEB9E" transform="translate(174,219)"/>
<path d="M0 0 C21.12 0 42.24 0 64 0 C64 5.28 64 10.56 64 16 C42.88 16 21.76 16 0 16 C0 10.72 0 5.44 0 0 Z " fill="#000000" transform="translate(120,448)"/>
<path d="M0 0 C21.12 0 42.24 0 64 0 C64 5.28 64 10.56 64 16 C42.88 16 21.76 16 0 16 C0 10.72 0 5.44 0 0 Z " fill="#000000" transform="translate(120,384)"/>
<path d="M0 0 C21.12 0 42.24 0 64 0 C64 5.28 64 10.56 64 16 C42.88 16 21.76 16 0 16 C0 10.72 0 5.44 0 0 Z " fill="#91A1B3" transform="translate(120,336)"/>
</svg>
