<?xml version="1.0" encoding="UTF-8"?>
<svg version="1.1" xmlns="http://www.w3.org/2000/svg" width="512" height="512">
<path d="M0 0 C1.02927612 -0.00137466 2.05855225 -0.00274933 3.11901855 -0.00416565 C4.81941788 0.00122726 4.81941788 0.00122726 6.5541687 0.00672913 C7.74439636 0.0065831 8.93462402 0.00643707 10.16091919 0.00628662 C13.42930857 0.00686493 16.69765544 0.01188878 19.96603632 0.01886058 C23.3800046 0.02510135 26.79397367 0.02569849 30.20794678 0.02688599 C36.6748439 0.02999716 43.14172416 0.03820768 49.60861385 0.04823548 C56.97006559 0.05940323 64.33151813 0.06490874 71.69297624 0.06993091 C86.83796019 0.08039046 101.98292737 0.09818664 117.12789917 0.12025452 C117.12789917 3.42025452 117.12789917 6.72025452 117.12789917 10.12025452 C124.05789917 10.12025452 130.98789917 10.12025452 138.12789917 10.12025452 C138.12789917 6.82025452 138.12789917 3.52025452 138.12789917 0.12025452 C180.69789917 0.12025452 223.26789917 0.12025452 267.12789917 0.12025452 C267.12789917 3.42025452 267.12789917 6.72025452 267.12789917 10.12025452 C273.72789917 10.12025452 280.32789917 10.12025452 287.12789917 10.12025452 C287.12789917 6.82025452 287.12789917 3.52025452 287.12789917 0.12025452 C306.12156658 0.02667525 325.11518699 -0.04379117 344.1090374 -0.08699417 C352.92887977 -0.10759024 361.74857862 -0.1356541 370.56832886 -0.1815033 C378.25861019 -0.22146181 385.94878754 -0.24719977 393.63916981 -0.25609946 C397.70851019 -0.26129901 401.77755319 -0.2734576 405.84679794 -0.30266571 C409.68324523 -0.32997767 413.51927489 -0.33815896 417.35581017 -0.33217621 C418.75778288 -0.33326944 420.15977072 -0.34112919 421.56165886 -0.35656738 C432.74718726 -0.47362194 441.91649304 1.0651437 450.30368042 8.92494202 C456.81025659 16.75512576 459.25096006 25.24378612 459.2572937 35.21791077 C459.25992218 36.26034439 459.25992218 36.26034439 459.26260376 37.32383728 C459.26698787 39.61016879 459.26409643 41.89642229 459.26071167 44.18275452 C459.2613857 45.77788813 459.26235655 47.37302164 459.26361084 48.96815491 C459.26508315 52.30695069 459.26294824 55.64571967 459.25827026 58.98451233 C459.25257326 63.25828179 459.25585476 67.53198845 459.26184273 71.80575562 C459.26546092 75.09832734 459.26430396 78.39088424 459.26171494 81.68345642 C459.26104915 83.25907906 459.26186189 84.83470305 459.26419449 86.4103241 C459.26674166 88.61445161 459.26285135 90.81847824 459.2572937 93.02259827 C459.25610031 94.90193054 459.25610031 94.90193054 459.25488281 96.81922913 C459.14332215 99.71932383 458.80133357 102.30502383 458.12789917 105.12025452 C459.57809448 105.17632874 459.57809448 105.17632874 461.05758667 105.23353577 C473.61500632 105.86762329 484.8521235 107.44732952 493.91696167 117.00697327 C499.84675315 124.44112071 501.57883099 131.63614794 501.54782104 140.94520569 C501.55629059 141.89419235 501.56476013 142.84317902 501.57348633 143.82092285 C501.59674947 146.93516189 501.59788145 150.04890419 501.59664917 153.16322327 C501.60375423 155.33699743 501.61145373 157.51076973 501.61972046 159.68453979 C501.63313851 164.22948939 501.6347447 168.77426531 501.62887573 173.31922913 C501.62296446 179.14356768 501.65364321 184.96707704 501.69399261 190.791255 C501.71982812 195.27539562 501.72275111 199.75933501 501.71910095 204.24353981 C501.72079427 206.39135647 501.73045703 208.53918222 501.74824524 210.68692589 C501.77036586 213.68634831 501.76076973 216.68407065 501.74313354 219.68348694 C501.76302841 221.01222839 501.76302841 221.01222839 501.7833252 222.36781311 C501.72257423 226.8116127 501.5749809 228.55946046 498.71444702 232.14755249 C494.48178783 235.37570671 491.22770762 235.32547573 486.05758667 235.43666077 C485.26135895 235.45744186 484.46513123 235.47822296 483.64477539 235.49963379 C481.09757232 235.56509601 478.55026492 235.62399867 476.00289917 235.68275452 C474.2776279 235.72594291 472.55236724 235.76955731 470.82711792 235.81361389 C466.59415232 235.92077396 462.36108164 236.02205075 458.12789917 236.12025452 C458.28990311 236.79729935 458.45190704 237.47434418 458.61882019 238.17190552 C459.20954101 241.59308615 459.26271979 244.82093881 459.27316284 248.2938385 C459.27820076 249.34849304 459.27820076 249.34849304 459.28334045 250.42445374 C459.29280492 252.73843677 459.29479117 255.05234711 459.29586792 257.36634827 C459.29908321 258.98150665 459.30244749 260.59666474 459.30595398 262.21182251 C459.31193367 265.59349747 459.31379503 268.97514691 459.3132019 272.35682678 C459.31310025 276.68210976 459.32676076 281.0072287 459.34397411 285.3324728 C459.35511123 288.66712185 459.3571206 292.00173143 459.35659218 295.33639717 C459.35776939 296.93073658 459.36217661 298.5250771 459.36992455 300.11939812 C459.37976078 302.35214 459.37683242 304.58452799 459.37081909 306.817276 C459.37224411 308.08570847 459.37366913 309.35414093 459.37513733 310.66101074 C459.12679623 314.13568639 458.38101025 316.88374823 457.12789917 320.12025452 C457.6866272 320.09930725 458.24535522 320.07835999 458.8210144 320.05677795 C461.4022859 319.97259158 463.98326741 319.92127759 466.56539917 319.87025452 C467.88314331 319.81998108 467.88314331 319.81998108 469.22750854 319.76869202 C478.23689291 319.63571217 486.52604769 322.8658689 493.12789917 329.12025452 C499.41331172 336.94081391 501.42853815 343.82324036 501.41842651 353.71815491 C501.42850235 355.14119682 501.42850235 355.14119682 501.43878174 356.59298706 C501.45772628 359.71801537 501.46168359 362.84282867 501.46383667 365.96791077 C501.47026503 368.14454232 501.47699342 370.321173 501.48400879 372.49780273 C501.49597121 377.05467229 501.49969047 381.61146607 501.49850464 386.16835022 C501.49830105 392.00831016 501.52564977 397.84778568 501.56004906 403.68763065 C501.58227537 408.18033077 501.58634355 412.67291329 501.58528519 417.16566277 C501.58764579 419.31905735 501.59649503 421.47245495 501.61194992 423.62579536 C501.63153127 426.63479368 501.62580343 429.64273354 501.61373901 432.65174866 C501.62497803 433.54071838 501.63621704 434.42968811 501.64779663 435.34559631 C501.60573609 439.47088735 501.46707969 441.58100176 499.22253418 445.14953613 C495.64294154 448.51736345 492.74112039 448.26446468 488.05371094 448.25447559 C486.94294928 448.25800394 486.94294928 448.25800394 485.80974799 448.26160356 C483.30266546 448.26831536 480.79563449 448.26783469 478.2885437 448.26742554 C476.48315635 448.27072283 474.67776974 448.27444811 472.87238407 448.27856702 C467.8909169 448.28861084 462.90946177 448.29230764 457.92798591 448.29495633 C452.56308461 448.29885243 447.19819292 448.30843136 441.83329773 448.31716919 C428.86548685 448.33695512 415.89767517 448.34700332 402.92985296 448.35589698 C396.82644442 448.36027713 390.72303676 448.36564471 384.61962891 448.37088585 C364.33518148 448.38790162 344.0507346 448.40239577 323.76628113 448.40963459 C318.49928792 448.41154456 313.23229471 448.41346488 307.96530151 448.41542053 C306.65617574 448.41590427 305.34704996 448.41638801 303.9982537 448.41688641 C282.79166945 448.42518652 261.58514162 448.45052156 240.378582 448.48300121 C218.61669045 448.51606014 196.85482757 448.53408237 175.09291077 448.53727883 C162.87026474 448.5394452 150.64770093 448.54821227 138.42507935 448.57374001 C128.01514158 448.5954312 117.605306 448.60350525 107.1953482 448.59377322 C101.88376666 448.58922373 96.572396 448.59115258 91.26084328 448.61053467 C86.39613426 448.62813282 81.5317905 448.62719568 76.66707778 448.61163738 C74.90922795 448.6092562 73.15135305 448.61361123 71.39354157 448.62546603 C59.36934363 448.70152045 49.14447689 447.92990747 39.95211792 439.31556702 C33.44554175 431.48538327 31.00483828 422.99672291 30.99850464 413.02259827 C30.99675232 412.32764252 30.995 411.63268677 30.99319458 410.91667175 C30.98881047 408.63034025 30.99170191 406.34408675 30.99508667 404.05775452 C30.99441264 402.4626209 30.99344179 400.86748739 30.9921875 399.27235413 C30.99071519 395.93355834 30.9928501 392.59478936 30.99752808 389.2559967 C31.00322508 384.98222724 30.99994358 380.70852058 30.99395561 376.43475342 C30.99033742 373.14218169 30.99149438 369.84962479 30.9940834 366.55705261 C30.99474919 364.98142998 30.99393645 363.40580599 30.99160385 361.83018494 C30.98905668 359.62605742 30.99294699 357.4220308 30.99850464 355.21791077 C30.99930023 353.96502258 31.00009583 352.7121344 31.00091553 351.42127991 C31.11247619 348.5211852 31.45446477 345.9354852 32.12789917 343.12025452 C31.12412231 343.10043518 30.12034546 343.08061584 29.08615112 343.06019592 C25.34924951 342.98391702 21.612726 342.89523466 17.87619019 342.8028717 C16.26135747 342.7646738 14.64644233 342.72980507 13.03146362 342.69837952 C10.705237 342.65252842 8.37957325 342.59456868 6.05368042 342.53431702 C5.33577835 342.52276581 4.61787628 342.5112146 3.8782196 342.49931335 C-1.45666917 342.34350233 -5.04746672 341.84787932 -8.97868347 338.12567139 C-11.60862981 333.95116382 -11.44869067 330.5883311 -11.42141724 325.7469635 C-11.4316391 324.80965897 -11.44186096 323.87235443 -11.45239258 322.90664673 C-11.48017655 319.80962007 -11.47827027 316.71348474 -11.47366333 313.61634827 C-11.48144144 311.45505444 -11.49011165 309.29376365 -11.49963379 307.13247681 C-11.51455915 302.59892381 -11.513978 298.06568222 -11.50344849 293.53211975 C-11.4918984 287.74744932 -11.5256223 281.96406786 -11.57213783 276.17961025 C-11.60174546 271.71230726 -11.6033374 267.24530924 -11.59711838 262.77792549 C-11.59813947 260.64705427 -11.60851429 258.51616478 -11.62874222 256.38538933 C-11.74568284 242.3359539 -11.09491889 232.34978531 -1.74710083 221.18275452 C8.00310601 212.53235409 19.78738907 212.27108297 32.12789917 212.12025452 C31.96589523 211.44320969 31.8038913 210.76616486 31.63697815 210.06860352 C31.04625733 206.64742288 30.99307855 203.41957022 30.9826355 199.94667053 C30.97927689 199.2435675 30.97591827 198.54046448 30.97245789 197.8160553 C30.96299342 195.50207227 30.96100717 193.18816192 30.95993042 190.87416077 C30.95671512 189.25900239 30.95335085 187.6438443 30.94984436 186.02868652 C30.94386467 182.64701156 30.94200331 179.26536212 30.94259644 175.88368225 C30.94269809 171.55839927 30.92903758 167.23328033 30.91182423 162.90803623 C30.90068711 159.57338718 30.89867774 156.23877761 30.89920616 152.90411186 C30.89802895 151.30977245 30.89362173 149.71543193 30.88587379 148.12111092 C30.87603756 145.88836904 30.87896592 143.65598104 30.88497925 141.42323303 C30.88355423 140.15480057 30.88212921 138.8863681 30.88066101 137.57949829 C31.12900211 134.10482264 31.87478809 131.3567608 33.12789917 128.12025452 C32.56917114 128.14120178 32.01044312 128.16214905 31.43478394 128.18373108 C28.85351244 128.26791745 26.27253093 128.31923145 23.69039917 128.37025452 C22.81190308 128.40377014 21.93340698 128.43728577 21.02828979 128.47181702 C12.01890543 128.60479686 3.72975065 125.37464013 -2.87210083 119.12025452 C-9.15751338 111.29969512 -11.17273981 104.41726868 -11.16262817 94.52235413 C-11.1693454 93.57365952 -11.17606262 92.6249649 -11.1829834 91.64752197 C-11.20192794 88.52249366 -11.20588525 85.39768036 -11.20803833 82.27259827 C-11.21446669 80.09596672 -11.22119508 77.91933604 -11.22821045 75.7427063 C-11.24017287 71.18583674 -11.24389213 66.62904296 -11.2427063 62.07215881 C-11.24250271 56.23219887 -11.26985143 50.39272335 -11.30425072 44.55287838 C-11.32647703 40.06017826 -11.33054521 35.56759574 -11.32948685 31.07484627 C-11.33184745 28.92145169 -11.34069669 26.76805408 -11.35615158 24.61471367 C-11.37573293 21.60571535 -11.37000509 18.59777549 -11.35794067 15.58876038 C-11.36917969 14.69979065 -11.3804187 13.81082092 -11.39199829 12.89491272 C-11.34993775 8.76962168 -11.21128135 6.65950728 -8.96673584 3.0909729 C-5.85290716 0.16135538 -4.1718591 -0.00428322 0 0 Z " fill="#A9C3D9" transform="translate(10.872100830078125,31.879745483398438)"/>
<path d="M0 0 C1.02927612 -0.00137466 2.05855225 -0.00274933 3.11901855 -0.00416565 C4.81941788 0.00122726 4.81941788 0.00122726 6.5541687 0.00672913 C7.74439636 0.0065831 8.93462402 0.00643707 10.16091919 0.00628662 C13.42930857 0.00686493 16.69765544 0.01188878 19.96603632 0.01886058 C23.3800046 0.02510135 26.79397367 0.02569849 30.20794678 0.02688599 C36.6748439 0.02999716 43.14172416 0.03820768 49.60861385 0.04823548 C56.97006559 0.05940323 64.33151813 0.06490874 71.69297624 0.06993091 C86.83796019 0.08039046 101.98292737 0.09818664 117.12789917 0.12025452 C117.12789917 7.05025452 117.12789917 13.98025452 117.12789917 21.12025452 C81.81789917 21.12025452 46.50789917 21.12025452 10.12789917 21.12025452 C10.25164917 33.55712952 10.37539917 45.99400452 10.50289917 58.80775452 C10.53689819 62.72996887 10.57089722 66.65218323 10.60592651 70.69325256 C10.64585019 74.21918496 10.64585019 74.21918496 10.68835449 77.74508667 C10.70600151 79.31149748 10.71982347 80.87795429 10.73059082 82.44442749 C10.74768333 84.82183682 10.7770368 87.19881598 10.80905151 89.57606506 C10.81122366 90.27007007 10.81339581 90.96407507 10.81563377 91.67911053 C10.89752393 96.41578131 11.51453563 100.15615978 14.56539917 103.87025452 C17.27935391 106.04141831 19.87026293 106.24854715 23.2091217 106.2784729 C24.03783279 106.28826172 24.86654388 106.29805054 25.72036743 106.30813599 C27.07874725 106.31676918 27.07874725 106.31676918 28.46456909 106.32557678 C29.89900108 106.34042618 29.89900108 106.34042618 31.3624115 106.35557556 C34.527705 106.38719838 37.69301352 106.41195116 40.85836792 106.43666077 C43.05126845 106.45722961 45.244165 106.47822607 47.4370575 106.49963379 C53.21232896 106.5548616 58.98763625 106.6042678 64.76296997 106.65248108 C70.65482781 106.70269089 76.54663355 106.75837967 82.43844604 106.81361389 C94.00155426 106.92120418 105.56470666 107.02214105 117.12789917 107.12025452 C117.12789917 114.05025452 117.12789917 120.98025452 117.12789917 128.12025452 C115.42738403 128.12960022 113.7268689 128.13894592 111.974823 128.14857483 C106.34677532 128.18414261 100.71909897 128.23796593 95.09132862 128.30415726 C91.6802412 128.34361215 88.26941113 128.37580983 84.85812378 128.39125061 C80.93339108 128.40933701 77.00937155 128.45929731 73.08493042 128.51087952 C71.86393143 128.51210815 70.64293243 128.51333679 69.38493347 128.51460266 C68.24412827 128.53432129 67.10332306 128.55403992 65.927948 128.57435608 C64.92645218 128.58323853 63.92495636 128.59212097 62.89311218 128.60127258 C59.38702496 129.2593036 57.68830074 130.68684392 55.12789917 133.12025452 C53.68287436 136.01030414 53.96855231 138.54047412 53.93502808 141.76966858 C53.92685059 142.45282639 53.9186731 143.13598419 53.9102478 143.83984375 C53.88539637 146.10518009 53.86887689 148.3704537 53.85446167 150.63587952 C53.84647615 151.79686283 53.84647615 151.79686283 53.83832932 152.98130035 C53.81159639 157.07952891 53.79222365 161.17772701 53.77780151 165.27601624 C53.76117009 169.50414961 53.71640645 173.73150101 53.66543007 177.95933914 C53.63172883 181.21421679 53.62022093 184.46890967 53.61457443 187.72394562 C53.6078678 189.28205579 53.59266078 190.84015406 53.56868362 192.39809418 C53.53696961 194.58379233 53.53700324 196.76739337 53.54440308 198.95326233 C53.53631622 200.19521362 53.52822937 201.43716492 53.51989746 202.7167511 C54.34394122 207.32962585 55.71944266 208.91897623 59.12789917 212.12025452 C61.49270213 213.00372335 61.49270213 213.00372335 64.00997925 212.89320374 C64.95057693 212.9127713 65.89117462 212.93233887 66.86027527 212.95249939 C67.86253647 212.94340546 68.86479767 212.93431152 69.89743042 212.92494202 C70.93356979 212.93864838 71.96970917 212.95235474 73.0372467 212.96647644 C76.33873848 213.00379444 79.63872631 213.0000601 82.94039917 212.99525452 C85.18195916 213.0133799 87.42349922 213.03418208 89.66500854 213.05775452 C95.15351849 213.11465132 100.63808703 213.11601036 106.12789917 213.12025452 C106.12789917 220.38025452 106.12789917 227.64025452 106.12789917 235.12025452 C103.45800903 235.1243634 100.7881189 235.12847229 98.037323 235.13270569 C89.21622024 235.14990268 80.39540747 235.19440351 71.57448292 235.25234509 C66.22626448 235.28663663 60.87833236 235.31172846 55.52999878 235.31581116 C50.36854463 235.32008942 45.20773659 235.34851322 40.04648399 235.39368629 C38.07735647 235.40667636 36.10815169 235.41096365 34.13898659 235.40640831 C31.38043063 235.40151305 28.62377088 235.42754626 25.865448 235.46083069 C25.05120865 235.45220505 24.2369693 235.44357941 23.39805603 235.43469238 C19.1285963 235.52105788 17.58672521 235.74868223 14.14430237 238.53646851 C-2.60691788 260.00120759 10.48147364 292.8950201 10.12789917 320.12025452 C119.35789917 320.12025452 228.58789917 320.12025452 341.12789917 320.12025452 C341.12789917 327.05025452 341.12789917 333.98025452 341.12789917 341.12025452 C338.97024505 341.12383705 338.97024505 341.12383705 336.76900196 341.12749195 C302.63668491 341.18483038 268.50443262 341.25754565 234.37219014 341.3492408 C230.17267743 341.3605092 225.97316439 341.37164761 221.77365112 341.38270569 C220.93759054 341.38490937 220.10152996 341.38711306 219.2401342 341.38938352 C205.69614879 341.42477257 192.15216344 341.44962762 178.60814891 341.47060154 C164.71458524 341.49235079 150.82108166 341.52539285 136.92756909 341.56895608 C128.35195346 341.59548792 119.77641272 341.61317199 111.20075806 341.61960056 C105.32307861 341.62484976 99.44549346 341.64105096 93.56786451 341.66592018 C90.17487762 341.6799513 86.78205962 341.68910003 83.3890419 341.68526268 C79.71218025 341.683619 76.03584433 341.7002326 72.35905457 341.7215271 C70.74670259 341.71425574 70.74670259 341.71425574 69.10177785 341.70683748 C62.09645074 341.70541242 62.09645074 341.70541242 56.12789917 345.12025452 C53.90305515 348.99922329 53.87494574 352.54784883 53.86911011 356.95838928 C53.86560547 357.62569061 53.86210083 358.29299194 53.85848999 358.98051453 C53.84972624 361.17433744 53.855502 363.36783488 53.86227417 365.56166077 C53.86092614 367.09192974 53.85898445 368.6221983 53.85647583 370.15246582 C53.85353197 373.35425406 53.85779901 376.55593047 53.86715698 379.75770569 C53.8785608 383.85900791 53.8719816 387.96004862 53.86001205 392.06134129 C53.85278173 395.21920743 53.8550866 398.37701166 53.86026764 401.53487968 C53.86160039 403.04713408 53.85996953 404.55939412 53.85530853 406.07164192 C53.8502229 408.18508406 53.85798134 410.29810358 53.86911011 412.41151428 C53.87070129 413.6133284 53.87229248 414.81514252 53.87393188 416.05337524 C54.12581866 419.09513058 54.33734772 420.67792093 56.12789917 423.12025452 C60.22057448 426.16343194 63.2421644 426.49747929 68.2868166 426.50501537 C69.00001439 426.51016528 69.71321219 426.51531519 70.44802204 426.52062115 C72.84420063 426.53426582 75.23983345 426.52654804 77.6360321 426.51898193 C79.36864321 426.5244198 81.10125061 426.53117069 82.83385199 426.53912383 C87.59985775 426.55719071 92.36570802 426.55658699 97.13173997 426.55299437 C102.26942183 426.55237173 107.40705096 426.56897925 112.54470825 426.58351135 C121.44768982 426.60632754 130.35063218 426.61818767 139.25364113 426.62264061 C152.12594297 426.62909462 164.99817384 426.65201881 177.87044712 426.6789839 C198.75402468 426.722283 219.63759926 426.75223192 240.52120972 426.77381897 C260.80963609 426.7948193 281.09803805 426.82208614 301.38644409 426.85780334 C302.63668162 426.86000217 303.88691915 426.86220099 305.17504267 426.86446645 C311.44701554 426.87553587 317.71898818 426.88672872 323.99096072 426.89798295 C376.03658527 426.99121227 428.08222368 427.06278974 480.12789917 427.12025452 C480.06666651 417.1668729 479.98954471 407.21375304 479.89218426 397.2606554 C479.8474731 392.6389217 479.80821862 388.0172763 479.78146362 383.395401 C479.75543807 378.93430243 479.715041 374.47354353 479.66471291 370.01265526 C479.64803912 368.3114768 479.63652802 366.61023958 479.63028526 364.90899086 C479.6206496 362.52437938 479.59259783 360.14063786 479.56027222 357.75624084 C479.56242485 356.70319511 479.56242485 356.70319511 479.56462097 355.62887573 C479.45934646 350.13126291 477.97432565 346.96668099 474.12789917 343.12025452 C470.08697622 341.80572541 465.98715337 341.94559682 461.77926636 341.91493225 C460.93987518 341.90503265 460.10048401 341.89513306 459.23565674 341.88493347 C456.46539109 341.85338453 453.69510831 341.82858716 450.92477417 341.80384827 C449.00234536 341.78327304 447.07992101 341.76227641 445.15750122 341.74087524 C440.10067362 341.68571336 435.0438056 341.63627813 429.98690796 341.58802795 C424.82553514 341.53776998 419.66422096 341.48210634 414.50289917 341.42689514 C404.37794742 341.31938551 394.25294579 341.21842416 384.12789917 341.12025452 C384.12789917 334.19025452 384.12789917 327.26025452 384.12789917 320.12025452 C387.31832886 320.0828717 390.50875854 320.04548889 393.79586792 320.00697327 C396.89041956 319.96074422 399.9848509 319.90951549 403.07931519 319.85780334 C405.22767815 319.82457706 407.37612792 319.79653799 409.52462769 319.77381897 C412.61541693 319.7402312 415.70541229 319.68791231 418.79586792 319.63197327 C420.23363838 319.62238838 420.23363838 319.62238838 421.70045471 319.61260986 C428.42685497 319.4839165 428.42685497 319.4839165 434.12789917 316.12025452 C436.42802229 312.61129645 436.38671508 309.54389438 436.40255737 305.41151428 C436.4076683 304.74596527 436.41277924 304.08041626 436.41804504 303.3946991 C436.4319158 301.20026086 436.43098624 299.00613757 436.42868042 296.81166077 C436.43256873 295.28235762 436.43690368 293.75305556 436.44166565 292.22375488 C436.44912242 289.02019244 436.44884054 285.81674021 436.443573 282.61317444 C436.43777889 278.5129779 436.45471022 274.41323316 436.47791767 270.31311131 C436.4926675 267.15519586 436.49352503 263.99738891 436.49040794 260.83944511 C436.49092052 259.32800845 436.49614644 257.81656561 436.50621986 256.30516243 C436.51859176 254.18927487 436.51178913 252.07426338 436.50021362 249.95838928 C436.50084305 248.75577957 436.50147247 247.55316986 436.50212097 246.31411743 C435.97703893 241.83271082 434.27426803 239.26662337 431.12789917 236.12025452 C428.53530913 235.80491403 428.53530913 235.80491403 425.45855713 235.84178162 C423.64959709 235.82503639 423.64959709 235.82503639 421.80409241 235.80795288 C420.46069367 235.8055877 419.11729459 235.80341209 417.77389526 235.80140686 C416.3647453 235.79211263 414.95560086 235.78194472 413.54646301 235.77096558 C409.7140708 235.74359435 405.88171549 235.72849519 402.04925108 235.71553755 C398.04666616 235.69993804 394.04415696 235.67313776 390.04162598 235.64750671 C382.45916238 235.60066242 374.87668463 235.56394574 367.29414999 235.53083384 C358.66302406 235.49265228 350.03197405 235.4432318 341.40091205 235.39284968 C323.64329572 235.28944583 305.88563371 235.20061169 288.12789917 235.12025452 C288.12789917 227.86025452 288.12789917 220.60025452 288.12789917 213.12025452 C351.15789917 213.12025452 414.18789917 213.12025452 479.12789917 213.12025452 C486.2518667 167.56233005 486.2518667 167.56233005 474.12789917 130.12025452 C470.90183254 128.5072212 467.36891629 128.93995447 463.82272339 128.91493225 C462.96411713 128.90503265 462.10551086 128.89513306 461.22088623 128.88493347 C458.3748147 128.85327413 455.52872646 128.82854354 452.68258667 128.80384827 C450.71245889 128.78328257 448.74233557 128.7622862 446.7722168 128.74087524 C441.58055215 128.68561491 436.38884743 128.63622312 431.19711304 128.58802795 C425.90186994 128.53784183 420.60668522 128.48214071 415.31149292 128.42689514 C404.91700963 128.3192651 394.5224769 128.21834037 384.12789917 128.12025452 C384.12789917 121.19025452 384.12789917 114.26025452 384.12789917 107.12025452 C387.31832886 107.0828717 390.50875854 107.04548889 393.79586792 107.00697327 C396.89041956 106.96074422 399.9848509 106.90951549 403.07931519 106.85780334 C405.22767815 106.82457706 407.37612792 106.79653799 409.52462769 106.77381897 C412.61541693 106.7402312 415.70541229 106.68791231 418.79586792 106.63197327 C420.23363838 106.62238838 420.23363838 106.62238838 421.70045471 106.61260986 C428.42685497 106.4839165 428.42685497 106.4839165 434.12789917 103.12025452 C436.43150736 99.60912692 436.38121296 96.54695573 436.38668823 92.41151428 C436.39019287 91.74596527 436.39369751 91.08041626 436.39730835 90.3946991 C436.40609217 88.20024607 436.40028785 86.00611694 436.39352417 83.81166077 C436.39487195 82.28235818 436.39681342 80.75305601 436.39932251 79.22375488 C436.40226936 76.02018653 436.39799087 72.8167298 436.38864136 69.61317444 C436.37725668 65.5130628 436.38380273 61.41321329 436.39578629 57.31311131 C436.40302499 54.15520261 436.40070756 50.9973557 436.3955307 47.83944511 C436.39419926 46.32801724 436.39582417 44.81658369 436.40048981 43.30516243 C436.40558711 41.18942103 436.39779985 39.07409954 436.38668823 36.95838928 C436.38509705 35.75577957 436.38350586 34.55316986 436.38186646 33.31411743 C436.12261549 30.05380756 435.75316931 27.95387884 434.12789917 25.12025452 C430.3990697 22.39170755 427.75676733 21.74193247 423.17372131 21.7215271 C421.98045227 21.70898895 420.78718323 21.69645081 419.55775452 21.68353271 C418.25727676 21.6849678 416.95679901 21.68640289 415.61691284 21.68788147 C414.22702158 21.67886074 412.83713829 21.66853275 411.44726562 21.65699768 C407.68113183 21.62943781 403.91514902 21.62014459 400.14892745 21.61414361 C396.21040481 21.60475727 392.27199485 21.57855368 388.33354187 21.55413818 C380.87866962 21.51047661 373.42381925 21.48192757 365.96885806 21.4588148 C357.4803261 21.43176128 348.99190749 21.38784987 340.50345647 21.34252608 C323.04499574 21.24968471 305.58651052 21.17800167 288.12789917 21.12025452 C287.379842 14.09386037 286.98994963 7.18633642 287.12789917 0.12025452 C306.12156658 0.02667525 325.11518699 -0.04379117 344.1090374 -0.08699417 C352.92887977 -0.10759024 361.74857862 -0.1356541 370.56832886 -0.1815033 C378.25861019 -0.22146181 385.94878754 -0.24719977 393.63916981 -0.25609946 C397.70851019 -0.26129901 401.77755319 -0.2734576 405.84679794 -0.30266571 C409.68324523 -0.32997767 413.51927489 -0.33815896 417.35581017 -0.33217621 C418.75778288 -0.33326944 420.15977072 -0.34112919 421.56165886 -0.35656738 C432.74718726 -0.47362194 441.91649304 1.0651437 450.30368042 8.92494202 C456.81025659 16.75512576 459.25096006 25.24378612 459.2572937 35.21791077 C459.25992218 36.26034439 459.25992218 36.26034439 459.26260376 37.32383728 C459.26698787 39.61016879 459.26409643 41.89642229 459.26071167 44.18275452 C459.2613857 45.77788813 459.26235655 47.37302164 459.26361084 48.96815491 C459.26508315 52.30695069 459.26294824 55.64571967 459.25827026 58.98451233 C459.25257326 63.25828179 459.25585476 67.53198845 459.26184273 71.80575562 C459.26546092 75.09832734 459.26430396 78.39088424 459.26171494 81.68345642 C459.26104915 83.25907906 459.26186189 84.83470305 459.26419449 86.4103241 C459.26674166 88.61445161 459.26285135 90.81847824 459.2572937 93.02259827 C459.25610031 94.90193054 459.25610031 94.90193054 459.25488281 96.81922913 C459.14332215 99.71932383 458.80133357 102.30502383 458.12789917 105.12025452 C459.57809448 105.17632874 459.57809448 105.17632874 461.05758667 105.23353577 C473.61500632 105.86762329 484.8521235 107.44732952 493.91696167 117.00697327 C499.84675315 124.44112071 501.57883099 131.63614794 501.54782104 140.94520569 C501.55629059 141.89419235 501.56476013 142.84317902 501.57348633 143.82092285 C501.59674947 146.93516189 501.59788145 150.04890419 501.59664917 153.16322327 C501.60375423 155.33699743 501.61145373 157.51076973 501.61972046 159.68453979 C501.63313851 164.22948939 501.6347447 168.77426531 501.62887573 173.31922913 C501.62296446 179.14356768 501.65364321 184.96707704 501.69399261 190.791255 C501.71982812 195.27539562 501.72275111 199.75933501 501.71910095 204.24353981 C501.72079427 206.39135647 501.73045703 208.53918222 501.74824524 210.68692589 C501.77036586 213.68634831 501.76076973 216.68407065 501.74313354 219.68348694 C501.76302841 221.01222839 501.76302841 221.01222839 501.7833252 222.36781311 C501.72257423 226.8116127 501.5749809 228.55946046 498.71444702 232.14755249 C494.48178783 235.37570671 491.22770762 235.32547573 486.05758667 235.43666077 C485.26135895 235.45744186 484.46513123 235.47822296 483.64477539 235.49963379 C481.09757232 235.56509601 478.55026492 235.62399867 476.00289917 235.68275452 C474.2776279 235.72594291 472.55236724 235.76955731 470.82711792 235.81361389 C466.59415232 235.92077396 462.36108164 236.02205075 458.12789917 236.12025452 C458.28990311 236.79729935 458.45190704 237.47434418 458.61882019 238.17190552 C459.20954101 241.59308615 459.26271979 244.82093881 459.27316284 248.2938385 C459.27820076 249.34849304 459.27820076 249.34849304 459.28334045 250.42445374 C459.29280492 252.73843677 459.29479117 255.05234711 459.29586792 257.36634827 C459.29908321 258.98150665 459.30244749 260.59666474 459.30595398 262.21182251 C459.31193367 265.59349747 459.31379503 268.97514691 459.3132019 272.35682678 C459.31310025 276.68210976 459.32676076 281.0072287 459.34397411 285.3324728 C459.35511123 288.66712185 459.3571206 292.00173143 459.35659218 295.33639717 C459.35776939 296.93073658 459.36217661 298.5250771 459.36992455 300.11939812 C459.37976078 302.35214 459.37683242 304.58452799 459.37081909 306.817276 C459.37224411 308.08570847 459.37366913 309.35414093 459.37513733 310.66101074 C459.12679623 314.13568639 458.38101025 316.88374823 457.12789917 320.12025452 C457.6866272 320.09930725 458.24535522 320.07835999 458.8210144 320.05677795 C461.4022859 319.97259158 463.98326741 319.92127759 466.56539917 319.87025452 C467.88314331 319.81998108 467.88314331 319.81998108 469.22750854 319.76869202 C478.23689291 319.63571217 486.52604769 322.8658689 493.12789917 329.12025452 C499.41331172 336.94081391 501.42853815 343.82324036 501.41842651 353.71815491 C501.42850235 355.14119682 501.42850235 355.14119682 501.43878174 356.59298706 C501.45772628 359.71801537 501.46168359 362.84282867 501.46383667 365.96791077 C501.47026503 368.14454232 501.47699342 370.321173 501.48400879 372.49780273 C501.49597121 377.05467229 501.49969047 381.61146607 501.49850464 386.16835022 C501.49830105 392.00831016 501.52564977 397.84778568 501.56004906 403.68763065 C501.58227537 408.18033077 501.58634355 412.67291329 501.58528519 417.16566277 C501.58764579 419.31905735 501.59649503 421.47245495 501.61194992 423.62579536 C501.63153127 426.63479368 501.62580343 429.64273354 501.61373901 432.65174866 C501.62497803 433.54071838 501.63621704 434.42968811 501.64779663 435.34559631 C501.60573609 439.47088735 501.46707969 441.58100176 499.22253418 445.14953613 C495.64294154 448.51736345 492.74112039 448.26446468 488.05371094 448.25447559 C486.94294928 448.25800394 486.94294928 448.25800394 485.80974799 448.26160356 C483.30266546 448.26831536 480.79563449 448.26783469 478.2885437 448.26742554 C476.48315635 448.27072283 474.67776974 448.27444811 472.87238407 448.27856702 C467.8909169 448.28861084 462.90946177 448.29230764 457.92798591 448.29495633 C452.56308461 448.29885243 447.19819292 448.30843136 441.83329773 448.31716919 C428.86548685 448.33695512 415.89767517 448.34700332 402.92985296 448.35589698 C396.82644442 448.36027713 390.72303676 448.36564471 384.61962891 448.37088585 C364.33518148 448.38790162 344.0507346 448.40239577 323.76628113 448.40963459 C318.49928792 448.41154456 313.23229471 448.41346488 307.96530151 448.41542053 C306.65617574 448.41590427 305.34704996 448.41638801 303.9982537 448.41688641 C282.79166945 448.42518652 261.58514162 448.45052156 240.378582 448.48300121 C218.61669045 448.51606014 196.85482757 448.53408237 175.09291077 448.53727883 C162.87026474 448.5394452 150.64770093 448.54821227 138.42507935 448.57374001 C128.01514158 448.5954312 117.605306 448.60350525 107.1953482 448.59377322 C101.88376666 448.58922373 96.572396 448.59115258 91.26084328 448.61053467 C86.39613426 448.62813282 81.5317905 448.62719568 76.66707778 448.61163738 C74.90922795 448.6092562 73.15135305 448.61361123 71.39354157 448.62546603 C59.36934363 448.70152045 49.14447689 447.92990747 39.95211792 439.31556702 C33.44554175 431.48538327 31.00483828 422.99672291 30.99850464 413.02259827 C30.99675232 412.32764252 30.995 411.63268677 30.99319458 410.91667175 C30.98881047 408.63034025 30.99170191 406.34408675 30.99508667 404.05775452 C30.99441264 402.4626209 30.99344179 400.86748739 30.9921875 399.27235413 C30.99071519 395.93355834 30.9928501 392.59478936 30.99752808 389.2559967 C31.00322508 384.98222724 30.99994358 380.70852058 30.99395561 376.43475342 C30.99033742 373.14218169 30.99149438 369.84962479 30.9940834 366.55705261 C30.99474919 364.98142998 30.99393645 363.40580599 30.99160385 361.83018494 C30.98905668 359.62605742 30.99294699 357.4220308 30.99850464 355.21791077 C30.99930023 353.96502258 31.00009583 352.7121344 31.00091553 351.42127991 C31.11247619 348.5211852 31.45446477 345.9354852 32.12789917 343.12025452 C31.12412231 343.10043518 30.12034546 343.08061584 29.08615112 343.06019592 C25.34924951 342.98391702 21.612726 342.89523466 17.87619019 342.8028717 C16.26135747 342.7646738 14.64644233 342.72980507 13.03146362 342.69837952 C10.705237 342.65252842 8.37957325 342.59456868 6.05368042 342.53431702 C5.33577835 342.52276581 4.61787628 342.5112146 3.8782196 342.49931335 C-1.45666917 342.34350233 -5.04746672 341.84787932 -8.97868347 338.12567139 C-11.60862981 333.95116382 -11.44869067 330.5883311 -11.42141724 325.7469635 C-11.4316391 324.80965897 -11.44186096 323.87235443 -11.45239258 322.90664673 C-11.48017655 319.80962007 -11.47827027 316.71348474 -11.47366333 313.61634827 C-11.48144144 311.45505444 -11.49011165 309.29376365 -11.49963379 307.13247681 C-11.51455915 302.59892381 -11.513978 298.06568222 -11.50344849 293.53211975 C-11.4918984 287.74744932 -11.5256223 281.96406786 -11.57213783 276.17961025 C-11.60174546 271.71230726 -11.6033374 267.24530924 -11.59711838 262.77792549 C-11.59813947 260.64705427 -11.60851429 258.51616478 -11.62874222 256.38538933 C-11.74568284 242.3359539 -11.09491889 232.34978531 -1.74710083 221.18275452 C8.00310601 212.53235409 19.78738907 212.27108297 32.12789917 212.12025452 C31.96589523 211.44320969 31.8038913 210.76616486 31.63697815 210.06860352 C31.04625733 206.64742288 30.99307855 203.41957022 30.9826355 199.94667053 C30.97927689 199.2435675 30.97591827 198.54046448 30.97245789 197.8160553 C30.96299342 195.50207227 30.96100717 193.18816192 30.95993042 190.87416077 C30.95671512 189.25900239 30.95335085 187.6438443 30.94984436 186.02868652 C30.94386467 182.64701156 30.94200331 179.26536212 30.94259644 175.88368225 C30.94269809 171.55839927 30.92903758 167.23328033 30.91182423 162.90803623 C30.90068711 159.57338718 30.89867774 156.23877761 30.89920616 152.90411186 C30.89802895 151.30977245 30.89362173 149.71543193 30.88587379 148.12111092 C30.87603756 145.88836904 30.87896592 143.65598104 30.88497925 141.42323303 C30.88355423 140.15480057 30.88212921 138.8863681 30.88066101 137.57949829 C31.12900211 134.10482264 31.87478809 131.3567608 33.12789917 128.12025452 C32.56917114 128.14120178 32.01044312 128.16214905 31.43478394 128.18373108 C28.85351244 128.26791745 26.27253093 128.31923145 23.69039917 128.37025452 C22.81190308 128.40377014 21.93340698 128.43728577 21.02828979 128.47181702 C12.01890543 128.60479686 3.72975065 125.37464013 -2.87210083 119.12025452 C-9.15751338 111.29969512 -11.17273981 104.41726868 -11.16262817 94.52235413 C-11.1693454 93.57365952 -11.17606262 92.6249649 -11.1829834 91.64752197 C-11.20192794 88.52249366 -11.20588525 85.39768036 -11.20803833 82.27259827 C-11.21446669 80.09596672 -11.22119508 77.91933604 -11.22821045 75.7427063 C-11.24017287 71.18583674 -11.24389213 66.62904296 -11.2427063 62.07215881 C-11.24250271 56.23219887 -11.26985143 50.39272335 -11.30425072 44.55287838 C-11.32647703 40.06017826 -11.33054521 35.56759574 -11.32948685 31.07484627 C-11.33184745 28.92145169 -11.34069669 26.76805408 -11.35615158 24.61471367 C-11.37573293 21.60571535 -11.37000509 18.59777549 -11.35794067 15.58876038 C-11.36917969 14.69979065 -11.3804187 13.81082092 -11.39199829 12.89491272 C-11.34993775 8.76962168 -11.21128135 6.65950728 -8.96673584 3.0909729 C-5.85290716 0.16135538 -4.1718591 -0.00428322 0 0 Z " fill="#4C5B66" transform="translate(10.872100830078125,31.879745483398438)"/>
<path d="M0 0 C14.19 0 28.38 0 43 0 C43 3.3 43 6.6 43 10 C44.06631149 9.99555878 45.13262299 9.99111755 46.23124695 9.98654175 C56.28080307 9.94599627 66.3303426 9.91601586 76.37996197 9.89637566 C81.54655555 9.88593901 86.71308309 9.87178187 91.87963867 9.84912109 C96.86575278 9.82738863 101.85180338 9.81543048 106.8379612 9.81024551 C108.74015109 9.8065505 110.64233751 9.79933509 112.54450035 9.78853989 C115.2090239 9.77401968 117.87328504 9.77202229 120.5378418 9.77294922 C121.7171225 9.76216339 121.7171225 9.76216339 122.92022705 9.75115967 C128.37021473 9.77167165 132.08731191 10.35296304 136.25 13.9375 C139.4922365 17.75870731 139.13760396 21.65908345 139.11352539 26.40893555 C139.11367142 27.16039856 139.11381744 27.91186157 139.1139679 28.68609619 C139.11327129 31.16966642 139.10549067 33.65316163 139.09765625 36.13671875 C139.09579118 37.85878966 139.09436769 39.58086111 139.09336853 41.30293274 C139.0895504 45.83539291 139.07972611 50.36782104 139.06866455 54.90026855 C139.05843531 59.52530484 139.05386766 64.15034629 139.04882812 68.77539062 C139.03810323 77.8502745 139.02103523 86.92513458 139 96 C85.7240253 96.09150593 32.44805852 96.16201351 -20.82797927 96.20426132 C-27.11416079 96.20926429 -33.40034215 96.21444157 -39.68652344 96.21972656 C-40.93801716 96.2207758 -42.18951089 96.22182505 -43.47892867 96.22290608 C-63.75715954 96.24032308 -84.03534517 96.27186791 -104.31354918 96.30861118 C-125.11258357 96.34598457 -145.91159422 96.36822822 -166.71066082 96.37635398 C-179.55032659 96.38184922 -192.3898645 96.39922092 -205.22949092 96.43166587 C-214.02771965 96.45276927 -222.82588204 96.45920952 -231.62413426 96.45400551 C-236.70433381 96.45143723 -241.78430952 96.45544261 -246.86446953 96.4768219 C-251.51316516 96.49624304 -256.16148576 96.49729892 -260.81019841 96.48359558 C-262.49401622 96.48190118 -264.17785714 96.48701294 -265.86162926 96.49953273 C-268.14755844 96.51554479 -270.43212717 96.50696041 -272.71803474 96.49219131 C-273.98857897 96.4937102 -275.25912319 96.49522908 -276.56816876 96.49679399 C-280.63627178 95.90789291 -282.80329748 94.53295965 -286 92 C-288.47601792 88.65989253 -288.25902236 85.37542255 -288.2746582 81.30712891 C-288.27976913 80.64318619 -288.28488007 79.97924347 -288.29014587 79.29518127 C-288.3040184 77.10554935 -288.3030867 74.91623309 -288.30078125 72.7265625 C-288.30466993 71.19965499 -288.30900496 69.67274855 -288.31376648 68.14584351 C-288.32122398 64.94647719 -288.32094118 61.74722122 -288.31567383 58.54785156 C-288.30988464 54.45672094 -288.3267988 50.36604385 -288.3500185 46.27498817 C-288.36478361 43.12132139 -288.3656237 39.96776307 -288.36250877 36.81406784 C-288.36302075 35.30624876 -288.3682353 33.79842341 -288.37832069 32.29063797 C-288.39072002 30.17734988 -288.38387321 28.06493529 -288.37231445 25.95166016 C-288.37294388 24.75127106 -288.3735733 23.55088196 -288.3742218 22.31411743 C-287.85372288 17.7045662 -286.65138847 14.4262636 -283.09012032 11.35048389 C-278.37426088 9.2894987 -273.86105088 9.59783882 -268.7688446 9.63923645 C-267.62117782 9.63667318 -266.47351103 9.6341099 -265.29106647 9.63146895 C-262.10978577 9.62738303 -258.92887208 9.63675416 -255.74763477 9.65180314 C-252.31551626 9.66476156 -248.88341478 9.66037418 -245.45127869 9.65809631 C-239.50630835 9.65652345 -233.56143681 9.66593394 -227.61649132 9.68280983 C-219.0211205 9.70719358 -210.42579745 9.71500446 -201.8303958 9.7187738 C-187.88486895 9.72533927 -173.93939475 9.74530301 -159.99389648 9.77368164 C-146.44734968 9.80121975 -132.90081719 9.82245454 -119.35424805 9.83520508 C-118.10168033 9.83638733 -118.10168033 9.83638733 -116.82380822 9.83759347 C-112.63462153 9.84150859 -108.44543474 9.84529972 -104.25624788 9.84902918 C-69.50412735 9.88012805 -34.75206939 9.93318949 0 10 C0 6.7 0 3.4 0 0 Z " fill="#FBE152" transform="translate(352,363)"/>
<path d="M0 0 C7.26 0 14.52 0 22 0 C22 3.63 22 7.26 22 11 C23.75313507 10.99111755 25.50627014 10.98223511 27.31253052 10.9730835 C43.82214469 10.89204917 60.33171069 10.83181887 76.84147835 10.79275131 C85.32962154 10.77213143 93.81761621 10.7440219 102.30566406 10.69824219 C109.70438451 10.65835673 117.10299738 10.63256301 124.50182235 10.62364602 C128.41901522 10.61843412 132.33590036 10.60619656 136.25299454 10.57707977 C139.94169418 10.54988345 143.62996 10.54156337 147.31875038 10.54756927 C149.31436832 10.54594809 151.30993926 10.52444735 153.30543518 10.50231934 C164.57492046 10.55419006 164.57492046 10.55419006 169 15 C171.25316452 18.85575302 171.25773435 22.41592417 171.2746582 26.82226562 C171.27976913 27.48796066 171.28488007 28.1536557 171.29014587 28.83952332 C171.30398665 31.02852498 171.30308961 33.21720992 171.30078125 35.40625 C171.30467068 36.9341239 171.30900586 38.46199673 171.31376648 39.98986816 C171.3212164 43.18745433 171.32094596 46.38493005 171.31567383 49.58251953 C171.30987489 53.67484038 171.32682603 57.76670926 171.3500185 61.85895538 C171.36476647 65.01257966 171.36562622 68.16609527 171.36250877 71.31974792 C171.36302126 72.82839352 171.36824537 74.33704531 171.37832069 75.84565735 C171.39069158 77.95664692 171.38389103 80.06675831 171.37231445 82.17773438 C171.37294388 83.37732788 171.3735733 84.57692139 171.3742218 85.81286621 C170.85344986 90.24812321 169.2863531 92.8696151 165.95825195 95.79418945 C161.54039447 97.59494856 157.39187949 97.36927894 152.66796875 97.29296875 C151.67622147 97.28872391 150.68447418 97.28447906 149.66267395 97.28010559 C146.50400315 97.26335123 143.34597703 97.22570448 140.1875 97.1875 C138.04232694 97.17244899 135.89714385 97.15876132 133.75195312 97.14648438 C128.50085562 97.11601379 123.251147 97.05728524 118 97 C118 103.93 118 110.86 118 118 C121.95939575 117.97643433 121.95939575 117.97643433 125.9987793 117.95239258 C134.71990434 117.90268377 143.44103564 117.86954582 152.16226482 117.84456348 C157.44996827 117.82890747 162.73752657 117.8076702 168.02514648 117.77368164 C173.1279779 117.74108615 178.23066969 117.7231465 183.33359718 117.71536827 C185.28045665 117.70982512 187.22730847 117.69900075 189.17410851 117.68280983 C191.90098969 117.66103313 194.6272939 117.65803319 197.35424805 117.65942383 C198.15913666 117.648638 198.96402527 117.63785217 199.79330444 117.6267395 C204.3791635 117.65204604 207.38108859 118.1074721 211 121 C226.16631445 143.74947168 213 175.65853779 213 203 C149.64 203 86.28 203 21 203 C21 206.63 21 210.26 21 214 C11.76 214 2.52 214 -7 214 C-5.02 211.69 -3.04 209.38 -1 207 C-0.41721172 203.83512729 -0.18603316 201.44744042 -0.24050903 198.29969788 C-0.23129893 197.44842156 -0.22208883 196.59714525 -0.21259964 195.72007269 C-0.18909013 192.88053504 -0.20809878 190.04291659 -0.22705078 187.20336914 C-0.2188773 185.16294181 -0.20807335 183.12252358 -0.19483948 181.0821228 C-0.16641109 175.55153343 -0.17475314 170.02153968 -0.18970728 164.49092031 C-0.19908721 158.70794922 -0.17463665 152.92512349 -0.15377808 147.14219666 C-0.11943197 136.19529903 -0.11550131 125.24861029 -0.12250316 114.30166954 C-0.12899427 101.83735195 -0.10157052 89.37318114 -0.07130075 76.90890706 C-0.009802 51.27258308 0.00791233 25.6363884 0 0 Z " fill="#6AEEF5" transform="translate(277,42)"/>
<path d="M0 0 C42.57 0 85.14 0 129 0 C128.95074074 54.17623422 128.95074074 54.17623422 128.88867188 76.84375 C128.84601576 92.50750194 128.80858202 108.17114514 128.80444336 123.83496094 C128.80140588 135.24183334 128.78094433 146.64851792 128.73947543 158.05531776 C128.71812435 164.096323 128.7055558 170.13706107 128.71384621 176.1781044 C128.72137277 181.86303026 128.70561967 187.54741418 128.67193985 193.23224068 C128.66368985 195.31957845 128.66397623 197.40696995 128.67340279 199.49430275 C128.68499747 202.34361408 128.66594788 205.19114123 128.63923645 208.04031372 C128.64990971 208.86717245 128.66058297 209.69403118 128.67157966 210.54594624 C128.56968873 216.36768554 127.19556714 218.9383771 123 223 C119.85364282 224.57317859 117.35102274 224.95345195 114 224 C111.75613403 222.30104065 111.75613403 222.30104065 109.34423828 220.04907227 C108.4636676 219.22939972 107.58309692 218.40972717 106.67584229 217.56521606 C102.56340999 213.62280232 98.50752448 209.63103877 94.4921875 205.58984375 C93.64069122 204.73693253 92.78919495 203.8840213 91.91189575 203.00526428 C89.23054337 200.31837771 86.55271567 197.62801038 83.875 194.9375 C82.04190009 193.09937656 80.20856878 191.26148386 78.375 189.42382812 C73.9139921 184.95187869 69.45586145 180.47707709 65 176 C59.23361903 180.78208863 53.96542964 185.93445189 48.70703125 191.265625 C46.92526315 193.06002785 45.14335808 194.8542947 43.36132812 196.6484375 C40.57464994 199.46001655 37.78960023 202.27317279 35.00708008 205.08886719 C32.30725753 207.81881692 29.60131274 210.54257754 26.89453125 213.265625 C25.64601128 214.53433441 25.64601128 214.53433441 24.37226868 215.82867432 C23.59433456 216.60998718 22.81640045 217.39130005 22.01489258 218.19628906 C20.99399284 219.22837494 20.99399284 219.22837494 19.95246887 220.28131104 C16.84990099 223.01239129 14.68337016 223.92545053 10.5625 224.375 C6.37249061 223.93394638 4.906107 222.98913863 2 220 C-0.7087822 216.14084198 -0.27228991 211.84010764 -0.24050903 207.31878662 C-0.24221788 206.43332161 -0.24392673 205.5478566 -0.24568737 204.63555932 C-0.24898661 201.6628822 -0.23797136 198.69042984 -0.22705078 195.71777344 C-0.22648676 193.58913173 -0.22680305 191.46048963 -0.22793579 189.33184814 C-0.22851066 183.54711159 -0.21673454 177.76245762 -0.20278788 171.97774029 C-0.19030296 165.93456628 -0.18911179 159.89139048 -0.18673706 153.84820557 C-0.18051571 142.40187984 -0.16409601 130.95559223 -0.14403808 119.5092833 C-0.11752421 104.04378929 -0.10671174 88.57828489 -0.09503365 73.1127739 C-0.07621589 48.74182071 -0.03637455 24.37094795 0 0 Z " fill="#4D5C66" transform="translate(149,32)"/>
<path d="M0 0 C6.93 0 13.86 0 21 0 C21 3.63 21 7.26 21 11 C22.75313507 10.99111755 24.50627014 10.98223511 26.31253052 10.9730835 C42.82214469 10.89204917 59.33171069 10.83181887 75.84147835 10.79275131 C84.32962154 10.77213143 92.81761621 10.7440219 101.30566406 10.69824219 C108.70438451 10.65835673 116.10299738 10.63256301 123.50182235 10.62364602 C127.41901522 10.61843412 131.33590036 10.60619656 135.25299454 10.57707977 C138.94169418 10.54988345 142.62996 10.54156337 146.31875038 10.54756927 C148.31436832 10.54594809 150.30993926 10.52444735 152.30543518 10.50231934 C163.57492046 10.55419006 163.57492046 10.55419006 168 15 C170.25316452 18.85575302 170.25773435 22.41592417 170.2746582 26.82226562 C170.27976913 27.48796066 170.28488007 28.1536557 170.29014587 28.83952332 C170.30398665 31.02852498 170.30308961 33.21720992 170.30078125 35.40625 C170.30467068 36.9341239 170.30900586 38.46199673 170.31376648 39.98986816 C170.3212164 43.18745433 170.32094596 46.38493005 170.31567383 49.58251953 C170.30987489 53.67484038 170.32682603 57.76670926 170.3500185 61.85895538 C170.36476647 65.01257966 170.36562622 68.16609527 170.36250877 71.31974792 C170.36302126 72.82839352 170.36824537 74.33704531 170.37832069 75.84565735 C170.39069158 77.95664692 170.38389103 80.06675831 170.37231445 82.17773438 C170.37294388 83.37732788 170.3735733 84.57692139 170.3742218 85.81286621 C169.85414556 90.24219813 168.2853133 92.86291472 164.97192383 95.79418945 C160.48788479 97.61351655 156.24084032 97.36864575 151.44921875 97.29296875 C150.43527542 97.28872391 149.42133209 97.28447906 148.37666321 97.28010559 C145.14666901 97.26334859 141.91730478 97.22570122 138.6875 97.1875 C136.49414965 97.17244934 134.3007895 97.1587616 132.10742188 97.14648438 C126.7380395 97.1134547 121.36912647 97.06169228 116 97 C116 100.3 116 103.6 116 107 C102.14 107 88.28 107 74 107 C74 103.7 74 100.4 74 97 C56.18 97 38.36 97 20 97 C20 100.3 20 103.6 20 107 C13.4 107 6.8 107 0 107 C0 71.69 0 36.38 0 0 Z " fill="#D6EBF4" transform="translate(278,42)"/>
<path d="M0 0 C28.05 0 56.1 0 85 0 C85 61.71 85 123.42 85 187 C82.69 185.02 80.38 183.04 78 181 C75.9621016 179.66501954 73.91139795 178.34935846 71.84765625 177.0546875 C62.95308293 170.80893514 54.60146255 163.74453973 52.30700684 152.64874268 C49.98213229 133.9865536 51.55126044 114.66422325 53 96 C46.07 96 39.14 96 32 96 C32.16234131 97.65523682 32.32468262 99.31047363 32.49194336 101.01586914 C33.17981777 108.68888352 33.64261987 116.36535302 33.9375 124.0625 C33.96388927 124.74859848 33.99027855 125.43469696 34.0174675 126.1415863 C34.56295595 142.2162468 34.41679544 156.5839297 23.0818634 169.16273499 C16.41307961 175.90378181 8.98389024 181.89125875 1 187 C0.67 187 0.34 187 0 187 C0 125.29 0 63.58 0 0 Z " fill="#FE7160" transform="translate(171,32)"/>
<path d="M0 0 C6.93 0 13.86 0 21 0 C21 35.31 21 70.62 21 107 C14.07 107 7.14 107 0 107 C0 103.7 0 100.4 0 97 C-1.21664841 97.00666183 -2.43329681 97.01332367 -3.68681335 97.02018738 C-15.14910463 97.08098611 -26.61136321 97.12596676 -38.07377911 97.15543652 C-43.96681625 97.1710965 -49.85972329 97.1923411 -55.75268555 97.22631836 C-61.43906243 97.25889955 -67.1253141 97.27685051 -72.81177711 97.28463173 C-74.98192122 97.29017743 -77.15205843 97.30100673 -79.32214928 97.31719017 C-82.3603436 97.33894765 -85.39801968 97.34196759 -88.4362793 97.34057617 C-89.33467529 97.351362 -90.23307129 97.36214783 -91.15869141 97.3732605 C-96.98611098 97.34435685 -100.18592859 96.31155866 -104.75 92.5625 C-107.71782371 88.85272037 -107.1368784 84.09702876 -107.11352539 79.56933594 C-107.11364593 78.81552769 -107.11376646 78.06171944 -107.11389065 77.28506851 C-107.11314585 74.85147371 -107.10553737 72.41795605 -107.09765625 69.984375 C-107.09618549 68.4793298 -107.0951656 66.97428409 -107.09460449 65.46923828 C-107.08936716 59.89615104 -107.07540592 54.32307476 -107.0625 48.75 C-107.041875 36.2925 -107.02125 23.835 -107 11 C-71.69 11 -36.38 11 0 11 C0 7.37 0 3.74 0 0 Z " fill="#D6EBF4" transform="translate(128,42)"/>
<path d="M0 0 C1.34646292 -0.00548522 2.69291726 -0.01359285 4.03935045 -0.02408731 C7.72920247 -0.04522178 11.41808274 -0.02903101 15.10789216 -0.00658631 C19.09092181 0.01111985 23.07382581 -0.00579552 27.05685425 -0.01831055 C34.85527286 -0.03727751 42.6533211 -0.02409548 50.4517122 0.00021534 C59.53300858 0.02747006 68.61421694 0.02417837 77.69554382 0.01994868 C93.89813368 0.01357032 110.10054763 0.03689667 126.30308533 0.07608032 C142.02612159 0.11409439 157.74895171 0.12825363 173.47203064 0.11709595 C190.59398329 0.1049815 207.71584531 0.10533189 224.83779043 0.12806761 C226.66330842 0.1304822 228.48882641 0.13289417 230.31434441 0.1353035 C231.21253517 0.13651057 232.11072593 0.13771765 233.03613459 0.13896131 C239.36679284 0.14672093 245.69741736 0.1459319 252.02807808 0.14213181 C259.7418987 0.13788846 267.45553875 0.14833177 275.16930849 0.17735891 C279.1052736 0.19185022 283.04097568 0.19999835 286.97696304 0.19087219 C290.57997961 0.18272124 294.18245305 0.19304325 297.78538721 0.21812434 C299.70627234 0.22675663 301.62721465 0.21579657 303.54808384 0.20414579 C309.89252576 0.26887897 314.0802761 0.32344425 318.82237244 4.7484436 C321.31573455 8.48848677 321.07718472 11.37405969 321.01768494 15.69766235 C321.01344009 16.85658745 321.01344009 16.85658745 321.0091095 18.03892517 C320.99792122 20.50475603 320.97281946 22.97022267 320.94737244 25.4359436 C320.93734087 27.1084644 320.92821533 28.78099089 320.92002869 30.45352173 C320.89968844 34.55208198 320.86053829 38.64985545 320.82237244 42.7484436 C313.89237244 42.7484436 306.96237244 42.7484436 299.82237244 42.7484436 C299.82237244 35.8184436 299.82237244 28.8884436 299.82237244 21.7484436 C201.15237244 21.7484436 102.48237244 21.7484436 0.82237244 21.7484436 C0.82237244 28.6784436 0.82237244 35.6084436 0.82237244 42.7484436 C-6.10762756 42.7484436 -13.03762756 42.7484436 -20.17762756 42.7484436 C-20.33881784 37.72851791 -20.47794548 32.7176315 -20.56214905 27.69717407 C-20.59725332 25.99178588 -20.64495143 24.28660692 -20.70570374 22.5819397 C-20.7910824 20.12389504 -20.83041045 17.66864286 -20.86122131 15.2093811 C-20.89735031 14.45289276 -20.93347931 13.69640442 -20.97070312 12.91699219 C-20.97292828 9.88557271 -20.77189283 7.61756693 -19.03204829 5.0730139 C-13.33734562 -0.42863724 -7.59682891 -0.09006863 0 0 Z " fill="#4C5B66" transform="translate(63.17762756347656,287.2515563964844)"/>
<path d="M0 0 C6.93 0 13.86 0 21 0 C21.01458252 2.97281982 21.02916504 5.94563965 21.04418945 9.00854492 C21.09451184 18.82744513 21.16110283 28.64618635 21.23571491 38.46493053 C21.28045469 44.41841976 21.31970302 50.37183998 21.34643555 56.32543945 C21.37243229 62.07030097 21.41280934 67.81489745 21.46318626 73.55959511 C21.47987948 75.75201434 21.49137843 77.94447944 21.49761391 80.13695335 C21.50722811 83.20641279 21.53525599 86.27519039 21.56762695 89.34448242 C21.56619186 90.25222916 21.56475677 91.15997589 21.5632782 92.0952301 C21.66483596 98.89813207 23.1064756 102.1064756 28 107 C15.46 107 2.92 107 -10 107 C-10 103.37 -10 99.74 -10 96 C-11.4226416 96.03665771 -12.8452832 96.07331543 -14.31103516 96.11108398 C-19.59978289 96.23798429 -24.88839672 96.3182187 -30.17822266 96.38452148 C-32.46556238 96.41967892 -34.7527453 96.46741517 -37.03955078 96.52807617 C-40.33144827 96.61319912 -43.62126362 96.65273621 -46.9140625 96.68359375 C-47.93303619 96.71972275 -48.95200989 96.75585175 -50.00186157 96.79307556 C-54.58550113 96.79559856 -58.14858202 96.63344463 -61.64746094 93.4597168 C-65.77470408 87.5727665 -64.8164547 79.84316847 -64.7265625 72.9609375 C-64.72552394 71.39108278 -64.72656459 69.82122545 -64.72958374 68.25137329 C-64.72940488 64.97122047 -64.70866655 61.69205682 -64.67236328 58.41210938 C-64.62691247 54.21422735 -64.62591931 50.01778373 -64.63939857 45.81972313 C-64.64608938 42.58193235 -64.63279877 39.34446787 -64.61314011 36.10673904 C-64.6054606 34.55904473 -64.60312952 33.01131407 -64.6063118 31.46360397 C-64.60705601 29.29974217 -64.58174488 27.13770743 -64.54931641 24.97412109 C-64.54010162 23.74503021 -64.53088684 22.51593933 -64.52139282 21.24960327 C-63.90102201 17.38311541 -62.72081816 15.76624547 -60 13 C-56.59317436 10.72878291 -55.42202816 10.75531113 -51.42700195 10.77294922 C-50.28604568 10.77310028 -49.14508942 10.77325134 -47.96955872 10.77340698 C-46.73823715 10.78372955 -45.50691559 10.79405212 -44.23828125 10.8046875 C-42.34688667 10.80893234 -42.34688667 10.80893234 -40.4172821 10.81326294 C-37.06839578 10.82256875 -33.71978209 10.84053297 -30.37097168 10.8626709 C-26.95241653 10.88314614 -23.5338332 10.89226824 -20.11523438 10.90234375 C-13.41007108 10.92441823 -6.70507293 10.95895562 0 11 C0 7.37 0 3.74 0 0 Z " fill="#69EFF6" transform="translate(128,149)"/>
<path d="M0 0 C6.93 0 13.86 0 21 0 C21 6.93 21 13.86 21 21 C105.48 21 189.96 21 277 21 C277 14.07 277 7.14 277 0 C283.93 0 290.86 0 298 0 C298.11499626 5.03683626 298.2144576 10.06909639 298.2746582 15.10620117 C298.29975714 16.81827245 298.33384429 18.53023704 298.37719727 20.24194336 C298.43805739 22.70713645 298.46625432 25.17090985 298.48828125 27.63671875 C298.51408768 28.39836838 298.5398941 29.16001801 298.56648254 29.94474792 C298.56863689 34.05412336 298.20185317 35.75789201 295.53198242 38.96020508 C294.69642822 39.6333374 293.86087402 40.30646973 293 41 C292.67 41.33 292.34 41.66 292 42 C290.47746919 42.10134566 288.95024527 42.13290641 287.42435074 42.13701439 C286.42919205 42.14208893 285.43403336 42.14716347 284.40871835 42.15239179 C283.30223058 42.15288955 282.1957428 42.15338731 281.0557251 42.15390015 C279.89050253 42.1582824 278.72527996 42.16266465 277.52474761 42.1671797 C274.27580572 42.17827328 271.02689107 42.18480113 267.77793455 42.18936086 C264.279518 42.19530478 260.78111935 42.20691769 257.28271484 42.21765137 C248.82623824 42.24220419 240.36975569 42.25680725 231.91325438 42.26971143 C229.52596379 42.27342143 227.13867379 42.27739482 224.75138378 42.2814641 C209.93680207 42.30669995 195.12221948 42.32876009 180.307621 42.34119225 C176.87402595 42.34412211 173.44043092 42.34708374 170.00683594 42.35009766 C169.15339717 42.35084371 168.2999584 42.35158976 167.42065784 42.35235842 C153.59213629 42.3650149 139.76374324 42.39823996 125.93528178 42.43989949 C111.74791941 42.48229091 97.56062287 42.50588409 83.37319732 42.51111281 C75.40341687 42.51453025 67.43383718 42.5263242 59.46411896 42.55921555 C52.67716087 42.58717906 45.89044464 42.59823184 39.1034334 42.58702008 C35.63940793 42.58182366 32.17588922 42.58478255 28.71193695 42.60948563 C24.95826661 42.6320243 21.20588439 42.62395154 17.45220947 42.60800171 C16.35464459 42.6218838 15.2570797 42.63576588 14.12625527 42.65006864 C5.92576132 42.56385541 5.92576132 42.56385541 2.84673691 39.52449989 C2.23731373 38.69141493 1.62789055 37.85832996 1 37 C0.67 36.67 0.34 36.34 0 36 C-0.08855161 33.3337397 -0.11524673 30.69352886 -0.09765625 28.02734375 C-0.0962413 27.22970108 -0.09482635 26.43205841 -0.09336853 25.61024475 C-0.08775316 23.05262565 -0.07519812 20.49509282 -0.0625 17.9375 C-0.05748698 16.20768355 -0.05292373 14.47786574 -0.04882812 12.74804688 C-0.03862791 8.49863761 -0.01905568 4.24941584 0 0 Z " fill="#4C5B65" transform="translate(171,395)"/>
<path d="M0 0 C88.11 0 176.22 0 267 0 C267 6.6 267 13.2 267 20 C266 21 266 21 264.17020172 21.1241985 C263.36253658 21.12381878 262.55487143 21.12343906 261.72273159 21.12304783 C260.32987018 21.1260344 260.32987018 21.1260344 258.90887016 21.12908131 C257.87679076 21.12616847 256.84471135 21.12325563 255.78135681 21.12025452 C254.15073778 21.12153615 254.15073778 21.12153615 252.48717695 21.12284368 C248.81427026 21.12450169 245.1414084 21.11897188 241.46850586 21.11352539 C238.84770204 21.11324356 236.22689814 21.11340117 233.60609436 21.1139679 C227.9481096 21.11449332 222.29013633 21.11134462 216.63215446 21.10573006 C208.45157189 21.09761751 200.27099491 21.09500009 192.09040875 21.09374207 C178.81930255 21.09155116 165.54820248 21.08489003 152.27709961 21.07543945 C139.38224315 21.06626633 126.48738836 21.05918501 113.5925293 21.05493164 C112.7982512 21.05466892 112.0039731 21.05440619 111.18562596 21.05413551 C107.20113365 21.05283051 103.21664133 21.05156679 99.232149 21.05032361 C66.15476135 21.03994979 33.07738193 21.02205602 0 21 C0 14.07 0 7.14 0 0 Z " fill="#F0F0F1" transform="translate(64,310)"/>
<path d="M0 0 C84.48 0 168.96 0 256 0 C256 6.93 256 13.86 256 21 C171.52 21 87.04 21 0 21 C0 14.07 0 7.14 0 0 Z " fill="#F2F2F2" transform="translate(192,395)"/>
<path d="M0 0 C6.93 0 13.86 0 21 0 C21.16119027 5.01992569 21.30031791 10.0308121 21.38452148 15.05126953 C21.41962576 16.75665772 21.46732386 18.46183668 21.52807617 20.16650391 C21.61345484 22.62454856 21.65278288 25.07980074 21.68359375 27.5390625 C21.71972275 28.29555084 21.75585175 29.05203918 21.79307556 29.83145142 C21.79596636 33.76971351 21.25269559 36.35393563 18.43518066 39.20654297 C12.68022836 43.81413667 5.22630171 42.78414681 -1.75756836 42.68115234 C-3.36449113 42.67945848 -4.97141854 42.68041267 -6.57833862 42.68380737 C-10.92736875 42.6855251 -15.27540093 42.65031209 -19.62419963 42.60836363 C-24.17385816 42.57079198 -28.72354095 42.56732621 -33.27333069 42.56021118 C-41.88293927 42.54158118 -50.49208936 42.49236931 -59.10149628 42.43211424 C-68.90551843 42.36499151 -78.70956277 42.33204563 -88.51375759 42.30194163 C-108.67610097 42.23926849 -128.83800541 42.13255736 -149 42 C-149 35.07 -149 28.14 -149 21 C-99.83 21 -50.66 21 0 21 C0 14.07 0 7.14 0 0 Z " fill="#4C5B66" transform="translate(448,182)"/>
<path d="M0 0 C56.1 0 112.2 0 170 0 C170 7.26 170 14.52 170 22 C120.5 22 71 22 20 22 C20 25.3 20 28.6 20 32 C13.4 32 6.8 32 0 32 C0 21.44 0 10.88 0 0 Z " fill="#EDEFF0" transform="translate(278,181)"/>
<path d="M0 0 C5.7591515 4.78402901 11.052413 9.92192688 16.328125 15.23046875 C17.19894714 16.10270584 18.06976929 16.97494293 18.96697998 17.87361145 C21.7303583 20.64255397 24.49022968 23.41496188 27.25 26.1875 C29.11955978 28.06208025 30.98934914 29.93643157 32.859375 31.81054688 C36.96430118 35.9252726 41.06702392 40.04218061 45.16778564 44.16105652 C46.77668848 45.77586833 48.38813997 47.38813997 50 49 C17.33 49 -15.34 49 -49 49 C-32.66666667 32.66666667 -16.33333333 16.33333333 0 0 Z " fill="#68EEF6" transform="translate(213,207)"/>
<path d="M0 0 C0.73511307 0.00359528 1.47022614 0.00719055 2.22761536 0.01089478 C2.99829346 0.01074875 3.76897156 0.01060272 4.56300354 0.01045227 C7.12237823 0.01115157 9.68168104 0.01894471 12.24104309 0.02676392 C14.01081299 0.02862804 15.7805834 0.03005197 17.550354 0.03105164 C22.2176505 0.03487728 26.88491607 0.04470796 31.55220032 0.05575562 C36.31110719 0.06596873 41.07001905 0.07054904 45.82893372 0.07559204 C55.17335056 0.0863302 64.5177363 0.10392737 73.86213684 0.12442017 C73.86213684 7.05442017 73.86213684 13.98442017 73.86213684 21.12442017 C52.74213684 21.12442017 31.62213684 21.12442017 9.86213684 21.12442017 C9.86213684 28.05442017 9.86213684 34.98442017 9.86213684 42.12442017 C2.93213684 42.12442017 -3.99786316 42.12442017 -11.13786316 42.12442017 C-11.25285942 37.0875839 -11.35232076 32.05532378 -11.41252136 27.01821899 C-11.4376203 25.30614772 -11.47170745 23.59418313 -11.51506042 21.88247681 C-11.57592055 19.41728371 -11.60411748 16.95351031 -11.62614441 14.48770142 C-11.65195084 13.72605179 -11.67775726 12.96440216 -11.7043457 12.17967224 C-11.70650005 8.07029681 -11.33971633 6.36652816 -8.66984558 3.16421509 C-7.83429138 2.49108276 -6.99873718 1.81795044 -6.13786316 1.12442017 C-4.42956906 -0.58387393 -2.27781939 0.0047009 0 0 Z " fill="#4C5B66" transform="translate(54.13786315917969,74.87557983398438)"/>
<path d="M0 0 C6.93 0 13.86 0 21 0 C21 10.56 21 21.12 21 32 C-7.05 32 -35.1 32 -64 32 C-64 25.07 -64 18.14 -64 11 C-42.88 11 -21.76 11 0 11 C0 7.37 0 3.74 0 0 Z " fill="#F1F1F2" transform="translate(128,85)"/>
<path d="M0 0 C5.03683626 -0.11499626 10.06909639 -0.2144576 15.10620117 -0.2746582 C16.81827245 -0.29975714 18.53023704 -0.33384429 20.24194336 -0.37719727 C22.70713645 -0.43805739 25.17090985 -0.46625432 27.63671875 -0.48828125 C28.77919319 -0.52699089 28.77919319 -0.52699089 29.94474792 -0.56648254 C34.05412336 -0.56863689 35.75789201 -0.20185317 38.96020508 2.46801758 C39.96990356 3.72134888 39.96990356 3.72134888 41 5 C41.495 5.495 41.495 5.495 42 6 C42.08855161 8.6662603 42.11524673 11.30647114 42.09765625 13.97265625 C42.0962413 14.77029892 42.09482635 15.56794159 42.09336853 16.38975525 C42.08775316 18.94737435 42.07519812 21.50490718 42.0625 24.0625 C42.05748698 25.79231645 42.05292373 27.52213426 42.04882812 29.25195312 C42.03862791 33.50136239 42.01905568 37.75058416 42 42 C35.07 42 28.14 42 21 42 C21 35.07 21 28.14 21 21 C14.07 21 7.14 21 0 21 C0 14.07 0 7.14 0 0 Z " fill="#4C5B66" transform="translate(299,75)"/>
<path d="M0 0 C17.49 0 34.98 0 53 0 C53 6.93 53 13.86 53 21 C35.51 21 18.02 21 0 21 C0 14.07 0 7.14 0 0 Z " fill="#4C5B66" transform="translate(299,139)"/>
<path d="M0 0 C6.6 0 13.2 0 20 0 C20 3.63 20 7.26 20 11 C27.26 11 34.52 11 42 11 C42 17.93 42 24.86 42 32 C28.14 32 14.28 32 0 32 C0 21.44 0 10.88 0 0 Z " fill="#F1F1F2" transform="translate(278,85)"/>
<path d="M0 0 C7.26 0 14.52 0 22 0 C22 14.52 22 29.04 22 44 C14.74 44 7.48 44 0 44 C0 29.48 0 14.96 0 0 Z " fill="#566364" transform="translate(85,394)"/>
<path d="M0 0 C7.26 0 14.52 0 22 0 C22 14.52 22 29.04 22 44 C14.74 44 7.48 44 0 44 C0 29.48 0 14.96 0 0 Z " fill="#54636E" transform="translate(405,74)"/>
<path d="M0 0 C7.26 0 14.52 0 22 0 C22 14.19 22 28.38 22 43 C14.74 43 7.48 43 0 43 C0 28.81 0 14.62 0 0 Z " fill="#4F5F6A" transform="translate(405,288)"/>
<path d="M0 0 C7.26 0 14.52 0 22 0 C22 14.19 22 28.38 22 43 C14.74 43 7.48 43 0 43 C0 28.81 0 14.62 0 0 Z " fill="#4D606B" transform="translate(85,181)"/>
<path d="M0 0 C6.93 0 13.86 0 21 0 C21 13.86 21 27.72 21 42 C14.07 42 7.14 42 0 42 C0 28.14 0 14.28 0 0 Z " fill="#4C5B66" transform="translate(128,395)"/>
<path d="M0 0 C6.93 0 13.86 0 21 0 C21 13.86 21 27.72 21 42 C14.07 42 7.14 42 0 42 C0 28.14 0 14.28 0 0 Z " fill="#4C5B66" transform="translate(363,75)"/>
<path d="M0 0 C6.6 0 13.2 0 20 0 C20 10.56 20 21.12 20 32 C13.4 32 6.8 32 0 32 C0 21.44 0 10.88 0 0 Z " fill="#F2F1EF" transform="translate(150,395)"/>
<path d="M0 0 C6.6 0 13.2 0 20 0 C20 10.56 20 21.12 20 32 C13.4 32 6.8 32 0 32 C0 21.44 0 10.88 0 0 Z " fill="#F1F1F2" transform="translate(342,85)"/>
<path d="M0 0 C2.02054804 1.64169528 4.02043058 3.30911778 6 5 C6 5.33 6 5.66 6 6 C2.37 6 -1.26 6 -5 6 C-3.35 4.02 -1.7 2.04 0 0 Z " fill="#E7E8E9" transform="translate(213,207)"/>
</svg>
