<?xml version="1.0" encoding="UTF-8"?>
<svg version="1.1" xmlns="http://www.w3.org/2000/svg" width="512" height="512">
<path d="M0 0 C1.2242101 -0.00644889 2.44842021 -0.01289778 3.70972759 -0.0195421 C5.06509238 -0.01659993 6.42045678 -0.0134645 7.77582073 -0.01015663 C9.21811702 -0.01389335 10.66041128 -0.01849496 12.10270232 -0.02388728 C16.06653471 -0.03613002 20.03028279 -0.03585531 23.99412978 -0.03349853 C28.2689584 -0.03309068 32.54375986 -0.04412642 36.81857586 -0.05361366 C45.19399785 -0.07023163 53.56939169 -0.07572357 61.94482879 -0.07683842 C68.75242596 -0.07778852 75.56001384 -0.08189691 82.36760807 -0.08823967 C101.66568168 -0.10585428 120.96373304 -0.1150782 140.26181475 -0.11357872 C141.82259422 -0.11345885 141.82259422 -0.11345885 143.41490459 -0.11333656 C144.45669377 -0.1132548 145.49848295 -0.11317304 146.5718415 -0.1130888 C163.45672454 -0.11227585 180.34151838 -0.13141535 197.22637562 -0.1596133 C214.56096913 -0.18833402 231.89551913 -0.20215404 249.23013705 -0.20042574 C258.96327651 -0.19976156 268.69632246 -0.20526627 278.4294405 -0.22678185 C286.71633837 -0.24498297 295.00310035 -0.24934978 303.29000954 -0.235763 C307.51786183 -0.22922792 311.74545334 -0.22913548 315.97328091 -0.2464695 C319.84536139 -0.26218163 323.71697392 -0.25935592 327.58904286 -0.24190123 C328.98808644 -0.23882721 330.38716478 -0.24247899 331.78616736 -0.25362138 C340.77317008 -0.3204451 347.15600405 0.13914755 354.18321514 6.18695641 C354.72204327 6.82890953 355.26087139 7.47086266 355.81602764 8.13226891 C356.37032452 8.76906578 356.92462139 9.40586266 357.49571514 10.06195641 C360.87877336 15.20054754 361.23136479 20.40840735 361.19829655 26.40428448 C361.20180262 27.21217705 361.2053087 28.02006962 361.20892102 28.85244378 C361.21823891 31.56470927 361.21331068 34.27676022 361.20845318 36.98903465 C361.21218924 38.9512055 361.21679058 40.91337487 361.22218382 42.87554187 C361.23443465 48.2717764 361.2341509 53.66794904 361.23179507 59.06419432 C361.23138743 64.88232102 361.24242096 70.70042773 361.25191021 76.51854515 C361.26853243 87.91880872 361.2740203 99.31905162 361.27513497 110.71932629 C361.27608483 119.98446083 361.28019202 129.24958854 361.28653622 138.51472092 C361.28832523 141.18163178 361.29011093 143.84854264 361.29188597 146.51545352 C361.29254912 147.50995478 361.29254912 147.50995478 361.29322566 148.52454698 C361.30553411 167.17363985 361.31342678 185.8227304 361.3125391 204.47182751 C361.31249236 205.52650514 361.31249236 205.52650514 361.31244468 206.60248939 C361.31227847 210.16619023 361.31208039 213.72989106 361.31187527 217.29359189 C361.31183538 218.00135636 361.31179549 218.70912083 361.31175439 219.4383327 C361.31167351 220.86960489 361.31158992 222.30087709 361.31150361 223.73214928 C361.31027806 246.00104664 361.32529187 268.26988311 361.35264874 290.53876305 C361.38337101 315.55745128 361.40058115 340.57609951 361.39872229 365.5948078 C361.39798114 378.84184254 361.40357438 392.08881149 361.42507839 405.33583069 C361.44326849 416.61380307 361.44765533 427.89167563 361.43405955 439.16965631 C361.42751908 444.92466513 361.42745179 450.67948232 361.44476604 456.43447304 C361.46045378 461.70297622 361.45767697 466.97113514 361.44019778 472.23962971 C361.43711843 474.14538675 361.44079534 476.05116921 361.45191793 477.95689628 C361.55982378 497.75695303 361.55982378 497.75695303 354.97618389 505.59711266 C354.32520733 506.12433922 353.67423077 506.65156578 353.00352764 507.19476891 C352.3551292 507.74004234 351.70673077 508.28531578 351.03868389 508.84711266 C346.72851639 511.7446368 343.03788531 512.50766561 337.88205528 512.51453781 C336.65784518 512.5209867 335.43363508 512.5274356 334.1723277 512.53407991 C332.8169629 512.53113774 331.46159851 512.52800232 330.10623455 512.52469444 C328.66393827 512.52843117 327.22164401 512.53303278 325.77935296 512.53842509 C321.81552057 512.55066783 317.8517725 512.55039313 313.88792551 512.54803634 C309.61309689 512.54762849 305.33829542 512.55866423 301.06347942 512.56815147 C292.68805743 512.58476945 284.31266359 512.59026138 275.9372265 512.59137623 C269.12962932 512.59232633 262.32204145 512.59643472 255.51444721 512.60277748 C236.2163736 512.62039209 216.91832224 512.62961601 197.62024053 512.62811653 C196.05946106 512.62799666 196.05946106 512.62799666 194.46715069 512.62787437 C193.42536151 512.62779261 192.38357233 512.62771085 191.31021378 512.62762661 C174.42533074 512.62681366 157.5405369 512.64595316 140.65567967 512.67415111 C123.32108615 512.70287184 105.98653615 512.71669185 88.65191823 512.71496356 C78.91877878 512.71429937 69.18573282 512.71980408 59.45261478 512.74131966 C51.16571692 512.75952078 42.87895494 512.76388759 34.59204575 512.75030081 C30.36419346 512.74376573 26.13660194 512.7436733 21.90877438 512.76100731 C18.03669389 512.77671944 14.16508136 512.77389373 10.29301242 512.75643905 C8.89396884 512.75336502 7.4948905 512.7570168 6.09588792 512.7681592 C-2.8911148 512.83498292 -9.27394876 512.37539026 -16.30115986 506.32758141 C-16.83998798 505.68562828 -17.37881611 505.04367516 -17.93397236 504.38226891 C-18.48826923 503.74547203 -19.04256611 503.10867516 -19.61365986 502.45258141 C-22.58457782 497.93999791 -23.30905561 493.46481513 -23.31624126 488.14216232 C-23.32269016 486.93091135 -23.32913905 485.71966038 -23.33578336 484.47170484 C-23.33284142 483.13617751 -23.32970601 481.8006506 -23.3263979 480.46512413 C-23.33013578 479.039738 -23.33473786 477.61435391 -23.34012854 476.18897307 C-23.35235609 472.27668509 -23.35209839 468.36448264 -23.34973979 464.45217991 C-23.34933158 460.23129713 -23.3603709 456.01044176 -23.36985493 451.78957176 C-23.38646271 443.52324624 -23.3919643 435.25694925 -23.39307968 426.99060844 C-23.39402991 420.27405722 -23.39813895 413.55751542 -23.40448093 406.84096718 C-23.42208989 387.80522665 -23.43131992 368.76950866 -23.42981999 349.73375992 C-23.42974007 348.70768976 -23.42966016 347.6816196 -23.42957783 346.62445641 C-23.42949607 345.59713656 -23.4294143 344.56981671 -23.42933007 343.51136597 C-23.42851645 326.84693896 -23.44767413 310.18260217 -23.47585456 293.51820128 C-23.50455087 276.41411786 -23.51839677 259.31007852 -23.51666701 242.20597041 C-23.51600216 232.60040514 -23.52153646 222.99493456 -23.54302311 213.38939095 C-23.56119178 205.21475763 -23.56561763 197.04026197 -23.55200426 188.86561726 C-23.54545373 184.69293457 -23.54543222 180.5205163 -23.56271076 176.34785843 C-23.57835431 172.53092015 -23.57566825 168.71445787 -23.5581425 164.89753182 C-23.55505331 163.514067 -23.55877665 162.13056741 -23.56986265 160.74714355 C-23.58390051 158.87170755 -23.57105292 156.99612721 -23.5567503 155.12069321 C-23.55718503 154.07743641 -23.55761977 153.03417962 -23.55806768 151.95930898 C-22.92718672 148.54379782 -21.79962678 147.33340538 -19.05897236 145.25726891 C-18.06897236 145.25726891 -17.07897236 145.25726891 -16.05897236 145.25726891 C-16.09197895 142.98581544 -16.16137241 140.71486764 -16.24647236 138.44476891 C-16.28127705 137.18019859 -16.31608173 135.91562828 -16.35194111 134.61273766 C-16.70406979 131.09201086 -16.70406979 131.09201086 -19.54725361 129.43305016 C-20.79055439 128.85103844 -20.79055439 128.85103844 -22.05897236 128.25726891 C-23.22239856 125.93041651 -23.1919961 124.56898649 -23.20614338 121.97722435 C-23.21687634 120.62951706 -23.21687634 120.62951706 -23.22782612 119.25458336 C-23.23051502 118.26603355 -23.23320393 117.27748375 -23.23597431 116.25897789 C-23.24254551 115.21975685 -23.24911671 114.18053581 -23.25588703 113.10982323 C-23.27565667 109.65766902 -23.2872929 106.20555846 -23.29725361 102.75336266 C-23.30132914 101.57491343 -23.30540466 100.3964642 -23.30960369 99.18230438 C-23.33048344 92.94093691 -23.344775 86.69959152 -23.35413837 80.45819664 C-23.36518623 74.01770168 -23.39956236 67.57755379 -23.43931007 61.13718128 C-23.4654918 56.1810957 -23.4738318 51.22509244 -23.47741985 46.26894379 C-23.48228442 43.89556163 -23.49389461 41.52218311 -23.51245785 39.14886856 C-23.53687369 35.81940958 -23.53587893 32.49084324 -23.52894306 29.16132164 C-23.54815815 27.69975136 -23.54815815 27.69975136 -23.56776142 26.2086544 C-23.51188244 18.81953992 -21.91631433 12.65994851 -17.09412861 6.91742516 C-16.11766376 6.12658531 -16.11766376 6.12658531 -15.12147236 5.31976891 C-14.47307392 4.77449547 -13.82467548 4.22922203 -13.15662861 3.66742516 C-8.84646111 0.76990101 -5.15583003 0.0068722 0 0 Z " fill="#010101" transform="translate(87.05897235870361,-0.25726890563964844)"/>
<path d="M0 0 C116.82 0 233.64 0 354 0 C354 124.74 354 249.48 354 378 C348.06 378 342.12 378 336 378 C335.99853344 376.28510596 335.99706688 374.57021193 335.99555588 372.8033514 C335.95986217 332.10504837 335.90363299 291.40681717 335.82207905 250.70857903 C335.81206146 245.70049504 335.80221735 240.69241072 335.79248047 235.68432617 C335.7905391 234.68729701 335.78859772 233.69026785 335.78659752 232.66302568 C335.75556735 216.51437488 335.73859403 200.3657383 335.72680578 184.2170633 C335.71439949 167.6498771 335.68690989 151.08276556 335.64538693 134.51562649 C335.62023659 124.29089952 335.60688384 114.06629636 335.60857043 103.84153802 C335.60860016 96.83223334 335.59399306 89.82305488 335.56783572 82.81379937 C335.55317246 78.76839597 335.54500155 74.72325142 335.55419731 70.67782593 C335.56247567 66.97333056 335.55235356 63.2693556 335.52766338 59.56493748 C335.51927958 57.59176643 335.53052786 55.61854204 335.54249835 53.6453895 C335.47744429 46.95454022 335.42292382 42.20680397 331 37 C325.04862034 32.3133511 318.51478978 32.42999003 311.23413086 32.4853363 C310.06504401 32.47839078 308.89595716 32.47144525 307.69144344 32.46428925 C304.46391436 32.44920864 301.23698112 32.45194315 298.00945234 32.46244228 C294.52197795 32.46945345 291.03459644 32.45342195 287.54714966 32.44044495 C280.72218364 32.41883227 273.89738454 32.41892467 267.07239556 32.42707049 C261.52439277 32.43337663 255.97643857 32.43222784 250.42843628 32.42579842 C249.63807667 32.42489676 248.84771706 32.42399511 248.03340715 32.42306613 C246.42768326 32.42121488 244.82195938 32.41935232 243.21623552 32.41747857 C228.16804276 32.40090987 213.11994383 32.40961164 198.07175672 32.42646415 C184.31035288 32.44116289 170.54916734 32.42652866 156.78779161 32.39769398 C142.64876073 32.36828914 128.50983057 32.3573307 114.37077045 32.36687618 C112.77103489 32.36789871 111.17129932 32.36889332 109.57156372 32.3698597 C108.78451378 32.37033609 107.99746385 32.37081248 107.18656391 32.3713033 C101.64678779 32.37346586 96.10710722 32.36367192 90.56735229 32.34908867 C83.81392016 32.33155799 77.06076638 32.33169317 70.30734515 32.35444032 C66.86317478 32.36557564 63.41949469 32.36876194 59.97534561 32.35013962 C56.23838461 32.33423976 52.50276653 32.34913424 48.76586914 32.37181091 C47.13979186 32.35405732 47.13979186 32.35405732 45.48086452 32.33594507 C38.92288668 32.41682249 33.86978346 33.33757724 29 38 C26.28524228 41.7035598 25.62376266 44.28697886 25.61523914 48.8470583 C25.6057826 50.02395106 25.59632606 51.20084382 25.58658296 52.41339999 C25.59143053 53.70230347 25.59627811 54.99120694 25.60127258 56.31916809 C25.59583303 57.70529708 25.58908143 59.09142143 25.58113068 60.47753829 C25.56308509 64.28582278 25.56366489 68.09391248 25.56726015 71.90222967 C25.56788334 76.00923343 25.5512701 80.11617147 25.53674316 84.22314453 C25.51393748 91.33852943 25.50206866 98.45386531 25.49761391 105.56928444 C25.49115729 115.85699102 25.46822852 126.14460891 25.44127061 136.43227979 C25.39798169 153.12305362 25.36802696 169.81382371 25.34643555 186.50463867 C25.32543216 202.71885003 25.29816266 218.93303087 25.26245117 235.1472168 C25.26025235 236.1465467 25.25805352 237.1458766 25.25578807 238.17548922 C25.24471857 243.18880015 25.23352573 248.2021108 25.22227156 253.21542132 C25.12905666 294.81025437 25.0576943 336.40510361 25 378 C16.75 378 8.5 378 0 378 C-0.00364563 374.29835129 -0.00729126 370.59670258 -0.01104736 366.78288269 C-0.04629904 332.86428791 -0.10129593 298.94577138 -0.17792095 265.02724398 C-0.18793881 260.58481338 -0.19778287 256.1423824 -0.20751953 251.69995117 C-0.21043159 250.37329861 -0.21043159 250.37329861 -0.21340248 249.01984499 C-0.244452 234.68558629 -0.26141135 220.35134362 -0.27319422 206.01705762 C-0.28559052 191.31666598 -0.31305738 176.61635865 -0.35461307 161.91602021 C-0.37979219 152.83981167 -0.39311407 143.76374288 -0.39142957 134.6874989 C-0.39139989 128.46968181 -0.40596425 122.25200744 -0.43216428 116.03424593 C-0.44686095 112.44298755 -0.45497027 108.85202185 -0.44580269 105.26073837 C-0.43604583 101.37299083 -0.45694253 97.48576175 -0.48101807 93.59806824 C-0.47325765 92.45508607 -0.46549723 91.31210389 -0.45750165 90.1344859 C-0.46894924 89.09742766 -0.48039683 88.06036943 -0.49219131 86.99188519 C-0.49446964 85.64482731 -0.49446964 85.64482731 -0.49679399 84.27055615 C-0.81046252 81.85312577 -0.81046252 81.85312577 -2.84423804 80.25050718 C-5.06184434 78.86689585 -5.06184434 78.86689585 -8 78 C-8 73.05 -8 68.1 -8 63 C-6.35 62.34 -4.7 61.68 -3 61 C11.39521525 46.60478475 -0.34499975 20.35498513 0 0 Z " fill="#FAF9F9" transform="translate(79,67)"/>
<path d="M0 0 C93.06 0 186.12 0 282 0 C282 6.93 282 13.86 282 21 C277.38874146 21.02187378 277.38874146 21.02187378 272.68432617 21.04418945 C262.54211225 21.09446292 252.40005304 21.16104496 242.25799084 21.23571491 C236.10714711 21.28049629 229.95637082 21.31973526 223.80541992 21.34643555 C217.87253946 21.37239102 211.93991743 21.41273824 206.00719643 21.46318626 C203.74055501 21.47990757 201.47386885 21.49138894 199.2071743 21.49761391 C196.03912454 21.50719777 192.87174386 21.53518858 189.70385742 21.56762695 C188.28937317 21.56547432 188.28937317 21.56547432 186.84631348 21.5632782 C185.98394577 21.57581635 185.12157806 21.58835449 184.233078 21.60127258 C183.48366031 21.60588155 182.73424261 21.61049051 181.96211529 21.61523914 C179.43525826 22.11074299 178.54550217 22.96996269 177 25 C176.48919033 28.42972208 176.49635944 30.23458848 178.41949463 33.1572876 C182.34821149 35.96274399 186.00772611 35.57133582 190.72558594 35.54589844 C191.72719883 35.55629276 192.72881172 35.56668709 193.76077652 35.57739639 C197.00214772 35.60653377 200.24288573 35.60846473 203.484375 35.609375 C205.48585319 35.62336851 207.48731975 35.63914482 209.48876953 35.65673828 C216.90905762 35.70944483 224.32955846 35.72762314 231.75 35.75 C256.62375 35.87375 256.62375 35.87375 282 36 C282 82.2 282 128.4 282 176 C272.1 176 262.2 176 252 176 C251.96132813 168.95785156 251.96132813 168.95785156 251.921875 161.7734375 C251.8966978 158.7929147 251.87035848 155.81249251 251.83984375 152.83203125 C251.79155729 148.10497704 251.74749471 143.37815581 251.72900391 138.65087891 C251.71382007 134.83805013 251.67934507 131.02583225 251.63169098 127.21327591 C251.61689476 125.76134181 251.60895999 124.30932049 251.60811615 122.85731125 C251.60573918 120.81746638 251.57860688 118.77929995 251.54589844 116.73974609 C251.53701599 115.58058685 251.52813354 114.42142761 251.51898193 113.22714233 C250.88466568 109.28282613 249.46969643 107.10742296 247 104 C242.61457929 101.11674439 239.04373778 100.59922517 233.8515625 100.48828125 C232.86547501 100.46135445 232.86547501 100.46135445 231.85946655 100.43388367 C229.78137428 100.38015563 227.70350653 100.34600875 225.625 100.3125 C224.20700024 100.27929347 222.78902999 100.24480076 221.37109375 100.20898438 C217.9142782 100.12445349 214.45738362 100.05746432 211 100 C210.94739014 99.10361816 210.89478027 98.20723633 210.84057617 97.28369141 C210.76299072 96.10983887 210.68540527 94.93598633 210.60546875 93.7265625 C210.49561646 91.97980225 210.49561646 91.97980225 210.38354492 90.19775391 C209.89597686 86.13272111 208.85707316 83.93429136 206 81 C201.50047446 78.30394945 198.06761636 77.59973539 192.8515625 77.48828125 C191.86547501 77.46135445 191.86547501 77.46135445 190.85946655 77.43388367 C188.78137428 77.38015563 186.70350653 77.34600875 184.625 77.3125 C183.20700024 77.27929347 181.78902999 77.24480076 180.37109375 77.20898438 C176.9142782 77.12445349 173.45738362 77.05746432 170 77 C169.87665283 76.38439209 169.75330566 75.76878418 169.6262207 75.13452148 C169.45695068 74.32571533 169.28768066 73.51690918 169.11328125 72.68359375 C168.94868408 71.88236084 168.78408691 71.08112793 168.61450195 70.25561523 C167.74964632 67.08104185 166.38020046 65.244189 164 63 C159.82827105 60.85480952 155.88549007 60.6787085 151.28515625 60.6640625 C150.5517955 60.6574057 149.81843475 60.6507489 149.06285095 60.64389038 C147.51726781 60.63380042 145.97164143 60.62907223 144.42602539 60.62939453 C142.07299506 60.62501951 139.72183983 60.58866057 137.36914062 60.55078125 C135.86198553 60.54491243 134.3548216 60.54094347 132.84765625 60.5390625 C132.15060074 60.52469147 131.45354523 60.51032043 130.73536682 60.49551392 C125.68835691 60.54227632 122.86805278 61.81438 119 65 C114.97091035 69.6428038 114.97091035 69.6428038 115 80 C106.09 80 97.18 80 88 80 C87.67 76.7 87.34 73.4 87 70 C84.5301076 64.9687377 82.12570386 63.09541588 77 61 C74.31401465 60.7072375 71.86780646 60.55506715 69.1875 60.56640625 C68.4555542 60.5611644 67.7236084 60.55592255 66.96948242 60.55052185 C65.4298631 60.54413003 63.89019477 60.5454017 62.35058594 60.55395508 C60.00627146 60.5624772 57.66438755 60.53364974 55.3203125 60.50195312 C53.81770906 60.50034102 52.31510134 60.50091883 50.8125 60.50390625 C50.11858154 60.49267227 49.42466309 60.48143829 48.7097168 60.46986389 C43.66566402 60.54146171 40.82514657 61.75342714 37 65 C32.48840581 70.28956959 32.4190014 74.59293744 32.45410156 81.22802734 C32.44376389 82.24327484 32.43342621 83.25852234 32.42277527 84.30453491 C32.39336055 87.64849793 32.39184833 90.99185531 32.390625 94.3359375 C32.37564252 96.65907952 32.35891524 98.9822109 32.34051514 101.30532837 C32.29683742 107.41103608 32.27684139 113.5166001 32.26177979 119.62243652 C32.2422104 125.85645038 32.20024011 132.09030902 32.16015625 138.32421875 C32.08484922 150.54945757 32.03663141 162.77458405 32 175 C21.77 175 11.54 175 1 175 C1 129.13 1 83.26 1 36 C12.05886719 35.98582031 23.11773437 35.97164063 34.51171875 35.95703125 C41.50718496 35.93698038 48.50260976 35.91567379 55.49804688 35.88867188 C66.60768706 35.84602407 77.71717411 35.80858337 88.8269043 35.80444336 C96.91755264 35.80140481 105.00793633 35.78092924 113.09848243 35.73947543 C117.38282173 35.7181336 121.66678465 35.70555078 125.9511776 35.71384621 C129.98396581 35.72137904 134.01599096 35.70559579 138.0486393 35.67193985 C139.52845638 35.66369717 141.00834922 35.66396782 142.48815918 35.67340279 C144.50953547 35.68501455 146.53102141 35.66295737 148.55229187 35.63923645 C150.24885186 35.63508838 150.24885186 35.63508838 151.97968578 35.63085651 C155.97189291 34.79699961 157.50899733 33.16478043 160 30 C159.9263784 26.24529849 159.67158839 24.67158839 157 22 C154.17267155 21.68408264 154.17267155 21.68408264 150.79916382 21.7215271 C150.15633725 21.7157347 149.51351068 21.7099423 148.85120451 21.70397437 C146.68769946 21.68690932 144.52440687 21.68409237 142.36083984 21.68115234 C140.81376112 21.67185863 139.26668743 21.6616908 137.71961975 21.65071106 C133.51120543 21.62333411 129.30282472 21.60823896 125.09434462 21.59528303 C120.69938251 21.57968603 116.30448939 21.55288496 111.90957642 21.5272522 C103.58337498 21.48040347 95.25716066 21.44368893 86.93089449 21.41057932 C77.45335591 21.3724009 67.97588651 21.3229796 58.49840617 21.27259517 C38.99898722 21.16918471 19.49952665 21.08035286 0 21 C0 14.07 0 7.14 0 0 Z " fill="#C6855A" transform="translate(118,269)"/>
<path d="M0 0 C70.22584125 -0.04033135 70.22584125 -0.04033135 99.48242188 -0.04882812 C106.17960614 -0.05078614 112.87679039 -0.05280666 119.57397461 -0.05493164 C120.83313168 -0.05532726 120.83313168 -0.05532726 122.11772627 -0.05573088 C135.68794023 -0.06008582 149.25814998 -0.06797273 162.82836144 -0.0771528 C176.74446872 -0.08648868 190.66057378 -0.09205547 204.57668406 -0.09408849 C213.17073022 -0.09546386 221.76476448 -0.09981517 230.35880698 -0.10791647 C236.24388604 -0.11318312 242.12895891 -0.11480448 248.01404016 -0.11350138 C251.41459468 -0.11285787 254.81512832 -0.11387694 258.21567917 -0.11920547 C261.89375738 -0.12413514 265.57178341 -0.12300098 269.24986267 -0.12025452 C270.33641535 -0.12316736 271.42296803 -0.1260802 272.54244655 -0.12908131 C274.00845927 -0.12609474 274.00845927 -0.12609474 275.5040884 -0.12304783 C276.35428222 -0.12342755 277.20447604 -0.12380727 278.08043331 -0.1241985 C280 0 280 0 281 1 C281.09641497 2.80960871 281.12187398 4.62302128 281.12025452 6.43519592 C281.12231651 8.20423027 281.12231651 8.20423027 281.12442017 10.00900269 C281.12082489 11.3145108 281.11722961 12.62001892 281.11352539 13.96508789 C281.11324352 15.34452818 281.11340125 16.72396861 281.1139679 18.10340881 C281.11425588 21.85944118 281.10835905 25.61544189 281.10139394 29.37146688 C281.09516051 33.29260045 281.09455661 37.21373467 281.09336853 41.13487244 C281.09025518 48.56511611 281.08204175 55.99534514 281.07201904 63.42558235 C281.06085801 71.88251638 281.05534748 80.3394511 281.05032361 88.79639065 C281.03985914 106.19760377 281.02151361 123.5987968 281 141 C271.1 141 261.2 141 251 141 C250.9906543 138.45651855 250.98130859 135.91303711 250.97167969 133.29248047 C250.93789064 124.88250721 250.88233093 116.47277883 250.81609726 108.06300163 C250.77661244 102.96483968 250.74442883 97.86685071 250.72900391 92.76855469 C250.71384402 87.84705204 250.67941016 82.92602492 250.63169098 78.00473404 C250.61687032 76.1285427 250.60895859 74.25228347 250.60811615 72.37603378 C250.60574679 69.74480425 250.57867044 67.11488924 250.54589844 64.48388672 C250.5509288 63.7106456 250.55595917 62.93740448 250.56114197 62.14073181 C250.4614809 56.95846472 249.29689068 53.98036147 246 50 C241.61457929 47.11674439 238.04373778 46.59922517 232.8515625 46.48828125 C232.19417084 46.47033005 231.53677917 46.45237885 230.85946655 46.43388367 C228.78137428 46.38015563 226.70350653 46.34600875 224.625 46.3125 C223.20700024 46.27929347 221.78902999 46.24480076 220.37109375 46.20898438 C216.9142782 46.12445349 213.45738362 46.05746432 210 46 C209.94739014 45.31800537 209.89478027 44.63601074 209.84057617 43.93334961 C209.76299072 43.03624268 209.68540527 42.13913574 209.60546875 41.21484375 C209.49561646 39.88247681 209.49561646 39.88247681 209.38354492 38.52319336 C208.8243801 34.84466476 207.47433823 32.74183426 205 30 C200.37180584 27.14074584 196.47891595 26.57752652 191.15234375 26.671875 C190.41802628 26.67374817 189.6837088 26.67562134 188.92713928 26.67755127 C187.38326437 26.68424017 185.83940548 26.69809133 184.2956543 26.71875 C181.94108187 26.74995253 179.58718084 26.75973258 177.23242188 26.765625 C175.72655439 26.77479497 174.22069367 26.78517073 172.71484375 26.796875 C172.01576401 26.80112488 171.31668427 26.80537476 170.59642029 26.80975342 C167.69706609 26.85189757 164.98984861 27.00204364 162.14282227 27.57519531 C160 28 160 28 158 27 C155.51681408 26.86488218 153.06295693 26.78740616 150.578125 26.76171875 C149.84051941 26.753647 149.10291382 26.74557526 148.34295654 26.73725891 C146.77944284 26.72341949 145.21589894 26.71269669 143.65234375 26.70483398 C141.27284555 26.68766484 138.89475307 26.64378613 136.515625 26.59960938 C134.99480186 26.58947817 133.47396693 26.5809634 131.953125 26.57421875 C131.24665833 26.55671066 130.54019165 26.53920258 129.81231689 26.52116394 C124.75168623 26.54313676 121.84033868 27.73205776 118 31 C117.53335938 32.22332031 117.06671875 33.44664062 116.5859375 34.70703125 C115.63964844 36.53759766 115.63964844 36.53759766 114 38 C108.89587589 38.96851995 103.79606434 38.80273752 98.625 38.6875 C96.5019885 38.65588171 94.38042731 38.63473597 92.25717163 38.63691711 C90.32575939 38.63672844 88.39444231 38.60189254 86.46337891 38.56518555 C81.79470673 39.15132013 78.58974223 41.09230932 75.57421875 44.7109375 C73.54860909 48.51230188 72.60205481 51.76773354 72 56 C71.12263184 56.0093457 70.24526367 56.01869141 69.34130859 56.02832031 C66.06432578 56.07251603 62.78861857 56.13420652 59.51220703 56.20751953 C58.09826552 56.23562392 56.68416998 56.25689067 55.27001953 56.27099609 C53.22869616 56.29257456 51.18920401 56.33929086 49.1484375 56.390625 C47.92302246 56.41157227 46.69760742 56.43251953 45.43505859 56.45410156 C41.25278072 57.11874785 39.21369749 58.24924064 36 61 C32.63234894 66.01307638 31.49738933 69.24636835 31.45410156 75.40405273 C31.44376389 76.107332 31.43342621 76.81061127 31.42277527 77.53520203 C31.39353058 79.83490474 31.3918521 82.13372037 31.390625 84.43359375 C31.37563083 86.03786377 31.35890109 87.64211842 31.34051514 89.24635315 C31.29696776 93.44994852 31.27687074 97.6533357 31.26177979 101.8571167 C31.24216296 106.154218 31.20019821 110.45109595 31.16015625 114.74804688 C31.08499069 123.16533329 31.03668463 131.58245783 31 140 C20.77 140 10.54 140 0 140 C0 93.8 0 47.6 0 0 Z " fill="#C6855A" transform="translate(119,114)"/>
<path d="M0 0 C1.78310474 -0.00576172 1.78310474 -0.00576172 3.6022318 -0.01163983 C4.91980889 -0.01077335 6.23738598 -0.00990687 7.59488964 -0.00901413 C8.99961004 -0.01159635 10.40432971 -0.01460911 11.80904835 -0.01801753 C15.68281693 -0.02610765 19.556567 -0.02787822 23.43034303 -0.028615 C27.60290837 -0.03046207 31.77546403 -0.03800764 35.9480238 -0.04475021 C45.07811387 -0.05834836 54.20819956 -0.06436056 63.33829808 -0.06876087 C69.03602425 -0.0715208 74.73374871 -0.0757577 80.43147373 -0.08026505 C96.19771023 -0.09245966 111.96394535 -0.10275859 127.73018646 -0.10614014 C128.73981385 -0.1063597 129.74944123 -0.10657927 130.78966339 -0.10680549 C131.80174715 -0.10702377 132.81383092 -0.10724204 133.85658389 -0.10746694 C135.90755133 -0.10791041 137.95851876 -0.10835697 140.0094862 -0.10880661 C141.53552182 -0.10913875 141.53552182 -0.10913875 143.09238645 -0.10947761 C159.58177761 -0.11342665 176.0711246 -0.13088305 192.56049869 -0.15416613 C209.47800357 -0.1778615 226.39548627 -0.19034116 243.31300801 -0.19150805 C252.81636915 -0.19242584 262.31967275 -0.19820413 271.82301807 -0.21632767 C279.91462182 -0.23170419 288.00615026 -0.23686364 296.09776584 -0.22858956 C300.22797439 -0.22467434 304.35803116 -0.22565497 308.48822117 -0.23964691 C312.26767247 -0.25233382 316.04685714 -0.25123454 319.8263078 -0.2390562 C321.84462676 -0.23615717 323.86295011 -0.24807434 325.88123304 -0.26047826 C327.07779277 -0.25388841 328.27435251 -0.24729857 329.50717163 -0.24050903 C330.54006594 -0.24110612 331.57296026 -0.24170321 332.6371544 -0.24231839 C335.93204317 0.19667171 337.78014132 1.16581732 340.44234753 3.13142776 C346.92440692 12.85451686 342.44234753 26.445729 342.44234753 38.13142776 C225.62234753 38.13142776 108.80234753 38.13142776 -11.55765247 38.13142776 C-11.55765247 6.13142776 -11.55765247 6.13142776 -7.55765247 1.13142776 C-4.91947821 -0.18765937 -2.95600877 0.003569 0 0 Z " fill="#61A3FA" transform="translate(90.5576524734497,14.868572235107422)"/>
<path d="M0 0 C116.82 0 233.64 0 354 0 C354 31 354 31 351 36 C347.83188511 38.25081478 345.01551995 38.2520532 341.19625187 38.25726891 C339.40717398 38.26694224 339.40717398 38.26694224 337.58195311 38.276811 C336.2702017 38.2737138 334.9584503 38.2706166 333.60694885 38.26742554 C332.20050068 38.27116125 330.79405459 38.27576245 329.38761181 38.28115618 C325.51834185 38.29341124 321.6491582 38.29312279 317.77987325 38.29076743 C313.60869786 38.2903599 309.43755038 38.30139222 305.26638794 38.31088257 C297.09303282 38.32750672 288.91970654 38.33299273 280.74633593 38.33410732 C274.10459287 38.33505703 267.46285935 38.33916341 260.82111931 38.34550858 C241.99997819 38.363124 223.17885991 38.37234685 204.35771049 38.37084763 C203.34272023 38.37076772 202.32772996 38.3706878 201.28198242 38.37060547 C200.26575634 38.37052371 199.24953026 38.37044195 198.20250946 38.37035771 C181.72615965 38.36954448 165.24990119 38.38869064 148.77357782 38.4168822 C131.86504496 38.44558559 114.95655669 38.45942394 98.04799885 38.45769465 C88.55135964 38.45702992 79.05481623 38.46255864 69.55819893 38.48405075 C61.47394183 38.50222899 53.38982394 38.50663754 45.30555529 38.4930319 C41.17934265 38.48648551 37.05339734 38.48644497 32.92720985 38.5037384 C29.15146394 38.51940067 25.37619886 38.5166764 21.60046517 38.49917014 C19.58422603 38.49462115 17.56797237 38.50981102 15.5517903 38.52564943 C14.35646396 38.51645184 13.16113762 38.50725425 11.92958927 38.49777794 C10.8977791 38.49821267 9.86596893 38.49864741 8.80289179 38.49909532 C5.23569096 37.86390375 3.56112872 36.51963493 1 34 C-2.58546448 23.24360655 0 11.33823423 0 0 Z " fill="#61A3FA" transform="translate(79,459)"/>
<path d="M0 0 C116.82 0 233.64 0 354 0 C354 124.74 354 249.48 354 378 C348.06 378 342.12 378 336 378 C335.99853344 376.28510596 335.99706688 374.57021193 335.99555588 372.8033514 C335.95986217 332.10504837 335.90363299 291.40681717 335.82207905 250.70857903 C335.81206146 245.70049504 335.80221735 240.69241072 335.79248047 235.68432617 C335.7905391 234.68729701 335.78859772 233.69026785 335.78659752 232.66302568 C335.75556735 216.51437488 335.73859403 200.3657383 335.72680578 184.2170633 C335.71439949 167.6498771 335.68690989 151.08276556 335.64538693 134.51562649 C335.62023659 124.29089952 335.60688384 114.06629636 335.60857043 103.84153802 C335.60860016 96.83223334 335.59399306 89.82305488 335.56783572 82.81379937 C335.55317246 78.76839597 335.54500155 74.72325142 335.55419731 70.67782593 C335.56247567 66.97333056 335.55235356 63.2693556 335.52766338 59.56493748 C335.51927958 57.59176643 335.53052786 55.61854204 335.54249835 53.6453895 C335.53105076 52.46799804 335.51960317 51.29060657 335.50780869 50.07753658 C335.5062898 49.0655819 335.50477092 48.05362722 335.50320601 47.01100725 C335.03094086 43.11642822 335.03094086 43.11642822 331 37 C331 25.12 331 13.24 331 1 C222.1 1 113.2 1 1 1 C1 19.48 1 37.96 1 57 C0.67 57 0.34 57 0 57 C0 38.19 0 19.38 0 0 Z " fill="#E5E5E5" transform="translate(79,67)"/>
<path d="M0 0 C93.06 0 186.12 0 282 0 C282 6.93 282 13.86 282 21 C277.38874146 21.02187378 277.38874146 21.02187378 272.68432617 21.04418945 C262.54211225 21.09446292 252.40005304 21.16104496 242.25799084 21.23571491 C236.10714711 21.28049629 229.95637082 21.31973526 223.80541992 21.34643555 C217.87253946 21.37239102 211.93991743 21.41273824 206.00719643 21.46318626 C203.74055501 21.47990757 201.47386885 21.49138894 199.2071743 21.49761391 C196.03912454 21.50719777 192.87174386 21.53518858 189.70385742 21.56762695 C188.28937317 21.56547432 188.28937317 21.56547432 186.84631348 21.5632782 C185.98394577 21.57581635 185.12157806 21.58835449 184.233078 21.60127258 C183.48366031 21.60588155 182.73424261 21.61049051 181.96211529 21.61523914 C179.45230974 22.10739928 178.59301301 23.03946632 177 25 C175.82425289 27.09989652 175.82425289 27.09989652 175 29 C172.74962227 28.99398295 170.49933208 28.9438571 168.25 28.875 C166.99703125 28.85179687 165.7440625 28.82859375 164.453125 28.8046875 C163.31359375 28.53914063 162.1740625 28.27359375 161 28 C160.40163204 27.00906782 159.80326408 26.01813564 159.18676376 24.99717522 C157.30048074 21.7442083 157.30048074 21.7442083 154.0558815 21.24609566 C152.90179668 21.24425207 151.74771187 21.24240849 150.55865479 21.24050903 C149.59185166 21.22669388 149.59185166 21.22669388 148.60551715 21.21259964 C146.44744308 21.18901841 144.29187764 21.20812287 142.13378906 21.22705078 C140.58640501 21.21888023 139.03903295 21.20807797 137.49168396 21.19483948 C133.29139385 21.16637065 129.09188665 21.17476572 124.89155674 21.18970728 C120.5019007 21.19907728 116.11243703 21.17464597 111.72283936 21.15377808 C103.41077233 21.11941014 95.09898031 21.11550448 86.78685641 21.12250316 C77.32374028 21.12899075 67.86081776 21.10157983 58.39775896 21.07130075 C38.93180644 21.00977578 19.46603961 20.99209048 0 21 C0 14.07 0 7.14 0 0 Z " fill="#985D33" transform="translate(118,269)"/>
<path d="M0 0 C35.65332194 -0.02286519 71.3066426 -0.04049762 106.95997035 -0.05106533 C111.16463845 -0.05231611 115.36930653 -0.05361042 119.57397461 -0.05493164 C120.41108444 -0.05519395 121.24819426 -0.05545626 122.11067105 -0.05572652 C135.68323676 -0.06008346 149.25579824 -0.06797114 162.82836144 -0.0771528 C176.74446872 -0.08648868 190.66057378 -0.09205547 204.57668406 -0.09408849 C213.17073022 -0.09546386 221.76476448 -0.09981517 230.35880698 -0.10791647 C236.24388604 -0.11318312 242.12895891 -0.11480448 248.01404016 -0.11350138 C251.41459468 -0.11285787 254.81512832 -0.11387694 258.21567917 -0.11920547 C261.89375738 -0.12413514 265.57178341 -0.12300098 269.24986267 -0.12025452 C270.33641535 -0.12316736 271.42296803 -0.1260802 272.54244655 -0.12908131 C274.00845927 -0.12609474 274.00845927 -0.12609474 275.5040884 -0.12304783 C276.35428222 -0.12342755 277.20447604 -0.12380727 278.08043331 -0.1241985 C280 0 280 0 281 1 C281.09641497 2.80960871 281.12187398 4.62302128 281.12025452 6.43519592 C281.12231651 8.20423027 281.12231651 8.20423027 281.12442017 10.00900269 C281.12082489 11.3145108 281.11722961 12.62001892 281.11352539 13.96508789 C281.11324352 15.34452818 281.11340125 16.72396861 281.1139679 18.10340881 C281.11425588 21.85944118 281.10835905 25.61544189 281.10139394 29.37146688 C281.09516051 33.29260045 281.09455661 37.21373467 281.09336853 41.13487244 C281.09025518 48.56511611 281.08204175 55.99534514 281.07201904 63.42558235 C281.06085801 71.88251638 281.05534748 80.3394511 281.05032361 88.79639065 C281.03985914 106.19760377 281.02151361 123.5987968 281 141 C271.1 141 261.2 141 251 141 C251 113.94 251 86.88 251 59 C251.33 59 251.66 59 252 59 C252 85.73 252 112.46 252 140 C254.31 140 256.62 140 259 140 C259 94.13 259 48.26 259 1 C173.53 1 88.06 1 0 1 C0 0.67 0 0.34 0 0 Z " fill="#BC7B4C" transform="translate(119,114)"/>
<path d="M0 0 C7.26 0 14.52 0 22 0 C22 46.2 22 92.4 22 140 C12.1 140 2.2 140 -8 140 C-8 119.21 -8 98.42 -8 77 C-7.67 77 -7.34 77 -7 77 C-7 97.46 -7 117.92 -7 139 C-4.69 139 -2.38 139 0 139 C0 93.13 0 47.26 0 0 Z " fill="#C07C4D" transform="translate(378,305)"/>
<path d="M0 0 C8.58 0 17.16 0 26 0 C26 23.76 26 47.52 26 72 C17.42 72 8.84 72 0 72 C0 48.24 0 24.48 0 0 Z " fill="#9EF0BF" transform="translate(288,183)"/>
<path d="M0 0 C8.58 0 17.16 0 26 0 C26 23.76 26 47.52 26 72 C17.42 72 8.84 72 0 72 C0 48.24 0 24.48 0 0 Z " fill="#F4C4D7" transform="translate(247,183)"/>
<path d="M0 0 C8.58 0 17.16 0 26 0 C26 22.44 26 44.88 26 68 C17.42 68 8.84 68 0 68 C0 45.56 0 23.12 0 0 Z " fill="#7DB2F6" transform="translate(165,375)"/>
<path d="M0 0 C8.58 0 17.16 0 26 0 C26 22.11 26 44.22 26 67 C17.42 67 8.84 67 0 67 C0 44.89 0 22.78 0 0 Z " fill="#F9E6A7" transform="translate(247,376)"/>
<path d="M0 0 C8.58 0 17.16 0 26 0 C26 17.16 26 34.32 26 52 C17.42 52 8.84 52 0 52 C0 34.84 0 17.68 0 0 Z " fill="#7DB1F6" transform="translate(206,203)"/>
<path d="M0 0 C8.58 0 17.16 0 26 0 C26 16.5 26 33 26 50 C17.42 50 8.84 50 0 50 C0 33.5 0 17 0 0 Z " fill="#B8F5D0" transform="translate(288,393)"/>
<path d="M0 0 C2.89640118 -0.08120751 5.79050912 -0.14059421 8.6875 -0.1875 C9.50412109 -0.21263672 10.32074219 -0.23777344 11.16210938 -0.26367188 C15.9425753 -0.32173421 19.14632382 -0.16104605 23 3 C29.4820594 12.72308909 25 26.31430124 25 38 C-91.82 38 -208.64 38 -329 38 C-329 27.44 -329 16.88 -329 6 C-328.67 6 -328.34 6 -328 6 C-328 16.23 -328 26.46 -328 37 C-219.1 37 -110.2 37 2 37 C2.31076414 18.31844349 2.31076414 18.31844349 0 0 Z " fill="#477BCE" transform="translate(408,15)"/>
<path d="M0 0 C116.82 0 233.64 0 354 0 C354 31 354 31 351 36 C348.20112959 37.89846967 346.01445289 38.24306361 342.671875 38.1953125 C341.47304688 38.18564453 341.47304688 38.18564453 340.25 38.17578125 C339.425 38.15902344 338.6 38.14226562 337.75 38.125 C336.90953125 38.11597656 336.0690625 38.10695313 335.203125 38.09765625 C333.13529396 38.07415817 331.06761005 38.03828908 329 38 C329.33 37.01 329.66 36.02 330 35 C330.33 23.78 330.66 12.56 331 1 C222.1 1 113.2 1 1 1 C1 10.9 1 20.8 1 31 C0.67 31 0.34 31 0 31 C0 20.77 0 10.54 0 0 Z " fill="#477BCE" transform="translate(79,459)"/>
<path d="M0 0 C8.58 0 17.16 0 26 0 C26 14.85 26 29.7 26 45 C17.42 45 8.84 45 0 45 C0 30.15 0 15.3 0 0 Z " fill="#BAD4F7" transform="translate(206,398)"/>
<path d="M0 0 C8.58 0 17.16 0 26 0 C26 14.19 26 28.38 26 43 C17.42 43 8.84 43 0 43 C0 28.81 0 14.62 0 0 Z " fill="#B8D2F5" transform="translate(329,212)"/>
<path d="M0 0 C93.06 0 186.12 0 282 0 C282 6.93 282 13.86 282 21 C249 21 216 21 182 21 C182 20.67 182 20.34 182 20 C207.74 20 233.48 20 260 20 C260 13.73 260 7.46 260 1 C174.53 1 89.06 1 1 1 C1 7.27 1 13.54 1 20 C51.82 20 102.64 20 155 20 C155 20.33 155 20.66 155 21 C103.85 21 52.7 21 0 21 C0 14.07 0 7.14 0 0 Z " fill="#6F4425" transform="translate(118,269)"/>
<path d="M0 0 C8.58 0 17.16 0 26 0 C26 11.55 26 23.1 26 35 C17.42 35 8.84 35 0 35 C0 23.45 0 11.9 0 0 Z " fill="#F6E2A5" transform="translate(165,220)"/>
<path d="M0 0 C8.58 0 17.16 0 26 0 C26 8.91 26 17.82 26 27 C17.42 27 8.84 27 0 27 C0 18.09 0 9.18 0 0 Z " fill="#F2C2D6" transform="translate(329,416)"/>
<path d="M0 0 C8.58 0 17.16 0 26 0 C26 7.26 26 14.52 26 22 C17.42 22 8.84 22 0 22 C0 14.74 0 7.48 0 0 Z " fill="#BBD6FA" transform="translate(329,175)"/>
<path d="M0 0 C8.58 0 17.16 0 26 0 C26 6.93 26 13.86 26 21 C17.42 21 8.84 21 0 21 C0 14.07 0 7.14 0 0 Z " fill="#7DB2F6" transform="translate(206,167)"/>
<path d="M0 0 C8.58 0 17.16 0 26 0 C26 6.6 26 13.2 26 20 C17.42 20 8.84 20 0 20 C0 13.4 0 6.8 0 0 Z " fill="#B6D0F2" transform="translate(206,364)"/>
<path d="M0 0 C8.58 0 17.16 0 26 0 C26 6.6 26 13.2 26 20 C17.42 20 8.84 20 0 20 C0 13.4 0 6.8 0 0 Z " fill="#FBE8A8" transform="translate(165,185)"/>
<path d="M0 0 C8.58 0 17.16 0 26 0 C26 5.94 26 11.88 26 18 C17.42 18 8.84 18 0 18 C0 12.06 0 6.12 0 0 Z " fill="#F6E3A5" transform="translate(247,344)"/>
<path d="M0 0 C8.58 0 17.16 0 26 0 C26 5.61 26 11.22 26 17 C17.42 17 8.84 17 0 17 C0 11.39 0 5.78 0 0 Z " fill="#F6C5D9" transform="translate(329,384)"/>
<path d="M0 0 C8.58 0 17.16 0 26 0 C26 5.61 26 11.22 26 17 C17.42 17 8.84 17 0 17 C0 11.39 0 5.78 0 0 Z " fill="#B5F0CC" transform="translate(288,361)"/>
<path d="M0 0 C8.58 0 17.16 0 26 0 C26 5.61 26 11.22 26 17 C17.42 17 8.84 17 0 17 C0 11.39 0 5.78 0 0 Z " fill="#7BAFF3" transform="translate(165,344)"/>
<path d="M0 0 C8.58 0 17.16 0 26 0 C26 4.29 26 8.58 26 13 C17.42 13 8.84 13 0 13 C0 8.71 0 4.42 0 0 Z " fill="#9EEFBE" transform="translate(288,155)"/>
<path d="M0 0 C8.58 0 17.16 0 26 0 C26 4.29 26 8.58 26 13 C17.42 13 8.84 13 0 13 C0 8.71 0 4.42 0 0 Z " fill="#F3C3D7" transform="translate(247,155)"/>
</svg>
