<?xml version="1.0" encoding="UTF-8"?>
<svg version="1.1" xmlns="http://www.w3.org/2000/svg" width="512" height="512">
<path d="M0 0 C69.3 0 138.6 0 210 0 C210 29.7 210 59.4 210 90 C249.6 90 289.2 90 330 90 C330 199.23 330 308.46 330 421 C340.23 421 350.46 421 361 421 C361 441.13 361 461.26 361 482 C340.87 482 320.74 482 300 482 C300 491.9 300 501.8 300 512 C270.3 512 240.6 512 210 512 C210 502.1 210 492.2 210 482 C140.7 482 71.4 482 0 482 C0 491.9 0 501.8 0 512 C-29.7 512 -59.4 512 -90 512 C-90 502.1 -90 492.2 -90 482 C-110.13 482 -130.26 482 -151 482 C-151 461.87 -151 441.74 -151 421 C-140.77 421 -130.54 421 -120 421 C-120 291.97 -120 162.94 -120 30 C-80.4 30 -40.8 30 0 30 C0 20.1 0 10.2 0 0 Z " fill="#FFC97F" transform="translate(151,0)"/>
<path d="M0 0 C19.8 0 39.6 0 60 0 C60 109.23 60 218.46 60 331 C70.23 331 80.46 331 91 331 C91 351.13 91 371.26 91 392 C70.87 392 50.74 392 30 392 C30 401.9 30 411.8 30 422 C0.3 422 -29.4 422 -60 422 C-60 412.1 -60 402.2 -60 392 C-129.3 392 -198.6 392 -270 392 C-270 401.9 -270 411.8 -270 422 C-299.7 422 -329.4 422 -360 422 C-360 412.1 -360 402.2 -360 392 C-380.13 392 -400.26 392 -421 392 C-421 371.87 -421 351.74 -421 331 C-410.77 331 -400.54 331 -390 331 C-390 311.2 -390 291.4 -390 271 C-350.4 271 -310.8 271 -270 271 C-270 290.8 -270 310.6 -270 331 C-180.9 331 -91.8 331 0 331 C0 261.37 0 191.74 0 120 C-19.8 120 -39.6 120 -60 120 C-60 100.2 -60 80.4 -60 60 C-40.2 60 -20.4 60 0 60 C0 40.2 0 20.4 0 0 Z " fill="#BB5D4C" transform="translate(421,90)"/>
<path d="M0 0 C39.6 0 79.2 0 120 0 C120 89.1 120 178.2 120 270 C189.3 270 258.6 270 330 270 C330 290.13 330 310.26 330 331 C221.1 331 112.2 331 0 331 C0 221.77 0 112.54 0 0 Z " fill="#26BFBF" transform="translate(31,30)"/>
<path d="M0 0 C34.65 0 69.3 0 105 0 C105 99 105 198 105 300 C70.35 300 35.7 300 0 300 C0 201 0 102 0 0 Z " fill="#FFE5B2" transform="translate(151,0)"/>
<path d="M0 0 C19.8 0 39.6 0 60 0 C60 69.63 60 139.26 60 211 C-29.1 211 -118.2 211 -210 211 C-210 191.2 -210 171.4 -210 151 C-140.7 151 -71.4 151 0 151 C0 101.17 0 51.34 0 0 Z " fill="#FF637B" transform="translate(361,210)"/>
<path d="M0 0 C19.8 0 39.6 0 60 0 C60 109.23 60 218.46 60 331 C40.2 331 20.4 331 0 331 C0 261.37 0 191.74 0 120 C-19.8 120 -39.6 120 -60 120 C-60 100.2 -60 80.4 -60 60 C-40.2 60 -20.4 60 0 60 C0 40.2 0 20.4 0 0 Z " fill="#E63950" transform="translate(421,90)"/>
<path d="M0 0 C19.8 0 39.6 0 60 0 C60 19.8 60 39.6 60 60 C64.95 60 69.9 60 75 60 C75 109.5 75 159 75 210 C70.05 210 65.1 210 60 210 C60 230.13 60 250.26 60 271 C40.2 271 20.4 271 0 271 C0 181.57 0 92.14 0 0 Z " fill="#57D9D4" transform="translate(31,90)"/>
<path d="M0 0 C84.48 0 168.96 0 256 0 C256 20.13 256 40.26 256 61 C235.87 61 215.74 61 195 61 C195 70.9 195 80.8 195 91 C165.3 91 135.6 91 105 91 C105 81.1 105 71.2 105 61 C70.35 61 35.7 61 0 61 C0 40.87 0 20.74 0 0 Z " fill="#A44F3E" transform="translate(256,421)"/>
<path d="M0 0 C69.3 0 138.6 0 210 0 C210 20.13 210 40.26 210 61 C140.7 61 71.4 61 0 61 C0 40.87 0 20.74 0 0 Z " fill="#474F54" transform="translate(151,300)"/>
<path d="M0 0 C69.3 0 138.6 0 210 0 C210 19.8 210 39.6 210 60 C140.7 60 71.4 60 0 60 C0 40.2 0 20.4 0 0 Z " fill="#FFCA80" transform="translate(151,361)"/>
<path d="M0 0 C19.8 0 39.6 0 60 0 C60 39.6 60 79.2 60 120 C20.4 120 -19.2 120 -60 120 C-60 100.2 -60 80.4 -60 60 C-40.2 60 -20.4 60 0 60 C0 40.2 0 20.4 0 0 Z " fill="#474F54" transform="translate(421,90)"/>
<path d="M0 0 C39.6 0 79.2 0 120 0 C120 19.8 120 39.6 120 60 C80.4 60 40.8 60 0 60 C0 40.2 0 20.4 0 0 Z " fill="#32393F" transform="translate(31,361)"/>
<path d="M0 0 C39.6 0 79.2 0 120 0 C120 19.8 120 39.6 120 60 C80.4 60 40.8 60 0 60 C0 40.2 0 20.4 0 0 Z " fill="#32393F" transform="translate(31,30)"/>
<path d="M0 0 C34.65 0 69.3 0 105 0 C105 20.13 105 40.26 105 61 C70.35 61 35.7 61 0 61 C0 40.87 0 20.74 0 0 Z " fill="#575F64" transform="translate(151,300)"/>
<path d="M0 0 C34.65 0 69.3 0 105 0 C105 19.8 105 39.6 105 60 C70.35 60 35.7 60 0 60 C0 40.2 0 20.4 0 0 Z " fill="#FFE6B3" transform="translate(151,361)"/>
<path d="M0 0 C9.9 0 19.8 0 30 0 C30 49.5 30 99 30 150 C20.1 150 10.2 150 0 150 C0 100.5 0 51 0 0 Z " fill="#D9F2FF" transform="translate(76,150)"/>
<path d="M0 0 C4.49373321 3.85177132 8.78521651 7.64175838 12.93530273 11.82177734 C13.48252487 12.36885345 14.02974701 12.91592957 14.59355164 13.47958374 C16.37595053 15.26267133 18.15479523 17.04925883 19.93359375 18.8359375 C21.17890345 20.0831151 22.42443621 21.33007001 23.67018127 22.57681274 C26.92905366 25.83948105 30.18491018 29.10514251 33.44012451 32.37145996 C36.77009779 35.71171062 40.10294673 39.04908931 43.43554688 42.38671875 C49.95983139 48.92168893 56.48092996 55.45982831 63 62 C61.36898001 66.13078635 58.37644977 68.89796646 55.28100586 71.96191406 C54.69710587 72.5477124 54.11320587 73.13351074 53.51161194 73.73706055 C51.58420501 75.66816643 49.64970289 77.59198813 47.71484375 79.515625 C46.37451852 80.85475816 45.03456269 82.19426115 43.69496155 83.53411865 C40.88948675 86.33803028 38.08068585 89.13855184 35.26928711 91.93652344 C31.65687414 95.53190586 28.05112018 99.13387727 24.44759274 102.73816299 C21.68306325 105.50242131 18.91594109 108.26407149 16.14792061 111.02483368 C14.81678551 112.35277662 13.48626401 113.68133493 12.1563549 115.01050568 C10.30327618 116.86142894 8.44695035 118.70902902 6.58959961 120.55566406 C5.75813919 121.38780426 5.75813919 121.38780426 4.90988159 122.23675537 C1.1144767 126 1.1144767 126 0 126 C0 84.42 0 42.84 0 0 Z " fill="#FF9100" transform="translate(256,57)"/>
<path d="M0 0 C0 41.58 0 83.16 0 126 C-4.49373321 122.14822868 -8.78521651 118.35824162 -12.93530273 114.17822266 C-13.48252487 113.63114655 -14.02974701 113.08407043 -14.59355164 112.52041626 C-16.37595053 110.73732867 -18.15479523 108.95074117 -19.93359375 107.1640625 C-21.17890345 105.9168849 -22.42443621 104.66992999 -23.67018127 103.42318726 C-26.92905366 100.16051895 -30.18491018 96.89485749 -33.44012451 93.62854004 C-36.77009779 90.28828938 -40.10294673 86.95091069 -43.43554688 83.61328125 C-49.95983139 77.07831107 -56.48092996 70.54017169 -63 64 C-61.36898001 59.86921365 -58.37644977 57.10203354 -55.28100586 54.03808594 C-54.40515587 53.15938843 -54.40515587 53.15938843 -53.51161194 52.26293945 C-51.58420501 50.33183357 -49.64970289 48.40801187 -47.71484375 46.484375 C-46.37451852 45.14524184 -45.03456269 43.80573885 -43.69496155 42.46588135 C-40.88948675 39.66196972 -38.08068585 36.86144816 -35.26928711 34.06347656 C-31.65687414 30.46809414 -28.05112018 26.86612273 -24.44759274 23.26183701 C-21.68306325 20.49757869 -18.91594109 17.73592851 -16.14792061 14.97516632 C-14.81678551 13.64722338 -13.48626401 12.31866507 -12.1563549 10.98949432 C-10.30327618 9.13857106 -8.44695035 7.29097098 -6.58959961 5.44433594 C-5.75813919 4.61219574 -5.75813919 4.61219574 -4.90988159 3.76324463 C-1.1144767 0 -1.1144767 0 0 0 Z " fill="#FFCA80" transform="translate(256,57)"/>
<path d="M0 0 C19.8 0 39.6 0 60 0 C60 19.8 60 39.6 60 60 C40.2 60 20.4 60 0 60 C0 40.2 0 20.4 0 0 Z " fill="#474F54" transform="translate(31,361)"/>
<path d="M0 0 C19.8 0 39.6 0 60 0 C60 19.8 60 39.6 60 60 C40.2 60 20.4 60 0 60 C0 40.2 0 20.4 0 0 Z " fill="#575F64" transform="translate(361,150)"/>
<path d="M0 0 C19.8 0 39.6 0 60 0 C60 19.8 60 39.6 60 60 C40.2 60 20.4 60 0 60 C0 40.2 0 20.4 0 0 Z " fill="#E63950" transform="translate(421,90)"/>
<path d="M0 0 C19.8 0 39.6 0 60 0 C60 19.8 60 39.6 60 60 C40.2 60 20.4 60 0 60 C0 40.2 0 20.4 0 0 Z " fill="#FF637B" transform="translate(361,90)"/>
<path d="M0 0 C19.8 0 39.6 0 60 0 C60 19.8 60 39.6 60 60 C40.2 60 20.4 60 0 60 C0 40.2 0 20.4 0 0 Z " fill="#474F54" transform="translate(31,30)"/>
<path d="M0 0 C4.95 0 9.9 0 15 0 C15 49.5 15 99 15 150 C10.05 150 5.1 150 0 150 C0 100.5 0 51 0 0 Z " fill="#E6FFFF" transform="translate(76,150)"/>
<path d="M0 0 C14.85 0 29.7 0 45 0 C45 9.9 45 19.8 45 30 C30.15 30 15.3 30 0 30 C0 20.1 0 10.2 0 0 Z " fill="#FF9100" transform="translate(256,210)"/>
<path d="M0 0 C14.85 0 29.7 0 45 0 C45 9.9 45 19.8 45 30 C30.15 30 15.3 30 0 30 C0 20.1 0 10.2 0 0 Z " fill="#FFCA80" transform="translate(211,210)"/>
</svg>
