<?xml version="1.0" encoding="UTF-8"?>
<svg version="1.1" xmlns="http://www.w3.org/2000/svg" width="512" height="512">
<path d="M0 0 C168.96 0 337.92 0 512 0 C512 168.96 512 337.92 512 512 C343.04 512 174.08 512 0 512 C0 343.04 0 174.08 0 0 Z " fill="#FEFDFE" transform="translate(0,0)"/>
<path d="M0 0 C168.96 0 337.92 0 512 0 C512 168.96 512 337.92 512 512 C343.04 512 174.08 512 0 512 C0 343.04 0 174.08 0 0 Z M192 61 C190.92685547 61.35964844 190.92685547 61.35964844 189.83203125 61.7265625 C159.34937129 72.13527566 132.85693222 89.39228142 110 112 C109.11501831 112.85863647 109.11501831 112.85863647 108.2121582 113.73461914 C104.39708066 117.47216496 100.94328504 121.33114596 97.6875 125.5625 C97.22093994 126.16545898 96.75437988 126.76841797 96.27368164 127.38964844 C94.84053515 129.25339239 93.41879033 131.12531165 92 133 C91.56751953 133.56638184 91.13503906 134.13276367 90.68945312 134.71630859 C58.91846212 176.58401284 45.25816414 231.32264333 52.25 283.3046875 C59.14040415 328.49877087 79.5097783 369.74392519 112 402 C112.53447754 402.53173828 113.06895508 403.06347656 113.61962891 403.61132812 C136.96678285 426.56349792 166.70715432 443.51248755 198 453 C199.02222656 453.32742188 200.04445312 453.65484375 201.09765625 453.9921875 C252.52835381 469.22653879 308.60691803 460.83135176 355.3671875 435.6953125 C373.05263671 425.83188015 388.74255447 413.32018456 403 399 C403.54205078 398.46052734 404.08410156 397.92105469 404.64257812 397.36523438 C423.59763159 378.31528703 437.50416406 354.83500258 447.24072266 329.91210938 C447.85748973 328.35888761 448.52150562 326.82448895 449.19921875 325.296875 C468.02611362 282.73172139 464.64268355 226.76019107 448.46508789 184.28881836 C437.43971572 156.44622457 421.67572602 132.57499645 401 111 C400.28972656 110.24847656 399.57945312 109.49695313 398.84765625 108.72265625 C362.99736082 71.69934502 309.99869248 51.82272329 259.11132812 50.66357422 C236.12106591 50.41368006 213.79347038 53.64888052 192 61 Z " fill="#366CB5" transform="translate(0,0)"/>
<path d="M0 0 C1.093125 0.26683594 2.18625 0.53367188 3.3125 0.80859375 C22.43466615 6.08124986 38.7381971 16.36842407 53 30 C53.79792969 30.7115625 54.59585938 31.423125 55.41796875 32.15625 C74.0654319 49.46963391 88.07027389 77.36495828 89.12280273 102.98974609 C89.80234285 132.09223922 89.80234285 132.09223922 86 146 C85.70198486 147.09030518 85.70198486 147.09030518 85.39794922 148.20263672 C79.66744363 168.36457286 69.38821297 184.77289828 55 200 C54.35289062 200.69996094 53.70578125 201.39992188 53.0390625 202.12109375 C36.65142056 219.27795153 13.31347427 230.4840468 -10 234 C-11.51980469 234.27263672 -11.51980469 234.27263672 -13.0703125 234.55078125 C-45.29222995 238.23420124 -75.26752251 231.76646345 -101.37890625 212.09765625 C-105.76776459 208.58526142 -109.9185419 204.86316294 -114 201 C-114.78503906 200.2678125 -115.57007813 199.535625 -116.37890625 198.78125 C-133.45353756 182.37111364 -144.39020556 159.24152267 -148 136 C-148.25692627 134.61868896 -148.25692627 134.61868896 -148.51904297 133.20947266 C-149.39502808 127.36393952 -149.24474145 121.46285522 -149.25 115.5625 C-149.25067474 114.88637665 -149.25134949 114.2102533 -149.25204468 113.51364136 C-149.23637675 103.65383188 -148.84890796 94.5079408 -146 85 C-145.68289062 83.82824219 -145.36578125 82.65648437 -145.0390625 81.44921875 C-136.48692142 52.72979462 -116.78160261 28.07955194 -91 13 C-90.38125 12.63293945 -89.7625 12.26587891 -89.125 11.88769531 C-80.10742575 6.6039604 -71.09523621 2.81727522 -61 0 C-59.92492187 -0.3196875 -58.84984375 -0.639375 -57.7421875 -0.96875 C-39.47727048 -5.54557376 -18.19674943 -4.60904508 0 0 Z " fill="#366CB5" transform="translate(286,140)"/>
<path d="M0 0 C168.96 0 337.92 0 512 0 C512 168.96 512 337.92 512 512 C343.04 512 174.08 512 0 512 C0 343.04 0 174.08 0 0 Z M32 27 C31.38382813 27.47824219 30.76765625 27.95648438 30.1328125 28.44921875 C23.79159345 34.04358311 18.58594752 43.63392825 17 52 C16.90717448 54.26253147 16.87266886 56.52765211 16.87136555 58.7920866 C16.86961251 59.47779695 16.86785947 60.1635073 16.86605331 60.86999676 C16.86138385 63.17862524 16.86386125 65.487191 16.86628723 67.79582214 C16.86441973 69.4634048 16.86211927 71.13098702 16.85942191 72.79856855 C16.85328985 77.389798 16.85343916 81.98100928 16.85461628 86.5722419 C16.85481994 91.52058642 16.84930484 96.46892505 16.84455872 101.41726685 C16.83624354 111.11598038 16.83350347 120.81468783 16.83294634 130.51340463 C16.83247152 138.39652898 16.83041848 146.27965132 16.82724571 154.16277504 C16.81843622 176.5052515 16.81382671 198.84772315 16.81457619 221.19020136 C16.81461614 222.39530845 16.8146561 223.60041553 16.81469727 224.84204102 C16.81473815 226.0486172 16.81477903 227.25519338 16.81482115 228.49833248 C16.81522754 248.05001563 16.8056604 267.60167953 16.7915589 287.15335711 C16.77719903 307.2214188 16.77028852 327.28947109 16.77115268 347.35753804 C16.77148481 358.62714756 16.76873043 369.89673689 16.75797462 381.16634178 C16.74887467 390.7626721 16.74669017 400.35897308 16.75348405 409.95530584 C16.756752 414.8515384 16.75679602 419.74771465 16.7481308 424.64394188 C16.74027692 429.12786245 16.74168589 433.61168197 16.75041493 438.09560005 C16.75195239 439.71608794 16.75012451 441.33658333 16.74455485 442.95706239 C16.69608527 458.06195177 18.38012485 471.37037484 29.1875 482.875 C37.65592088 490.7436339 47.56692106 495.24860751 59.17964077 495.25168228 C59.87080062 495.25458916 60.56196048 495.25749604 61.27406457 495.26049101 C63.58322571 495.26777273 65.89211961 495.26085629 68.20127869 495.25396729 C69.87628886 495.25627244 71.55129802 495.25944934 73.22630507 495.26342177 C77.82411122 495.27177091 82.42183435 495.26764393 87.0196408 495.26144934 C91.98018638 495.25692632 96.94071764 495.26390789 101.90126038 495.26940918 C111.61728368 495.27830661 121.33327609 495.27637955 131.0493006 495.2705839 C138.94571208 495.26606854 146.8421149 495.26545396 154.7385273 495.26763153 C156.42383497 495.26809123 156.42383497 495.26809123 158.14318927 495.26856022 C160.42559469 495.26919966 162.7080001 495.26984809 164.99040551 495.2705054 C186.39745865 495.27620979 207.80449467 495.26964923 229.211545 495.25890467 C247.58073584 495.24997028 265.94990141 495.25152007 284.3190918 495.26074219 C305.6476003 495.27144499 326.97609378 495.27565917 348.30460459 495.26951766 C350.57895537 495.26888056 352.85330615 495.26825182 355.12765694 495.26763153 C356.80621417 495.2671687 356.80621417 495.2671687 358.51868166 495.26669653 C366.40531534 495.26496953 374.2919395 495.26788483 382.1785717 495.27259064 C391.79023214 495.27819963 401.4018599 495.27668266 411.0135166 495.26602915 C415.91774492 495.26077252 420.82191878 495.25871557 425.7261467 495.26532745 C430.21606694 495.27128921 434.70588225 495.26800798 439.19579298 495.25737235 C440.81953663 495.25513928 442.44328915 495.25627252 444.06702708 495.26112393 C458.78820093 495.30173183 471.49292884 493.37305411 482.8125 483 C491.57116795 473.58722388 495.11557113 462.58310251 495.13422108 449.84435654 C495.13657331 449.15578385 495.13892554 448.46721115 495.14134905 447.75777262 C495.14798994 445.45745647 495.14758232 443.15719745 495.14717102 440.85687256 C495.15047268 439.18812578 495.15419888 437.51937979 495.1583125 435.85063481 C495.16830573 431.2700484 495.17204495 426.68947509 495.17470181 422.10887933 C495.17861265 417.16668154 495.18819022 412.22449405 495.19691467 407.28230286 C495.21665378 395.35180873 495.22674061 383.42131378 495.23564246 371.49080741 C495.24002826 365.87069447 495.2453942 360.25058247 495.25063133 354.63047028 C495.26763864 335.94654409 495.28213367 317.26261849 495.28938007 298.57868576 C495.29128991 293.73295847 495.29321026 288.88723118 495.29516602 284.04150391 C495.29564976 282.83714885 495.2961335 281.63279379 495.2966319 280.39194313 C495.30493556 260.87411342 495.3302804 241.35634492 495.36274669 221.83854195 C495.39581519 201.79523605 495.41382852 181.75196127 495.41702431 161.70862794 C495.41918925 150.45685415 495.42793602 139.20516973 495.45348549 127.95342255 C495.4751893 118.37330438 495.48324431 108.79329729 495.47351871 99.21315733 C495.46897355 94.3267161 495.47087305 89.44050411 495.49028015 84.55409431 C495.5079084 80.0768774 495.50691684 75.60005701 495.49138286 71.1228359 C495.48900633 69.50710832 495.4933327 67.8913533 495.50521151 66.27566764 C495.59646014 53.03997635 493.31073054 42.63611743 485 32 C484.52175781 31.38382813 484.04351562 30.76765625 483.55078125 30.1328125 C476.8991078 22.59313227 466.83492832 18.11304841 457 17 C454.6160233 16.91109027 452.22998804 16.86927157 449.84435654 16.86577892 C448.8114975 16.86225058 448.8114975 16.86225058 447.75777262 16.85865095 C445.45745647 16.85201006 443.15719745 16.85241768 440.85687256 16.85282898 C439.18812578 16.84952732 437.51937979 16.84580112 435.85063481 16.8416875 C431.2700484 16.83169427 426.68947509 16.82795505 422.10887933 16.82529819 C417.16668154 16.82138735 412.22449405 16.81180978 407.28230286 16.80308533 C395.35180873 16.78334622 383.42131378 16.77325939 371.49080741 16.76435754 C365.87069447 16.75997174 360.25058247 16.7546058 354.63047028 16.74936867 C335.94654409 16.73236136 317.26261849 16.71786633 298.57868576 16.71061993 C293.73295847 16.70871009 288.88723118 16.70678974 284.04150391 16.70483398 C282.83714885 16.70435024 281.63279379 16.7038665 280.39194313 16.7033681 C260.87411342 16.69506444 241.35634492 16.6697196 221.83854195 16.63725331 C201.79523605 16.60418481 181.75196127 16.58617148 161.70862794 16.58297569 C150.45685415 16.58081075 139.20516973 16.57206398 127.95342255 16.54651451 C118.37330438 16.5248107 108.79329729 16.51675569 99.21315733 16.52648129 C94.3267161 16.53102645 89.44050411 16.52912695 84.55409431 16.50971985 C80.0768774 16.4920916 75.60005701 16.49308316 71.1228359 16.50861714 C69.50710832 16.51099367 67.8913533 16.5066673 66.27566764 16.49478849 C53.03997635 16.40353986 42.63611743 18.68926946 32 27 Z " fill="#4C007E" transform="translate(0,0)"/>
<path d="M0 0 C1.42681207 0.19857352 2.85390758 0.39511894 4.28125 0.58984375 C36.3702145 5.18155028 68.70670813 18.01419444 95 37 C95.59844727 37.42474609 96.19689453 37.84949219 96.81347656 38.28710938 C106.69867397 45.32739563 115.71219493 52.99335843 124.40771484 61.45458984 C125.77528763 62.7819029 127.16130336 64.09016686 128.55078125 65.39453125 C135.10749908 71.67174423 140.54353948 78.7740456 146 86 C146.72445313 86.95261719 147.44890625 87.90523438 148.1953125 88.88671875 C182.08985471 134.41174113 197.28766063 192.84440989 189.45751953 249.078125 C187.57124076 261.93524565 185.29334552 274.70732668 181 287 C180.71785645 287.81259277 180.43571289 288.62518555 180.14501953 289.46240234 C168.64696241 322.02095584 151.6629654 350.62235305 127.54541016 375.40771484 C126.2180971 376.77528763 124.90983314 378.16130336 123.60546875 379.55078125 C117.32712101 386.10868436 110.24313982 391.56278005 103 397 C102.43120117 397.42958008 101.86240234 397.85916016 101.27636719 398.30175781 C56.13173147 432.17979467 -2.34331587 448.16674846 -58.52612305 441.04785156 C-60.69125556 440.73253856 -62.84464291 440.37634701 -65 440 C-65.83917969 439.8546582 -66.67835938 439.70931641 -67.54296875 439.55957031 C-112.79217876 431.38141223 -153.50634745 410.5602967 -186.40771484 378.54541016 C-187.77528763 377.2180971 -189.16130336 375.90983314 -190.55078125 374.60546875 C-197.10749908 368.32825577 -202.54353948 361.2259544 -208 354 C-208.72445312 353.04738281 -209.44890625 352.09476562 -210.1953125 351.11328125 C-215.23700431 344.34159716 -219.77513467 337.30734283 -224 330 C-224.54358154 329.06075684 -224.54358154 329.06075684 -225.09814453 328.10253906 C-231.24612993 317.33355378 -235.8965867 306.22409994 -240.07495117 294.56030273 C-240.71043261 292.80144979 -241.36258865 291.04855981 -242.02856445 289.30102539 C-244.40613187 283.00635019 -246.18248876 276.77064337 -247.5625 270.1875 C-247.77156982 269.19032959 -247.98063965 268.19315918 -248.19604492 267.16577148 C-248.81914263 264.1143015 -249.41679324 261.05933031 -250 258 C-250.16951172 257.1140918 -250.33902344 256.22818359 -250.51367188 255.31542969 C-260.27169713 201.97020862 -247.38972473 144.64656248 -217.875 99.4375 C-216.6002274 97.61307849 -215.30875723 95.8001982 -214 94 C-213.31679687 93.04480469 -212.63359375 92.08960938 -211.9296875 91.10546875 C-177.8224298 44.46776691 -126.9671074 10.56042037 -69.5390625 0.83203125 C-46.43152912 -2.7145047 -23.15748744 -3.74191108 0 0 Z M-95 25 C-96.07314453 25.35964844 -96.07314453 25.35964844 -97.16796875 25.7265625 C-127.65062871 36.13527566 -154.14306778 53.39228142 -177 76 C-177.88498169 76.85863647 -177.88498169 76.85863647 -178.7878418 77.73461914 C-182.60291934 81.47216496 -186.05671496 85.33114596 -189.3125 89.5625 C-189.77906006 90.16545898 -190.24562012 90.76841797 -190.72631836 91.38964844 C-192.15946485 93.25339239 -193.58120967 95.12531165 -195 97 C-195.43248047 97.56638184 -195.86496094 98.13276367 -196.31054688 98.71630859 C-228.08153788 140.58401284 -241.74183586 195.32264333 -234.75 247.3046875 C-227.85959585 292.49877087 -207.4902217 333.74392519 -175 366 C-174.46552246 366.53173828 -173.93104492 367.06347656 -173.38037109 367.61132812 C-150.03321715 390.56349792 -120.29284568 407.51248755 -89 417 C-87.97777344 417.32742188 -86.95554688 417.65484375 -85.90234375 417.9921875 C-34.47164619 433.22653879 21.60691803 424.83135176 68.3671875 399.6953125 C86.05263671 389.83188015 101.74255447 377.32018456 116 363 C116.54205078 362.46052734 117.08410156 361.92105469 117.64257812 361.36523438 C136.59763159 342.31528703 150.50416406 318.83500258 160.24072266 293.91210938 C160.85748973 292.35888761 161.52150562 290.82448895 162.19921875 289.296875 C181.02611362 246.73172139 177.64268355 190.76019107 161.46508789 148.28881836 C150.43971572 120.44622457 134.67572602 96.57499645 114 75 C113.28972656 74.24847656 112.57945312 73.49695313 111.84765625 72.72265625 C75.99736082 35.69934502 22.99869248 15.82272329 -27.88867188 14.66357422 C-50.87893409 14.41368006 -73.20652962 17.64888052 -95 25 Z " fill="#4D027F" transform="translate(287,36)"/>
<path d="M0 0 C1.093125 0.26683594 2.18625 0.53367188 3.3125 0.80859375 C22.43466615 6.08124986 38.7381971 16.36842407 53 30 C53.79792969 30.7115625 54.59585938 31.423125 55.41796875 32.15625 C74.0654319 49.46963391 88.07027389 77.36495828 89.12280273 102.98974609 C89.80234285 132.09223922 89.80234285 132.09223922 86 146 C85.70198486 147.09030518 85.70198486 147.09030518 85.39794922 148.20263672 C79.66744363 168.36457286 69.38821297 184.77289828 55 200 C54.35289062 200.69996094 53.70578125 201.39992188 53.0390625 202.12109375 C36.65142056 219.27795153 13.31347427 230.4840468 -10 234 C-11.51980469 234.27263672 -11.51980469 234.27263672 -13.0703125 234.55078125 C-45.29222995 238.23420124 -75.26752251 231.76646345 -101.37890625 212.09765625 C-105.76776459 208.58526142 -109.9185419 204.86316294 -114 201 C-114.78503906 200.2678125 -115.57007813 199.535625 -116.37890625 198.78125 C-133.45353756 182.37111364 -144.39020556 159.24152267 -148 136 C-148.25692627 134.61868896 -148.25692627 134.61868896 -148.51904297 133.20947266 C-149.39502808 127.36393952 -149.24474145 121.46285522 -149.25 115.5625 C-149.25067474 114.88637665 -149.25134949 114.2102533 -149.25204468 113.51364136 C-149.23637675 103.65383188 -148.84890796 94.5079408 -146 85 C-145.68289062 83.82824219 -145.36578125 82.65648437 -145.0390625 81.44921875 C-136.48692142 52.72979462 -116.78160261 28.07955194 -91 13 C-90.38125 12.63293945 -89.7625 12.26587891 -89.125 11.88769531 C-80.10742575 6.6039604 -71.09523621 2.81727522 -61 0 C-59.92492187 -0.3196875 -58.84984375 -0.639375 -57.7421875 -0.96875 C-39.47727048 -5.54557376 -18.19674943 -4.60904508 0 0 Z M-106.44140625 47.1015625 C-128.13969049 71.68190892 -133.50878015 99.8844622 -131.796875 131.78515625 C-129.45800379 151.48760395 -119.11026824 170.48662612 -106 185 C-105.22914063 185.85335937 -104.45828125 186.70671875 -103.6640625 187.5859375 C-87.30500542 204.79206549 -63.16842371 217.17983854 -39.24633789 218.10668945 C-9.26539928 218.73625656 16.26156649 212.54015595 39 192 C39.85335937 191.22914063 40.70671875 190.45828125 41.5859375 189.6640625 C59.85882015 172.29076792 71.52943378 147.51726282 72.1875 122.296875 C72.66980269 90.45740057 63.67890499 65.26426103 41.6875 42.25 C19.90516767 21.23035438 -6.65180666 13.35407169 -36.30859375 13.81640625 C-63.92339318 14.54109781 -87.55211014 27.52687829 -106.44140625 47.1015625 Z " fill="#4E027F" transform="translate(286,140)"/>
<path d="M0 0 C5.12510003 1.64681498 9.07451612 4.33663917 13.47192383 7.39501953 C14.39273239 8.02068817 15.31354095 8.64635681 16.26225281 9.29098511 C19.19854166 11.29033968 22.1223032 13.30720244 25.04614258 15.32470703 C27.00042949 16.65919979 28.95550038 17.99254522 30.91137695 19.32470703 C35.35875341 22.3591197 39.80153961 25.39978083 44.22647095 28.46685791 C45.9844264 29.68188105 47.74882604 30.8876083 49.51791382 32.08636475 C50.41692413 32.70110657 51.31593445 33.31584839 52.2421875 33.94921875 C53.05564133 34.501008 53.86909515 35.05279724 54.7071991 35.62130737 C56.73364258 37.19970703 56.73364258 37.19970703 58.73364258 40.19970703 C58.89986292 43.52411383 58.94687792 45.20661449 57.73364258 48.19970703 C56.01449585 49.90141296 56.01449585 49.90141296 53.80932617 51.53051758 C52.99429626 52.13399017 52.17926636 52.73746277 51.33953857 53.35922241 C47.06111192 56.3809771 42.72085927 59.29320878 38.33520508 62.15673828 C36.90004044 63.10029427 36.90004044 63.10029427 35.43588257 64.06291199 C32.41244801 66.04955907 29.38563098 68.03098013 26.35864258 70.01220703 C24.30502789 71.3601651 22.25164035 72.70846928 20.19848633 74.05712891 C15.70251073 77.00975145 11.2043763 79.95905112 6.70425415 82.90534973 C5.04285584 83.99660641 3.38753704 85.09711073 1.73364258 86.19970703 C-1.97579737 86.06481831 -4.42376676 85.81393326 -7.4546814 83.60447693 C-9.86218396 80.40882295 -9.84337517 77.69718669 -9.81567383 73.84838867 C-9.82589569 73.11456467 -9.83611755 72.38074066 -9.84664917 71.62467957 C-9.87441376 69.20274084 -9.87253067 66.78194207 -9.86791992 64.35986328 C-9.8756954 62.67361529 -9.88436507 60.98737121 -9.89389038 59.3011322 C-9.90880867 55.76792703 -9.90823727 52.23512157 -9.89770508 48.7019043 C-9.88611475 44.17750811 -9.91997713 39.65474924 -9.96639442 35.13062382 C-9.99588202 31.64837608 -9.99761112 28.16652215 -9.99137497 24.68417168 C-9.99240077 23.01641025 -10.00286506 21.34862661 -10.02299881 19.6809864 C-10.04772617 17.34638739 -10.03415907 15.01496935 -10.01098633 12.68041992 C-10.03391754 11.65082657 -10.03391754 11.65082657 -10.05731201 10.60043335 C-9.9976365 7.87555853 -9.74035898 5.78387866 -7.99573421 3.63375854 C-5.2776955 1.23158161 -3.65489369 0.22346237 0 0 Z " fill="#4C017E" transform="translate(197.266357421875,212.80029296875)"/>
<path d="M0 0 C2.19223022 1.59132385 2.19223022 1.59132385 4 4 C4.40529074 6.59052779 4.56795599 8.76155255 4.54931641 11.35131836 C4.55953827 12.08514236 4.56976013 12.81896637 4.58029175 13.57502747 C4.60805634 15.99696619 4.60617325 18.41776496 4.6015625 20.83984375 C4.60933798 22.52609174 4.61800765 24.21233582 4.62753296 25.89857483 C4.64245125 29.43178 4.64187984 32.96458546 4.63134766 36.49780273 C4.61975733 41.02219892 4.6536197 45.54495779 4.700037 50.06908321 C4.7295246 53.55133095 4.7312537 57.03318488 4.72501755 60.51553535 C4.72604335 62.18329678 4.73650764 63.85108042 4.75664139 65.51872063 C4.78136875 67.85331964 4.76780164 70.18473768 4.74462891 72.51928711 C4.75991638 73.20568268 4.77520386 73.89207825 4.79095459 74.59927368 C4.73105756 77.3342631 4.48645637 79.41672094 2.70463181 81.55319405 C0.38055702 83.56785191 -1.54051473 84.89913738 -4.5625 85.5625 C-7.85604006 84.80245229 -9.59487944 83.33831165 -12 81 C-13.1653138 77.50405859 -13.14851438 74.72751839 -13.17700195 71.03759766 C-13.18685875 69.98097176 -13.18685875 69.98097176 -13.19691467 68.90299988 C-13.21661544 66.57335297 -13.22830193 64.24377037 -13.23828125 61.9140625 C-13.24235678 61.11767742 -13.2464323 60.32129234 -13.25063133 59.50077438 C-13.27147657 55.28697724 -13.28578595 51.07321253 -13.29516602 46.859375 C-13.30623797 42.50911121 -13.3406509 38.15935787 -13.38033772 33.80927467 C-13.40648671 30.46179252 -13.41485621 27.11443245 -13.41844749 23.76685715 C-13.42331654 22.16328858 -13.43493968 20.55972558 -13.45348549 18.95625687 C-13.47784572 16.71082323 -13.47691864 14.46671685 -13.4699707 12.22119141 C-13.47583694 10.94450592 -13.48170319 9.66782043 -13.48774719 8.35244751 C-12.91596948 4.42243048 -11.76921653 2.789763 -9 0 C-5.81452856 -1.59273572 -3.39809153 -0.76164121 0 0 Z " fill="#4C017E" transform="translate(320,214)"/>
<path d="M0 0 C2.19421387 1.59706116 2.19421387 1.59706116 4 4 C4.50793457 7.29466248 4.50793457 7.29466248 4.51757812 11.25952148 C4.5245874 11.98359192 4.53159668 12.70766235 4.53881836 13.45367432 C4.55639926 15.84320624 4.54477509 18.23155012 4.53125 20.62109375 C4.53394521 22.2849195 4.53782787 23.94874372 4.54284668 25.61256409 C4.54874207 29.09871424 4.54017888 32.58445421 4.52148438 36.07055664 C4.49871215 40.53411545 4.51180609 44.99671128 4.53577423 49.46023464 C4.55024648 52.89613566 4.54561945 56.3318094 4.53526306 59.76771736 C4.53259878 61.41311826 4.53585506 63.05853993 4.54518127 64.70391655 C4.55536888 67.00685931 4.53981656 69.30825604 4.51757812 71.61108398 C4.51280457 73.57488258 4.51280457 73.57488258 4.50793457 75.57835388 C3.91535068 79.57023097 2.88303542 81.2198639 0 84 C-3.4375 85.0625 -3.4375 85.0625 -7 85 C-10.42741629 82.91374661 -11.72481037 81.8255689 -13 78 C-13.11014439 75.6810637 -13.15907924 73.35907911 -13.17700195 71.03759766 C-13.18685875 69.98097176 -13.18685875 69.98097176 -13.19691467 68.90299988 C-13.21661544 66.57335297 -13.22830193 64.24377037 -13.23828125 61.9140625 C-13.24235678 61.11767742 -13.2464323 60.32129234 -13.25063133 59.50077438 C-13.27147657 55.28697724 -13.28578595 51.07321253 -13.29516602 46.859375 C-13.30623797 42.50911121 -13.3406509 38.15935787 -13.38033772 33.80927467 C-13.40648671 30.46179252 -13.41485621 27.11443245 -13.41844749 23.76685715 C-13.42331654 22.16328858 -13.43493968 20.55972558 -13.45348549 18.95625687 C-13.47784572 16.71082323 -13.47691864 14.46671685 -13.4699707 12.22119141 C-13.47583694 10.94450592 -13.48170319 9.66782043 -13.48774719 8.35244751 C-12.91596948 4.42243048 -11.76921653 2.789763 -9 0 C-5.81452856 -1.59273572 -3.39809153 -0.76164121 0 0 Z " fill="#4C017E" transform="translate(286,214)"/>
<path d="M0 0 C0.82310165 -0.00004028 1.64620331 -0.00008057 2.49424744 -0.00012207 C4.22646766 0.00521741 5.95868856 0.02273283 7.69067383 0.05175781 C10.33555396 0.093682 12.97788974 0.09281633 15.62304688 0.0859375 C17.31121553 0.09642905 18.99937113 0.10936698 20.6875 0.125 C21.47407486 0.12520142 22.26064972 0.12540283 23.07106018 0.12561035 C27.63453328 0.22359818 30.6701842 0.72927816 34.27734375 3.59375 C36.27734375 6.59375 36.27734375 6.59375 36.15234375 10.03125 C35.20768443 13.87736296 34.33691959 15.1831751 31.27734375 17.59375 C26.34019698 20.06232338 18.71247149 18.90663238 13.22070312 18.94384766 C11.43215909 18.96038423 9.64368052 18.98764412 7.85546875 19.02587891 C5.27178802 19.08082034 2.68965603 19.10254843 0.10546875 19.1171875 C-0.68849304 19.13985687 -1.48245483 19.16252625 -2.30047607 19.18588257 C-6.41645699 19.17032214 -8.9634741 18.81645389 -12.22460938 16.18994141 C-14.72265625 13.59375 -14.72265625 13.59375 -15.51953125 11.53125 C-15.5040625 10.891875 -15.48859375 10.2525 -15.47265625 9.59375 C-15.488125 8.954375 -15.50359375 8.315 -15.51953125 7.65625 C-12.78664893 0.58290751 -6.61288938 -0.13819384 0 0 Z " fill="#550C84" transform="translate(407.72265625,246.40625)"/>
<path d="M0 0 C1.78854404 -0.01653657 3.57702261 -0.04379646 5.36523438 -0.08203125 C7.94891511 -0.13697269 10.53104709 -0.15870078 13.11523438 -0.17333984 C13.90919617 -0.19600922 14.70315796 -0.21867859 15.5211792 -0.24203491 C19.63716011 -0.22647448 22.18417723 0.12739377 25.4453125 2.75390625 C27.94335938 5.35009766 27.94335938 5.35009766 28.74023438 7.41259766 C28.72476563 8.05197266 28.70929688 8.69134766 28.69335938 9.35009766 C28.70882812 9.98947266 28.72429687 10.62884766 28.74023438 11.28759766 C27.44805943 14.63205045 24.96063746 16.58465467 21.94335938 18.35009766 C19.02046054 19.03044898 16.21119278 19.00634186 13.22070312 18.94384766 C12.39760147 18.94388794 11.57449982 18.94392822 10.72645569 18.94396973 C8.99423546 18.93863025 7.26201456 18.92111483 5.5300293 18.89208984 C2.88514917 18.85016565 0.24281338 18.85103132 -2.40234375 18.85791016 C-4.09051241 18.84741861 -5.778668 18.83448068 -7.46679688 18.81884766 C-8.25337173 18.81864624 -9.03994659 18.81844482 -9.85035706 18.8182373 C-14.41465485 18.72023177 -17.4214938 18.17246783 -21.05664062 15.35009766 C-23.12192598 12.39969 -23.66333813 9.90361161 -23.05664062 6.35009766 C-16.47135803 -1.2749664 -9.36305822 0.0634493 0 0 Z " fill="#550C84" transform="translate(91.056640625,246.64990234375)"/>
<path d="M0 0 C1.3756311 -0.00574036 1.3756311 -0.00574036 2.77905273 -0.01159668 C4.71566873 -0.01431549 6.65232147 -0.00695646 8.58886719 0.00976562 C11.55226553 0.03117606 14.51323951 0.00996331 17.4765625 -0.015625 C19.35938035 -0.01298172 21.24219669 -0.00785673 23.125 0 C24.01050537 -0.00809692 24.89601074 -0.01619385 25.80834961 -0.02453613 C31.94306402 0.06892077 31.94306402 0.06892077 35.11914062 2.43945312 C37.12543352 5.34708465 37.12725617 7.19378607 36.9609375 10.62890625 C36.35354423 13.52891139 34.89750208 14.81433671 32.5625 16.53125 C27.52211111 19.05144445 19.63309617 17.84441406 14.02368164 17.88134766 C12.1798032 17.89790215 10.33598881 17.92518569 8.49243164 17.96337891 C5.83185595 18.01820665 3.17278363 18.04002979 0.51171875 18.0546875 C-0.30927811 18.07735687 -1.13027496 18.10002625 -1.97615051 18.12338257 C-6.32175066 18.10738063 -7.93387742 17.93174599 -11.45751953 15.12963867 C-13.39835519 12.58262092 -14.10574213 11.59747307 -14 8.46875 C-13.4375 4.53125 -13.4375 4.53125 -11.9921875 2.31835938 C-8.1381464 -0.37770148 -4.59938479 -0.04205606 0 0 Z " fill="#500580" transform="translate(244.4375,409.46875)"/>
<path d="M0 0 C0.84671265 -0.00004028 1.69342529 -0.00008057 2.5657959 -0.00012207 C4.35106859 0.00522527 6.1363413 0.02277457 7.92138672 0.05175781 C10.64754495 0.09361634 13.37123074 0.09282365 16.09765625 0.0859375 C17.83595459 0.09643089 19.57424025 0.1093698 21.3125 0.125 C22.12408569 0.12520142 22.93567139 0.12540283 23.77185059 0.12561035 C28.3664959 0.22126654 31.42041536 0.62759169 35.15625 3.59375 C36.72096233 6.72317465 36.85326958 10.20457223 36.15625 13.59375 C34.48926092 16.02582617 33.15308886 17.40193165 30.19746399 17.97067261 C27.69637448 18.1244744 25.22452487 18.14791242 22.71875 18.125 C21.8016626 18.1288269 20.8845752 18.13265381 19.93969727 18.13659668 C18.00308127 18.13931549 16.06642853 18.13195646 14.12988281 18.11523438 C11.16648447 18.09382394 8.20551049 18.11503669 5.2421875 18.140625 C3.35936965 18.13798172 1.47655331 18.13285673 -0.40625 18.125 C-1.29175537 18.13309692 -2.17726074 18.14119385 -3.08959961 18.14953613 C-9.18192343 18.05672501 -9.18192343 18.05672501 -12.3984375 15.80664062 C-14.13808406 13.14310069 -14.36611114 10.84388809 -14.47265625 7.69140625 C-12.26226459 0.31885766 -6.54086176 -0.13213534 0 0 Z " fill="#500580" transform="translate(244.84375,84.40625)"/>
<path d="M0 0 C0.33 0 0.66 0 1 0 C1 16.17 1 32.34 1 49 C-15.17 49 -31.34 49 -48 49 C-48 48.67 -48 48.34 -48 48 C-46.76636719 47.65388672 -46.76636719 47.65388672 -45.5078125 47.30078125 C-29.33889916 42.57706869 -16.8620894 35.04368796 -7.46484375 20.68359375 C-3.93204355 14.21150378 -1.26382227 7.27370051 0 0 Z " fill="#000000" transform="translate(511,463)"/>
<path d="M0 0 C0.33 0 0.66 0 1 0 C1.23074219 0.82242187 1.46148437 1.64484375 1.69921875 2.4921875 C6.42293131 18.66110084 13.95631204 31.1379106 28.31640625 40.53515625 C34.78849622 44.06795645 41.72629949 46.73617773 49 48 C49 48.33 49 48.66 49 49 C32.83 49 16.66 49 0 49 C0 32.83 0 16.66 0 0 Z " fill="#000000" transform="translate(0,463)"/>
<path d="M0 0 C16.17 0 32.34 0 49 0 C49 16.17 49 32.34 49 49 C48.67 49 48.34 49 48 49 C47.76925781 48.17757812 47.53851563 47.35515625 47.30078125 46.5078125 C42.57706869 30.33889916 35.04368796 17.8620894 20.68359375 8.46484375 C14.21150378 4.93204355 7.27370051 2.26382227 0 1 C0 0.67 0 0.34 0 0 Z " fill="#000000" transform="translate(463,0)"/>
<path d="M0 0 C16.17 0 32.34 0 49 0 C49 0.33 49 0.66 49 1 C48.17757812 1.23074219 47.35515625 1.46148437 46.5078125 1.69921875 C30.33889916 6.42293131 17.8620894 13.95631204 8.46484375 28.31640625 C4.93204355 34.78849622 2.26382227 41.72629949 1 49 C0.67 49 0.34 49 0 49 C0 32.83 0 16.66 0 0 Z " fill="#000000" transform="translate(0,0)"/>
<path d="M0 0 C6.43856774 4.09727038 12.85402423 8.18680116 19.1875 12.4375 C20.18620117 13.10555664 20.18620117 13.10555664 21.20507812 13.78710938 C22.8041218 14.85697313 24.40217622 15.92831522 26 17 C24.70132967 20.89601098 23.09017912 21.5518235 19.6875 23.79296875 C18.07488281 24.8612793 18.07488281 24.8612793 16.4296875 25.95117188 C15.86733398 26.31782959 15.30498047 26.6844873 14.72558594 27.06225586 C13.00168379 28.18640201 11.28545811 29.32153323 9.5703125 30.45898438 C1.16047259 36 1.16047259 36 0 36 C0 24.12 0 12.24 0 0 Z " fill="#1F426D" transform="translate(205,238)"/>
</svg>
