<?xml version="1.0" encoding="UTF-8"?>
<svg version="1.1" xmlns="http://www.w3.org/2000/svg" width="512" height="512">
<path d="M0 0 C0.95769791 -0.00979385 1.91539581 -0.01958771 2.90211487 -0.02967834 C23.51506558 -0.19707192 43.56027456 -0.20439578 63.7890625 4.23828125 C64.81386719 4.45790527 65.83867187 4.6775293 66.89453125 4.90380859 C112.74661575 14.96421161 153.20645552 36.64235396 187.7890625 68.23828125 C189.18898438 69.48158203 189.18898438 69.48158203 190.6171875 70.75 C196.09780024 75.63912585 201.08867601 80.6057506 205.7890625 86.23828125 C206.58570313 87.13546875 207.38234375 88.03265625 208.203125 88.95703125 C237.0462349 121.64412179 255.8899365 162.79418455 264.7890625 205.23828125 C264.99934082 206.19637695 265.20961914 207.15447266 265.42626953 208.14160156 C268.87464794 224.45245872 269.15565082 240.63425178 269.1640625 257.23828125 C269.16705353 258.82141113 269.16705353 258.82141113 269.17010498 260.43652344 C269.16945039 263.49571918 269.15123217 266.55420637 269.125 269.61328125 C269.12258301 270.52078125 269.12016602 271.42828125 269.11767578 272.36328125 C268.96176248 283.20525256 267.83588124 292.89477281 260.1171875 300.9921875 C253.82583975 306.76853554 247.51191947 307.76650612 239.11328125 307.61328125 C232.3631558 306.85180999 227.01248052 303.88909946 222.3515625 298.98828125 C216.10450865 290.41293225 216.57317393 281.64629881 217.105896 271.48913574 C219.45500351 225.23655153 209.11776213 178.42838714 181.7890625 140.23828125 C181.08523438 139.24441406 180.38140625 138.25054687 179.65625 137.2265625 C162.49374593 113.69732305 141.7342339 94.58824205 116.7265625 79.67578125 C116.01226074 79.24595947 115.29795898 78.8161377 114.56201172 78.37329102 C109.49735404 75.3387756 109.49735404 75.3387756 103.7890625 74.23828125 C101.65354107 75.24166584 101.65354107 75.24166584 99.7265625 76.98828125 C98.94925781 77.63796875 98.17195313 78.28765625 97.37109375 78.95703125 C92.43890715 83.31466662 87.56646653 87.71191175 82.7890625 92.23828125 C81.85707031 93.11613281 80.92507813 93.99398437 79.96484375 94.8984375 C72.81664189 101.82230207 66.74264061 109.28553116 60.7890625 117.23828125 C60.37301758 117.78291016 59.95697266 118.32753906 59.52832031 118.88867188 C53.99815989 126.1423478 49.17132404 133.72018693 44.6015625 141.61328125 C44.12662354 142.42611572 43.65168457 143.2389502 43.16235352 144.07641602 C40.11955335 149.44288532 37.54738185 154.93546732 35.10424805 160.59228516 C34.78372215 161.3298555 34.46319626 162.06742584 34.13295746 162.8273468 C33.3498093 164.63018918 32.56917703 166.4341241 31.7890625 168.23828125 C32.45225494 168.89259125 33.11544739 169.54690125 33.79873657 170.22103882 C40.07657769 176.41745638 46.34357307 182.62466509 52.60036659 188.84233665 C55.81665676 192.03783705 59.03652355 195.22954463 62.26513672 198.41259766 C65.3863499 201.49004472 68.49741556 204.57743261 71.60197067 207.67168045 C72.7824641 208.84483742 73.96644666 210.01449517 75.15410233 211.18040085 C87.20774097 223.02218849 96.65411163 235.91126959 97.08129883 253.41821289 C97.25573031 273.38956707 89.75782902 285.91955246 76.17111206 299.9397583 C73.33682354 302.80532642 70.48650922 305.65382718 67.62890625 308.49609375 C66.58779703 309.53533188 65.54691282 310.57479546 64.50624084 311.61447144 C61.80094164 314.31599976 59.09265081 317.01450846 56.38366699 319.71234131 C53.60613322 322.47954245 50.83152039 325.24966919 48.05664062 328.01953125 C42.6369257 333.42860495 37.21403835 338.83448339 31.7890625 344.23828125 C37.18087112 356.92420367 37.18087112 356.92420367 43.4765625 369.17578125 C43.8895459 369.91248047 44.3025293 370.64917969 44.72802734 371.40820312 C56.88427735 392.62408691 81.70234033 430.97280134 105.7890625 439.23828125 C108.23331932 438.42282011 108.23331932 438.42282011 110.66796875 436.84375 C112.04952148 436.02874023 112.04952148 436.02874023 113.45898438 435.19726562 C114.41353516 434.61267578 115.36808594 434.02808594 116.3515625 433.42578125 C118.24751498 432.29228982 120.14460129 431.16069217 122.04296875 430.03125 C122.88158447 429.52102295 123.7202002 429.0107959 124.58422852 428.48510742 C130.71047209 425.02073737 138.35302734 425.50139833 145.140625 426.62890625 C152.14276838 428.80487112 156.94081267 434.3503909 160.7890625 440.36328125 C163.35780379 447.74841247 162.96041117 456.68358168 159.7265625 463.73828125 C155.47890444 471.86174851 147.07436754 476.04679272 139.2890625 480.17578125 C138.30784424 480.70083252 137.32662598 481.22588379 136.31567383 481.7668457 C133.48114843 483.27259285 130.63818646 484.76037375 127.7890625 486.23828125 C126.75918213 486.77485352 126.75918213 486.77485352 125.70849609 487.32226562 C106.32872135 497.27559273 85.04942261 503.78716147 63.7890625 508.23828125 C62.82564941 508.44855957 61.86223633 508.65883789 60.86962891 508.87548828 C44.97962483 512.21310264 29.21325837 512.62754536 13.0390625 512.67578125 C12.05880096 512.68204529 11.07853943 512.68830933 10.068573 512.69476318 C-8.71000957 512.77061084 -27.40010041 511.19027141 -45.6484375 506.55078125 C-47.18963257 506.16623779 -47.18963257 506.16623779 -48.76196289 505.77392578 C-91.0576196 494.92160205 -128.57477931 474.84286067 -160.80078125 445.42578125 C-163.13675004 443.30561508 -165.51420625 441.24130815 -167.8984375 439.17578125 C-171.27610452 436.16883378 -174.3125845 433.052387 -177.22265625 429.59375 C-178.73696025 427.79979064 -180.28818157 426.03692339 -181.85546875 424.2890625 C-218.9470173 382.70608041 -243.12728398 324.24910776 -243.4140625 268.2265625 C-243.42112213 267.3038707 -243.42818176 266.38117889 -243.43545532 265.43052673 C-243.66384195 226.82649337 -243.66384195 226.82649337 -240.2109375 210.23828125 C-240.01226074 209.26197754 -239.81358398 208.28567383 -239.60888672 207.27978516 C-229.74559976 160.13548997 -208.73545849 118.07514853 -176.265625 82.515625 C-174.50527952 80.56451965 -172.81909427 78.57814581 -171.1484375 76.55078125 C-168.49319665 73.43123598 -165.56096642 70.80398925 -162.4375 68.16015625 C-160.89951086 66.83262878 -159.39572357 65.46480182 -157.921875 64.06640625 C-117.05322277 25.34873572 -56.40759249 0.47711968 0 0 Z M15.7890625 226.23828125 C12.52115115 229.5061926 13.66817842 238.70718215 13.65011597 243.12573242 C13.6521402 243.92599854 13.65416443 244.72626465 13.65625 245.55078125 C13.65529327 246.40454346 13.65433655 247.25830566 13.65335083 248.13793945 C13.65267524 249.9295255 13.65448582 251.72111408 13.65869141 253.51269531 C13.6640485 256.23117653 13.65872515 258.94949257 13.65234375 261.66796875 C13.65300464 263.42057328 13.65428603 265.1731777 13.65625 266.92578125 C13.65422577 267.72604736 13.65220154 268.52631348 13.65011597 269.35083008 C13.67204484 274.71520721 14.12096839 279.91475873 14.7890625 285.23828125 C18.06147529 285.56922824 18.06147529 285.56922824 20.69995117 282.66796875 C21.87670123 281.49074284 23.04520674 280.30523987 24.20703125 279.11328125 C25.13289787 278.18104736 25.13289787 278.18104736 26.07746887 277.22998047 C28.05096829 275.23966292 30.01379475 273.2391773 31.9765625 271.23828125 C33.31115987 269.88864116 34.64643801 268.53967389 35.98242188 267.19140625 C39.25925825 263.88145898 42.52655847 260.56235387 45.7890625 257.23828125 C44.13539135 252.95941527 40.91926676 250.09821775 37.72265625 246.94140625 C37.12856461 246.34777283 36.53447296 245.7541394 35.92237854 245.14251709 C34.66977533 243.89292809 33.41474943 242.64576351 32.1574707 241.40087891 C30.22481178 239.48654713 28.30034537 237.56426267 26.37695312 235.640625 C25.15932644 234.42791105 23.94124332 233.21565517 22.72265625 232.00390625 C22.1434996 231.42586243 21.56434296 230.8478186 20.96763611 230.2522583 C18.73881379 227.50495266 18.73881379 227.50495266 15.7890625 226.23828125 Z " fill="#B7B7FE" transform="translate(243.2109375,-0.23828125)"/>
<path d="M0 0 C0.95769791 -0.00979385 1.91539581 -0.01958771 2.90211487 -0.02967834 C23.51506558 -0.19707192 43.56027456 -0.20439578 63.7890625 4.23828125 C64.81386719 4.45790527 65.83867187 4.6775293 66.89453125 4.90380859 C112.74661575 14.96421161 153.20645552 36.64235396 187.7890625 68.23828125 C189.18898438 69.48158203 189.18898438 69.48158203 190.6171875 70.75 C196.09780024 75.63912585 201.08867601 80.6057506 205.7890625 86.23828125 C206.58570313 87.13546875 207.38234375 88.03265625 208.203125 88.95703125 C237.0462349 121.64412179 255.8899365 162.79418455 264.7890625 205.23828125 C264.99934082 206.19637695 265.20961914 207.15447266 265.42626953 208.14160156 C268.87464794 224.45245872 269.15565082 240.63425178 269.1640625 257.23828125 C269.16705353 258.82141113 269.16705353 258.82141113 269.17010498 260.43652344 C269.16945039 263.49571918 269.15123217 266.55420637 269.125 269.61328125 C269.12258301 270.52078125 269.12016602 271.42828125 269.11767578 272.36328125 C268.96176248 283.20525256 267.83588124 292.89477281 260.1171875 300.9921875 C253.82583975 306.76853554 247.51191947 307.76650612 239.11328125 307.61328125 C232.3631558 306.85180999 227.01248052 303.88909946 222.3515625 298.98828125 C216.10450865 290.41293225 216.57317393 281.64629881 217.105896 271.48913574 C219.45500351 225.23655153 209.11776213 178.42838714 181.7890625 140.23828125 C181.08523438 139.24441406 180.38140625 138.25054687 179.65625 137.2265625 C159.92292537 110.17281099 134.92581102 88.07024006 104.7890625 73.23828125 C104.7890625 72.57828125 104.7890625 71.91828125 104.7890625 71.23828125 C103.6134375 70.86703125 102.4378125 70.49578125 101.2265625 70.11328125 C97.05692473 68.73419298 93.03093752 67.11215339 88.9765625 65.42578125 C55.51294708 51.82905767 19.47470609 48.10525194 -16.2109375 53.23828125 C-16.92266113 53.34011719 -17.63438477 53.44195312 -18.36767578 53.546875 C-57.0786179 59.30156426 -93.39293843 75.84235364 -122.68164062 101.88085938 C-124.18552472 103.21572457 -125.70594296 104.53188701 -127.2265625 105.84765625 C-141.83928238 118.77723562 -152.83083122 133.78424107 -163.2109375 150.23828125 C-163.81977783 151.18670898 -163.81977783 151.18670898 -164.44091797 152.15429688 C-189.31423512 191.20394101 -199.42893978 245.30740324 -189.75878906 290.77441406 C-189.57799805 291.58749023 -189.39720703 292.40056641 -189.2109375 293.23828125 C-189.00694336 294.1725293 -188.80294922 295.10677734 -188.59277344 296.06933594 C-177.8699812 344.09558296 -153.88237511 387.99816655 -114.2109375 418.23828125 C-113.62135254 418.6878418 -113.03176758 419.13740234 -112.42431641 419.60058594 C-91.85036747 435.11640038 -68.21690222 447.66355565 -43.2109375 454.23828125 C-42.07084229 454.54161377 -42.07084229 454.54161377 -40.90771484 454.85107422 C-5.87607379 464.0571108 32.91924652 464.82470028 67.7890625 454.23828125 C68.6980127 453.9635498 69.60696289 453.68881836 70.54345703 453.40576172 C88.65633795 447.84186683 104.32897132 440.45223819 120.58520508 430.83081055 C121.34986084 430.37875244 122.1145166 429.92669434 122.90234375 429.4609375 C123.58079346 429.05625244 124.25924316 428.65156738 124.95825195 428.23461914 C130.93460302 424.98225366 138.59119847 425.54096164 145.140625 426.62890625 C152.14276838 428.80487112 156.94081267 434.3503909 160.7890625 440.36328125 C163.35780379 447.74841247 162.96041117 456.68358168 159.7265625 463.73828125 C155.47890444 471.86174851 147.07436754 476.04679272 139.2890625 480.17578125 C138.30784424 480.70083252 137.32662598 481.22588379 136.31567383 481.7668457 C133.48114843 483.27259285 130.63818646 484.76037375 127.7890625 486.23828125 C126.75918213 486.77485352 126.75918213 486.77485352 125.70849609 487.32226562 C106.32872135 497.27559273 85.04942261 503.78716147 63.7890625 508.23828125 C62.82564941 508.44855957 61.86223633 508.65883789 60.86962891 508.87548828 C44.97962483 512.21310264 29.21325837 512.62754536 13.0390625 512.67578125 C12.05880096 512.68204529 11.07853943 512.68830933 10.068573 512.69476318 C-8.71000957 512.77061084 -27.40010041 511.19027141 -45.6484375 506.55078125 C-47.18963257 506.16623779 -47.18963257 506.16623779 -48.76196289 505.77392578 C-91.0576196 494.92160205 -128.57477931 474.84286067 -160.80078125 445.42578125 C-163.13675004 443.30561508 -165.51420625 441.24130815 -167.8984375 439.17578125 C-171.27610452 436.16883378 -174.3125845 433.052387 -177.22265625 429.59375 C-178.73696025 427.79979064 -180.28818157 426.03692339 -181.85546875 424.2890625 C-218.9470173 382.70608041 -243.12728398 324.24910776 -243.4140625 268.2265625 C-243.42112213 267.3038707 -243.42818176 266.38117889 -243.43545532 265.43052673 C-243.66384195 226.82649337 -243.66384195 226.82649337 -240.2109375 210.23828125 C-240.01226074 209.26197754 -239.81358398 208.28567383 -239.60888672 207.27978516 C-229.74559976 160.13548997 -208.73545849 118.07514853 -176.265625 82.515625 C-174.50527952 80.56451965 -172.81909427 78.57814581 -171.1484375 76.55078125 C-168.49319665 73.43123598 -165.56096642 70.80398925 -162.4375 68.16015625 C-160.89951086 66.83262878 -159.39572357 65.46480182 -157.921875 64.06640625 C-117.05322277 25.34873572 -56.40759249 0.47711968 0 0 Z " fill="#000000" transform="translate(243.2109375,-0.23828125)"/>
<path d="M0 0 C8.2664919 4.91825258 14.87963067 12.88196862 21.56689453 19.68334961 C22.31712891 20.44131836 23.06736328 21.19928711 23.84033203 21.98022461 C24.50162109 22.65311523 25.16291016 23.32600586 25.84423828 24.01928711 C27.80822783 25.90446488 29.80006671 27.67947579 31.86328125 29.45166016 C37.24794074 34.13293084 42.28833137 39.16173154 47.34814453 44.18725586 C47.86288204 44.69791784 48.37761955 45.20857983 48.90795517 45.73471642 C51.62808687 48.43414774 54.34504353 51.13672993 57.05957031 53.84179688 C59.83923977 56.61038506 62.63040238 59.36708105 65.42427254 62.1213274 C67.59476834 64.26551378 69.75617406 66.41869656 71.91534042 68.57428551 C72.93966876 69.59379156 73.96732783 70.60996397 74.99856949 71.62247658 C87.43400405 83.84581384 95.43521865 97.09567697 95.59033203 114.85522461 C95.64613164 135.271683 85.82034437 147.7394252 72.06860352 161.69384766 C70.18134105 163.58761545 68.29167352 165.47868722 66.39892578 167.36694336 C65.37705722 168.38948816 64.35533691 169.41218114 63.33375549 170.43501282 C61.21004132 172.56018759 59.08456464 174.68357859 56.95776367 176.80566406 C54.25261325 179.50510355 51.55199896 182.20902964 48.8526907 184.9143095 C46.74995132 187.02068663 44.64480623 189.12464657 42.5389576 191.22791481 C41.54282645 192.22338631 40.54741683 193.21958042 39.5527935 194.21655846 C34.49318748 199.28552177 29.39410505 204.22629827 23.95814514 208.89060974 C21.80412672 210.76812137 19.81390341 212.77051249 17.84033203 214.83569336 C17.09009766 215.60719727 16.33986328 216.37870117 15.56689453 217.17358398 C14.0349865 218.75908265 12.50896909 220.3502931 10.98876953 221.94702148 C4.87450702 228.20310968 -1.28478322 232.98023256 -10.34716797 233.60522461 C-18.19260984 233.44716626 -24.33710178 230.78018337 -29.99169922 225.35131836 C-35.55789329 218.93071978 -36.19640962 212.375355 -36.44873047 204.07788086 C-34.50762103 194.13230403 -26.98277899 187.07264009 -19.97607422 180.25366211 C-18.55575014 178.84561266 -17.13542826 177.43756098 -15.7152319 176.02938271 C-13.7446315 174.08055318 -11.76480594 172.14122613 -9.78503418 170.20172119 C-6.32020568 166.80356195 -2.87020938 163.39034621 0.57984924 159.97720337 C2.41040965 158.16809434 4.24447433 156.36252175 6.08262634 154.56112671 C10.48013251 150.23152481 14.69427095 145.83698159 18.71134949 141.15249634 C21.0280077 138.49452589 23.49205605 136.02921655 25.99267578 133.54272461 C26.49328018 133.04353516 26.99388458 132.5443457 27.50965881 132.0300293 C29.07583967 130.46935091 30.64549674 128.91222614 32.21533203 127.35522461 C33.29173857 126.28384574 34.36791217 125.21223279 35.44384766 124.14038086 C38.05249948 121.54262823 40.66427674 118.94804499 43.27783203 116.35522461 C41.64526958 112.17355135 38.56917453 109.41054818 35.42236328 106.33959961 C34.84250168 105.76493958 34.26264008 105.19027954 33.66520691 104.59820557 C31.81161343 102.76238442 29.95149343 100.93337046 28.09033203 99.10522461 C26.24784278 97.29056753 24.40691216 95.47439908 22.5690155 93.65509033 C21.42759389 92.52569176 20.28351446 91.39896984 19.13618469 90.27557373 C16.26971107 87.44418543 13.54785969 84.54888355 10.92163086 81.49243164 C6.99791484 76.95600412 2.75348298 72.79409515 -1.54248047 68.61303711 C-3.22927679 66.95348887 -4.91545618 65.29331338 -6.60107422 63.63256836 C-9.22618073 61.05068156 -11.85477191 58.47282827 -14.49414062 55.90551758 C-17.06364112 53.40299345 -19.61660127 50.88452202 -22.16748047 48.36303711 C-23.34263718 47.23129562 -23.34263718 47.23129562 -24.54153442 46.07669067 C-30.47219503 40.17501027 -34.94687953 33.98769341 -36.35107422 25.59741211 C-36.18840287 17.34901774 -35.64789693 11.56197105 -29.92138672 5.42553711 C-21.18944935 -2.74687806 -10.96404867 -5.65816388 0 0 Z " fill="#000000" transform="translate(244.72216796875,140.644775390625)"/>
</svg>
