<?xml version="1.0" encoding="UTF-8"?>
<svg version="1.1" xmlns="http://www.w3.org/2000/svg" width="512" height="512">
<path d="M0 0 C1.20598091 0.02549927 1.20598091 0.02549927 2.43632507 0.05151367 C3.30723282 0.08051758 4.17814056 0.10952148 5.07543945 0.1394043 C5.98401199 0.16156006 6.89258453 0.18371582 7.82868958 0.20654297 C10.78243535 0.28147611 13.73545863 0.37169143 16.6887207 0.46362305 C18.7030301 0.52098463 20.71735313 0.57786925 22.73168945 0.63427734 C26.69202274 0.74708041 30.65206821 0.86680711 34.61206055 0.9909668 C39.11274755 1.12962219 43.61240915 1.22767962 48.11450195 1.30737305 C50.24343051 1.35853658 52.37233972 1.41051703 54.5012207 1.46362305 C55.9102063 1.47872925 55.9102063 1.47872925 57.34765625 1.49414062 C58.19239502 1.52145264 59.03713379 1.54876465 59.9074707 1.5769043 C60.61194336 1.59148682 61.31641602 1.60606934 62.04223633 1.62109375 C64.94375876 2.40613926 66.10096065 3.84737165 68.0012207 6.15112305 C69.60107422 9.03271484 69.60107422 9.03271484 71.13012695 12.3503418 C71.54378761 13.24206841 71.54378761 13.24206841 71.96580505 14.15180969 C72.54553779 15.40639999 73.12099314 16.66297474 73.69238281 17.92138672 C74.55523081 19.81994243 75.43224805 21.71141419 76.31176758 23.60229492 C84.77397423 41.9256668 84.77397423 41.9256668 83.7512207 48.15112305 C83.58879883 49.26487305 83.58879883 49.26487305 83.4230957 50.40112305 C83.0012207 52.15112305 83.0012207 52.15112305 82.0012207 53.15112305 C81.86741028 55.14935864 81.76978255 57.15005342 81.6887207 59.15112305 C81.2036741 65.8535852 80.20521468 71.82178945 75.40356445 76.8112793 C73.7512207 78.21362305 73.7512207 78.21362305 71.0012207 80.15112305 C71.42274414 80.83819336 71.84426758 81.52526367 72.27856445 82.2331543 C72.82641602 83.13420898 73.37426758 84.03526367 73.9387207 84.96362305 C74.75663086 86.30360352 74.75663086 86.30360352 75.59106445 87.6706543 C78.01836027 91.94027436 78.4968141 95.27778803 78.0012207 100.15112305 C75.99449177 103.62996973 73.88242302 105.85738894 70.0012207 107.15112305 C68.44003642 107.21853169 66.8761955 107.23626761 65.3137207 107.21362305 C64.50547852 107.20459961 63.69723633 107.19557617 62.86450195 107.1862793 C62.24961914 107.17467773 61.63473633 107.16307617 61.0012207 107.15112305 C59.58676616 112.15611606 59.95108183 114.63430995 62.3762207 119.27612305 C62.83770508 120.08307617 63.29918945 120.8900293 63.7746582 121.72143555 C66.88679432 127.8862402 66.18485845 134.85670849 66.1887207 141.58862305 C66.2009668 142.70817383 66.21321289 143.82772461 66.22583008 144.98120117 C66.24488933 155.68614794 66.24488933 155.68614794 64.0012207 160.15112305 C60.15556394 162.71489422 58.59091654 162.66108925 54.0012207 162.15112305 C42.95926449 158.16786703 34.24190041 150.16600904 27.0012207 141.15112305 C28.39934841 146.95873043 30.74094077 151.69407325 33.6262207 156.90112305 C41.55792137 171.63901247 47.44028476 186.81939435 52.5559082 202.73706055 C53.58439841 205.93191664 54.69030254 209.05837437 56.0012207 212.15112305 C66.01392068 205.70431421 72.22299578 198.91882413 78.2277832 188.66674805 C80.21859545 185.84277649 82.10542359 184.03406046 85.0012207 182.15112305 C86.9502832 182.33674805 86.9502832 182.33674805 88.9387207 182.52612305 C91.02083289 182.75637958 91.02083289 182.75637958 93.0012207 182.15112305 C95.53930667 179.11490806 97.18738507 175.65261444 99.0012207 172.15112305 C104.69441636 163.92761821 112.40368259 160.51759483 121.7512207 157.77612305 C128.48249263 155.74189734 131.65707986 153.31138249 135.0012207 147.15112305 C141.83693499 136.32790876 141.83693499 136.32790876 146.0012207 134.15112305 C150.8148263 133.39401621 154.64437119 133.44443059 159.0012207 135.71362305 C163.35797032 141.02341165 163.35967985 147.50429892 163.3137207 154.08862305 C163.30953125 154.91475098 163.3053418 155.74087891 163.30102539 156.59204102 C162.94395002 176.40972413 156.94790007 190.64168285 142.8762207 204.58862305 C142.22532471 205.23532959 141.57442871 205.88203613 140.90380859 206.54833984 C133.85308135 213.43727815 126.65512694 220.35843652 117.0012207 223.15112305 C117.04762695 223.79178711 117.0940332 224.43245117 117.1418457 225.0925293 C117.17793945 225.95749023 117.2140332 226.82245117 117.2512207 227.71362305 C117.29762695 228.56053711 117.3440332 229.40745117 117.3918457 230.2800293 C116.61143871 236.0160207 113.85956091 239.72942114 109.41137695 243.1862793 C107.97280932 244.21052067 106.52282948 245.21886236 105.0637207 246.21362305 C104.27739258 246.76453613 103.49106445 247.31544922 102.6809082 247.88305664 C100.13311573 249.65741211 97.56962311 251.40675574 95.0012207 253.15112305 C94.14125488 253.73909668 93.28128906 254.32707031 92.39526367 254.93286133 C64.81061332 273.74642674 64.81061332 273.74642674 54.0012207 279.15112305 C54.0012207 280.80112305 54.0012207 282.45112305 54.0012207 284.15112305 C54.70669572 284.14098332 55.41217073 284.1308436 56.13902378 284.12039661 C73.4130104 283.87602473 90.68655053 283.69474891 107.96189213 283.58118916 C116.31670296 283.52479296 124.67035067 283.44810286 133.02441406 283.32128906 C140.31746456 283.2106354 147.60967185 283.14044791 154.90353864 283.1161496 C158.7556914 283.10197471 162.60543497 283.06938831 166.45680428 282.98809242 C184.6654596 282.61894153 199.48753913 284.00062191 215.47825432 293.65769005 C219.14629182 295.82893112 222.95192165 297.73007908 226.75541782 299.65218067 C229.23815933 301.30926575 230.03184671 302.36028359 231.0012207 305.15112305 C231.1262207 308.08862305 231.1262207 308.08862305 230.0012207 311.15112305 C227.57851453 313.27807028 224.86052454 314.6867146 222.0012207 316.15112305 C221.09243164 316.6203418 220.18364258 317.08956055 219.24731445 317.57299805 C216.84309127 318.7904994 214.42921328 319.98190531 212.0012207 321.15112305 C213.04922852 321.7544043 214.09723633 322.35768555 215.17700195 322.97924805 C216.55616308 323.78610421 217.93505532 324.5934201 219.3137207 325.40112305 C220.00401367 325.79686523 220.69430664 326.19260742 221.40551758 326.6003418 C228.0370724 330.5087944 228.0370724 330.5087944 230.0012207 334.15112305 C230.0012207 337.76797153 229.61608495 339.49526785 227.1262207 342.15112305 C214.6262207 350.15112305 214.6262207 350.15112305 211.0012207 350.15112305 C211.0012207 350.81112305 211.0012207 351.47112305 211.0012207 352.15112305 C212.1768457 352.46049805 212.1768457 352.46049805 213.3762207 352.77612305 C219.27632149 355.01409231 225.44490286 357.81664628 229.0012207 363.15112305 C229.1887207 366.46362305 229.1887207 366.46362305 228.0012207 370.15112305 C223.16051113 374.59194791 216.89291758 377.36595725 211.0012207 380.15112305 C214.69067099 383.02735343 218.61655017 385.31546367 222.66137695 387.65112305 C224.78945423 389.01536624 226.403832 390.20159434 228.0012207 392.15112305 C228.65105464 395.88766818 228.43803561 397.52710174 226.2512207 400.65112305 C222.09017279 404.35385264 214.63594666 409.15112305 209.0012207 409.15112305 C209.0012207 409.81112305 209.0012207 410.47112305 209.0012207 411.15112305 C210.1768457 411.46049805 210.1768457 411.46049805 211.3762207 411.77612305 C217.27632149 414.01409231 223.44490286 416.81664628 227.0012207 422.15112305 C227.5012207 425.02612305 227.5012207 425.02612305 227.0012207 428.15112305 C222.18876666 433.4982942 215.42112794 436.12815702 209.0012207 439.15112305 C212.69067099 442.02735343 216.61655017 444.31546367 220.66137695 446.65112305 C222.79652204 448.01989719 224.40696543 449.18857462 226.0012207 451.15112305 C226.6887207 454.46362305 226.6887207 454.46362305 226.0012207 458.15112305 C221.49668398 463.0727465 214.84539789 466.09375257 209.0012207 469.15112305 C212.72417344 472.05156297 216.68823363 474.37515284 220.7590332 476.7487793 C223.0012207 478.15112305 223.0012207 478.15112305 225.0012207 480.15112305 C225.3762207 483.52612305 225.3762207 483.52612305 225.0012207 487.15112305 C222.33054317 490.37170251 219.45821097 492.18009296 215.75512695 494.0612793 C214.75288086 494.57625977 213.75063477 495.09124023 212.71801758 495.62182617 C211.67709961 496.14711914 210.63618164 496.67241211 209.5637207 497.21362305 C207.50185467 498.26570012 205.44063403 499.31904318 203.38012695 500.3737793 C202.4681958 500.83534424 201.55626465 501.29690918 200.61669922 501.77246094 C198.00862415 503.063354 198.00862415 503.063354 195.87935543 504.71857548 C192.0249051 506.63706922 188.54064987 506.52750789 184.33558655 506.45054626 C183.4592281 506.44681491 182.58286965 506.44308357 181.67995489 506.43923914 C178.72565581 506.42345475 175.77198343 506.38644174 172.81787109 506.35009766 C170.67861216 506.33516743 168.53934159 506.32183286 166.40006351 506.30995846 C161.74001572 506.28245366 157.08011024 506.24717032 152.42015457 506.20704269 C144.89599479 506.14574586 137.37200453 506.12220192 129.84762573 506.10745239 C128.55344795 506.10486603 127.25927018 506.10227966 125.92587489 506.09961492 C123.92884998 506.09568126 121.93182506 506.09174853 119.93479989 506.08794763 C112.2231517 506.07291763 104.51153459 506.04877013 96.7999115 506.02430725 C95.33769634 506.01971196 93.87548117 506.01511754 92.413266 506.01052397 C88.68083056 505.99875243 84.94839561 505.98683157 81.21596083 505.97485033 C78.91894536 505.96747837 76.6219298 505.96013447 74.32491422 505.95279574 C59.93002047 505.90676281 45.53512893 505.86007518 31.14024258 505.81178379 C27.85798076 505.80078297 24.57571891 505.78979034 21.29345703 505.77880859 C20.47819178 505.77608029 19.66292653 505.77335199 18.82295627 505.770541 C5.51833864 505.72612394 -7.78628801 505.68555962 -21.09092224 505.64647043 C-34.86172791 505.60594278 -48.6325185 505.56181796 -62.40330166 505.5142445 C-70.09203422 505.48777443 -77.78076468 505.46285447 -85.46951485 505.44204903 C-91.9860058 505.42441082 -98.50247622 505.40351793 -105.01894302 505.37845463 C-108.332449 505.36580896 -111.64592772 505.35516841 -114.95945168 505.34770393 C-152.47829606 505.2605889 -152.47829606 505.2605889 -160.88549805 500.94799805 C-161.52066849 500.62833069 -162.15583893 500.30866333 -162.81025696 499.97930908 C-164.12253186 499.31244336 -165.42861907 498.63325248 -166.72802734 497.94165039 C-168.70968672 496.88868539 -170.70942367 495.87916818 -172.71557617 494.8737793 C-183.67440078 489.25090103 -183.67440078 489.25090103 -186.9987793 484.15112305 C-187.0612793 481.08862305 -187.0612793 481.08862305 -185.9987793 478.15112305 C-182.53590446 474.99342962 -178.89022763 472.93380136 -174.6862793 470.90112305 C-173.61764648 470.3803418 -172.54901367 469.85956055 -171.44799805 469.32299805 C-170.63975586 468.9362793 -169.83151367 468.54956055 -168.9987793 468.15112305 C-172.15447215 464.55832409 -176.194657 462.87094275 -180.4050293 460.7487793 C-183.0750806 459.1041242 -184.43977176 457.85201236 -185.9987793 455.15112305 C-186.1862793 451.71362305 -186.1862793 451.71362305 -184.9987793 448.15112305 C-182.58600222 445.97723479 -179.89227059 444.5953786 -176.9987793 443.15112305 C-176.26014648 442.75666992 -175.52151367 442.3622168 -174.76049805 441.95581055 C-169.39628804 439.15112305 -169.39628804 439.15112305 -166.9987793 439.15112305 C-166.9987793 438.49112305 -166.9987793 437.83112305 -166.9987793 437.15112305 C-168.06032227 436.74700195 -168.06032227 436.74700195 -169.14331055 436.3347168 C-172.09464949 435.11138479 -174.87100869 433.72303825 -177.6862793 432.21362305 C-178.63889648 431.70959961 -179.59151367 431.20557617 -180.57299805 430.6862793 C-182.9987793 429.15112305 -182.9987793 429.15112305 -184.9987793 426.15112305 C-184.9362793 422.71362305 -184.9362793 422.71362305 -183.9987793 419.15112305 C-180.57412404 415.95519026 -176.88478272 413.93116866 -172.6862793 411.90112305 C-171.61764648 411.3803418 -170.54901367 410.85956055 -169.44799805 410.32299805 C-168.63975586 409.9362793 -167.83151367 409.54956055 -166.9987793 409.15112305 C-170.15447215 405.55832409 -174.194657 403.87094275 -178.4050293 401.7487793 C-181.0750806 400.1041242 -182.43977176 398.85201236 -183.9987793 396.15112305 C-184.1862793 392.71362305 -184.1862793 392.71362305 -182.9987793 389.15112305 C-180.58600222 386.97723479 -177.89227059 385.5953786 -174.9987793 384.15112305 C-174.26014648 383.75666992 -173.52151367 383.3622168 -172.76049805 382.95581055 C-167.39628804 380.15112305 -167.39628804 380.15112305 -164.9987793 380.15112305 C-164.9987793 379.49112305 -164.9987793 378.83112305 -164.9987793 378.15112305 C-166.06032227 377.74700195 -166.06032227 377.74700195 -167.14331055 377.3347168 C-170.09464949 376.11138479 -172.87100869 374.72303825 -175.6862793 373.21362305 C-176.63889648 372.70959961 -177.59151367 372.20557617 -178.57299805 371.6862793 C-180.9987793 370.15112305 -180.9987793 370.15112305 -182.9987793 367.15112305 C-183.3737793 364.21362305 -183.3737793 364.21362305 -182.9987793 361.15112305 C-179.993998 357.47942688 -176.42017789 355.57025031 -172.2487793 353.40112305 C-171.64678711 353.08530273 -171.04479492 352.76948242 -170.42456055 352.4440918 C-168.9527513 351.6731441 -167.47623188 350.91119981 -165.9987793 350.15112305 C-165.9987793 349.49112305 -165.9987793 348.83112305 -165.9987793 348.15112305 C-166.90241211 347.6922168 -167.80604492 347.23331055 -168.73706055 346.76049805 C-169.928727 346.14120682 -171.12011896 345.5213872 -172.3112793 344.90112305 C-174.06891602 343.99620117 -174.06891602 343.99620117 -175.86206055 343.07299805 C-178.80174969 341.27184355 -180.30772526 340.10159845 -181.9987793 337.15112305 C-182.5612793 334.21362305 -182.5612793 334.21362305 -181.9987793 331.15112305 C-177.55314717 326.47151028 -171.69684858 323.13338593 -165.9987793 320.15112305 C-165.3387793 320.15112305 -164.6787793 320.15112305 -163.9987793 320.15112305 C-163.9987793 319.49112305 -163.9987793 318.83112305 -163.9987793 318.15112305 C-165.1744043 317.84174805 -165.1744043 317.84174805 -166.3737793 317.52612305 C-178.63707717 312.8745273 -178.63707717 312.8745273 -180.9987793 308.15112305 C-181.3737793 304.77612305 -181.3737793 304.77612305 -180.9987793 301.15112305 C-178.78051758 299.14038086 -178.78051758 299.14038086 -175.9987793 297.15112305 C-175.21873535 296.57716797 -174.43869141 296.00321289 -173.63500977 295.41186523 C-153.58532497 281.77077323 -135.86126053 281.719648 -112.29418945 282.87817383 C-105.34745639 283.204983 -98.40115263 283.32447999 -91.44799805 283.4284668 C-89.61893921 283.45614891 -89.61893921 283.45614891 -87.75292969 283.48439026 C-85.31232101 283.52102736 -82.87170822 283.55739112 -80.43109131 283.59347534 C-74.64722107 283.68558699 -68.86405441 283.80756472 -63.08081055 283.93237305 C-62.05799484 283.95432236 -61.03517914 283.97627167 -59.98136902 283.99888611 C-57.65382777 284.04913268 -55.32629772 284.09983151 -52.9987793 284.15112305 C-50.62303436 268.01575529 -52.88672889 254.12041311 -56.32299805 238.33325195 C-57.39405269 233.28985377 -58.32935802 228.22401693 -59.2487793 223.15112305 C-59.41152344 222.27431885 -59.57426758 221.39751465 -59.74194336 220.49414062 C-59.89373047 219.65906982 -60.04551758 218.82399902 -60.2019043 217.96362305 C-60.33242187 217.24819336 -60.46293945 216.53276367 -60.59741211 215.7956543 C-61.6489323 208.86738985 -62.15677144 202.05530713 -62.16674805 195.04956055 C-62.17174065 193.7902623 -62.17174065 193.7902623 -62.17683411 192.50552368 C-62.18186271 190.7391209 -62.1842437 188.97270876 -62.18408203 187.20629883 C-62.18625675 184.5536261 -62.20442394 181.90137812 -62.22338867 179.2487793 C-62.31623224 151.8525625 -57.26893356 130.49744649 -37.9987793 110.15112305 C-37.27045898 109.42280273 -36.54213867 108.69448242 -35.79174805 107.9440918 C-28.87122355 100.40726827 -27.51450047 91.96166998 -25.9987793 82.15112305 C-25.77254883 80.73766602 -25.77254883 80.73766602 -25.54174805 79.2956543 C-25.24126641 76.90382047 -25.09017032 74.56019035 -24.9987793 72.15112305 C-24.93561523 70.89944336 -24.87245117 69.64776367 -24.80737305 68.3581543 C-24.76374083 66.99757808 -24.72337789 65.63689309 -24.6862793 64.27612305 C-24.64889648 63.02057617 -24.61151367 61.7650293 -24.57299805 60.47143555 C-25.07809576 56.53260017 -26.12722016 55.72716251 -28.9987793 53.15112305 C-32.39813513 40.75347235 -22.08825454 25.64069834 -16.28149414 15.3347168 C-7.15852337 -0.19551742 -7.15852337 -0.19551742 0 0 Z M199.0012207 303.15112305 C199.0012207 305.46112305 199.0012207 307.77112305 199.0012207 310.15112305 C203.41644179 308.88137333 203.41644179 308.88137333 207.0012207 306.15112305 C203.19694578 303.94973645 203.19694578 303.94973645 199.0012207 303.15112305 Z M-154.9987793 303.15112305 C-155.9887793 303.64612305 -155.9887793 303.64612305 -156.9987793 304.15112305 C-156.9987793 304.81112305 -156.9987793 305.47112305 -156.9987793 306.15112305 C-156.0087793 306.48112305 -155.0187793 306.81112305 -153.9987793 307.15112305 C-154.3287793 305.83112305 -154.6587793 304.51112305 -154.9987793 303.15112305 Z M-157.0612793 333.15112305 C-157.7006543 333.81112305 -158.3400293 334.47112305 -158.9987793 335.15112305 C-156.5237793 336.14112305 -156.5237793 336.14112305 -153.9987793 337.15112305 C-153.9987793 335.17112305 -153.9987793 333.19112305 -153.9987793 331.15112305 C-155.3579561 331.03509874 -155.3579561 331.03509874 -157.0612793 333.15112305 Z M199.0012207 332.15112305 C199.0012207 334.46112305 199.0012207 336.77112305 199.0012207 339.15112305 C201.02167513 338.54928556 203.0223311 337.87806209 205.0012207 337.15112305 C205.3312207 336.49112305 205.6612207 335.83112305 206.0012207 335.15112305 C203.6912207 334.16112305 201.3812207 333.17112305 199.0012207 332.15112305 Z M-157.6237793 363.65112305 C-158.0775293 364.14612305 -158.5312793 364.64112305 -158.9987793 365.15112305 C-156.5237793 366.14112305 -156.5237793 366.14112305 -153.9987793 367.15112305 C-153.9987793 365.50112305 -153.9987793 363.85112305 -153.9987793 362.15112305 C-156.12242411 361.92502968 -156.12242411 361.92502968 -157.6237793 363.65112305 Z M199.0012207 362.15112305 C199.0012207 364.13112305 199.0012207 366.11112305 199.0012207 368.15112305 C200.9812207 367.49112305 202.9612207 366.83112305 205.0012207 366.15112305 C202.94888386 363.90332555 201.9945481 363.14889884 199.0012207 362.15112305 Z M-159.9987793 394.15112305 C-158.0187793 395.14112305 -156.0387793 396.13112305 -153.9987793 397.15112305 C-153.9987793 395.17112305 -153.9987793 393.19112305 -153.9987793 391.15112305 C-156.76101208 391.15112305 -157.89159384 392.46537468 -159.9987793 394.15112305 Z M199.0012207 392.15112305 C199.0012207 394.13112305 199.0012207 396.11112305 199.0012207 398.15112305 C200.6512207 397.49112305 202.3012207 396.83112305 204.0012207 396.15112305 C204.0012207 395.49112305 204.0012207 394.83112305 204.0012207 394.15112305 C201.5262207 393.16112305 201.5262207 393.16112305 199.0012207 392.15112305 Z M-160.9987793 423.15112305 C-157.90550034 426.12787764 -157.90550034 426.12787764 -153.9987793 427.15112305 C-153.9987793 424.84112305 -153.9987793 422.53112305 -153.9987793 420.15112305 C-156.8938644 420.15112305 -158.59574403 421.63341656 -160.9987793 423.15112305 Z M199.0012207 422.15112305 C199.0012207 423.80112305 199.0012207 425.45112305 199.0012207 427.15112305 C200.6512207 426.49112305 202.3012207 425.83112305 204.0012207 425.15112305 C201.73797786 423.07252387 201.73797786 423.07252387 199.0012207 422.15112305 Z M-161.9987793 452.15112305 C-159.47089923 454.94984741 -157.79466796 456.60885324 -153.9987793 457.15112305 C-153.9987793 454.51112305 -153.9987793 451.87112305 -153.9987793 449.15112305 C-157.07887809 449.15112305 -159.31013066 450.74834984 -161.9987793 452.15112305 Z M198.0012207 452.15112305 C198.0012207 453.80112305 198.0012207 455.45112305 198.0012207 457.15112305 C199.6512207 456.49112305 201.3012207 455.83112305 203.0012207 455.15112305 C201.62636538 453.60945663 201.62636538 453.60945663 200.0012207 452.15112305 C199.3412207 452.15112305 198.6812207 452.15112305 198.0012207 452.15112305 Z M-161.9987793 481.15112305 C-161.9987793 481.81112305 -161.9987793 482.47112305 -161.9987793 483.15112305 C-158.19450437 485.35250965 -158.19450437 485.35250965 -153.9987793 486.15112305 C-153.9987793 483.51112305 -153.9987793 480.87112305 -153.9987793 478.15112305 C-157.07887809 478.15112305 -159.31013066 479.74834984 -161.9987793 481.15112305 Z M198.0012207 482.15112305 C198.3312207 483.47112305 198.6612207 484.79112305 199.0012207 486.15112305 C199.9912207 485.16112305 200.9812207 484.17112305 202.0012207 483.15112305 C200.6812207 482.82112305 199.3612207 482.49112305 198.0012207 482.15112305 Z " fill="#010101" transform="translate(233.998779296875,2.848876953125)"/>
<path d="M0 0 C59.81648936 0 59.81648936 0 82 1 C81.69126147 2.75824613 81.37947445 4.51595714 81.06640625 6.2734375 C80.89310791 7.25231934 80.71980957 8.23120117 80.54125977 9.23974609 C80 12 80 12 78.9375 15.625 C75.82778677 26.81996762 74.49328273 42.97587854 79.64453125 53.6875 C81.83801216 57.42969221 84.1583825 61.07368873 86.609375 64.65234375 C88 67 88 67 88 70 C86.53125 71.25390625 86.53125 71.25390625 84.5 72.5625 C80.08104496 75.68543642 77.15587997 79.3956014 73.87890625 83.66015625 C68.55307524 90.29253209 62.89737335 92.86365248 54.5625 94.11328125 C53.33789062 94.30986328 52.11328125 94.50644531 50.8515625 94.70898438 C48.28562092 95.11105129 45.71786386 95.5016996 43.1484375 95.88085938 C41.92382812 96.08130859 40.69921875 96.28175781 39.4375 96.48828125 C37.76494141 96.74411987 37.76494141 96.74411987 36.05859375 97.00512695 C32.278206 98.23477894 30.53261846 99.98012808 28 103 C27.14939044 106.08544091 27.37105027 108.87224998 28 112 C29.79393668 114.87029869 30.98263276 116.49131638 34 118 C35.93282516 118.15547642 37.87065284 118.2502922 39.80859375 118.31640625 C41.01805664 118.35854248 42.22751953 118.40067871 43.47363281 118.4440918 C45.43574707 118.50270386 45.43574707 118.50270386 47.4375 118.5625 C48.10261597 118.58301422 48.76773193 118.60352844 49.45300293 118.62466431 C59.2169798 118.92216824 68.98146081 119.12644234 78.75 119.1875 C80.37893188 119.20695679 80.37893188 119.20695679 82.04077148 119.22680664 C89.5120299 119.23554495 96.95133699 118.88937607 103.8125 115.6875 C104.534375 115.460625 105.25625 115.23375 106 115 C106.68231689 115.47171631 107.36463379 115.94343262 108.06762695 116.42944336 C112.12725999 118.60375186 115.56709801 118.44119324 120.10546875 118.44140625 C121.02855331 118.45393433 121.95163788 118.4664624 122.9026947 118.47937012 C124.92637159 118.50563201 126.95014029 118.52541372 128.97393799 118.5395813 C134.57806808 118.57954922 140.18151599 118.66763606 145.78515625 118.75 C146.98976501 118.76652115 148.19437378 118.7830423 149.43548584 118.80006409 C158.91773664 118.9400669 168.39304291 119.1953718 177.87109375 119.5 C178.94358022 119.53423726 178.94358022 119.53423726 180.03773308 119.56916618 C186.43450205 119.77391787 192.83110906 119.98331259 199.22738647 120.20291138 C213.49706752 120.69127601 227.77030475 121.1135865 242.04851913 121.22689629 C244.03702809 121.24534986 246.02538824 121.27814344 248.01370239 121.3115387 C259.53984689 121.35588702 270.55973914 119.37898951 281.3125 115.1875 C281.98128174 114.93033203 282.65006348 114.67316406 283.33911133 114.40820312 C293.19314584 110.47758739 300.47987249 105.35275502 305.3125 95.6875 C308.16451241 88.64549406 307.88324322 83.31909429 304.9375 76.3125 C300.42912339 67.93674819 293.14930764 62.07766883 286 56 C285.01 55.15179688 284.02 54.30359375 283 53.4296875 C280.36988926 51.23537999 277.69975574 49.10780929 275 47 C274.14019531 46.31035156 273.28039062 45.62070312 272.39453125 44.91015625 C251.60778091 28.69707735 227.71855022 16.40522395 202.92749023 7.5847168 C200.59375 6.71875 200.59375 6.71875 197 5 C196.67 3.68 196.34 2.36 196 1 C238.57 1 281.14 1 325 1 C325.04030303 41.83145178 325.04030303 41.83145178 325.04882812 59.09375 C325.05473516 70.95866331 325.06163512 82.82356946 325.07543945 94.68847656 C325.08549332 103.33404965 325.09187853 111.97961685 325.09408849 120.62519562 C325.09537768 125.19123763 325.0983471 129.75726285 325.10573006 134.32329941 C325.1126604 138.64559208 325.11458353 142.96786152 325.11310768 147.29015923 C325.11337656 148.8530954 325.11527856 150.41603259 325.11920547 151.97896385 C325.15266787 166.01972048 324.5405457 179.94581186 324 194 C217.08 194 110.16 194 0 194 C0 129.98 0 65.96 0 0 Z " fill="#09458C" transform="translate(94,300)"/>
<path d="M0 0 C13.21662823 3.69408864 24.54259298 15.98201965 32.12646484 27.00561523 C33.71290627 29.92474354 34.42025564 33.03163694 35.29052734 36.22363281 C36.82069417 40.98123554 39.35543245 45.20978059 41.76953125 49.56640625 C52.08923925 68.77501079 59.79275026 89.40422358 64.46875 110.71875 C64.69175781 111.43160156 64.91476562 112.14445312 65.14453125 112.87890625 C68.00655773 114.30991949 69.94850621 114.13592924 73.14453125 113.87890625 C75.83224378 112.8788938 78.23295251 111.85894414 80.76953125 110.56640625 C81.46884766 110.21102783 82.16816406 109.85564941 82.88867188 109.48950195 C94.17442233 103.4639934 102.16785275 94.4875615 109.14453125 83.87890625 C116.48936371 87.26405102 119.3747694 93.50481729 122.16796875 100.78515625 C123.64133292 105.45277394 124.5966267 109.11432204 123.14453125 113.87890625 C116.40077661 120.99303366 106.93387386 126.2292611 98.76953125 131.62890625 C97.78640457 132.28221924 97.78640457 132.28221924 96.78341675 132.94873047 C86.39805022 139.8462959 75.90373033 146.5327886 65.09228516 152.74853516 C63.80203221 153.49732823 62.52262981 154.26516346 61.25537109 155.05224609 C57.64475981 157.25617653 54.89058046 158.46644111 50.64453125 158.50390625 C49.76796875 158.53742188 48.89140625 158.5709375 47.98828125 158.60546875 C40.59726821 156.71710553 36.19779996 149.65325673 32.08203125 143.69140625 C30.94633376 142.08261191 29.80957956 140.47456311 28.671875 138.8671875 C27.80151611 137.630896 27.80151611 137.630896 26.91357422 136.36962891 C24.04574824 132.33187557 21.09342629 128.35761329 18.14453125 124.37890625 C16.97870021 122.79721871 15.81333589 121.21518705 14.6484375 119.6328125 C12.88390839 117.23650793 11.11714968 114.84202389 9.34326172 112.45263672 C-9.89800417 86.51693748 -9.89800417 86.51693748 -8.85546875 70.87890625 C-8.220728 69.53008217 -7.55698027 68.19424035 -6.85546875 66.87890625 C-6.35536351 63.83659802 -6.35536351 63.83659802 -6.85546875 60.87890625 C-8.37441681 58.7812646 -8.37441681 58.7812646 -10.85546875 57.87890625 C-13.92635732 57.47347926 -13.92635732 57.47347926 -16.85546875 58.87890625 C-22.48561179 65.99066589 -21.81169387 75.25535262 -20.85546875 83.87890625 C-18.50379755 97.67152999 -10.02080956 107.94479746 -1.85546875 118.87890625 C-0.67516454 120.48817777 0.50326444 122.09882657 1.6796875 123.7109375 C3.98093685 126.85844856 6.29493681 129.99585433 8.62109375 133.125 C11.05136218 136.39547023 13.4604852 139.68016685 15.85546875 142.9765625 C27.69731352 161.30290529 27.69731352 161.30290529 46.14453125 170.87890625 C49.81503264 171.13584135 53.48509738 171.32082182 57.16015625 171.5 C58.145 171.62503906 59.12984375 171.75007812 60.14453125 171.87890625 C62.07635689 175.74255753 61.92522212 180.81018502 62.3515625 185.08203125 C63.42623596 190.22775834 65.55588089 193.25076745 69.1875 196.97265625 C73.65335058 199.85156653 78.4980418 201.5156475 83.45703125 203.37890625 C110.8520284 214.04552432 135.03178439 227.8594905 156.765625 247.72265625 C158.91963634 249.67506061 161.11480851 251.56167984 163.33203125 253.44140625 C166.05489289 255.83708085 168.65282547 258.30489192 171.14453125 260.94140625 C171.72203125 261.55113281 172.29953125 262.16085937 172.89453125 262.7890625 C174.55361981 265.56285118 174.23110637 267.69916426 174.14453125 270.87890625 C173.3131665 270.87366943 172.48180176 270.86843262 171.62524414 270.86303711 C168.49975853 270.84585336 165.37429724 270.83338769 162.2487793 270.82397461 C160.24721667 270.81655521 158.24567592 270.80383966 156.24414062 270.79101562 C149.4604709 270.7739283 142.86186995 270.92620885 136.14453125 271.87890625 C121.43607152 273.80541293 109.70831583 268.46741001 96.22314453 263.05932617 C76.69760877 255.57273098 56.58541274 255.76450088 36.01953125 257.87890625 C2.75657708 261.24132433 2.75657708 261.24132433 -6.85546875 253.87890625 C-7.61472656 253.3478125 -8.37398437 252.81671875 -9.15625 252.26953125 C-11.48455822 250.5634096 -13.67207234 248.76618199 -15.85546875 246.87890625 C-16.55800781 246.28335938 -17.26054687 245.6878125 -17.984375 245.07421875 C-25.06082502 238.60201968 -29.61036847 231.55695518 -30.3984375 221.84765625 C-31.03604958 206.7815646 -27.69824677 193.87897879 -22.16796875 180.00390625 C-19.77763461 173.9378696 -18.39913605 168.38145325 -17.85546875 161.87890625 C-17.79423828 161.16782715 -17.73300781 160.45674805 -17.66992188 159.72412109 C-16.75588944 147.28968546 -18.39363488 135.76730897 -21.16796875 123.69140625 C-21.3280542 122.99421478 -21.48813965 122.29702332 -21.65307617 121.57870483 C-22.43533373 118.19034776 -23.22871008 114.80468244 -24.02636719 111.41992188 C-30.43799235 84.0364674 -33.67767779 43.10335389 -18.66796875 18.19140625 C-14.90122502 12.63484908 -10.50445338 7.70808408 -5.85546875 2.87890625 C-5.3965625 2.27046875 -4.93765625 1.66203125 -4.46484375 1.03515625 C-2.85546875 -0.12109375 -2.85546875 -0.12109375 0 0 Z " fill="#CEF5F4" transform="translate(213.85546875,118.12109375)"/>
<path d="M0 0 C-0.24733638 7.29642314 -0.24733638 7.29642314 -3.875 10.6875 C-4.90625 11.450625 -5.9375 12.21375 -7 13 C-9.87050209 16.54028591 -10.46495307 19.43301707 -10.30078125 24.00390625 C-9.84380533 27.0365646 -8.55443296 29.38855263 -7 32 C-6.67 32.66 -6.34 33.32 -6 34 C-7.216875 33.95875 -8.43375 33.9175 -9.6875 33.875 C-11.92904666 34.03580655 -11.92904666 34.03580655 -14 35 C-16.29414054 38.08541979 -17.63497788 41.4234304 -19 45 C-19.37382812 45.93328125 -19.74765625 46.8665625 -20.1328125 47.828125 C-20.56207031 48.90320313 -20.56207031 48.90320313 -21 50 C-22.11117187 49.93039063 -23.22234375 49.86078125 -24.3671875 49.7890625 C-35.25860387 49.3100362 -41.84153733 50.41052573 -50.15625 57.95703125 C-51.83411674 59.59161968 -53.43976939 61.25378164 -55 63 C-56.16666667 62.125 -57.33333333 61.25 -58.5 60.375 C-59.23605469 59.82585937 -59.97210938 59.27671875 -60.73046875 58.7109375 C-62.14046787 57.64797775 -63.54092975 56.57208397 -64.92578125 55.4765625 C-70.26674602 51.29667703 -75.98643863 48.11732409 -82 45 C-81.50063108 41.33155906 -80.9586097 37.68679214 -80.28125 34.046875 C-80.15363281 33.34304687 -80.02601563 32.63921875 -79.89453125 31.9140625 C-79.63977686 30.51669682 -79.37729998 29.12070684 -79.10546875 27.7265625 C-77.54117832 18.90965283 -77.38871964 9.92911876 -77 1 C-76.25577286 1.00222061 -75.51154572 1.00444122 -74.74476624 1.00672913 C-67.69853851 1.02684518 -60.65232088 1.04203151 -53.60607243 1.05181217 C-49.98435799 1.05700968 -46.36266747 1.06404981 -42.7409668 1.07543945 C-39.23964137 1.08638044 -35.73833882 1.09230037 -32.2369976 1.09487724 C-30.26468526 1.09759827 -28.292382 1.10539217 -26.32008362 1.11329651 C-17.49482394 1.11384262 -8.79474982 -0.18712234 0 0 Z " fill="#F4CAA4" transform="translate(301,61)"/>
<path d="M0 0 C2.24536133 -0.35644531 2.24536133 -0.35644531 5.08203125 -0.328125 C6.14639404 -0.32361328 7.21075684 -0.31910156 8.30737305 -0.31445312 C9.46406494 -0.29318359 10.62075684 -0.27191406 11.8125 -0.25 C12.99690674 -0.23904297 14.18131348 -0.22808594 15.40161133 -0.21679688 C28.93992511 -0.05380206 42.47293581 0.444073 56 1 C57.71383583 4.66393183 59.42269839 8.33013651 61.12695312 11.99853516 C61.70761521 13.24656893 62.28964069 14.49396929 62.87304688 15.74072266 C63.71060247 17.5312114 64.54287966 19.3241663 65.375 21.1171875 C65.87773437 22.19597168 66.38046875 23.27475586 66.8984375 24.38623047 C68 27 68 27 68 29 C40.427515 32.7390915 12.47506225 34.30552926 -15 29 C-11.34540571 18.72958973 -6.04344167 9.0651625 0 0 Z " fill="#EBE8E6" transform="translate(235,18)"/>
<path d="M0 0 C1.25248535 0.45850342 1.25248535 0.45850342 2.53027344 0.92626953 C7.04050612 2.59532858 11.5242396 4.31878311 15.9921875 6.09765625 C23.32333378 8.94332682 30.16396158 11.43471087 38.125 11.25 C39.92517578 11.21132813 39.92517578 11.21132813 41.76171875 11.171875 C44.77962328 11.01169671 47.72833836 10.68868237 50.71484375 10.22265625 C56.43247997 9.66555323 62.25885018 9.9327209 68 10 C65.73344602 12.26655398 64.35325507 12.67309078 61.3125 13.5625 C60.48363281 13.81128906 59.65476562 14.06007813 58.80078125 14.31640625 C52.87055504 15.76381153 47.02686428 16.15367314 40.94384766 16.15039062 C39.77238253 16.15452217 39.77238253 16.15452217 38.57725143 16.15873718 C35.98114426 16.16464864 33.3851703 16.16136188 30.7890625 16.15625 C29.87990711 16.15567093 28.97075172 16.15509186 28.03404617 16.15449524 C4.90588659 16.12589682 -18.19979577 15.37834634 -41.31298828 14.60931396 C-46.94678111 14.4233689 -52.580823 14.24528742 -58.21484375 14.06640625 C-69.14347605 13.71832919 -80.07182186 13.36203816 -91 13 C-89.87883864 11.03946649 -88.75294469 9.08163875 -87.625 7.125 C-86.99851563 6.03445313 -86.37203125 4.94390625 -85.7265625 3.8203125 C-82.97868209 -0.66830663 -82.97868209 -0.66830663 -80.20776367 -1.60742188 C-77.67750451 -2.05734521 -75.24488442 -2.19731718 -72.67578125 -2.28125 C-71.64646484 -2.31863281 -70.61714844 -2.35601562 -69.55664062 -2.39453125 C-68.48607422 -2.42933594 -67.41550781 -2.46414063 -66.3125 -2.5 C-57.94211826 -2.74472985 -57.94211826 -2.74472985 -49.609375 -3.51171875 C-33.35011837 -5.47553008 -15.4909818 -5.71980379 0 0 Z " fill="#CCF2F1" transform="translate(303,392)"/>
<path d="M0 0 C2.5625 -0.25 2.5625 -0.25 5 0 C6 1 6 1 6.0625 4.0625 C6.041875 5.031875 6.02125 6.00125 6 7 C6.66 7 7.32 7 8 7 C8 7.66 8 8.32 8 9 C8.66 9.33 9.32 9.66 10 10 C8.35 10.33 6.7 10.66 5 11 C5.474375 11.350625 5.94875 11.70125 6.4375 12.0625 C8.67632018 14.83863703 8.61976819 17.51454177 9 21 C9.495 21.99 9.495 21.99 10 23 C9.0625 25.625 9.0625 25.625 8 28 C8.639375 28.12375 9.27875 28.2475 9.9375 28.375 C10.9584375 28.684375 10.9584375 28.684375 12 29 C12.495 29.99 12.495 29.99 13 31 C11.02 31.99 11.02 31.99 9 33 C9 34.65 9 36.3 9 38 C6.525 38.495 6.525 38.495 4 39 C4.99 38.34 5.98 37.68 7 37 C7.33 36.01 7.66 35.02 8 34 C6.02 34 4.04 34 2 34 C0.98617037 37.6208201 0.50102309 41.27811418 0 45 C0.99 45.495 0.99 45.495 2 46 C1.01 46 0.02 46 -1 46 C-0.01 47.98 0.98 49.96 2 52 C2.33 51.01 2.66 50.02 3 49 C5.97 49.495 5.97 49.495 9 50 C9 50.66 9 51.32 9 52 C7.68 52.66 6.36 53.32 5 54 C5.99 54.33 6.98 54.66 8 55 C8.495 54.01 8.495 54.01 9 53 C9.99 52.34 10.98 51.68 12 51 C12 51.99 12 52.98 12 54 C13.32 54.66 14.64 55.32 16 56 C14.02 56.495 14.02 56.495 12 57 C13.15173355 59.46800047 14.04783565 61.04783565 16 63 C13.66666667 63 11.33333333 63 9 63 C9 63.66 9 64.32 9 65 C8.01 64.67 7.02 64.34 6 64 C6 63.34 6 62.68 6 62 C4.35 62.66 2.7 63.32 1 64 C1.66 63.01 2.32 62.02 3 61 C2.34 61 1.68 61 1 61 C0.34 62.65 -0.32 64.3 -1 66 C-1.99 65.505 -1.99 65.505 -3 65 C-3 64.01 -3 63.02 -3 62 C-3.78375 62.20625 -4.5675 62.4125 -5.375 62.625 C-6.24125 62.74875 -7.1075 62.8725 -8 63 C-8.66 62.34 -9.32 61.68 -10 61 C-10.66 61.99 -11.32 62.98 -12 64 C-13.32 64 -14.64 64 -16 64 C-16.33 65.65 -16.66 67.3 -17 69 C-17.53625 68.46375 -18.0725 67.9275 -18.625 67.375 C-19.40875 66.92125 -20.1925 66.4675 -21 66 C-24.11681225 66.81664605 -24.11681225 66.81664605 -27 68 C-27.66 67.67 -28.32 67.34 -29 67 C-29.804375 67.020625 -30.60875 67.04125 -31.4375 67.0625 C-34 67 -34 67 -37 65 C-37.33 66.65 -37.66 68.3 -38 70 C-38.99 69.67 -39.98 69.34 -41 69 C-41 68.34 -41 67.68 -41 67 C-41.99 67 -42.98 67 -44 67 C-44 66.01 -44 65.02 -44 64 C-44.99 63.67 -45.98 63.34 -47 63 C-44.525 62.505 -44.525 62.505 -42 62 C-42 61.34 -42 60.68 -42 60 C-41.0925 60.309375 -40.185 60.61875 -39.25 60.9375 C-36.83436662 61.7272263 -34.47219715 62.42949297 -32 63 C-32.226875 62.401875 -32.45375 61.80375 -32.6875 61.1875 C-32.790625 60.465625 -32.89375 59.74375 -33 59 C-31.5625 57.25 -31.5625 57.25 -30 56 C-28.515 56.495 -28.515 56.495 -27 57 C-28.98 57.495 -28.98 57.495 -31 58 C-29.36526484 61.12474627 -29.36526484 61.12474627 -26.875 61.6875 C-26.25625 61.790625 -25.6375 61.89375 -25 62 C-23.85790183 60.21771064 -23.85790183 60.21771064 -23 58 C-23.33 56.68 -23.66 55.36 -24 54 C-28.95 54.495 -28.95 54.495 -34 55 C-34 56.65 -34 58.3 -34 60 C-35.50559539 58.03617993 -36.89131683 56.21736634 -38 54 C-38.66 53.67 -39.32 53.34 -40 53 C-39.34 52.01 -38.68 51.02 -38 50 C-37.21625 50.020625 -36.4325 50.04125 -35.625 50.0625 C-32.82158143 50.2741435 -32.82158143 50.2741435 -30.6875 48 C-30.130625 47.34 -29.57375 46.68 -29 46 C-29 47.32 -29 48.64 -29 50 C-28.38125 50.144375 -27.7625 50.28875 -27.125 50.4375 C-25 51 -25 51 -23 52 C-22.34 51.34 -21.68 50.68 -21 50 C-20.34 50.33 -19.68 50.66 -19 51 C-18.13149826 48.75124253 -18.13149826 48.75124253 -18 46 C-19.8312811 43.18900586 -19.8312811 43.18900586 -22 41 C-21.195625 40.79375 -20.39125 40.5875 -19.5625 40.375 C-18.716875 39.92125 -17.87125 39.4675 -17 39 C-16.10169161 35.94727535 -16.10169161 35.94727535 -16 33 C-14.9275 33.37125 -13.855 33.7425 -12.75 34.125 C-9.18370653 35.31491732 -9.18370653 35.31491732 -6.5625 34.125 C-6.046875 33.75375 -5.53125 33.3825 -5 33 C-5.33 32.01 -5.66 31.02 -6 30 C-5.34 30 -4.68 30 -4 30 C-4.495 29.4225 -4.99 28.845 -5.5 28.25 C-7 26 -7 26 -7 22 C-7.66 22 -8.32 22 -9 22 C-9 19 -9 16 -9 13 C-8.34 13 -7.68 13 -7 13 C-7 13.66 -7 14.32 -7 15 C-4.36 15 -1.72 15 1 15 C0.67 15.66 0.34 16.32 0 17 C-1.32 17 -2.64 17 -4 17 C-3.505 18.98 -3.505 18.98 -3 21 C-2.13375 19.9790625 -2.13375 19.9790625 -1.25 18.9375 C-0.5075 18.298125 0.235 17.65875 1 17 C3.25 17.25 3.25 17.25 5 18 C2.28684478 13.84929541 2.28684478 13.84929541 -0.75 9.9375 C-2.36639608 7.43208608 -2.37572648 5.93066652 -2 3 C-1.34 2.01 -0.68 1.02 0 0 Z " fill="#748079" transform="translate(399,422)"/>
<path d="M0 0 C0.66 0 1.32 0 2 0 C2.33 1.32 2.66 2.64 3 4 C3.66 3.01 4.32 2.02 5 1 C6.0725 1.33 7.145 1.66 8.25 2 C11.99731601 3.1717751 11.99731601 3.1717751 16 3 C16.99 3.33 17.98 3.66 19 4 C19.66 2.68 20.32 1.36 21 0 C21.4125 0.639375 21.825 1.27875 22.25 1.9375 C24.22934462 4.27029901 25.09798291 4.43831927 28 5 C28.66 5.66 29.32 6.32 30 7 C30.99 6.34 31.98 5.68 33 5 C34.32 5 35.64 5 37 5 C37 3.68 37 2.36 37 1 C42.75 2.875 42.75 2.875 45 4 C45.33 3.01 45.66 2.02 46 1 C46.66 1 47.32 1 48 1 C48 1.99 48 2.98 48 4 C49.65 3.34 51.3 2.68 53 2 C52.34 3.98 51.68 5.96 51 8 C52.32 8.33 53.64 8.66 55 9 C53.02 9.99 53.02 9.99 51 11 C51.495 12.98 51.495 12.98 52 15 C51.34 14.67 50.68 14.34 50 14 C49.67 14.66 49.34 15.32 49 16 C51.475 16.99 51.475 16.99 54 18 C52.68 18.33 51.36 18.66 50 19 C49.67 20.32 49.34 21.64 49 23 C48.34 23 47.68 23 47 23 C46.7525 22.236875 46.505 21.47375 46.25 20.6875 C44.89004442 17.7635955 43.68414174 16.69995644 41 15 C40.67 16.32 40.34 17.64 40 19 C39.34 19 38.68 19 38 19 C38 18.34 38 17.68 38 17 C37.01 17 36.02 17 35 17 C35 17.66 35 18.32 35 19 C34.34 19 33.68 19 33 19 C33 18.34 33 17.68 33 17 C32.236875 17.515625 31.47375 18.03125 30.6875 18.5625 C29.800625 19.036875 28.91375 19.51125 28 20 C27.01 19.67 26.02 19.34 25 19 C25.495 21.475 25.495 21.475 26 24 C25.01 24.66 24.02 25.32 23 26 C23.639375 26.268125 24.27875 26.53625 24.9375 26.8125 C27 28 27 28 28 31 C28.66 31 29.32 31 30 31 C30.66 30.34 31.32 29.68 32 29 C34.125 29.375 34.125 29.375 36 30 C36.495 28.515 36.495 28.515 37 27 C37.66 27.66 38.32 28.32 39 29 C39.33 27.02 39.66 25.04 40 23 C41.85776765 26.13498292 42.20140476 28.37471432 42 32 C44.31 31.67 46.62 31.34 49 31 C48.505 29.515 48.505 29.515 48 28 C47.01 28 46.02 28 45 28 C45.495 26.515 45.495 26.515 46 25 C47.9375 25.625 47.9375 25.625 50 27 C50.75 30.125 50.75 30.125 51 33 C51.99 33.33 52.98 33.66 54 34 C53.484375 34.5775 52.96875 35.155 52.4375 35.75 C50.74616449 37.81624387 50.74616449 37.81624387 51.375 39.75 C51.58125 40.4925 51.7875 41.235 52 42 C51.72463768 49.27536232 51.72463768 49.27536232 49 52 C50.32 52.99 51.64 53.98 53 55 C51.1875 57 51.1875 57 49 59 C48.01 59 47.02 59 46 59 C46 58.01 46 57.02 46 56 C45.01 56 44.02 56 43 56 C43 55.34 43 54.68 43 54 C42.34 54 41.68 54 41 54 C41 53.34 41 52.68 41 52 C41.99 52 42.98 52 44 52 C44 51.34 44 50.68 44 50 C41.69 50 39.38 50 37 50 C37.33 50.99 37.66 51.98 38 53 C36.68 52.67 35.36 52.34 34 52 C34.185625 51.05125 34.37125 50.1025 34.5625 49.125 C35.28686632 46.10131207 35.28686632 46.10131207 34 44 C34.66 43.67 35.32 43.34 36 43 C36.2475 42.01 36.2475 42.01 36.5 41 C36.7475 40.01 36.7475 40.01 37 39 C37.66 38.67 38.32 38.34 39 38 C39.495 39.98 39.495 39.98 40 42 C40 38.3040893 39.16512384 35.49537151 38 32 C33.32538149 31.67386382 30.83325617 32.29417212 27 35 C26.505 32.03 26.505 32.03 26 29 C24.35 28.67 22.7 28.34 21 28 C21.50603992 25.83125748 21.99983813 24.00032373 23 22 C22.75319799 19.43259568 22.75319799 19.43259568 22 17 C21.34 16.67 20.68 16.34 20 16 C19.67 16.66 19.34 17.32 19 18 C19 17.34 19 16.68 19 16 C18.01 16.66 17.02 17.32 16 18 C13.3125 18.125 13.3125 18.125 11 18 C10.67 18.99 10.34 19.98 10 21 C9.34 20.01 8.68 19.02 8 18 C7.67 18.33 7.34 18.66 7 19 C5.33382885 19.04063832 3.66611905 19.042721 2 19 C2.33 18.01 2.66 17.02 3 16 C3.66 16.33 4.32 16.66 5 17 C4.67 14.36 4.34 11.72 4 9 C2.35 9.33 0.7 9.66 -1 10 C-1 9.34 -1 8.68 -1 8 C-2.65 8 -4.3 8 -6 8 C-5.34 7.01 -4.68 6.02 -4 5 C-4.66 5 -5.32 5 -6 5 C-6.33 5.99 -6.66 6.98 -7 8 C-7.66 8 -8.32 8 -9 8 C-8.67 6.35 -8.34 4.7 -8 3 C-5.69 3.33 -3.38 3.66 -1 4 C-0.67 2.68 -0.34 1.36 0 0 Z " fill="#909074" transform="translate(361,307)"/>
<path d="M0 0 C1.94836963 1.13473483 3.86365853 2.32739546 5.75 3.5625 C6.73484375 4.20316406 7.7196875 4.84382813 8.734375 5.50390625 C9.85585937 6.24447266 9.85585937 6.24447266 11 7 C7.60848329 14.19066764 3.55634407 20.67131649 -4.03710938 23.85375977 C-11.08094053 26.27703731 -17.73777455 26.35500104 -25.125 26.1875 C-26.27226562 26.17396484 -27.41953125 26.16042969 -28.6015625 26.14648438 C-31.40154958 26.11148454 -34.20051217 26.06238859 -37 26 C-34.83907339 23.83907339 -33.15087375 23.1039472 -30.375 21.875 C-23.20779635 18.35336247 -18.49452429 13.20678639 -13.9375 6.75 C-10.54541455 2.063931 -6.07409346 -2.29711171 0 0 Z " fill="#EFC6A1" transform="translate(196,380)"/>
<path d="M0 0 C0.33 0 0.66 0 1 0 C0.55279004 17.41882811 -2.33519867 28.71568626 -15 41 C-15.62261719 41.66773438 -16.24523437 42.33546875 -16.88671875 43.0234375 C-21.62067236 48.08979948 -27.16342481 52.27349677 -33 56 C-33.66 56 -34.32 56 -35 56 C-35.42152344 55.14535156 -35.84304688 54.29070312 -36.27734375 53.41015625 C-36.82519531 52.30542969 -37.37304688 51.20070312 -37.9375 50.0625 C-38.48277344 48.96035156 -39.02804687 47.85820312 -39.58984375 46.72265625 C-40.74704978 44.15205586 -40.74704978 44.15205586 -42 43 C-42.80148641 36.58810873 -41.5144931 33.22361357 -37.70703125 28.04296875 C-33.55561462 23.07456853 -29.09265224 20.14371097 -23 18 C-21.68 18 -20.36 18 -19 18 C-19.0625 19.73828125 -19.0625 19.73828125 -20 22 C-22.32635936 23.56738462 -24.53163552 24.89258044 -27 26.1875 C-31.26205871 28.24232878 -31.26205871 28.24232878 -35 31 C-35.25003964 34.45821402 -35.25003964 34.45821402 -35 38 C-33.09846581 40.31318177 -33.09846581 40.31318177 -29.88671875 40.375 C-25.08120498 39.91135244 -21.94917277 38.36936187 -17.8125 36 C-16.76545898 35.45666016 -16.76545898 35.45666016 -15.69726562 34.90234375 C-10.51897685 31.99540714 -7.8104213 28.69119669 -6 23 C-5.52183901 19.2972623 -5.74109996 15.92772516 -6.75 12.3125 C-7 10 -7 10 -5.25 7.5 C-4.5075 6.675 -3.765 5.85 -3 5 C-2.443125 4.071875 -1.88625 3.14375 -1.3125 2.1875 C-0.879375 1.465625 -0.44625 0.74375 0 0 Z " fill="#EBC39F" transform="translate(382,156)"/>
<path d="M0 0 C1.85776765 3.13498292 2.20140476 5.37471432 2 9 C5.465 8.505 5.465 8.505 9 8 C8.67 7.01 8.34 6.02 8 5 C7.01 5 6.02 5 5 5 C5.33 4.01 5.66 3.02 6 2 C7.9375 2.625 7.9375 2.625 10 4 C10.75 7.125 10.75 7.125 11 10 C11.99 10.33 12.98 10.66 14 11 C13.484375 11.5775 12.96875 12.155 12.4375 12.75 C10.74616449 14.81624387 10.74616449 14.81624387 11.375 16.75 C11.58125 17.4925 11.7875 18.235 12 19 C11.72463768 26.27536232 11.72463768 26.27536232 9 29 C10.32 29.99 11.64 30.98 13 32 C11.1875 34 11.1875 34 9 36 C8.01 36 7.02 36 6 36 C6 35.01 6 34.02 6 33 C5.01 33 4.02 33 3 33 C3 32.34 3 31.68 3 31 C2.34 31 1.68 31 1 31 C1 30.34 1 29.68 1 29 C1.99 29 2.98 29 4 29 C4 28.34 4 27.68 4 27 C1.69 27 -0.62 27 -3 27 C-2.67 27.99 -2.34 28.98 -2 30 C-3.32 29.67 -4.64 29.34 -6 29 C-5.814375 28.05125 -5.62875 27.1025 -5.4375 26.125 C-4.71313368 23.10131207 -4.71313368 23.10131207 -6 21 C-5.34 20.67 -4.68 20.34 -4 20 C-3.835 19.34 -3.67 18.68 -3.5 18 C-3.335 17.34 -3.17 16.68 -3 16 C-2.34 15.67 -1.68 15.34 -1 15 C-0.67 16.32 -0.34 17.64 0 19 C0 15.3040893 -0.83487616 12.49537151 -2 9 C-6.67461851 8.67386382 -9.16674383 9.29417212 -13 12 C-13.33 10.02 -13.66 8.04 -14 6 C-15.65 5.67 -17.3 5.34 -19 5 C-18.67 4.34 -18.34 3.68 -18 3 C-15.5625 3.8125 -15.5625 3.8125 -13 5 C-12.67 5.99 -12.34 6.98 -12 8 C-11.34 8 -10.68 8 -10 8 C-9.34 7.34 -8.68 6.68 -8 6 C-5.875 6.375 -5.875 6.375 -4 7 C-3.67 6.01 -3.34 5.02 -3 4 C-2.34 4.66 -1.68 5.32 -1 6 C-0.67 4.02 -0.34 2.04 0 0 Z " fill="#9D9771" transform="translate(401,330)"/>
<path d="M0 0 C5.75 1.875 5.75 1.875 8 3 C8.33 2.01 8.66 1.02 9 0 C9.66 0 10.32 0 11 0 C11 0.99 11 1.98 11 3 C12.65 2.34 14.3 1.68 16 1 C15.34 2.98 14.68 4.96 14 7 C15.32 7.33 16.64 7.66 18 8 C16.02 8.99 16.02 8.99 14 10 C14.33 11.32 14.66 12.64 15 14 C14.34 13.67 13.68 13.34 13 13 C12.67 13.66 12.34 14.32 12 15 C13.65 15.66 15.3 16.32 17 17 C15.68 17.33 14.36 17.66 13 18 C12.67 19.32 12.34 20.64 12 22 C11.34 22 10.68 22 10 22 C8.92474806 19.34771188 7.90543849 16.71631546 7 14 C8.32 14 9.64 14 11 14 C11 13.34 11 12.68 11 12 C7.04 12.99 3.08 13.98 -1 15 C-1.66 13.68 -2.32 12.36 -3 11 C-3 11.66 -3 12.32 -3 13 C-10.28850325 13.48590022 -10.28850325 13.48590022 -13.5625 11.25 C-15 9 -15 9 -14.75 6.75 C-14.37875 5.88375 -14.37875 5.88375 -14 5 C-10.66666667 5 -7.33333333 5 -4 5 C-2.65835921 4.7018576 -1.32148827 4.37756808 0 4 C0 2.68 0 1.36 0 0 Z " fill="#748179" transform="translate(398,308)"/>
<path d="M0 0 C2.5625 -0.25 2.5625 -0.25 5 0 C6 1 6 1 6.0625 4.0625 C6.041875 5.031875 6.02125 6.00125 6 7 C6.66 7 7.32 7 8 7 C8 7.66 8 8.32 8 9 C8.66 9.33 9.32 9.66 10 10 C8.35 10.33 6.7 10.66 5 11 C5.474375 11.350625 5.94875 11.70125 6.4375 12.0625 C8.67632018 14.83863703 8.61976819 17.51454177 9 21 C9.33 21.66 9.66 22.32 10 23 C9.0625 25.625 9.0625 25.625 8 28 C8.639375 28.12375 9.27875 28.2475 9.9375 28.375 C10.618125 28.58125 11.29875 28.7875 12 29 C12.33 29.66 12.66 30.32 13 31 C11.02 31.99 11.02 31.99 9 33 C9 34.65 9 36.3 9 38 C6.525 38.495 6.525 38.495 4 39 C4.99 38.34 5.98 37.68 7 37 C7.33 36.01 7.66 35.02 8 34 C6.02 34 4.04 34 2 34 C1.4465236 36.07553648 1 37.84365964 1 40 C0.34 40 -0.32 40 -1 40 C-1.36368892 38.39796533 -1.71561952 36.79325797 -2.0625 35.1875 C-2.25972656 34.29417969 -2.45695312 33.40085937 -2.66015625 32.48046875 C-3 30 -3 30 -2 27 C-1.34 27 -0.68 27 0 27 C0 28.65 0 30.3 0 32 C0.66 32 1.32 32 2 32 C1.814375 31.38125 1.62875 30.7625 1.4375 30.125 C1 28 1 28 2 26 C2.66 26 3.32 26 4 26 C3.67 24.02 3.34 22.04 3 20 C2.01 20 1.02 20 0 20 C-0.33 21.32 -0.66 22.64 -1 24 C-1.66 23.34 -2.32 22.68 -3 22 C-2.25 20.0625 -2.25 20.0625 -1 18 C1 17.1875 1 17.1875 3 17 C3.66 17.33 4.32 17.66 5 18 C2.28684478 13.84929541 2.28684478 13.84929541 -0.75 9.9375 C-2.36639608 7.43208608 -2.37572648 5.93066652 -2 3 C-1.34 2.01 -0.68 1.02 0 0 Z " fill="#788378" transform="translate(399,422)"/>
<path d="M0 0 C0.99 0.33 1.98 0.66 3 1 C1.68 1.33 0.36 1.66 -1 2 C0.62373578 5.08414125 0.62373578 5.08414125 2.9375 5.6875 C5.67085562 6.10164479 7.49296712 6.25351644 10 5 C11.13350534 2.98330173 11.13350534 2.98330173 12 1 C12.66 2.65 13.32 4.3 14 6 C14.99 6 15.98 6 17 6 C17 5.67 17 5.34 17 5 C16.34 5 15.68 5 15 5 C15 4.01 15 3.02 15 2 C17.55019778 1.08921508 18.59554978 0.82156608 21.125 1.9375 C22.053125 2.4634375 22.053125 2.4634375 23 3 C23.66 3 24.32 3 25 3 C25 3.66 25 4.32 25 5 C26.32 4.67 27.64 4.34 29 4 C29.495 6.475 29.495 6.475 30 9 C29.01 9 28.02 9 27 9 C27 8.01 27 7.02 27 6 C26.21625 6.20625 25.4325 6.4125 24.625 6.625 C23.75875 6.74875 22.8925 6.8725 22 7 C21.34 6.34 20.68 5.68 20 5 C19.34 5.99 18.68 6.98 18 8 C16.68 8 15.36 8 14 8 C13.67 9.65 13.34 11.3 13 13 C12.46375 12.46375 11.9275 11.9275 11.375 11.375 C10.59125 10.92125 9.8075 10.4675 9 10 C5.88318775 10.81664605 5.88318775 10.81664605 3 12 C2.34 11.67 1.68 11.34 1 11 C0.195625 11.020625 -0.60875 11.04125 -1.4375 11.0625 C-4 11 -4 11 -7 9 C-7.33 10.65 -7.66 12.3 -8 14 C-8.99 13.67 -9.98 13.34 -11 13 C-11 12.34 -11 11.68 -11 11 C-11.99 11 -12.98 11 -14 11 C-14 10.01 -14 9.02 -14 8 C-14.99 7.67 -15.98 7.34 -17 7 C-15.35 6.67 -13.7 6.34 -12 6 C-12 5.34 -12 4.68 -12 4 C-10.63875 4.4640625 -10.63875 4.4640625 -9.25 4.9375 C-6.83436662 5.7272263 -4.47219715 6.42949297 -2 7 C-2.226875 6.401875 -2.45375 5.80375 -2.6875 5.1875 C-2.790625 4.465625 -2.89375 3.74375 -3 3 C-1.5625 1.25 -1.5625 1.25 0 0 Z " fill="#AB9F6E" transform="translate(369,478)"/>
<path d="M0 0 C0.66 0 1.32 0 2 0 C2 0.66 2 1.32 2 2 C2.66 2 3.32 2 4 2 C4 1.34 4 0.68 4 0 C4.99 0 5.98 0 7 0 C7 0.66 7 1.32 7 2 C8.32 2.33 9.64 2.66 11 3 C11.33 2.34 11.66 1.68 12 1 C12 1.99 12 2.98 12 4 C11.34 4 10.68 4 10 4 C9.34 7.3 8.68 10.6 8 14 C7.34 13.34 6.68 12.68 6 12 C5.0925 12.33 4.185 12.66 3.25 13 C0 14 0 14 -4 14 C-4 13.01 -4 12.02 -4 11 C-5.65 10.67 -7.3 10.34 -9 10 C-8.505 9.4225 -8.01 8.845 -7.5 8.25 C-5.63019987 5.89599371 -5.63019987 5.89599371 -6 2 C-4.7934375 1.7834375 -4.7934375 1.7834375 -3.5625 1.5625 C-1.07896294 1.25864751 -1.07896294 1.25864751 0 0 Z " fill="#67797B" transform="translate(392,324)"/>
<path d="M0 0 C2.97 0.495 2.97 0.495 6 1 C5.814375 1.639375 5.62875 2.27875 5.4375 2.9375 C5.293125 3.618125 5.14875 4.29875 5 5 C5.33 5.33 5.66 5.66 6 6 C6.67638733 11.21784513 6.87552926 14.84798782 3.625 19.125 C1 21 1 21 -1 21 C-1 20.34 -1 19.68 -1 19 C-0.01 19 0.98 19 2 19 C2 18.34 2 17.68 2 17 C-0.31 17 -2.62 17 -5 17 C-4.67 17.99 -4.34 18.98 -4 20 C-5.32 19.67 -6.64 19.34 -8 19 C-7.814375 18.05125 -7.62875 17.1025 -7.4375 16.125 C-6.71313368 13.10131207 -6.71313368 13.10131207 -8 11 C-7.34 10.67 -6.68 10.34 -6 10 C-5.835 9.34 -5.67 8.68 -5.5 8 C-5.335 7.34 -5.17 6.68 -5 6 C-4.34 5.67 -3.68 5.34 -3 5 C-2.67 6.32 -2.34 7.64 -2 9 C-2 8.01 -2 7.02 -2 6 C-1.36893571 3.98848259 -0.70626239 1.98636298 0 0 Z " fill="#54707F" transform="translate(403,340)"/>
<path d="M0 0 C2.31 0.33 4.62 0.66 7 1 C6.835 1.598125 6.67 2.19625 6.5 2.8125 C5.8885876 5.11344336 5.8885876 5.11344336 6 8 C6.99 8 7.98 8 9 8 C9 9.65 9 11.3 9 13 C10.32 13.33 11.64 13.66 13 14 C12.67 15.32 12.34 16.64 12 18 C11.34 18 10.68 18 10 18 C9.34 19.32 8.68 20.64 8 22 C6.35 21.67 4.7 21.34 3 21 C6 19 6 19 8 19 C8 18.34 8 17.68 8 17 C6.02 16.67 4.04 16.34 2 16 C2 17.65 2 19.3 2 21 C-0.05700259 19.30073699 -0.93743034 18.19813727 -1.75 15.625 C-2.01827852 12.80807559 -1.6041251 10.75212544 -1 8 C-1 6.948125 -1 5.89625 -1 4.8125 C-1 2 -1 2 0 0 Z " fill="#1E5189" transform="translate(400,455)"/>
<path d="M0 0 C3 1 3 1 4 2 C5.98 1.34 7.96 0.68 10 0 C10 1.32 10 2.64 10 4 C11.65 4 13.3 4 15 4 C15.33 4.66 15.66 5.32 16 6 C15.01 6.33 14.02 6.66 13 7 C13.99 8.485 13.99 8.485 15 10 C14.34 10.66 13.68 11.32 13 12 C13 11.34 13 10.68 13 10 C12.01 10.66 11.02 11.32 10 12 C7.3125 12.125 7.3125 12.125 5 12 C4.67 12.99 4.34 13.98 4 15 C3.34 14.01 2.68 13.02 2 12 C1.67 12.33 1.34 12.66 1 13 C-0.66617115 13.04063832 -2.33388095 13.042721 -4 13 C-3.67 12.01 -3.34 11.02 -3 10 C-2.34 10.33 -1.68 10.66 -1 11 C-1.33 7.7 -1.66 4.4 -2 1 C-1.34 0.67 -0.68 0.34 0 0 Z " fill="#486981" transform="translate(367,313)"/>
<path d="M0 0 C0.33 1.32 0.66 2.64 1 4 C1.928125 4.2165625 1.928125 4.2165625 2.875 4.4375 C5 5 5 5 7 6 C7.66 5.34 8.32 4.68 9 4 C9.99 5.485 9.99 5.485 11 7 C10.34 7.66 9.68 8.32 9 9 C11.64 9 14.28 9 17 9 C17.33 9.99 17.66 10.98 18 12 C17.01 12 16.02 12 15 12 C15 12.99 15 13.98 15 15 C15.33 14.34 15.66 13.68 16 13 C16.66 13 17.32 13 18 13 C17.67 14.32 17.34 15.64 17 17 C16.401875 16.835 15.80375 16.67 15.1875 16.5 C12.88655664 15.8885876 12.88655664 15.8885876 10 16 C9.01 16 8.02 16 7 16 C6.40267181 13.23735711 6 10.83967231 6 8 C2.7 8.33 -0.6 8.66 -4 9 C-4 10.65 -4 12.3 -4 14 C-5.50559539 12.03617993 -6.89131683 10.21736634 -8 8 C-8.66 7.67 -9.32 7.34 -10 7 C-9.34 6.01 -8.68 5.02 -8 4 C-6.7934375 4.0309375 -6.7934375 4.0309375 -5.5625 4.0625 C-4.716875 4.041875 -3.87125 4.02125 -3 4 C-1.15684329 2.0995533 -1.15684329 2.0995533 0 0 Z " fill="#64787C" transform="translate(369,468)"/>
<path d="M0 0 C2.97 0.495 2.97 0.495 6 1 C6 1.66 6 2.32 6 3 C4.02 3.99 4.02 3.99 2 5 C2.99 5.33 3.98 5.66 5 6 C5.33 5.34 5.66 4.68 6 4 C6.99 3.34 7.98 2.68 9 2 C9 2.99 9 3.98 9 5 C10.32 5.66 11.64 6.32 13 7 C11.68 7.33 10.36 7.66 9 8 C10.15173355 10.46800047 11.04783565 12.04783565 13 14 C10.66666667 14 8.33333333 14 6 14 C6 14.66 6 15.32 6 16 C5.01 15.67 4.02 15.34 3 15 C3 14.34 3 13.68 3 13 C1.35 13.66 -0.3 14.32 -2 15 C-1.34 14.01 -0.68 13.02 0 12 C-0.99 11.67 -1.98 11.34 -3 11 C-2.67 9.02 -2.34 7.04 -2 5 C-1.34 5 -0.68 5 0 5 C-0.33 4.01 -0.66 3.02 -1 2 C-0.67 1.34 -0.34 0.68 0 0 Z " fill="#8B8D75" transform="translate(402,471)"/>
<path d="M0 0 C0.66 0 1.32 0 2 0 C2 0.66 2 1.32 2 2 C4.64 2 7.28 2 10 2 C9.67 2.66 9.34 3.32 9 4 C7.68 4 6.36 4 5 4 C5.66 5.98 6.32 7.96 7 10 C7.66 8.68 8.32 7.36 9 6 C10.32 6.33 11.64 6.66 13 7 C14.125 10.75 14.125 10.75 13 13 C12.34 13 11.68 13 11 13 C11 14.98 11 16.96 11 19 C10.34 19 9.68 19 9 19 C9 17.35 9 15.7 9 14 C8.34 14 7.68 14 7 14 C6.67 15.65 6.34 17.3 6 19 C5.01 19 4.02 19 3 19 C3 18.34 3 17.68 3 17 C3.66 17 4.32 17 5 17 C4.2575 16.13375 4.2575 16.13375 3.5 15.25 C2 13 2 13 2 9 C1.34 9 0.68 9 0 9 C0 6 0 3 0 0 Z " fill="#3E6383" transform="translate(390,435)"/>
<path d="M0 0 C0.33 0 0.66 0 1 0 C0.37359881 17.60403337 0.37359881 17.60403337 -3 25 C-3.99 25.33 -4.98 25.66 -6 26 C-5.98839844 25.26394531 -5.97679687 24.52789062 -5.96484375 23.76953125 C-5.95582031 22.79371094 -5.94679688 21.81789062 -5.9375 20.8125 C-5.92589844 19.84957031 -5.91429687 18.88664062 -5.90234375 17.89453125 C-5.90894589 15.00842413 -5.90894589 15.00842413 -6.61328125 12.29296875 C-7 10 -7 10 -5.25 7.5 C-4.5075 6.675 -3.765 5.85 -3 5 C-2.443125 4.071875 -1.88625 3.14375 -1.3125 2.1875 C-0.879375 1.465625 -0.44625 0.74375 0 0 Z " fill="#E3BC99" transform="translate(382,156)"/>
<path d="M0 0 C0.99 0.33 1.98 0.66 3 1 C2.34 1 1.68 1 1 1 C1.66 1.66 2.32 2.32 3 3 C3.886875 2.67 4.77375 2.34 5.6875 2 C8.70923347 1.08777857 10.88373706 0.81669042 14 1 C14 1.66 14 2.32 14 3 C9.25 4.125 9.25 4.125 7 3 C6.67 4.32 6.34 5.64 6 7 C5.34 7 4.68 7 4 7 C4 6.34 4 5.68 4 5 C3.01 5 2.02 5 1 5 C1 5.66 1 6.32 1 7 C0.34 7 -0.32 7 -1 7 C-1 6.34 -1 5.68 -1 5 C-2.1446875 5.7734375 -2.1446875 5.7734375 -3.3125 6.5625 C-4.199375 7.036875 -5.08625 7.51125 -6 8 C-6.99 7.67 -7.98 7.34 -9 7 C-8.67 8.65 -8.34 10.3 -8 12 C-9.65 12.66 -11.3 13.32 -13 14 C-12.690625 13.443125 -12.38125 12.88625 -12.0625 12.3125 C-10.92904426 9.84556692 -10.35371934 7.68826701 -10 5 C-10.33 4.34 -10.66 3.68 -11 3 C-6.87831311 1.37049588 -4.29299643 0.73735399 0 2 C0 1.34 0 0.68 0 0 Z " fill="#898C75" transform="translate(395,319)"/>
<path d="M0 0 C1.25 2.5625 1.25 2.5625 2 5 C1.34 5 0.68 5 0 5 C0 6.32 0 7.64 0 9 C-2.31 8.67 -4.62 8.34 -7 8 C-7 4 -7 4 -6 3 C-6.66 3 -7.32 3 -8 3 C-7.67 5.31 -7.34 7.62 -7 10 C-9.74148672 9.62952882 -11.58593199 9.31412056 -13.8125 7.625 C-15 6 -15 6 -15 3 C-13.68 3 -12.36 3 -11 3 C-9.97895449 2.02149805 -8.9793879 1.02019573 -8 0 C-5.07684785 -1.13154277 -2.87387697 -1.34114258 0 0 Z " fill="#255588" transform="translate(375,476)"/>
<path d="M0 0 C2.46800047 1.15173355 4.04783565 2.04783565 6 4 C6.75 7 6.75 7 7 10 C6.34 10.66 5.68 11.32 5 12 C5.99 12.33 6.98 12.66 8 13 C8 13.99 8 14.98 8 16 C7.34 16 6.68 16 6 16 C5.67 16.66 5.34 17.32 5 18 C3.68 17.67 2.36 17.34 1 17 C0.4254048 13.26513121 0 9.78706732 0 6 C-0.33 5.67 -0.66 5.34 -1 5 C-0.71395102 3.32457024 -0.38218767 1.65614657 0 0 Z " fill="#104A8C" transform="translate(402,322)"/>
<path d="M0 0 C0.66 0 1.32 0 2 0 C2.33 1.98 2.66 3.96 3 6 C1.02 6 -0.96 6 -3 6 C-2.67 6.99 -2.34 7.98 -2 9 C0.01508358 9.73323796 0.01508358 9.73323796 2 10 C2.33 9.34 2.66 8.68 3 8 C5 10 5 10 5 13 C1.846632 13.70074844 -0.72724974 14 -4 14 C-4 13.01 -4 12.02 -4 11 C-5.65 10.67 -7.3 10.34 -9 10 C-8.505 9.4225 -8.01 8.845 -7.5 8.25 C-5.63019987 5.89599371 -5.63019987 5.89599371 -6 2 C-4.7934375 1.7834375 -4.7934375 1.7834375 -3.5625 1.5625 C-1.07896294 1.25864751 -1.07896294 1.25864751 0 0 Z " fill="#154C8B" transform="translate(392,324)"/>
<path d="M0 0 C1.65 0 3.3 0 5 0 C5 0.99 5 1.98 5 3 C3 2 3 2 2 1 C2 1.99 2 2.98 2 4 C3.19625 3.608125 4.3925 3.21625 5.625 2.8125 C9.15952231 1.90056809 9.89323585 1.95805694 13.5 3.375 C14.7375 4.179375 14.7375 4.179375 16 5 C16 6.32 16 7.64 16 9 C15.01 9.33 14.02 9.66 13 10 C12.34 8.68 11.68 7.36 11 6 C11 6.66 11 7.32 11 8 C3.71149675 8.48590022 3.71149675 8.48590022 0.4375 6.25 C-1 4 -1 4 -0.75 1.75 C-0.5025 1.1725 -0.255 0.595 0 0 Z " fill="#0D488D" transform="translate(384,313)"/>
<path d="M0 0 C1.85776765 3.13498292 2.20140476 5.37471432 2 9 C4.97 9.495 4.97 9.495 8 10 C8 10.33 8 10.66 8 11 C6.35 11 4.7 11 3 11 C2.34 12.32 1.68 13.64 1 15 C-2 11.25 -2 11.25 -2 9 C-6.67461851 8.67386382 -9.16674383 9.29417212 -13 12 C-13.33 10.02 -13.66 8.04 -14 6 C-15.65 5.67 -17.3 5.34 -19 5 C-18.67 4.34 -18.34 3.68 -18 3 C-15.5625 3.8125 -15.5625 3.8125 -13 5 C-12.67 5.99 -12.34 6.98 -12 8 C-11.34 8 -10.68 8 -10 8 C-9.34 7.34 -8.68 6.68 -8 6 C-5.875 6.375 -5.875 6.375 -4 7 C-3.67 6.01 -3.34 5.02 -3 4 C-2.34 4.66 -1.68 5.32 -1 6 C-0.67 4.02 -0.34 2.04 0 0 Z " fill="#AB9F6E" transform="translate(401,330)"/>
<path d="M0 0 C0.66 0 1.32 0 2 0 C2 0.99 2 1.98 2 3 C3.32 3.33 4.64 3.66 6 4 C6 4.66 6 5.32 6 6 C5.34 6 4.68 6 4 6 C3.67 7.65 3.34 9.3 3 11 C5.64 10.67 8.28 10.34 11 10 C11 10.66 11 11.32 11 12 C8.03 12.66 5.06 13.32 2 14 C1.67 12.68 1.34 11.36 1 10 C-3.79137588 8.3709322 -7.05632546 7.79422572 -12 9 C-12 8.01 -12 7.02 -12 6 C-10 7 -10 7 -9 8 C-8.67 7.01 -8.34 6.02 -8 5 C-6.68 5 -5.36 5 -4 5 C-2.65835921 4.7018576 -1.32148827 4.37756808 0 4 C0 2.68 0 1.36 0 0 Z " fill="#3D6383" transform="translate(398,308)"/>
<path d="M0 0 C2.5625 -0.25 2.5625 -0.25 5 0 C6 1 6 1 6.0625 4.0625 C6.041875 5.031875 6.02125 6.00125 6 7 C6.66 7 7.32 7 8 7 C8 7.66 8 8.32 8 9 C8.66 9.33 9.32 9.66 10 10 C6.69564916 11.12377697 4.9493138 10.89554742 1.75 9.5625 C1.04359375 9.27503906 0.3371875 8.98757813 -0.390625 8.69140625 C-0.92171875 8.46324219 -1.4528125 8.23507812 -2 8 C-2.20086443 4.28400809 -2.1519437 3.22791555 0 0 Z " fill="#3F6383" transform="translate(399,422)"/>
<path d="M0 0 C2.125 0.375 2.125 0.375 4 1 C4.33 2.32 4.66 3.64 5 5 C5.99 5 6.98 5 8 5 C8.33 4.01 8.66 3.02 9 2 C11.0625 1.3125 11.0625 1.3125 13 1 C13.66 1.99 14.32 2.98 15 4 C14.360625 4.2475 13.72125 4.495 13.0625 4.75 C10.81258459 5.81562433 10.81258459 5.81562433 10.25 8.125 C10.1675 8.74375 10.085 9.3625 10 10 C7.36 9.67 4.72 9.34 2 9 C2 7.35 2 5.7 2 4 C0.68 3.34 -0.64 2.68 -2 2 C-1.34 1.34 -0.68 0.68 0 0 Z " fill="#184E8A" transform="translate(381,462)"/>
<path d="M0 0 C0.33 1.32 0.66 2.64 1 4 C1.639375 4.12375 2.27875 4.2475 2.9375 4.375 C3.618125 4.58125 4.29875 4.7875 5 5 C5.33 5.66 5.66 6.32 6 7 C2.38026598 8.31626692 -0.09567131 9 -4 9 C-4 10.65 -4 12.3 -4 14 C-5.50559539 12.03617993 -6.89131683 10.21736634 -8 8 C-8.66 7.67 -9.32 7.34 -10 7 C-9.34 6.01 -8.68 5.02 -8 4 C-6.7934375 4.0309375 -6.7934375 4.0309375 -5.5625 4.0625 C-4.716875 4.041875 -3.87125 4.02125 -3 4 C-1.15684329 2.0995533 -1.15684329 2.0995533 0 0 Z " fill="#768179" transform="translate(369,468)"/>
<path d="M0 0 C4.455 0.99 4.455 0.99 9 2 C9 3.98 9 5.96 9 8 C8.01 8.33 7.02 8.66 6 9 C5.67 9.66 5.34 10.32 5 11 C4.01 11 3.02 11 2 11 C-0.32590854 7.36576791 -0.16265833 4.22911669 0 0 Z " fill="#275688" transform="translate(384,456)"/>
<path d="M0 0 C5.875 1.875 5.875 1.875 7 3 C9.32817964 3.36760731 11.6618385 3.70241581 14 4 C13.67 4.99 13.34 5.98 13 7 C9.28400809 7.20086443 8.22791555 7.1519437 5 5 C4.67 6.65 4.34 8.3 4 10 C3.01 9.67 2.02 9.34 1 9 C1 8.34 1 7.68 1 7 C0.01 7 -0.98 7 -2 7 C-2 6.01 -2 5.02 -2 4 C-2.99 3.67 -3.98 3.34 -5 3 C-3.35 2.67 -1.7 2.34 0 2 C0 1.34 0 0.68 0 0 Z " fill="#808777" transform="translate(357,482)"/>
<path d="M0 0 C0.33 1.32 0.66 2.64 1 4 C1.66 2.68 2.32 1.36 3 0 C4.32 0.33 5.64 0.66 7 1 C6.34 3.31 5.68 5.62 5 8 C2.25 8.6875 2.25 8.6875 -1 9 C-3.375 7.5625 -3.375 7.5625 -5 6 C-4.67 4.68 -4.34 3.36 -4 2 C-2.68 2 -1.36 2 0 2 C0 1.34 0 0.68 0 0 Z " fill="#174D8B" transform="translate(392,473)"/>
<path d="M0 0 C0.66 0.33 1.32 0.66 2 1 C1.75 3.875 1.75 3.875 1 7 C-1.0625 8.375 -1.0625 8.375 -3 9 C-2.01 9.66 -1.02 10.32 0 11 C0.1875 13.625 0.1875 13.625 0 16 C1.65 15.67 3.3 15.34 5 15 C5.99 16.485 5.99 16.485 7 18 C6.05125 17.979375 5.1025 17.95875 4.125 17.9375 C1.09333717 17.77448174 1.09333717 17.77448174 -1 19 C-1 19.99 -1 20.98 -1 22 C-2.65 22.33 -4.3 22.66 -6 23 C-5.525625 22.278125 -5.05125 21.55625 -4.5625 20.8125 C-2.99196606 17.98553891 -2.08070707 16.22828262 -2 13 C-3.8312811 10.18900586 -3.8312811 10.18900586 -6 8 C-5.195625 7.79375 -4.39125 7.5875 -3.5625 7.375 C-2.716875 6.92125 -1.87125 6.4675 -1 6 C-0.10169161 2.94727535 -0.10169161 2.94727535 0 0 Z " fill="#B2A36D" transform="translate(383,455)"/>
<path d="M0 0 C0.33 0.99 0.66 1.98 1 3 C3.00016466 4.20882096 3.00016466 4.20882096 5 5 C3.68 5.33 2.36 5.66 1 6 C2.15173355 8.46800047 3.04783565 10.04783565 5 12 C2.66666667 12 0.33333333 12 -2 12 C-2 12.66 -2 13.32 -2 14 C-2.99 13.67 -3.98 13.34 -5 13 C-5 12.34 -5 11.68 -5 11 C-6.65 11.66 -8.3 12.32 -10 13 C-7.8125 10.4375 -7.8125 10.4375 -5 8 C-2.1875 8.1875 -2.1875 8.1875 0 9 C-0.37125 8.2575 -0.7425 7.515 -1.125 6.75 C-2 4 -2 4 -1.125 1.6875 C-0.75375 1.130625 -0.3825 0.57375 0 0 Z " fill="#909073" transform="translate(410,473)"/>
<path d="M0 0 C0.66 0 1.32 0 2 0 C2 0.66 2 1.32 2 2 C4.64 2 7.28 2 10 2 C9.67 2.66 9.34 3.32 9 4 C7.68 4 6.36 4 5 4 C5.185625 4.70125 5.37125 5.4025 5.5625 6.125 C6.05156976 9.33888698 5.66231558 11.83560336 5 15 C4.01 14.34 3.02 13.68 2 13 C2 11.68 2 10.36 2 9 C1.34 9 0.68 9 0 9 C0 6 0 3 0 0 Z " fill="#B3A36D" transform="translate(390,435)"/>
<path d="M0 0 C0.309375 0.639375 0.61875 1.27875 0.9375 1.9375 C4.09768575 5.09768575 7.68333908 4.81900793 12 5 C11.01 6.485 11.01 6.485 10 8 C7.375 8.1875 7.375 8.1875 5 8 C4.67 8.99 4.34 9.98 4 11 C3.34 10.01 2.68 9.02 2 8 C1.67 8.33 1.34 8.66 1 9 C-0.66617115 9.04063832 -2.33388095 9.042721 -4 9 C-3.67 8.01 -3.34 7.02 -3 6 C-2.34 6.33 -1.68 6.66 -1 7 C-0.67 4.69 -0.34 2.38 0 0 Z " fill="#C0AB6A" transform="translate(367,317)"/>
<path d="M0 0 C0.33 0 0.66 0 1 0 C1 3.3 1 6.6 1 10 C2.32 10.33 3.64 10.66 5 11 C4 12 4 12 1.4375 12.0625 C0.633125 12.041875 -0.17125 12.02125 -1 12 C-0.67 12.99 -0.34 13.98 0 15 C-1.32 14.67 -2.64 14.34 -4 14 C-3.814375 13.05125 -3.62875 12.1025 -3.4375 11.125 C-2.71313368 8.10131207 -2.71313368 8.10131207 -4 6 C-3.34 5.67 -2.68 5.34 -2 5 C-1.6278958 3.67696283 -1.29369827 2.34262065 -1 1 C-0.67 0.67 -0.34 0.34 0 0 Z " fill="#BAA76C" transform="translate(399,345)"/>
<path d="M0 0 C0.33 0.66 0.66 1.32 1 2 C0.67 2.66 0.34 3.32 0 4 C1.32 4 2.64 4 4 4 C4 5.65 4 7.3 4 9 C2.35 9.33 0.7 9.66 -1 10 C-3.09749995 7.64031256 -3.96905704 6.45383006 -4.1875 3.25 C-4.125625 2.5075 -4.06375 1.765 -4 1 C-2.68 0.67 -1.36 0.34 0 0 Z " fill="#446682" transform="translate(407,362)"/>
<path d="M0 0 C0.33 1.32 0.66 2.64 1 4 C0.01 4.33 -0.98 4.66 -2 5 C-2 6.32 -2 7.64 -2 9 C-3.65 8.67 -5.3 8.34 -7 8 C-7.33 6.68 -7.66 5.36 -8 4 C-7.34 4 -6.68 4 -6 4 C-5.67 3.01 -5.34 2.02 -5 1 C-3 0 -3 0 0 0 Z " fill="#406483" transform="translate(357,481)"/>
<path d="M0 0 C0.66 0 1.32 0 2 0 C2 1.98 2 3.96 2 6 C-2.625 8.125 -2.625 8.125 -6 7 C-5.34 6.34 -4.68 5.68 -4 5 C-4.66 5 -5.32 5 -6 5 C-6.33 5.99 -6.66 6.98 -7 8 C-7.66 8 -8.32 8 -9 8 C-8.67 6.35 -8.34 4.7 -8 3 C-5.69 3.33 -3.38 3.66 -1 4 C-0.67 2.68 -0.34 1.36 0 0 Z " fill="#6A7C7B" transform="translate(361,307)"/>
<path d="M0 0 C0.66 0 1.32 0 2 0 C2 0.66 2 1.32 2 2 C3.32 1.67 4.64 1.34 6 1 C6.33 2.65 6.66 4.3 7 6 C6.01 6 5.02 6 4 6 C4 5.01 4 4.02 4 3 C3.21625 3.20625 2.4325 3.4125 1.625 3.625 C0.75875 3.74875 -0.1075 3.8725 -1 4 C-1.66 3.34 -2.32 2.68 -3 2 C-3.66 2 -4.32 2 -5 2 C-5.33 1.67 -5.66 1.34 -6 1 C-6.99 1.495 -6.99 1.495 -8 2 C-8 1.01 -8 0.02 -8 -1 C-4.34017193 -2.21994269 -3.41884698 -1.49026663 0 0 Z " fill="#9C9771" transform="translate(392,481)"/>
<path d="M0 0 C3.92582871 1.30860957 6.3987937 2.74849213 9 6 C9.75 8.75 9.75 8.75 10 11 C9.01 11.66 8.02 12.32 7 13 C6.74605469 12.45730469 6.49210937 11.91460937 6.23046875 11.35546875 C5.71419922 10.28232422 5.71419922 10.28232422 5.1875 9.1875 C4.85105469 8.47980469 4.51460938 7.77210938 4.16796875 7.04296875 C3.08586675 4.94242539 3.08586675 4.94242539 1.36328125 3.36328125 C0.91339844 2.91339844 0.46351563 2.46351563 0 2 C0 1.34 0 0.68 0 0 Z " fill="#C0AB6A" transform="translate(398,430)"/>
<path d="M0 0 C1.65 0 3.3 0 5 0 C5 0.66 5 1.32 5 2 C5.66 2 6.32 2 7 2 C6.67 3.65 6.34 5.3 6 7 C4.35 6.67 2.7 6.34 1 6 C0.67 4.02 0.34 2.04 0 0 Z " fill="#375F85" transform="translate(372,325)"/>
<path d="M0 0 C2.3125 2.5625 2.3125 2.5625 4 5 C2.02 5.66 0.04 6.32 -2 7 C-2.33 5.35 -2.66 3.7 -3 2 C-3.99 2 -4.98 2 -6 2 C-6.33 3.32 -6.66 4.64 -7 6 C-7.66 5.34 -8.32 4.68 -9 4 C-6.83386257 -0.79644717 -5.14152866 -1.71384289 0 0 Z " fill="#758179" transform="translate(405,440)"/>
<path d="M0 0 C0.66 0.66 1.32 1.32 2 2 C5.08347826 2.16681109 5.08347826 2.16681109 8 2 C7.65930765 5.15140423 7.41923159 6.60781561 5.0625 8.8125 C3 10 3 10 1 10 C1 9.34 1 8.68 1 8 C1.99 8 2.98 8 4 8 C4 7.34 4 6.68 4 6 C1.525 5.01 1.525 5.01 -1 4 C-0.67 2.68 -0.34 1.36 0 0 Z " fill="#3A6184" transform="translate(401,351)"/>
<path d="M0 0 C2.625 0.9375 2.625 0.9375 5 2 C4.67 3.32 4.34 4.64 4 6 C2.68 5.67 1.36 5.34 0 5 C0.33 6.65 0.66 8.3 1 10 C-0.65 10.66 -2.3 11.32 -4 12 C-3.690625 11.443125 -3.38125 10.88625 -3.0625 10.3125 C-1.92904426 7.84556692 -1.35371934 5.68826701 -1 3 C-1.33 2.34 -1.66 1.68 -2 1 C-1.34 0.67 -0.68 0.34 0 0 Z " fill="#788378" transform="translate(386,321)"/>
<path d="M0 0 C0.99 0.33 1.98 0.66 3 1 C2.67 2.65 2.34 4.3 2 6 C2.639375 6.12375 3.27875 6.2475 3.9375 6.375 C4.618125 6.58125 5.29875 6.7875 6 7 C6.33 7.66 6.66 8.32 7 9 C4 10 4 10 1.375 9.375 C-1 8 -1 8 -1.8125 5.375 C-1.874375 4.59125 -1.93625 3.8075 -2 3 C-1.34 3 -0.68 3 0 3 C0 2.01 0 1.02 0 0 Z " fill="#9D9771" transform="translate(405,444)"/>
<path d="M0 0 C1.65 0 3.3 0 5 0 C5 0.99 5 1.98 5 3 C3 2 3 2 2 1 C2 1.99 2 2.98 2 4 C3.32 4.33 4.64 4.66 6 5 C6 5.99 6 6.98 6 8 C3.625 7.6875 3.625 7.6875 1 7 C-1 4 -1 4 -0.625 1.8125 C-0.41875 1.214375 -0.2125 0.61625 0 0 Z " fill="#2A5887" transform="translate(384,313)"/>
<path d="M0 0 C0.99 0.33 1.98 0.66 3 1 C1.68 1.33 0.36 1.66 -1 2 C0.72226496 5.24849977 0.72226496 5.24849977 4 6 C5.1875 8.5625 5.1875 8.5625 6 11 C5.01 11.33 4.02 11.66 3 12 C1.96409662 10.93106782 0.94666058 9.84421512 -0.0625 8.75 C-0.63097656 8.14671875 -1.19945312 7.5434375 -1.78515625 6.921875 C-3 5 -3 5 -2.80859375 2.828125 C-2 1 -2 1 0 0 Z " fill="#768279" transform="translate(369,478)"/>
<path d="M0 0 C1.32 0 2.64 0 4 0 C4 1.65 4 3.3 4 5 C5.32 5.33 6.64 5.66 8 6 C7.34 7.32 6.68 8.64 6 10 C6 9.34 6 8.68 6 8 C4.68 8 3.36 8 2 8 C0.23537317 4.91190305 0 3.76687864 0 0 Z " fill="#7E8677" transform="translate(405,463)"/>
<path d="M0 0 C-0.99 0.495 -0.99 0.495 -2 1 C-2 2.32 -2 3.64 -2 5 C-4.31 4.67 -6.62 4.34 -9 4 C-9 2.68 -9 1.36 -9 0 C-5.67465243 -1.10844919 -3.37817425 -0.84454356 0 0 Z " fill="#245588" transform="translate(377,480)"/>
<path d="M0 0 C1.9375 0.625 1.9375 0.625 4 2 C4.75 5.125 4.75 5.125 5 8 C5.99 8.33 6.98 8.66 8 9 C7.01 10.485 7.01 10.485 6 12 C5.01 11.67 4.02 11.34 3 11 C1.8125 8.4375 1.8125 8.4375 1 6 C1.66 6 2.32 6 3 6 C2.67 5.01 2.34 4.02 2 3 C1.01 3 0.02 3 -1 3 C-0.67 2.01 -0.34 1.02 0 0 Z " fill="#828876" transform="translate(407,332)"/>
<path d="M0 0 C5.875 1.875 5.875 1.875 7 3 C9.32817964 3.36760731 11.6618385 3.70241581 14 4 C13.67 4.99 13.34 5.98 13 7 C7.4575572 7.30791349 4.17394373 5.57766606 0 2 C0 1.34 0 0.68 0 0 Z " fill="#CEB268" transform="translate(357,482)"/>
<path d="M0 0 C0.33 0.66 0.66 1.32 1 2 C0.0625 4.125 0.0625 4.125 -1 6 C0.32 6.33 1.64 6.66 3 7 C1.02 7.99 1.02 7.99 -1 9 C-0.67 10.32 -0.34 11.64 0 13 C-2 12 -2 12 -3.1875 9.1875 C-4.30379747 4.80817916 -4.30379747 4.80817916 -3 2 C-2.01 1.34 -1.02 0.68 0 0 Z " fill="#8E8F74" transform="translate(413,309)"/>
<path d="M0 0 C1.98 0.66 3.96 1.32 6 2 C5 5 5 5 2 7 C1.01 7 0.02 7 -1 7 C-1 6.01 -1 5.02 -1 4 C-1.99 4 -2.98 4 -4 4 C-2.68 2.68 -1.36 1.36 0 0 Z " fill="#8C8E75" transform="translate(408,359)"/>
<path d="M0 0 C0.99 0.33 1.98 0.66 3 1 C3 1.66 3 2.32 3 3 C3.99 3.33 4.98 3.66 6 4 C6 4.99 6 5.98 6 7 C3.125 7.1875 3.125 7.1875 0 7 C-0.66 6.01 -1.32 5.02 -2 4 C-1.34 2.68 -0.68 1.36 0 0 Z " fill="#335D85" transform="translate(355,311)"/>
<path d="M0 0 C1.485 0.99 1.485 0.99 3 2 C3.66 1.34 4.32 0.68 5 0 C5 1.32 5 2.64 5 4 C5.66 4 6.32 4 7 4 C7 4.66 7 5.32 7 6 C7.66 6.33 8.32 6.66 9 7 C7.3125 7.8125 7.3125 7.8125 5 8 C2.25 5.75 2.25 5.75 0 3 C0 2.01 0 1.02 0 0 Z " fill="#838976" transform="translate(400,425)"/>
<path d="M0 0 C1.32 0.33 2.64 0.66 4 1 C4 3.97 4 6.94 4 10 C2.49440461 8.03617993 1.10868317 6.21736634 0 4 C-0.66 3.67 -1.32 3.34 -2 3 C-1.34 2.01 -0.68 1.02 0 0 Z " fill="#B9A76C" transform="translate(361,472)"/>
<path d="M0 0 C1.32 0.33 2.64 0.66 4 1 C5.125 4.75 5.125 4.75 4 7 C3.34 7 2.68 7 2 7 C2 8.98 2 10.96 2 13 C1.34 13 0.68 13 0 13 C0 10.36 0 7.72 0 5 C0.66 4.67 1.32 4.34 2 4 C1.67 3.34 1.34 2.68 1 2 C0.67 1.34 0.34 0.68 0 0 Z " fill="#134C8B" transform="translate(399,441)"/>
<path d="M0 0 C1.32 0.66 2.64 1.32 4 2 C3.01 2.33 2.02 2.66 1 3 C1 3.66 1 4.32 1 5 C2.32 5 3.64 5 5 5 C5.33 5.99 5.66 6.98 6 8 C4.68 8.33 3.36 8.66 2 9 C2 8.34 2 7.68 2 7 C0.68 6.34 -0.64 5.68 -2 5 C-1.125 1.125 -1.125 1.125 0 0 Z " fill="#496981" transform="translate(392,343)"/>
<path d="M0 0 C1.65 0.33 3.3 0.66 5 1 C5 2.98 5 4.96 5 7 C3.35 7.33 1.7 7.66 0 8 C0 5 0 5 2 3 C1.34 3 0.68 3 0 3 C0 2.01 0 1.02 0 0 Z " fill="#265688" transform="translate(404,345)"/>
<path d="M0 0 C0.99 0.33 1.98 0.66 3 1 C3.144375 1.763125 3.28875 2.52625 3.4375 3.3125 C3.9632594 6.08172908 3.9632594 6.08172908 5 9 C3.68 9 2.36 9 1 9 C-2 3.25 -2 3.25 -2 1 C-1.34 0.67 -0.68 0.34 0 0 Z " fill="#265688" transform="translate(367,313)"/>
<path d="M0 0 C2.31 0.33 4.62 0.66 7 1 C6.67 2.32 6.34 3.64 6 5 C5.01 5 4.02 5 3 5 C4 3 4 3 5 2 C4.01 2 3.02 2 2 2 C2 2.99 2 3.98 2 5 C1.01 5 0.02 5 -1 5 C-0.67 3.35 -0.34 1.7 0 0 Z " fill="#104A8C" transform="translate(400,455)"/>
<path d="M0 0 C1.5 1.375 1.5 1.375 3 3 C3 3.66 3 4.32 3 5 C2.05125 5.103125 1.1025 5.20625 0.125 5.3125 C-3.29107501 5.68539295 -3.29107501 5.68539295 -5 9 C-5.33 7.35 -5.66 5.7 -6 4 C-5.38125 3.896875 -4.7625 3.79375 -4.125 3.6875 C-1.63473516 3.12474627 -1.63473516 3.12474627 0 0 Z " fill="#1F5289" transform="translate(401,435)"/>
<path d="M0 0 C0.99 0.33 1.98 0.66 3 1 C3.4375 3.1875 3.4375 3.1875 3 6 C0.86004673 7.98441782 -1.50175965 9.5023304 -4 11 C-3.71125 10.484375 -3.4225 9.96875 -3.125 9.4375 C-1.71219973 6.37643275 -0.8751483 3.25055082 0 0 Z " fill="#CDB268" transform="translate(409,351)"/>
<path d="M0 0 C0.99 0 1.98 0 3 0 C3.33 0.99 3.66 1.98 4 3 C3.01 3 2.02 3 1 3 C1 3.99 1 4.98 1 6 C1.33 5.34 1.66 4.68 2 4 C2.66 4 3.32 4 4 4 C3.67 5.32 3.34 6.64 3 8 C1.68 7.67 0.36 7.34 -1 7 C-1.04254356 5.00045254 -1.04080783 2.99958364 -1 1 C-0.67 0.67 -0.34 0.34 0 0 Z " fill="#134B8B" transform="translate(383,477)"/>
<path d="M0 0 C2.31 0.33 4.62 0.66 7 1 C7.33 2.32 7.66 3.64 8 5 C2.25 5.125 2.25 5.125 0 4 C0 2.68 0 1.36 0 0 Z " fill="#285787" transform="translate(402,477)"/>
<path d="M0 0 C0.66 0.33 1.32 0.66 2 1 C2.625 3.0625 2.625 3.0625 3 5 C0.33333333 5 -2.33333333 5 -5 5 C-4.1875 3.0625 -4.1875 3.0625 -3 1 C-2.01 0.67 -1.02 0.34 0 0 Z " fill="#184E8B" transform="translate(375,313)"/>
<path d="M0 0 C3.465 1.485 3.465 1.485 7 3 C7 3.33 7 3.66 7 4 C5.35 4 3.7 4 2 4 C2 4.66 2 5.32 2 6 C1.01 5.67 0.02 5.34 -1 5 C-0.67 3.35 -0.34 1.7 0 0 Z " fill="#3D6284" transform="translate(362,486)"/>
<path d="M0 0 C0.66 0 1.32 0 2 0 C1.979375 1.03125 1.95875 2.0625 1.9375 3.125 C1.99276661 6.55152969 2.34550715 9.64572414 3 13 C2.34 13 1.68 13 1 13 C0.63631108 11.39796533 0.28438048 9.79325797 -0.0625 8.1875 C-0.25972656 7.29417969 -0.45695312 6.40085937 -0.66015625 5.48046875 C-1 3 -1 3 0 0 Z " fill="#B4A46D" transform="translate(397,449)"/>
<path d="M0 0 C2.97 0.33 5.94 0.66 9 1 C8.01 2.485 8.01 2.485 7 4 C7.66 4.66 8.32 5.32 9 6 C8.01 6.33 7.02 6.66 6 7 C5.38125 6.21625 4.7625 5.4325 4.125 4.625 C2.10141339 2.03162353 2.10141339 2.03162353 0 0 Z " fill="#C3AC6A" transform="translate(378,319)"/>
<path d="M0 0 C1.32 0 2.64 0 4 0 C3 3 3 3 2 4 C3.32 4.66 4.64 5.32 6 6 C2.28400809 6.20086443 1.22791555 6.1519437 -2 4 C-1.34 2.68 -0.68 1.36 0 0 Z " fill="#748179" transform="translate(402,348)"/>
<path d="M0 0 C1.5 1.3125 1.5 1.3125 3 3 C3 3.99 3 4.98 3 6 C2.01 5.67 1.02 5.34 0 5 C0 4.34 0 3.68 0 3 C-1.65 3.66 -3.3 4.32 -5 5 C-3.35 3.35 -1.7 1.7 0 0 Z " fill="#9B9671" transform="translate(405,481)"/>
<path d="M0 0 C1.98 0.66 3.96 1.32 6 2 C6.33 1.34 6.66 0.68 7 0 C7 0.99 7 1.98 7 3 C6.34 3 5.68 3 5 3 C4.67 3.66 4.34 4.32 4 5 C2.68 4.67 1.36 4.34 0 4 C0 2.68 0 1.36 0 0 Z " fill="#0F498C" transform="translate(403,335)"/>
<path d="M0 0 C-0.33 1.65 -0.66 3.3 -1 5 C-2.65 3.35 -4.3 1.7 -6 0 C-3 -1 -3 -1 0 0 Z " fill="#788378" transform="translate(383,486)"/>
<path d="M0 0 C1.42944945 2.35438733 2.08661261 3.48032433 1.625 6.25 C1.41875 6.8275 1.2125 7.405 1 8 C-0.65 8.33 -2.3 8.66 -4 9 C-3.2884375 7.88625 -3.2884375 7.88625 -2.5625 6.75 C-1.22130673 4.38949985 -0.487688 2.63351523 0 0 Z " fill="#C4AD6A" transform="translate(381,469)"/>
<path d="M0 0 C1.32 0 2.64 0 4 0 C3.67 1.65 3.34 3.3 3 5 C2.01 5 1.02 5 0 5 C-0.33 4.01 -0.66 3.02 -1 2 C-0.67 1.34 -0.34 0.68 0 0 Z " fill="#B8A66C" transform="translate(386,462)"/>
<path d="M0 0 C1.65 0.99 3.3 1.98 5 3 C4.67 3.66 4.34 4.32 4 5 C2.35 5 0.7 5 -1 5 C-0.67 3.35 -0.34 1.7 0 0 Z " fill="#305B86" transform="translate(410,356)"/>
<path d="M0 0 C0.94875 0.350625 1.8975 0.70125 2.875 1.0625 C2.545 2.0525 2.215 3.0425 1.875 4.0625 C0.885 4.0625 -0.105 4.0625 -1.125 4.0625 C-1.125 3.4025 -1.125 2.7425 -1.125 2.0625 C-2.445 1.4025 -3.765 0.7425 -5.125 0.0625 C-3.125 -0.9375 -3.125 -0.9375 0 0 Z " fill="#A99E6F" transform="translate(392.125,320.9375)"/>
<path d="M0 0 C1.2065625 0.0309375 1.2065625 0.0309375 2.4375 0.0625 C-0.09038007 2.86122437 -1.76661134 4.52023019 -5.5625 5.0625 C-3.15007962 0.07683121 -3.15007962 0.07683121 0 0 Z " fill="#BCA96B" transform="translate(365.5625,311.9375)"/>
<path d="M0 0 C2.8125 -0.25 2.8125 -0.25 6 0 C7.875 2 7.875 2 9 4 C6.16032769 4 3.76264289 3.59732819 1 3 C0.67 2.01 0.34 1.02 0 0 Z " fill="#838976" transform="translate(406,481)"/>
<path d="M0 0 C0.928125 0.515625 1.85625 1.03125 2.8125 1.5625 C0.73696352 2.1159764 -1.03115964 2.5625 -3.1875 2.5625 C-3.5175 2.2325 -3.8475 1.9025 -4.1875 1.5625 C-5.1775 2.0575 -5.1775 2.0575 -6.1875 2.5625 C-6.1875 1.5725 -6.1875 0.5825 -6.1875 -0.4375 C-3.1875 -1.4375 -3.1875 -1.4375 0 0 Z " fill="#5E757D" transform="translate(390.1875,480.4375)"/>
<path d="M0 0 C1.32 0 2.64 0 4 0 C4.33 1.32 4.66 2.64 5 4 C3.68 4.33 2.36 4.66 1 5 C0.67 3.35 0.34 1.7 0 0 Z " fill="#496981" transform="translate(360,479)"/>
<path d="M0 0 C0.99 0.33 1.98 0.66 3 1 C2.34 2.98 1.68 4.96 1 7 C0.01 6.34 -0.98 5.68 -2 5 C-2 4.34 -2 3.68 -2 3 C-1.34 3 -0.68 3 0 3 C0 2.01 0 1.02 0 0 Z " fill="#B9A76C" transform="translate(405,444)"/>
<path d="M0 0 C2.31 0 4.62 0 7 0 C6 2 6 2 2.9375 3.125 C1.4834375 3.558125 1.4834375 3.558125 0 4 C0 2.68 0 1.36 0 0 Z " fill="#CAB069" transform="translate(393,437)"/>
<path d="M0 0 C2.475 0.495 2.475 0.495 5 1 C4.67 1.99 4.34 2.98 4 4 C4.66 4.33 5.32 4.66 6 5 C5.01 5.99 4.02 6.98 3 8 C2.87625 6.865625 2.7525 5.73125 2.625 4.5625 C2.41875 3.386875 2.2125 2.21125 2 1 C1.34 0.67 0.68 0.34 0 0 Z " fill="#2E5A86" transform="translate(397,342)"/>
<path d="M0 0 C1.625 1.6875 1.625 1.6875 3 4 C2.1875 6.75 2.1875 6.75 1 9 C-0.61949011 6.42786866 -1.04408751 5.32330841 -0.625 2.25 C-0.41875 1.5075 -0.2125 0.765 0 0 Z " fill="#3A6184" transform="translate(408,308)"/>
<path d="M0 0 C0.66 0 1.32 0 2 0 C2 1.98 2 3.96 2 6 C0.68 6 -0.64 6 -2 6 C-1.34 4.02 -0.68 2.04 0 0 Z " fill="#8C8E74" transform="translate(361,307)"/>
<path d="M0 0 C2.31 0 4.62 0 7 0 C7.33 0.66 7.66 1.32 8 2 C6.02 2.66 4.04 3.32 2 4 C1.34 2.68 0.68 1.36 0 0 Z " fill="#C7AE69" transform="translate(367,473)"/>
<path d="M0 0 C1.67542976 0.28604898 3.34385343 0.61781233 5 1 C4.67 2.32 4.34 3.64 4 5 C3.01 4.67 2.02 4.34 1 4 C1 3.34 1 2.68 1 2 C0.34 1.67 -0.32 1.34 -1 1 C-0.67 0.67 -0.34 0.34 0 0 Z " fill="#57717E" transform="translate(371,466)"/>
<path d="M0 0 C2.97 0.495 2.97 0.495 6 1 C6 1.99 6 2.98 6 4 C3.83125748 3.49396008 2.00032373 3.00016187 0 2 C-0.33 2.66 -0.66 3.32 -1 4 C-0.67 2.68 -0.34 1.36 0 0 Z " fill="#3B6184" transform="translate(403,333)"/>
<path d="M0 0 C0.66 0 1.32 0 2 0 C3.125 3.75 3.125 3.75 2 6 C-0.97 5.505 -0.97 5.505 -4 5 C-2.68 4.67 -1.36 4.34 0 4 C0 2.68 0 1.36 0 0 Z " fill="#9D9771" transform="translate(398,308)"/>
<path d="M0 0 C0.625 1.875 0.625 1.875 1 4 C0.34 4.66 -0.32 5.32 -1 6 C-2.65 5.01 -4.3 4.02 -6 3 C-5.67 2.34 -5.34 1.68 -5 1 C-3.68 1.66 -2.36 2.32 -1 3 C-0.67 2.01 -0.34 1.02 0 0 Z " fill="#9D9771" transform="translate(407,308)"/>
</svg>
