<?xml version="1.0" encoding="UTF-8"?>
<svg version="1.1" xmlns="http://www.w3.org/2000/svg" width="512" height="512">
<path d="M0 0 C8.38239862 5.24643034 13.03265124 11.48189557 17.203125 20.37890625 C17.75097656 20.09015625 18.29882812 19.80140625 18.86328125 19.50390625 C27.26288032 15.57043546 36.06025893 14.90726404 45.10546875 17.07421875 C54.58676787 20.55118207 61.58799531 26.36498107 66.203125 35.37890625 C67.43924488 38.66717828 68.38363286 41.96533828 69.203125 45.37890625 C69.39261719 46.13558594 69.58210937 46.89226563 69.77734375 47.671875 C69.91785156 48.23519531 70.05835938 48.79851563 70.203125 49.37890625 C71.255 48.90453125 72.306875 48.43015625 73.390625 47.94140625 C82.71875012 43.9862812 91.86721464 44.75858874 101.203125 48.37890625 C103.66859764 49.85593483 105.95222308 51.42167132 108.23046875 53.171875 C110.38634486 54.72685837 110.38634486 54.72685837 114.203125 54.37890625 C116.24477562 53.17744607 116.24477562 53.17744607 118.265625 51.56640625 C125.43125033 46.581111 133.53800013 44.55365626 142.203125 45.37890625 C146.32068748 46.38244807 150.40277751 47.4787325 154.203125 49.37890625 C154.35007812 48.62867188 154.49703125 47.8784375 154.6484375 47.10546875 C156.96882948 36.5170134 160.96507958 27.55697017 170.203125 21.37890625 C178.98502535 16.25475802 187.1321134 15.5898373 197.203125 16.37890625 C200.47378945 17.34344536 203.27941462 18.64142681 206.203125 20.37890625 C206.863125 20.70890625 207.523125 21.03890625 208.203125 21.37890625 C208.31398438 20.64542969 208.42484375 19.91195313 208.5390625 19.15625 C210.29339974 11.81899249 216.01023663 5.47019194 222.203125 1.37890625 C230.93940723 -3.91231374 242.21006741 -4.26251977 252.015625 -1.9609375 C259.33955109 0.97626202 265.77695281 6.92407181 270.203125 13.37890625 C270.203125 14.03890625 270.203125 14.69890625 270.203125 15.37890625 C271.02296875 15.02957031 271.8428125 14.68023438 272.6875 14.3203125 C273.76515625 13.86527344 274.8428125 13.41023438 275.953125 12.94140625 C277.02046875 12.48894531 278.0878125 12.03648438 279.1875 11.5703125 C288.22388591 8.00023776 297.20370579 8.57270888 306.2734375 11.9296875 C315.11501133 16.30331935 320.80307856 23.22250212 324.203125 32.37890625 C325.80598024 37.72614243 325.50905512 43.28139695 325.578125 48.81640625 C325.61550781 49.94884766 325.65289062 51.08128906 325.69140625 52.24804688 C325.79007538 61.55035339 325.79007538 61.55035339 322.8046875 64.6640625 C320.203125 66.37890625 320.203125 66.37890625 318.203125 66.37890625 C318.203125 72.64890625 318.203125 78.91890625 318.203125 85.37890625 C319.853125 85.70890625 321.503125 86.03890625 323.203125 86.37890625 C325.79307941 90.26383787 325.45538042 93.48457861 325.3984375 97.984375 C325.39419266 99.2431823 325.39419266 99.2431823 325.38986206 100.52742004 C325.37866885 103.20722728 325.35356601 105.88670006 325.328125 108.56640625 C325.31809408 110.38345871 325.30896843 112.20051642 325.30078125 114.01757812 C325.27873234 118.471483 325.24420851 122.92513792 325.203125 127.37890625 C326.62238281 127.83136719 326.62238281 127.83136719 328.0703125 128.29296875 C336.63362752 131.26129989 341.13696475 138.72487288 345.203125 146.37890625 C346.81519693 149.94939256 348.20050666 153.58135214 349.55078125 157.2578125 C349.92996201 158.26875473 350.30914276 159.27969696 350.69981384 160.3212738 C351.4951156 162.44817883 352.28562952 164.57687982 353.0715332 166.70727539 C354.25512515 169.91296798 355.4553478 173.11203963 356.65820312 176.31054688 C369.13935869 209.68737671 369.13935869 209.68737671 368.765625 225.06640625 C368.74902832 226.26265625 368.73243164 227.45890625 368.71533203 228.69140625 C368.42817209 239.86832601 366.88890347 250.53906317 364.203125 261.37890625 C363.88964111 262.65386963 363.88964111 262.65386963 363.56982422 263.95458984 C359.33166292 280.60564303 353.17920954 297.70566917 341.203125 310.37890625 C340.67589844 310.98347656 340.14867187 311.58804687 339.60546875 312.2109375 C327.21792411 325.69418633 310.25287723 332.13282864 293.203125 337.37890625 C292.873125 353.21890625 292.543125 369.05890625 292.203125 385.37890625 C297.483125 385.37890625 302.763125 385.37890625 308.203125 385.37890625 C312.70329632 389.87907757 312.70329632 389.87907757 312.71105957 394.23681641 C312.72797852 395.70045624 312.72797852 395.70045624 312.74523926 397.19366455 C312.73309387 398.78969513 312.73309387 398.78969513 312.72070312 400.41796875 C312.73121704 402.10632843 312.73121704 402.10632843 312.74194336 403.82879639 C312.7595666 407.55408303 312.74788445 411.27861171 312.734375 415.00390625 C312.73706865 417.58935696 312.74095 420.17480667 312.74597168 422.76025391 C312.75187264 428.18077158 312.74366513 433.60100371 312.72460938 439.02148438 C312.70284063 445.28598063 312.70989214 451.54995614 312.731915 457.81443977 C312.75226162 463.84371252 312.7500987 469.87273071 312.73838806 475.90203857 C312.73571625 478.46653313 312.73900642 481.03104094 312.74830627 483.59552002 C312.75844422 487.17732141 312.7430076 490.75811741 312.72070312 494.33984375 C312.72880005 495.40386414 312.73689697 496.46788452 312.74523926 497.56414795 C312.66487114 504.51670775 312.66487114 504.51670775 310.78039551 508.0355072 C306.74684518 510.1379903 302.93489167 509.9437249 298.44921875 509.91235352 C297.46019562 509.92096909 296.47117249 509.92958466 295.45217896 509.9384613 C292.18139514 509.9611731 288.91146441 509.95437296 285.640625 509.9453125 C283.36905664 509.95054553 281.09749047 509.95682083 278.82592773 509.96409607 C274.06451189 509.97450977 269.30339473 509.96992433 264.54199219 509.95532227 C258.43492891 509.93812815 252.32880588 509.96163326 246.22184753 509.99681187 C241.53098291 510.01875236 236.84034446 510.01735253 232.14944458 510.00904655 C229.897542 510.0082253 227.64562309 510.01512175 225.39376831 510.02981758 C222.24759789 510.04720219 219.10313247 510.03277092 215.95703125 510.01000977 C215.0239212 510.02170197 214.09081116 510.03339417 213.12942505 510.04544067 C206.82300844 509.95242819 206.82300844 509.95242819 203.59350586 506.96446228 C202.203125 504.37890625 202.203125 504.37890625 202.203125 502.37890625 C195.933125 502.37890625 189.663125 502.37890625 183.203125 502.37890625 C182.543125 504.02890625 181.883125 505.67890625 181.203125 507.37890625 C178.63754424 509.94448701 177.64736957 509.64060772 174.08251953 509.66943359 C172.48043137 509.68857315 172.48043137 509.68857315 170.84597778 509.70809937 C169.68766449 509.71032501 168.5293512 509.71255066 167.3359375 509.71484375 C166.14966766 509.72150055 164.96339783 509.72815735 163.74118042 509.73501587 C161.22769729 509.74515696 158.71418716 509.74983244 156.20068359 509.74951172 C152.35078593 509.75388053 148.50203806 509.79017513 144.65234375 509.828125 C142.2135456 509.83399361 139.77474199 509.83796271 137.3359375 509.83984375 C136.18167267 509.85421478 135.02740784 509.86858582 133.83816528 509.88339233 C132.76380219 509.87723907 131.68943909 509.87108582 130.58251953 509.86474609 C129.63813019 509.86759613 128.69374084 509.87044617 127.72073364 509.87338257 C125.203125 509.37890625 125.203125 509.37890625 122.89926147 508.03848267 C120.15133788 503.72968271 120.6474672 499.34391126 120.68554688 494.33984375 C120.67503296 492.65148407 120.67503296 492.65148407 120.66430664 490.92901611 C120.6466834 487.20372947 120.65836555 483.47920079 120.671875 479.75390625 C120.66918135 477.16845554 120.6653 474.58300583 120.66027832 471.99755859 C120.65437736 466.57704092 120.66258487 461.15680879 120.68164062 455.73632812 C120.70340937 449.47183187 120.69635786 443.20785636 120.674335 436.94337273 C120.65398838 430.91409998 120.6561513 424.88508179 120.66786194 418.85577393 C120.67053375 416.29127937 120.66724358 413.72677156 120.65794373 411.16229248 C120.64780578 407.58049109 120.6632424 403.99969509 120.68554688 400.41796875 C120.67744995 399.35394836 120.66935303 398.28992798 120.66101074 397.19366455 C120.74267514 390.12896465 120.74267514 390.12896465 122.84484863 386.70458984 C125.90059777 384.98682828 127.96711877 384.97734076 131.453125 385.12890625 C132.53078125 385.165 133.6084375 385.20109375 134.71875 385.23828125 C135.53859375 385.2846875 136.3584375 385.33109375 137.203125 385.37890625 C137.3044899 377.95448092 137.35130015 370.53176983 137.33009529 363.10662079 C137.32192572 359.65782005 137.33194452 356.21114398 137.38476562 352.76269531 C137.44478936 348.79036561 137.42348894 344.82039491 137.3984375 340.84765625 C137.44304611 339.00657288 137.44304611 339.00657288 137.48855591 337.1282959 C137.40047129 330.44144324 137.40047129 330.44144324 134.02874756 324.88671875 C131.50421896 322.86520012 128.92244763 321.1243636 126.203125 319.37890625 C120.91164482 314.77222944 116.62034114 309.5248884 113.203125 303.37890625 C113.203125 302.71890625 113.203125 302.05890625 113.203125 301.37890625 C112.543125 301.37890625 111.883125 301.37890625 111.203125 301.37890625 C110.9453125 302.1059375 110.6875 302.83296875 110.421875 303.58203125 C106.19956984 313.27168026 96.86184753 321.60642456 88.203125 327.37890625 C87.72537386 329.92028926 87.72537386 329.92028926 87.77075195 332.93017578 C87.75095779 334.09122833 87.73116364 335.25228088 87.71076965 336.44851685 C87.70437973 337.70687347 87.69798981 338.9652301 87.69140625 340.26171875 C87.67345505 341.54625946 87.65550385 342.83080017 87.63700867 344.15426636 C87.58943608 347.57040286 87.55967427 350.98647301 87.53356934 354.40283203 C87.50379998 357.88847974 87.45725738 361.37389856 87.41210938 364.859375 C87.3259942 371.69908853 87.25868574 378.5388782 87.203125 385.37890625 C88.02296875 385.3325 88.8428125 385.28609375 89.6875 385.23828125 C90.76515625 385.2021875 91.8428125 385.16609375 92.953125 385.12890625 C94.02046875 385.0825 95.0878125 385.03609375 96.1875 384.98828125 C99.203125 385.37890625 99.203125 385.37890625 101.56140137 386.70458984 C104.22348262 391.04103687 103.75866493 395.42939158 103.72070312 400.41796875 C103.7277124 401.54354187 103.73472168 402.66911499 103.74194336 403.82879639 C103.7595666 407.55408303 103.74788445 411.27861171 103.734375 415.00390625 C103.73706865 417.58935696 103.74095 420.17480667 103.74597168 422.76025391 C103.75187264 428.18077158 103.74366513 433.60100371 103.72460938 439.02148438 C103.70284063 445.28598063 103.70989214 451.54995614 103.731915 457.81443977 C103.75226162 463.84371252 103.7500987 469.87273071 103.73838806 475.90203857 C103.73571625 478.46653313 103.73900642 481.03104094 103.74830627 483.59552002 C103.75844422 487.17732141 103.7430076 490.75811741 103.72070312 494.33984375 C103.72880005 495.40386414 103.73689697 496.46788452 103.74523926 497.56414795 C103.73395996 498.53990784 103.72268066 499.51566772 103.71105957 500.52099609 C103.70955147 501.36753754 103.70804337 502.21407898 103.70648956 503.08627319 C102.99250149 506.33821579 101.91030475 507.45433065 99.203125 509.37890625 C96.59486606 509.77210971 94.40765368 509.92017092 91.80163574 509.88684082 C91.05375022 509.89308078 90.30586471 509.89932075 89.53531599 509.9057498 C87.02778115 509.92171233 84.52121402 509.90906341 82.01367188 509.89648438 C80.21663343 509.90190407 78.41959942 509.90902586 76.62257385 509.91772461 C71.74035589 509.93597913 66.85847556 509.92888165 61.9762516 509.91620827 C56.87051091 509.90609163 51.76479942 509.91547023 46.65905762 509.92175293 C38.08433839 509.92903323 29.50975691 509.91943158 20.93505859 509.90039062 C11.01701237 509.87862117 1.09929503 509.88567227 -8.81874323 509.90769625 C-17.32924801 509.92583933 -25.8396537 509.92841391 -34.35017157 509.91794157 C-39.43528988 509.91170064 -44.52025352 509.91088748 -49.60536194 509.92408752 C-54.3857827 509.93562952 -59.16577882 509.92765055 -63.94615364 509.9045105 C-65.70215715 509.89921456 -67.45819631 509.90075227 -69.21418571 509.90956116 C-71.60840396 509.92046574 -74.00125502 509.90681619 -76.39538574 509.88684082 C-77.09304944 509.89576371 -77.79071313 509.90468659 -78.50951815 509.91387987 C-81.75515148 509.8612246 -83.55660875 509.54971521 -86.22772217 507.65077972 C-88.04989732 505.01257183 -88.2991446 503.70090886 -88.30480957 500.52099609 C-88.31608887 499.54523621 -88.32736816 498.56947632 -88.33898926 497.56414795 C-88.33089233 496.50012756 -88.32279541 495.43610718 -88.31445312 494.33984375 C-88.3214624 493.21427063 -88.32847168 492.08869751 -88.33569336 490.92901611 C-88.3533166 487.20372947 -88.34163445 483.47920079 -88.328125 479.75390625 C-88.33081865 477.16845554 -88.3347 474.58300583 -88.33972168 471.99755859 C-88.34562264 466.57704092 -88.33741513 461.15680879 -88.31835938 455.73632812 C-88.29659063 449.47183187 -88.30364214 443.20785636 -88.325665 436.94337273 C-88.34601162 430.91409998 -88.3438487 424.88508179 -88.33213806 418.85577393 C-88.32946625 416.29127937 -88.33275642 413.72677156 -88.34205627 411.16229248 C-88.35219422 407.58049109 -88.3367576 403.99969509 -88.31445312 400.41796875 C-88.32255005 399.35394836 -88.33064697 398.28992798 -88.33898926 397.19366455 C-88.32770996 396.21790466 -88.31643066 395.24214478 -88.30480957 394.23681641 C-88.30330147 393.39027496 -88.30179337 392.54373352 -88.30023956 391.67153931 C-87.796875 389.37890625 -87.796875 389.37890625 -83.796875 385.37890625 C-78.516875 385.37890625 -73.236875 385.37890625 -67.796875 385.37890625 C-68.126875 369.53890625 -68.456875 353.69890625 -68.796875 337.37890625 C-74.736875 335.39890625 -80.676875 333.41890625 -86.796875 331.37890625 C-102.6171875 323.76171875 -102.6171875 323.76171875 -104.796875 318.37890625 C-104.7453125 317.24066406 -104.69375 316.10242188 -104.640625 314.9296875 C-104.81820608 310.89415745 -105.80596112 309.66762845 -108.70703125 306.95117188 C-109.23167969 306.49419922 -109.75632813 306.03722656 -110.296875 305.56640625 C-112.16802913 303.86765576 -113.98981708 302.14782821 -115.796875 300.37890625 C-115.796875 299.71890625 -115.796875 299.05890625 -115.796875 298.37890625 C-116.333125 298.58515625 -116.869375 298.79140625 -117.421875 299.00390625 C-120.74192484 299.52812465 -122.75134998 298.73967275 -125.796875 297.37890625 C-129.25718587 293.37188999 -130.82155618 288.77175506 -132.671875 283.87890625 C-133.02266113 282.95271484 -133.37344727 282.02652344 -133.73486328 281.07226562 C-146.03988013 247.69313946 -147.70895245 215.7975628 -134.62072754 182.50073242 C-133.42965176 179.4331255 -132.28742184 176.34790086 -131.14224243 173.26292419 C-129.62781403 169.19082534 -128.08891828 165.1281129 -126.546875 161.06640625 C-126.1096109 159.90828934 -126.1096109 159.90828934 -125.66351318 158.72677612 C-117.63402713 137.59843856 -117.63402713 137.59843856 -109.171875 131.37890625 C-108.43710938 130.82203125 -107.70234375 130.26515625 -106.9453125 129.69140625 C-104.8365065 128.40311749 -103.18182256 127.91319442 -100.796875 127.37890625 C-100.80575745 126.26327805 -100.81463989 125.14764984 -100.8237915 123.99821472 C-100.90511299 113.45022286 -100.96495319 102.90229517 -101.00412369 92.35406017 C-101.02493912 86.93195143 -101.05314586 81.51009712 -101.09863281 76.08813477 C-101.14230669 70.84910415 -101.1660575 65.61031725 -101.17638397 60.37111855 C-101.18373681 58.378962 -101.19809464 56.38681778 -101.21979523 54.39476585 C-101.37301144 39.73819856 -100.85612156 28.53670884 -90.1640625 17.4765625 C-86.93638083 14.61638914 -83.84207129 12.81943164 -79.796875 11.37890625 C-78.1571875 10.76015625 -78.1571875 10.76015625 -76.484375 10.12890625 C-65.40426301 7.87532415 -55.73903919 10.16103284 -45.796875 15.37890625 C-45.425625 14.29609375 -45.425625 14.29609375 -45.046875 13.19140625 C-41.74383173 5.75955889 -35.39534025 1.28953618 -28.0234375 -1.7734375 C-19.33406754 -4.05623808 -8.16632022 -3.98594201 0 0 Z " fill="#020101" transform="translate(143.796875,2.62109375)"/>
<path d="M0 0 C5.11156863 2.20028048 8.13778077 5.47108334 10.765625 10.33203125 C11.67362217 13.05602275 11.88946082 14.61625431 11.88587952 17.41325378 C11.88725418 18.24196487 11.88862885 19.07067596 11.89004517 19.92449951 C11.88465225 21.28287933 11.88465225 21.28287933 11.87915039 22.66870117 C11.87929642 23.62498917 11.87944244 24.58127716 11.8795929 25.56654358 C11.87889544 28.73188535 11.8711108 31.89716849 11.86328125 35.0625 C11.86141648 37.2553962 11.85999285 39.44829281 11.85899353 41.64118958 C11.85517302 47.41650541 11.84534668 53.19179614 11.83428955 58.96710205 C11.82406544 64.85892396 11.81949376 70.75074991 11.81445312 76.64257812 C11.80372402 88.2057402 11.78665315 99.76888364 11.765625 111.33203125 C10.651875 111.62078125 9.538125 111.90953125 8.390625 112.20703125 C4.76271408 113.02444454 4.76271408 113.02444454 2.765625 115.33203125 C2.23115543 119.92475691 2.23115543 119.92475691 3.94466114 124.02976704 C6.44579173 125.8184532 8.15040948 125.71643155 11.21354675 125.73075867 C12.91097771 125.74956589 12.91097771 125.74956589 14.6427002 125.76875305 C15.88491333 125.76731796 17.12712646 125.76588287 18.40698242 125.7644043 C19.71439896 125.77459595 21.02181549 125.7847876 22.36885071 125.79528809 C25.95535752 125.82290838 29.54170579 125.83214934 33.1283052 125.83814216 C36.87599095 125.84751283 40.62355767 125.87371509 44.37117004 125.89814758 C51.46840643 125.9418524 58.56561976 125.97037483 65.66294986 125.99347097 C73.74274055 126.02050136 81.82241171 126.06441414 89.90211713 126.10975969 C106.52322588 126.20266296 123.14435603 126.27431759 139.765625 126.33203125 C141.47111826 130.57503096 143.15185794 134.82740965 144.828125 139.08203125 C145.31345703 140.28859375 145.79878906 141.49515625 146.29882812 142.73828125 C146.75322266 143.8984375 147.20761719 145.05859375 147.67578125 146.25390625 C148.09996338 147.3222168 148.52414551 148.39052734 148.96118164 149.49121094 C149.7765906 152.37075531 149.89830835 153.60923473 148.765625 156.33203125 C144.55744544 160.98788949 138.51561036 163.4908924 132.953125 166.14453125 C122.8630419 170.99804807 113.00397818 177.80931145 106.765625 187.33203125 C105.3765688 190.94478365 105.3765688 190.94478365 105.765625 194.33203125 C107.09895833 196.99869792 107.09895833 196.99869792 109.765625 198.33203125 C112.98450529 198.71072305 113.97108734 198.7460005 116.765625 197.33203125 C118.80986365 195.30829238 118.80986365 195.30829238 120.828125 192.83203125 C127.95689439 184.3620866 137.25670136 179.440353 147.140625 174.76953125 C153.21259579 171.83236019 157.51461923 168.55119802 161.765625 163.33203125 C162.44625 162.52765625 163.126875 161.72328125 163.828125 160.89453125 C166.42109013 153.80709323 162.77245831 145.80506015 160.203125 139.15234375 C159.8517749 138.21776337 159.5004248 137.28318298 159.13842773 136.32028198 C158.02389143 133.36207665 156.89512539 130.40955106 155.765625 127.45703125 C155.00684354 125.45218938 154.24902165 123.44698405 153.4921875 121.44140625 C151.83262531 117.04571322 150.16382095 112.65365324 148.48657227 108.26467896 C146.1802838 102.08219749 145.37936798 95.2964672 147.6015625 88.94140625 C151.02718072 82.91783596 156.28104552 79.49355774 162.765625 77.33203125 C170.13849383 76.59474437 175.76344865 79.0121677 181.515625 83.45703125 C188.27339688 92.09196198 191.5069031 103.17903636 195.27685547 113.35229492 C196.25775641 115.99830549 197.24728595 118.64095883 198.23828125 121.28320312 C199.81909732 125.51035196 201.37681886 129.74533373 202.91522217 133.98809814 C203.46408871 135.5009182 204.01629777 137.01253169 204.5725708 138.52264404 C207.33986738 146.07169078 209.56351305 152.95938899 209.140625 161.08203125 C209.11701904 161.89365723 209.09341309 162.7052832 209.0690918 163.54150391 C208.99402593 165.80708692 208.88252829 168.06830945 208.765625 170.33203125 C208.73275391 171.77449219 208.73275391 171.77449219 208.69921875 173.24609375 C207.55424995 196.51481458 198.18321296 226.40358058 180.765625 242.33203125 C165.37523994 254.90533371 147.56981166 261.59318536 127.69555664 261.40332031 C126.25398366 261.39624495 126.25398366 261.39624495 124.783288 261.38902664 C122.77176919 261.37888358 120.76026032 261.36654825 118.74876785 261.35209656 C115.921907 261.33308244 113.09519501 261.32271671 110.26828003 261.31652832 C99.46666933 261.29246142 88.66538702 261.22856743 77.86405849 261.14812851 C72.4756831 261.10842453 67.08747917 261.07630749 61.69897461 261.06103516 C56.4149353 261.04581128 51.13133372 261.01132033 45.84749031 260.96372223 C43.85706449 260.9490301 41.86657658 260.94099734 39.87609673 260.9401474 C28.79142385 260.9306301 19.16018677 260.56784761 8.765625 256.33203125 C7.85602524 255.9646283 6.94642548 255.59722534 6.00926208 255.21868896 C-7.86373155 249.29345832 -16.59364696 237.21447581 -22.109375 223.64453125 C-24.96259421 216.20915537 -25.38352206 208.84866458 -25.38154602 200.98291016 C-25.38522271 200.18134302 -25.3888994 199.37977589 -25.3926875 198.55391884 C-25.40363253 195.88880378 -25.40755232 193.22372782 -25.41137695 190.55859375 C-25.4176482 188.63938272 -25.42429558 186.72017289 -25.43128967 184.80096436 C-25.45224155 178.51966178 -25.46267895 172.23835919 -25.47265625 165.95703125 C-25.47670615 163.79030342 -25.48082314 161.62357572 -25.48500633 159.45684814 C-25.50403297 149.28217746 -25.51827321 139.10751394 -25.5266183 128.9328289 C-25.53640262 117.19887903 -25.56276395 105.46511719 -25.60311919 93.7312336 C-25.63327546 84.65076602 -25.64808644 75.57035242 -25.65139931 66.48983574 C-25.65374891 61.07038888 -25.66269913 55.65114352 -25.68786049 50.23175049 C-25.71113972 45.1361449 -25.71537497 40.04087357 -25.70509911 34.94522858 C-25.70460372 33.07800433 -25.71092491 31.21076361 -25.72465515 29.34358978 C-25.74238596 26.78904503 -25.73526279 24.23569873 -25.72212219 21.68115234 C-25.73309144 20.94728617 -25.74406068 20.21341999 -25.75536233 19.45731544 C-25.6771349 13.1328538 -23.63554383 7.83597385 -19.2265625 3.23828125 C-12.82669568 -1.0125528 -7.4641981 -2.23142985 0 0 Z " fill="#FDA58E" transform="translate(288.234375,64.66796875)"/>
<path d="M0 0 C4.44743146 4.41829981 6.23484411 8.83277978 6.32403612 14.95962107 C6.31511323 15.72411708 6.30619035 16.48861308 6.29699707 17.27627563 C6.30323703 18.10612893 6.309477 18.93598223 6.31590605 19.7909826 C6.33179927 22.55837664 6.31924607 25.32488534 6.30664062 28.09228516 C6.31206362 30.0820568 6.31918728 32.07182443 6.32788086 34.06158447 C6.34610297 39.45866522 6.33904927 44.85543977 6.32636452 50.25252581 C6.3162227 55.91057682 6.32563427 61.56860198 6.33190918 67.22665405 C6.3391857 76.734321 6.32960144 86.24186365 6.31054688 95.74951172 C6.28881575 106.71886782 6.29580221 117.68792607 6.3178525 128.65727484 C6.33605122 138.09026329 6.33854186 147.52316246 6.32809782 156.95616281 C6.32188261 162.5831053 6.32097202 168.20990823 6.33424377 173.83684158 C6.34586543 179.13440248 6.33766175 184.43158295 6.31466675 189.72910309 C6.30941163 191.66516109 6.3108381 193.60125152 6.31971741 195.5372963 C6.39661831 214.02031573 3.05252259 228.70500593 -9.9609375 242.6796875 C-21.29914071 253.25019986 -35.74167272 257.8733407 -50.95654297 257.98266602 C-51.81619659 257.99256561 -52.67585022 258.00246521 -53.56155396 258.01266479 C-56.40038337 258.04419926 -59.23922856 258.06904807 -62.078125 258.09375 C-64.07472109 258.11436845 -66.07131329 258.13536602 -68.06790161 258.15672302 C-72.26253028 258.2006535 -76.45717325 258.24155549 -80.65185547 258.2800293 C-85.95697162 258.32870193 -91.26202045 258.38237976 -96.5670681 258.43797398 C-107.44799349 258.55195761 -118.32895689 258.6512884 -129.21014404 258.73660278 C-132.29421852 258.76095115 -135.37821994 258.78828213 -138.46221924 258.82077026 C-141.84720791 258.85545852 -145.23209396 258.88090529 -148.6171875 258.90234375 C-149.95497757 258.91951195 -149.95497757 258.91951195 -151.3197937 258.93702698 C-165.87862316 258.98615047 -179.17724847 253.79980311 -191.2109375 245.77734375 C-193.16308375 245.46255798 -193.16308375 245.46255798 -195.2109375 245.52734375 C-195.8915625 245.5221875 -196.5721875 245.51703125 -197.2734375 245.51171875 C-199.53509757 245.67816772 -199.53509757 245.67816772 -202.2109375 247.77734375 C-204.1963134 245.84586946 -206.17423142 243.90767766 -208.1484375 241.96484375 C-208.71240234 241.41763672 -209.27636719 240.87042969 -209.85742188 240.30664062 C-214.09765625 236.1171875 -214.09765625 236.1171875 -215.2109375 232.77734375 C-214.7365625 232.17921875 -214.2621875 231.58109375 -213.7734375 230.96484375 C-211.68992848 228.04793112 -211.95592929 226.3122851 -212.2109375 222.77734375 C-213.02779799 220.53958234 -213.02779799 220.53958234 -214.2734375 218.33984375 C-221.44829104 203.31557779 -225.74326769 186.33670797 -227.2109375 169.77734375 C-227.28489746 168.94525391 -227.35885742 168.11316406 -227.43505859 167.25585938 C-228.41811594 154.13191994 -226.35658773 143.49349897 -221.58642578 131.31201172 C-220.20927311 127.77306668 -218.87650654 124.22002491 -217.55122375 120.66143799 C-215.9089919 116.25771145 -214.24796729 111.86112847 -212.5859375 107.46484375 C-212.09841507 106.16984955 -212.09841507 106.16984955 -211.6010437 104.84869385 C-210.65488654 102.34594021 -209.69647478 99.84822474 -208.734375 97.3515625 C-208.45424057 96.60640884 -208.17410614 95.86125519 -207.88548279 95.09352112 C-205.37508447 88.64283723 -202.39743934 81.31735751 -196.0859375 77.83984375 C-195.42335938 77.45957031 -194.76078125 77.07929688 -194.078125 76.6875 C-189.37323228 74.39411087 -185.07986005 73.98154721 -180 75.390625 C-173.94722959 77.73529886 -169.77522165 81.34605362 -166.2109375 86.77734375 C-163.66788881 95.02443521 -165.34891408 102.62406655 -168.38671875 110.44140625 C-168.87545723 111.75677872 -168.87545723 111.75677872 -169.37406921 113.09872437 C-170.40869171 115.87257189 -171.46552131 118.63730807 -172.5234375 121.40234375 C-173.22219879 123.26376214 -173.91947733 125.12573785 -174.61523438 126.98828125 C-175.89887577 130.41709346 -177.19039055 133.84266473 -178.4934082 137.26416016 C-178.92370834 138.39618866 -178.92370834 138.39618866 -179.36270142 139.55108643 C-179.93250226 141.04657021 -180.50511659 142.54098479 -181.08041382 144.03436279 C-183.36263839 149.7577203 -183.36263839 149.7577203 -183.2109375 155.77734375 C-178.15595294 164.79484369 -170.50252924 170.33767275 -161.3984375 174.71484375 C-150.92991954 179.74950653 -142.73399138 185.28960926 -135.76953125 194.7734375 C-134.3605782 196.88229653 -134.3605782 196.88229653 -132.2109375 197.77734375 C-128.10011141 198.14010327 -128.10011141 198.14010327 -124.3359375 196.71484375 C-122.5720956 193.67711604 -122.92402667 191.23116909 -123.2109375 187.77734375 C-130.57749047 174.86313978 -143.16694271 167.3294943 -156.21801758 161.31420898 C-160.96363987 159.093569 -165.09002087 157.15990753 -168.2109375 152.77734375 C-168.34528684 147.1010842 -165.25968146 141.26381869 -163.2109375 136.02734375 C-162.84226562 135.06957031 -162.47359375 134.11179688 -162.09375 133.125 C-159.40134899 126.15816673 -159.40134899 126.15816673 -158.2109375 123.77734375 C-157.17918538 123.77376122 -157.17918538 123.77376122 -156.12658978 123.77010632 C-139.4016461 123.71100897 -122.67686577 123.63549295 -105.95208263 123.54162884 C-97.8641458 123.49663439 -89.77625336 123.45722825 -81.68823242 123.4309082 C-74.63994425 123.40795756 -67.59179613 123.37459265 -60.54361898 123.32864219 C-56.8105185 123.30467012 -53.07755707 123.28596758 -49.34438133 123.27972984 C-45.18015074 123.27257696 -41.01640511 123.24217711 -36.85229492 123.2097168 C-34.98897522 123.21186943 -34.98897522 123.21186943 -33.0880127 123.21406555 C-31.95639206 123.2015274 -30.82477142 123.18898926 -29.65885925 123.17607117 C-28.67346255 123.1714622 -27.68806585 123.16685324 -26.67280865 123.16210461 C-24.17992755 122.96257745 -24.17992755 122.96257745 -22.39778614 121.47117329 C-20.38588442 118.59985639 -20.78964535 116.14768092 -21.2109375 112.77734375 C-23.84718562 109.84817917 -26.4459332 109.46416045 -30.2109375 108.77734375 C-30.3269141 96.00761044 -30.41569534 83.23800294 -30.46999836 70.46784973 C-30.49606443 64.53778446 -30.53140879 58.60808019 -30.58813477 52.67822266 C-30.64255979 46.95290592 -30.67238053 41.22793588 -30.68532372 35.50238037 C-30.69454466 33.32072494 -30.71255118 31.13908795 -30.73958778 28.95758057 C-30.77601664 25.89578618 -30.78087694 22.83541459 -30.77856445 19.7734375 C-30.80552902 18.42799614 -30.80552902 18.42799614 -30.83303833 17.05537415 C-30.78178896 10.76228965 -29.17480852 6.67698874 -25.2109375 1.77734375 C-18.04462189 -5.03939549 -8.21409802 -5.19061087 0 0 Z " fill="#FDA68E" transform="translate(242.2109375,67.22265625)"/>
<path d="M0 0 C53.13 0 106.26 0 161 0 C161 31.02 161 62.04 161 94 C116.1875 94.3125 116.1875 94.3125 102.03198242 94.38793945 C97.84871328 94.42449906 97.84871328 94.42449906 93.66548157 94.4650116 C91.80065273 94.48117313 89.93576735 94.49145344 88.07087708 94.49711609 C85.2477083 94.50682588 82.42528091 94.53512934 79.60229492 94.56762695 C78.76993663 94.56620099 77.93757833 94.56477503 77.07999706 94.56330585 C72.93600675 94.52130141 72.93600675 94.52130141 69.32640553 96.27492046 C67.66909333 98.19291848 67.66909333 98.19291848 67 102 C60.07 102 53.14 102 46 102 C45.67 100.02 45.34 98.04 45 96 C30.43349711 92.35837428 15.01034346 94.36610594 0 94 C0 62.98 0 31.96 0 0 Z " fill="#E8E8E8" transform="translate(280,403)"/>
<path d="M0 0 C53.13 0 106.26 0 161 0 C161 31.02 161 62.04 161 94 C107.87 94 54.74 94 0 94 C0 62.98 0 31.96 0 0 Z " fill="#E8E8E8" transform="translate(71,403)"/>
<path d="M0 0 C0 16.83 0 33.66 0 51 C-40.59 51 -81.18 51 -123 51 C-123 35.49 -123 19.98 -123 4 C-103.48587931 2.85211055 -103.48587931 2.85211055 -95.67578125 2.82641602 C-94.78067337 2.819729 -93.88556549 2.81304199 -92.96333313 2.80615234 C-91.06038642 2.79232899 -89.15742534 2.78036764 -87.25445557 2.77020454 C-84.23452305 2.75347426 -81.2146996 2.7302406 -78.19482422 2.70530701 C-69.6229412 2.63533606 -61.05102068 2.57423924 -52.47900391 2.52319336 C-47.20087327 2.49131294 -41.92288314 2.45004547 -36.64486694 2.40299797 C-34.64833089 2.38707012 -32.65176288 2.3747065 -30.65518188 2.36609077 C-27.86633031 2.35386216 -25.07780782 2.32968993 -22.2890625 2.30297852 C-21.47850906 2.30238937 -20.66795563 2.30180023 -19.83283997 2.30119324 C-15.02862334 2.2405835 -10.68697834 1.63408471 -6.0328064 0.42684841 C-4 0 -4 0 0 0 Z " fill="#FEA68E" transform="translate(215,337)"/>
<path d="M0 0 C5.94 0.99 5.94 0.99 12 2 C15.19845147 2.1807782 18.31205984 2.30058831 21.50610352 2.30297852 C22.37466476 2.31141785 23.24322601 2.31985718 24.1381073 2.32855225 C26.96838027 2.35403287 29.79854897 2.36641086 32.62890625 2.37890625 C34.62890906 2.39512674 36.62890425 2.41231128 38.62889099 2.43040466 C43.87395644 2.47584553 49.11903316 2.51074871 54.36419678 2.54260254 C62.7308314 2.59465351 71.09735013 2.66067141 79.46385002 2.73081779 C82.35199391 2.75321293 85.24012457 2.76976906 88.12831116 2.78553772 C89.94825371 2.7989817 91.768195 2.81259951 93.58813477 2.82641602 C94.36123993 2.82902939 95.13434509 2.83164276 95.93087769 2.83433533 C104.98474457 2.91411534 113.92843158 3.52254903 123 4 C123 19.51 123 35.02 123 51 C82.41 51 41.82 51 0 51 C0 34.17 0 17.34 0 0 Z " fill="#FEA68E" transform="translate(297,337)"/>
<path d="M0 0 C4.69852553 2.64350442 7.6491721 6.3476506 9.6875 11.3125 C9.93359566 14.11606216 9.93359566 14.11606216 9.92800903 17.41217041 C9.93075836 18.66296387 9.93350769 19.91375732 9.93634033 21.20245361 C9.92926252 22.58581639 9.92199291 23.9691782 9.91455078 25.35253906 C9.91398655 26.81123853 9.91430346 28.26993856 9.91543579 29.7286377 C9.91600985 33.68700202 9.90424694 37.64524525 9.89028788 41.60358143 C9.8777894 45.7409027 9.87661071 49.87822672 9.87423706 54.01556396 C9.8680197 61.84946951 9.85160541 69.68331926 9.83153808 77.51720023 C9.80918706 86.43609974 9.79818766 95.3550019 9.78814721 104.27392244 C9.7672394 122.62015302 9.73055996 140.96630712 9.6875 159.3125 C-2.1925 159.3125 -14.0725 159.3125 -26.3125 159.3125 C-26.40280678 139.98893224 -26.47648572 120.66553543 -26.51974869 101.34181023 C-26.54037067 92.36939818 -26.56848429 83.39712658 -26.61425781 74.42480469 C-26.65413675 66.6041826 -26.67993546 58.78366223 -26.68885398 50.96294129 C-26.69406696 46.82219037 -26.70631161 42.68173046 -26.73542023 38.54107285 C-26.76260617 34.64226075 -26.77093868 30.74385905 -26.76493073 26.84496117 C-26.76602955 25.41550782 -26.77396486 23.98604051 -26.7893219 22.55666924 C-26.87805218 13.87065141 -26.83708719 8.96983792 -20.71484375 2.66796875 C-14.3607852 -2.39833393 -7.49018523 -3.4785879 0 0 Z " fill="#F6947F" transform="translate(136.3125,16.6875)"/>
<path d="M0 0 C4.71829884 2.76257274 8.2528418 6.09552736 10.7265625 11.04296875 C10.82047716 13.00684156 10.84846922 14.97397761 10.84681702 16.94009399 C10.84819168 18.19655228 10.84956635 19.45301056 10.85098267 20.74754333 C10.84744329 22.14761376 10.84380847 23.54768395 10.84008789 24.94775391 C10.83980594 26.41601052 10.8399639 27.88426727 10.8405304 29.3525238 C10.84081808 33.34609194 10.83492608 37.33963022 10.82795644 41.33319139 C10.82171803 45.50389487 10.82111871 49.67459898 10.81993103 53.8453064 C10.81681916 61.74654872 10.8086077 69.64777725 10.79858154 77.5490135 C10.78741595 86.54284091 10.78190883 95.53666898 10.77688611 104.5305016 C10.76642497 123.03466673 10.74808127 141.53881295 10.7265625 160.04296875 C-1.1534375 160.04296875 -13.0334375 160.04296875 -25.2734375 160.04296875 C-25.38638482 140.88432351 -25.47845653 121.72594858 -25.53249836 102.56705475 C-25.5582599 93.67088384 -25.59337106 84.77493476 -25.65063477 75.87890625 C-25.70053271 68.12345399 -25.73274342 60.36816241 -25.74387997 52.61255407 C-25.75038798 48.50743558 -25.7656403 44.4027767 -25.80208778 40.29780579 C-25.83614869 36.43011478 -25.84647041 32.56307058 -25.83897591 28.69524384 C-25.84034598 27.27951792 -25.85021894 25.86376928 -25.86946487 24.44817352 C-25.97374941 16.37860988 -25.78088852 10.27495067 -20.2734375 4.04296875 C-14.75338385 -1.44279886 -7.22516481 -3.04152127 0 0 Z " fill="#FDA68E" transform="translate(391.2734375,15.95703125)"/>
<path d="M0 0 C4.05730586 2.61873522 6.29968974 6.10804943 8.27565956 10.46879482 C9.07696849 14.77500572 9.03711061 18.96262011 8.9568119 23.33232021 C8.95812614 25.22160748 8.95812614 25.22160748 8.95946693 27.14906216 C8.96117703 30.57663073 8.92609166 34.00291999 8.88402319 37.43019319 C8.84632153 41.02156057 8.84297565 44.61296259 8.83587074 48.20449734 C8.81727846 54.99371909 8.76811895 61.7823559 8.7077738 68.57132095 C8.64053236 76.30527781 8.6076756 84.03926372 8.57760119 91.77344048 C8.51501352 107.6722876 8.40505294 123.57032972 8.27565956 139.46879482 C-3.60434044 139.46879482 -15.48434044 139.46879482 -27.72434044 139.46879482 C-27.81469909 122.77016765 -27.88835621 106.0717497 -27.93158913 89.37294579 C-27.95219812 81.6190804 -27.9802867 73.86537791 -28.02609825 66.11161709 C-28.06601721 59.35196543 -28.09178535 52.59243176 -28.10069442 45.8326655 C-28.10590068 42.25468813 -28.11810199 38.67704827 -28.14726067 35.09917927 C-28.17957879 31.10105822 -28.18029663 27.10352074 -28.178442 23.10526943 C-28.1928231 21.92419109 -28.20720421 20.74311275 -28.2220211 19.52624416 C-28.18891754 12.9337239 -27.69804078 8.80972146 -23.72434044 3.46879482 C-16.64683618 -3.2457605 -8.74493818 -4.42418598 0 0 Z " fill="#FEA68E" transform="translate(342.7243404388428,36.53120517730713)"/>
<path d="M0 0 C3.90494509 2.90367712 6.57211674 6.33060661 8.4375 10.8125 C8.68359566 13.31933212 8.68359566 13.31933212 8.67800903 16.19085693 C8.68075836 17.28178146 8.68350769 18.37270599 8.68634033 19.49668884 C8.67914978 20.68855301 8.67195923 21.88041718 8.66455078 23.10839844 C8.66484283 24.36719315 8.66513489 25.62598785 8.66543579 26.92292786 C8.66600947 30.37098532 8.65425276 33.81890356 8.64028788 37.26692867 C8.62778304 40.87173188 8.62661021 44.47653831 8.62423706 48.08135986 C8.61802157 54.90591432 8.60160982 61.73040469 8.58153808 68.55493093 C8.55918124 76.32512075 8.54818619 84.09531364 8.53814721 91.86552763 C8.51724363 107.84789519 8.48056654 123.83017446 8.4375 139.8125 C-3.4425 139.8125 -15.3225 139.8125 -27.5625 139.8125 C-27.67548439 123.13113732 -27.7675403 106.45010253 -27.82156086 89.76846313 C-27.84731322 82.02242305 -27.88240643 74.27663805 -27.93969727 66.53076172 C-27.98962379 59.77732575 -28.0218126 53.02407457 -28.03294247 46.27045918 C-28.03944577 42.69627816 -28.0546669 39.12262567 -28.09115028 35.5486145 C-28.13160428 31.55300724 -28.13244355 27.55831153 -28.13012695 23.5625 C-28.14810333 22.38501694 -28.16607971 21.20753387 -28.18460083 19.99436951 C-28.13039283 11.34718056 -26.15081457 6.40081457 -20.0625 0.3125 C-13.64928543 -2.43602053 -6.57571433 -2.19190478 0 0 Z " fill="#F7947F" transform="translate(188.5625,36.1875)"/>
<path d="M0 0 C3.77761985 2.38713425 5.89814327 5.89160973 7.625 9.9375 C8.16149243 12.78323856 8.16666386 15.54657067 8.13293457 18.43643188 C8.13917453 19.26628518 8.1454145 20.09613848 8.15184355 20.95113885 C8.16773677 23.71853289 8.15518357 26.48504159 8.14257812 29.25244141 C8.14800112 31.24221305 8.15512478 33.23198068 8.16381836 35.22174072 C8.18204047 40.61882147 8.17498677 46.01559602 8.16230202 51.41268206 C8.1521602 57.07073307 8.16157177 62.72875823 8.16784668 68.3868103 C8.1751232 77.89447725 8.16553894 87.4020199 8.14648438 96.90966797 C8.12475325 107.87902407 8.13173971 118.84808232 8.15379 129.81743109 C8.17198872 139.25041954 8.17447936 148.68331871 8.16403532 158.11631906 C8.15782011 163.74326155 8.15690952 169.37006448 8.17018127 174.99699783 C8.18180293 180.29455873 8.17359925 185.5917392 8.15060425 190.88925934 C8.14534913 192.82531734 8.1467756 194.76140777 8.15565491 196.69745255 C8.23255581 215.18047198 4.88846009 229.86516218 -8.125 243.83984375 C-15.77241162 250.96946188 -27.12927076 257.661711 -37.76171875 258.06640625 C-38.62410156 258.02386719 -39.48648438 257.98132813 -40.375 257.9375 C-38.04248824 255.45450361 -35.50103482 253.56245865 -32.75 251.5625 C-20.66708608 241.93144744 -13.35151541 227.13386697 -11.375 211.9375 C-10.98521951 205.47259715 -11.08052883 198.98350994 -11.08447266 192.50976562 C-11.07848127 190.54424282 -11.07167432 188.57872236 -11.06411743 186.61320496 C-11.04651715 181.29716683 -11.04176471 175.98119316 -11.04048586 170.66512871 C-11.03906086 167.33992219 -11.03478476 164.01473189 -11.02949142 160.68952942 C-11.01101429 149.07832809 -11.00281833 137.46717257 -11.00439453 125.85595703 C-11.00559684 115.04838768 -10.98447093 104.24101774 -10.9529072 93.43349886 C-10.92673104 84.13809158 -10.91602773 74.84274942 -10.91730535 65.54730558 C-10.91781438 60.00264173 -10.91216309 54.45815543 -10.89094925 48.91352844 C-10.87154315 43.69968529 -10.87145873 38.48618874 -10.88598251 33.27233315 C-10.88806841 31.36402694 -10.88338283 29.45569889 -10.8712616 27.54743004 C-10.43448602 13.64347482 -10.43448602 13.64347482 -15.375 0.9375 C-16.365 0.2775 -17.355 -0.3825 -18.375 -1.0625 C-12.09897135 -2.81863646 -5.80774925 -3.31716015 0 0 Z " fill="#F7947F" transform="translate(240.375,66.0625)"/>
<path d="M0 0 C5.49549618 2.83248041 8.98104559 7.59938677 10.8984375 13.3515625 C11.01194329 15.01584555 11.07634582 16.68374036 11.109375 18.3515625 C11.13773437 19.3209375 11.16609375 20.2903125 11.1953125 21.2890625 C11.24739113 23.33054493 11.29166391 25.37224143 11.328125 27.4140625 C11.3590625 28.3834375 11.39 29.3528125 11.421875 30.3515625 C11.451604 31.681875 11.451604 31.681875 11.48193359 33.0390625 C11.98625647 35.83914827 12.65874571 36.64270881 14.8984375 38.3515625 C16.2184375 39.0115625 17.5384375 39.6715625 18.8984375 40.3515625 C18.8984375 46.6215625 18.8984375 52.8915625 18.8984375 59.3515625 C17.2484375 60.0115625 15.5984375 60.6715625 13.8984375 61.3515625 C10.99346595 64.25653405 11.5439858 67.30555556 11.484375 71.203125 C11.46500885 71.97715668 11.4456427 72.75118835 11.4256897 73.54867554 C11.3658392 76.02452525 11.31948739 78.50042133 11.2734375 80.9765625 C11.23526268 82.65366627 11.19621125 84.33075034 11.15625 86.0078125 C11.06013341 90.12223603 10.97612311 94.23675136 10.8984375 98.3515625 C4.19042969 100.27587891 4.19042969 100.27587891 1.5625 100.95703125 C-8.03467412 103.69645451 -14.08348636 109.31362614 -18.91015625 117.921875 C-19.30332031 118.72367187 -19.69648438 119.52546875 -20.1015625 120.3515625 C-20.48054688 121.10179687 -20.85953125 121.85203125 -21.25 122.625 C-22.43029168 126.40409905 -22.35360027 129.91815523 -22.2890625 133.8515625 C-22.28841797 134.59792969 -22.28777344 135.34429687 -22.28710938 136.11328125 C-22.25627411 139.98481953 -22.03912661 143.571304 -21.1015625 147.3515625 C-22.7515625 147.3515625 -24.4015625 147.3515625 -26.1015625 147.3515625 C-26.19510491 130.01833643 -26.26559011 112.68518942 -26.30881119 95.35176849 C-26.32941508 87.30311126 -26.35749391 79.25461109 -26.40332031 71.20605469 C-26.44325487 64.18893084 -26.46901111 57.17192078 -26.47791648 50.15468645 C-26.4831201 46.44086651 -26.49530455 42.72737201 -26.52448273 39.01365662 C-26.55683188 34.8624747 -26.55751768 30.71185451 -26.55566406 26.56054688 C-26.57004517 25.33631012 -26.58442627 24.11207336 -26.59924316 22.85073853 C-26.56325348 15.39909441 -26.01516776 9.44166907 -20.61871719 3.80184174 C-14.83823935 -1.27650048 -7.34588242 -2.26657339 0 0 Z " fill="#F4927E" transform="translate(443.1015625,28.6484375)"/>
<path d="M0 0 C5.15283293 2.33172887 8.3100563 5.39803531 10.74668694 10.56634808 C11.7515237 13.53131637 11.90652341 15.82483897 11.90066528 18.95014954 C11.90341461 20.0845195 11.90616394 21.21888947 11.90899658 22.38763428 C11.90180603 23.62265686 11.89461548 24.85767944 11.88720703 26.13012695 C11.88749908 27.43783554 11.88779114 28.74554413 11.88809204 30.09288025 C11.88866511 33.67103768 11.87691821 37.24906061 11.86294413 40.82718682 C11.85042918 44.5694512 11.84926566 48.31171878 11.84689331 52.05400085 C11.84068079 59.13705749 11.82427306 66.22005227 11.80419433 73.30308169 C11.78182824 81.36833173 11.77084012 89.43358475 11.76080346 97.49885809 C11.73990662 114.0865145 11.70473508 130.67410873 11.66015625 147.26171875 C10.01015625 147.26171875 8.36015625 147.26171875 6.66015625 147.26171875 C6.81613281 146.60300781 6.97210938 145.94429687 7.1328125 145.265625 C9.19850016 133.49885603 8.48333551 123.33999271 1.66015625 113.26171875 C-3.15743608 106.59044377 -10.33342203 102.21884406 -18.33984375 100.26171875 C-20.67156481 99.91728812 -23.0047867 99.5827548 -25.33984375 99.26171875 C-25.4326773 88.18694935 -25.50367659 77.1122731 -25.54709244 66.0371933 C-25.56793386 60.89412149 -25.59618858 55.75131663 -25.64160156 50.60839844 C-25.68518215 45.64170216 -25.70900676 40.67526206 -25.71935272 35.70838928 C-25.72672219 33.81702138 -25.74111303 31.9256669 -25.76276398 30.03440857 C-25.79196057 27.37745271 -25.79579301 24.72154455 -25.79394531 22.06445312 C-25.80832642 21.28905182 -25.82270752 20.51365051 -25.83752441 19.7147522 C-25.7889785 13.22907185 -23.75796922 8.14838969 -19.5859375 3.16796875 C-13.47434325 -1.58402678 -7.40489021 -2.33643447 0 0 Z " fill="#F1917C" transform="translate(83.33984375,28.73828125)"/>
<path d="M0 0 C11.03403736 6.30813834 14.42385675 21.98429472 18.58154297 33.20385742 C19.56244391 35.84986799 20.55197345 38.49252133 21.54296875 41.13476562 C23.12378482 45.36191446 24.68150636 49.59689623 26.21990967 53.83966064 C26.76877621 55.3524807 27.32098527 56.86409419 27.8772583 58.37420654 C30.64455488 65.92325328 32.86820055 72.81095149 32.4453125 80.93359375 C32.42170654 81.74521973 32.39810059 82.5568457 32.3737793 83.39306641 C32.29871343 85.65864942 32.18721579 87.91987195 32.0703125 90.18359375 C32.03744141 91.62605469 32.03744141 91.62605469 32.00390625 93.09765625 C30.85893745 116.36637708 21.48790046 146.25514308 4.0703125 162.18359375 C-8.21366586 172.21909155 -23.06158148 179.34381334 -38.9296875 181.18359375 C-39.5896875 180.85359375 -40.2496875 180.52359375 -40.9296875 180.18359375 C-40.11886719 179.71050781 -39.30804688 179.23742187 -38.47265625 178.75 C-14.02807929 164.15155066 -2.75582404 144.80095715 4.265625 117.6953125 C12.88428704 82.43116856 4.48661719 55.93212829 -8.2421875 22.93359375 C-8.54410004 22.14883667 -8.84601257 21.36407959 -9.15707397 20.55554199 C-10.02874399 18.29856308 -10.90914105 16.0452109 -11.79296875 13.79296875 C-12.05002594 13.1273291 -12.30708313 12.46168945 -12.57192993 11.77587891 C-14.33506744 7.32615999 -16.47722052 3.29526799 -18.9296875 -0.81640625 C-12.12074774 -4.11771038 -6.57798744 -3.22209893 0 0 Z " fill="#F5937E" transform="translate(464.9296875,144.81640625)"/>
<path d="M0 0 C0.6509259 1.24735567 1.29551669 2.49801832 1.9375 3.75 C2.29714844 4.44609375 2.65679687 5.1421875 3.02734375 5.859375 C4.89352124 9.96646442 5.12409213 13.56402691 5.12025452 18.06170654 C5.12162918 19.30408585 5.12300385 20.54646515 5.12442017 21.82649231 C5.12088127 23.20040918 5.11724646 24.5743258 5.11352539 25.94824219 C5.11324327 27.39708962 5.11340173 28.8459372 5.1139679 30.29478455 C5.11425491 34.226253 5.10837357 38.15769097 5.10139394 42.08915234 C5.09514454 46.19845106 5.09455534 50.30775048 5.09336853 54.41705322 C5.0902599 62.19781477 5.0820528 69.97856227 5.07201904 77.75931764 C5.06084339 86.61776471 5.05534379 95.47621245 5.05032361 104.33466482 C5.03986982 122.5564514 5.02207808 140.77822406 5 159 C-0.94 159 -6.88 159 -13 159 C-13.09261029 139.67647456 -13.16398578 120.35301183 -13.20724869 101.02931023 C-13.22787067 92.05689818 -13.25598429 83.08462658 -13.30175781 74.11230469 C-13.34163675 66.2916826 -13.36743546 58.47116223 -13.37635398 50.65044129 C-13.38156696 46.50969037 -13.39381161 42.36923046 -13.42292023 38.22857285 C-13.45010617 34.32976075 -13.45843868 30.43135905 -13.45243073 26.53246117 C-13.45352955 25.10300782 -13.46146486 23.67354051 -13.4768219 22.24416924 C-13.61250934 8.96140376 -13.61250934 8.96140376 -9 4 C-8.0409375 2.824375 -8.0409375 2.824375 -7.0625 1.625 C-4.52933826 -0.3708244 -3.14733854 -0.34970428 0 0 Z " fill="#FEA68E" transform="translate(123,17)"/>
<path d="M0 0 C6.47462419 -0.59704526 10.9324681 -0.26052269 16.30859375 3.5625 C19.18817259 6.0098095 21.31430711 8.62861422 23 12 C23.09391466 13.96387281 23.12190672 15.93100886 23.12025452 17.89712524 C23.12162918 19.15358353 23.12300385 20.41004181 23.12442017 21.70457458 C23.12088079 23.10464501 23.11724597 24.5047152 23.11352539 25.90478516 C23.11324344 27.37304177 23.1134014 28.84129852 23.1139679 30.30955505 C23.11425558 34.30312319 23.10836358 38.29666147 23.10139394 42.29022264 C23.09515553 46.46092612 23.09455621 50.63163023 23.09336853 54.80233765 C23.09025666 62.70357997 23.0820452 70.6048085 23.07201904 78.50604475 C23.06085345 87.49987216 23.05534633 96.49370023 23.05032361 105.48753285 C23.03986247 123.99169661 23.02206509 142.49584669 23 161 C17.39 161 11.78 161 6 161 C5.99857498 159.15552277 5.99714996 157.31104553 5.99568176 155.41067505 C5.97900463 138.01918419 5.93650469 120.62792501 5.86790943 103.23655891 C5.83330409 94.29569921 5.80790977 85.35499298 5.80444336 76.4140625 C5.80139725 68.61818034 5.78082013 60.8225718 5.73947543 53.02679527 C5.71820215 48.90158347 5.70551542 44.77676013 5.71384621 40.65149307 C5.72142261 36.76231658 5.70541976 32.87392482 5.67193985 28.98489189 C5.66374946 27.56361515 5.66390571 26.14225974 5.67340279 24.72099113 C5.72128002 16.76311816 5.18226735 10.78432281 1.07056713 3.86204338 C0 2 0 2 0 0 Z " fill="#F7947F" transform="translate(379,15)"/>
<path d="M0 0 C4.81446987 7.74788625 5.70497038 14.05611826 5.56762695 23.06884766 C5.56835709 24.33827209 5.56908722 25.60769653 5.56983948 26.91558838 C5.57126277 30.36566245 5.54205269 33.81485142 5.50696969 37.26472139 C5.47552227 40.88146144 5.47276109 44.49822611 5.46684265 48.11508179 C5.45135775 54.95022424 5.4104029 61.78496255 5.3600952 68.61992776 C5.30403385 76.40713678 5.27667325 84.19436601 5.25161803 91.98172688 C5.19948137 107.98805767 5.11062695 123.99396061 5 140 C-0.94 140 -6.88 140 -13 140 C-13.11587739 123.31870039 -13.20504041 106.63756746 -13.25906086 89.95596313 C-13.28481322 82.20992305 -13.31990643 74.46413805 -13.37719727 66.71826172 C-13.42712379 59.96482575 -13.4593126 53.21157457 -13.47044247 46.45795918 C-13.47694577 42.88377816 -13.4921669 39.31012567 -13.52865028 35.7361145 C-13.56910428 31.74050724 -13.56994355 27.74581153 -13.56762695 23.75 C-13.58560333 22.57251694 -13.60357971 21.39503387 -13.62210083 20.18186951 C-13.5779488 13.1387956 -12.62952796 8.43496899 -8 3 C-4.96130381 0.05338551 -4.42502729 0 0 0 Z " fill="#FEA68E" transform="translate(174,36)"/>
<path d="M0 0 C5.25562517 2.66008829 8.02009539 6.22755716 10.4375 11.5625 C11.23880893 15.8687109 11.19895104 20.05632529 11.11865234 24.42602539 C11.1195285 25.68555023 11.12040466 26.94507507 11.12130737 28.24276733 C11.12301747 31.6703359 11.0879321 35.09662517 11.04586363 38.52389836 C11.00816197 42.11526574 11.00481609 45.70666777 10.99771118 49.29820251 C10.9791189 56.08742427 10.92995938 62.87606107 10.86961424 69.66502613 C10.8023728 77.39898299 10.76951604 85.1329689 10.73944163 92.86714566 C10.67685415 108.76594427 10.57021092 124.66412344 10.4375 140.5625 C4.8275 140.5625 -0.7825 140.5625 -6.5625 140.5625 C-6.56836624 138.97667114 -6.57423248 137.39084229 -6.58027649 135.75695801 C-6.63750393 120.807738 -6.71008951 105.85868165 -6.79821491 90.90961456 C-6.84312785 83.22426222 -6.88255281 75.53895576 -6.90893555 67.85351562 C-6.93195219 61.15273203 -6.96539095 54.45209416 -7.01120156 47.75142622 C-7.03508459 44.20540189 -7.05384547 40.65952143 -7.06011391 37.11341858 C-7.06731745 33.14901971 -7.09779524 29.18498048 -7.13012695 25.22070312 C-7.12869186 24.0525708 -7.12725677 22.88443848 -7.1257782 21.6809082 C-7.22749005 12.85477004 -8.43243856 6.32670572 -14.5625 -0.4375 C-9.42253177 -2.15082274 -5.04167519 -1.87043599 0 0 Z " fill="#F7947F" transform="translate(340.5625,35.4375)"/>
<path d="M0 0 C5.07863543 2.26362037 8.10741641 5.4850271 10.73828125 10.3515625 C11.64627842 13.075554 11.86211707 14.63578556 11.85853577 17.43278503 C11.85991043 18.26149612 11.8612851 19.09020721 11.86270142 19.94403076 C11.85910614 20.84961731 11.85551086 21.75520386 11.85180664 22.68823242 C11.85195267 23.64452042 11.85209869 24.60080841 11.85224915 25.58607483 C11.85155169 28.7514166 11.84376705 31.91669974 11.8359375 35.08203125 C11.83407273 37.27492745 11.8326491 39.46782406 11.83164978 41.66072083 C11.82782927 47.43603666 11.81800293 53.21132739 11.8069458 58.9866333 C11.79672169 64.87845521 11.79215001 70.77028116 11.78710938 76.66210938 C11.77638027 88.22527145 11.7593094 99.78841489 11.73828125 111.3515625 C10.62453125 111.6403125 9.51078125 111.9290625 8.36328125 112.2265625 C4.73537033 113.04397579 4.73537033 113.04397579 2.73828125 115.3515625 C2.09060332 117.92217561 2.09060332 117.92217561 1.73828125 120.3515625 C1.51140625 119.7946875 1.28453125 119.2378125 1.05078125 118.6640625 C-0.23165775 116.15483586 -0.23165775 116.15483586 -2.76171875 113.9140625 C-7.64431902 108.90939723 -7.55317224 104.02067405 -7.53295898 97.38964844 C-7.53818573 96.49629288 -7.54341248 95.60293732 -7.54879761 94.68251038 C-7.55902153 92.74661765 -7.56481521 90.81069757 -7.566679 88.87477875 C-7.5703491 85.80532579 -7.58709485 82.73619407 -7.60743713 79.66680908 C-7.66277882 70.94118234 -7.69348389 62.21550805 -7.71801758 53.48974609 C-7.73394139 48.14761285 -7.76421329 42.80570686 -7.80278206 37.46369171 C-7.81439197 35.43366163 -7.82036206 33.40359081 -7.82046318 31.37352753 C-7.82065643 28.5257971 -7.83901091 25.67868801 -7.86108398 22.83105469 C-7.85650681 22.00164871 -7.85192963 21.17224274 -7.84721375 20.31770325 C-7.91830399 14.51379309 -9.190139 9.75144532 -11.26171875 4.3515625 C-11.59171875 3.3615625 -11.92171875 2.3715625 -12.26171875 1.3515625 C-12.92171875 1.0215625 -13.58171875 0.6915625 -14.26171875 0.3515625 C-10.00472907 -1.77693234 -4.48505408 -1.28587043 0 0 Z " fill="#F4927E" transform="translate(288.26171875,64.6484375)"/>
<path d="M0 0 C2.33179321 0.48327759 2.33179321 0.48327759 4.71069336 0.97631836 C13.9723235 2.51005114 23.26765122 2.33757842 32.62890625 2.37890625 C34.62890906 2.39512674 36.62890425 2.41231128 38.62889099 2.43040466 C43.87395644 2.47584553 49.11903316 2.51074871 54.36419678 2.54260254 C62.7308314 2.59465351 71.09735013 2.66067141 79.46385002 2.73081779 C82.35199391 2.75321293 85.24012457 2.76976906 88.12831116 2.78553772 C89.94825371 2.7989817 91.768195 2.81259951 93.58813477 2.82641602 C94.36123993 2.82902939 95.13434509 2.83164276 95.93087769 2.83433533 C104.98474457 2.91411534 113.92843158 3.52254903 123 4 C123 19.51 123 35.02 123 51 C115.74 51 108.48 51 101 51 C100.87625 48.525 100.7525 46.05 100.625 43.5 C100.03718866 33.91030533 99.14558947 26.12978064 92 19 C84.92186414 13.92538606 76.53787842 13.93687411 68.11523438 13.51928711 C67.00157501 13.46054665 67.00157501 13.46054665 65.86541748 13.40061951 C63.44166224 13.27345278 61.017719 13.15036251 58.59375 13.02734375 C56.90123194 12.93934504 55.20872723 12.8510893 53.51623535 12.7625885 C49.08427677 12.5315269 44.65214671 12.30393499 40.2199707 12.0770874 C35.68820415 11.84451963 31.15661009 11.60864017 26.625 11.37304688 C17.75016486 10.91213981 8.87514486 10.45490139 0 10 C0 6.7 0 3.4 0 0 Z " fill="#F7947F" transform="translate(297,337)"/>
<path d="M0 0 C0 16.83 0 33.66 0 51 C-7.26 51 -14.52 51 -22 51 C-22.3125 41 -22.3125 41 -22.38793945 37.8984375 C-22.65079833 31.28795257 -23.34728716 25.32713135 -27.61328125 19.9765625 C-28.17402344 19.53054688 -28.73476562 19.08453125 -29.3125 18.625 C-29.86550781 18.16351563 -30.41851562 17.70203125 -30.98828125 17.2265625 C-36.65571041 13.77108142 -42.37145617 13.62389142 -48.8125 13.4375 C-49.82078857 13.40140625 -50.82907715 13.3653125 -51.86791992 13.328125 C-58.92108388 13.08967924 -65.97615077 12.92318289 -73.03125 12.75390625 C-73.9147966 12.73267197 -74.7983432 12.71143768 -75.70866394 12.68955994 C-80.12768879 12.58438249 -84.54673633 12.48391616 -88.96606445 12.39233398 C-100.32614027 12.14759157 -111.65664964 11.6621039 -123 11 C-123 8.69 -123 6.38 -123 4 C-111.07911067 3.15280615 -99.20377977 2.83402168 -87.25445557 2.77020454 C-84.23452305 2.75347426 -81.2146996 2.7302406 -78.19482422 2.70530701 C-69.6229412 2.63533606 -61.05102068 2.57423924 -52.47900391 2.52319336 C-47.20087327 2.49131294 -41.92288314 2.45004547 -36.64486694 2.40299797 C-34.64833089 2.38707012 -32.65176288 2.3747065 -30.65518188 2.36609077 C-27.86633031 2.35386216 -25.07780782 2.32968993 -22.2890625 2.30297852 C-21.47850906 2.30238937 -20.66795563 2.30180023 -19.83283997 2.30119324 C-15.02862334 2.2405835 -10.68697834 1.63408471 -6.0328064 0.42684841 C-4 0 -4 0 0 0 Z " fill="#F7947F" transform="translate(215,337)"/>
<path d="M0 0 C0.65628849 1.20268681 1.29947505 2.41252554 1.9375 3.625 C2.29714844 4.29789063 2.65679687 4.97078125 3.02734375 5.6640625 C5.31612326 11.16081009 5.16669407 17.00734407 5.20874023 22.86352539 C5.22341591 24.16952446 5.22341591 24.16952446 5.23838806 25.50190735 C5.2681705 28.3671417 5.28967072 31.23233035 5.30859375 34.09765625 C5.31516558 35.07884367 5.3217374 36.06003109 5.32850838 37.07095146 C5.36101481 42.25732865 5.38549569 47.44368592 5.4050293 52.63012695 C5.42288907 56.92046768 5.45779634 61.21015694 5.50756836 65.50024414 C5.56767111 70.68787599 5.59848916 75.87490088 5.60820198 81.0628643 C5.6167674 83.03768429 5.63561221 85.01248754 5.6649456 86.98710823 C5.70376842 89.74742051 5.70490818 92.50534969 5.69702148 95.26586914 C5.71702209 96.08003296 5.73702271 96.89419678 5.75762939 97.73303223 C5.68767242 103.18542404 5.68767242 103.18542404 3.68174934 105.56152153 C2.18771119 106.79316727 0.59573745 107.90331261 -1 109 C-2.85587461 111.43823935 -2.85587461 111.43823935 -4.25 114 C-4.96929687 115.2375 -4.96929687 115.2375 -5.703125 116.5 C-8.6179154 122.11887307 -9.29014858 126.24383923 -9.1875 132.5 C-9.18685547 133.24636719 -9.18621094 133.99273437 -9.18554688 134.76171875 C-9.15471161 138.63325703 -8.93756411 142.2197415 -8 146 C-9.65 146 -11.3 146 -13 146 C-13.09354241 128.66677393 -13.16402761 111.33362692 -13.20724869 94.00020599 C-13.22785258 85.95154876 -13.25593141 77.90304859 -13.30175781 69.85449219 C-13.34169237 62.83736834 -13.36744861 55.82035828 -13.37635398 48.80312395 C-13.3815576 45.08930401 -13.39374205 41.37580951 -13.42292023 37.66209412 C-13.45526938 33.5109122 -13.45595518 29.36029201 -13.45410156 25.20898438 C-13.46848267 23.98474762 -13.48286377 22.76051086 -13.49768066 21.49917603 C-13.45793936 13.27076085 -12.53543957 7.53543957 -6.5 1.5 C-4 0 -4 0 0 0 Z " fill="#F8A28B" transform="translate(430,30)"/>
<path d="M0 0 C17.44996255 5.90133112 34.74449652 13.04147964 49 25 C49.79664063 25.66128906 50.59328125 26.32257813 51.4140625 27.00390625 C59.26968229 34.1370192 65.54492383 44.56125488 66.203125 55.3203125 C66.36092661 68.12854298 64.37701713 76.97242653 56 87 C54.06851128 88.95343745 52.26748627 90.41803283 50 92 C49.34 92 48.68 92 48 92 C47.96261719 91.12859375 47.92523438 90.2571875 47.88671875 89.359375 C47.43834392 81.23587807 46.31658728 73.79515153 44 66 C43.60748047 64.65808594 43.60748047 64.65808594 43.20703125 63.2890625 C42.23439152 60.0947649 42.23439152 60.0947649 41 57 C40.01 56.505 40.01 56.505 39 56 C39.495 55.649375 39.99 55.29875 40.5 54.9375 C42.80250734 51.96342802 42.32819747 49.67195057 42 46 C34.63344703 33.08579603 22.04399479 25.55215055 8.99291992 19.53686523 C4.12183433 17.25751666 0.37133316 15.25413587 -3 11 C-2.91530412 6.93459765 -1.51649413 3.725164 0 0 Z " fill="#F6947F" transform="translate(77,209)"/>
<path d="M0 0 C3.16642403 1.41655812 3.92904719 2.95370145 5.375 6.0625 C6.64331309 10.32929172 6.50728828 14.54743094 6.48852539 18.96191406 C6.48867142 19.85982666 6.48881744 20.75773926 6.4889679 21.68286133 C6.48827176 24.64797387 6.48049329 27.61302344 6.47265625 30.578125 C6.47079101 32.63507045 6.46936761 34.69201635 6.46836853 36.7489624 C6.4645517 42.16094185 6.45472851 47.57289444 6.44366455 52.98486328 C6.43343252 58.50813432 6.42886707 64.03140971 6.42382812 69.5546875 C6.41310552 80.3906368 6.39603907 91.22656616 6.375 102.0625 C3.64301444 101.54737814 1.13242154 100.97812488 -1.5 100.0625 C-4.87198905 98.9834635 -8.121131 98.52636918 -11.625 98.0625 C-11.71783355 86.9877306 -11.78883284 75.91305435 -11.83224869 64.83797455 C-11.85309011 59.69490274 -11.88134483 54.55209788 -11.92675781 49.40917969 C-11.9703384 44.44248341 -11.99416301 39.47604331 -12.00450897 34.50917053 C-12.01187844 32.61780263 -12.02626928 30.72644815 -12.04792023 28.83518982 C-12.07711682 26.17823396 -12.08094926 23.5223258 -12.07910156 20.86523438 C-12.09348267 20.08983307 -12.10786377 19.31443176 -12.12268066 18.51553345 C-12.07145875 11.67234181 -9.91335179 6.46820316 -5.1875 1.5 C-2.625 0.0625 -2.625 0.0625 0 0 Z " fill="#F9A38B" transform="translate(69.625,29.9375)"/>
<path d="M0 0 C4.21710526 6.32565789 4.21710526 6.32565789 3.7421875 9.98828125 C1.41939298 16.28427691 -7.15273374 19.11245233 -12.8125 21.8125 C-22.89082439 26.66036067 -32.78501951 33.47296094 -39 43 C-40.09683449 46.80666089 -40.57804684 48.79045678 -38.859375 52.38671875 C-38 55 -38 55 -38.79296875 57.5078125 C-39.25316406 58.37148438 -39.71335937 59.23515625 -40.1875 60.125 C-44.98833982 69.90981795 -46.50000324 79.15524261 -47 90 C-54.70178527 83.99260749 -59.78296776 77.66788032 -62 68 C-63.30591714 56.21471658 -62.11990322 45.4543032 -55.0625 35.625 C-52.55583769 32.5432431 -49.91381379 29.70568423 -47 27 C-46.20916016 26.21882813 -46.20916016 26.21882813 -45.40234375 25.421875 C-35.83121349 16.39940826 -13.70837047 2 0 2 C0 1.34 0 0.68 0 0 Z " fill="#F6947F" transform="translate(434,209)"/>
<path d="M0 0 C0.66 0 1.32 0 2 0 C2 5.61 2 11.22 2 17 C0.68 17 -0.64 17 -2 17 C-1.34 11.39 -0.68 5.78 0 0 Z " fill="#E58A76" transform="translate(92,159)"/>
<path d="M0 0 C0.33 0 0.66 0 1 0 C1.06058594 0.73605469 1.12117188 1.47210938 1.18359375 2.23046875 C1.26738281 3.20628906 1.35117187 4.18210938 1.4375 5.1875 C1.51871094 6.15042969 1.59992188 7.11335937 1.68359375 8.10546875 C1.97666151 10.78649602 2.42703754 13.3662986 3 16 C1.68 16 0.36 16 -1 16 C-0.67 10.72 -0.34 5.44 0 0 Z " fill="#E3957F" transform="translate(419,160)"/>
</svg>
