<?xml version="1.0" encoding="UTF-8"?>
<svg version="1.1" xmlns="http://www.w3.org/2000/svg" width="512" height="512">
<path d="M0 0 C9.43837952 2.62880516 19.45977541 1.71404784 29.1640625 1.54296875 C40.57643304 1.35922589 51.94233627 1.17779844 63.3203125 2.2265625 C64.09403198 2.2885231 64.86775146 2.3504837 65.66491699 2.4143219 C70.43497809 2.930144 73.33058887 3.98773459 76.6640625 7.48046875 C76.9765625 10.23046875 76.9765625 10.23046875 76.6640625 12.48046875 C78.8027424 12.71809985 80.94171985 12.95332369 83.08203125 13.17578125 C84.75753036 13.37349521 86.42858043 13.61589061 88.08984375 13.91015625 C90.33814815 14.28046521 92.38584431 14.57446203 94.6640625 14.48046875 C96.3466238 13.16725017 98.01403422 11.83433811 99.6640625 10.48046875 C105.80591884 10.803017 111.212674 12.41842735 116.9765625 14.48046875 C117.83958984 14.78734619 118.70261719 15.09422363 119.59179688 15.41040039 C140.46400576 23.02875663 158.9994752 33.47961124 174.6640625 49.48046875 C177.55453917 48.18963622 179.34605107 46.91885829 181.4140625 44.54296875 C210.48468394 14.72694676 262.36588721 2.51957213 302.53186035 1.40057373 C310.27566271 1.31964472 318.01928448 1.45639509 325.76171875 1.59692383 C339.90695929 2.06216768 339.90695929 2.06216768 353.6484375 -0.82885742 C357.92891591 -2.29560566 361.40375852 -2.07966635 365.4765625 -0.26953125 C367.84182092 1.62267548 368.56500138 2.69879593 369.6640625 5.48046875 C369.89111328 7.95410156 369.89111328 7.95410156 369.859375 10.68359375 C369.85292969 11.66328125 369.84648437 12.64296875 369.83984375 13.65234375 C369.82308594 14.668125 369.80632812 15.68390625 369.7890625 16.73046875 C369.78003906 17.76171875 369.77101563 18.79296875 369.76171875 19.85546875 C369.73818261 22.39737162 369.70530273 24.93880155 369.6640625 27.48046875 C370.3653125 27.18011719 371.0665625 26.87976563 371.7890625 26.5703125 C377.967725 24.09381055 382.16746676 22.68830441 388.6640625 24.48046875 C392.17497688 26.6938713 394.25190517 28.59073182 395.6640625 32.48046875 C395.90313785 35.40188021 395.85219952 38.3018824 395.7890625 41.23046875 C395.78003906 42.02324219 395.77101563 42.81601563 395.76171875 43.6328125 C395.73823262 45.58216156 395.70236387 47.5313545 395.6640625 49.48046875 C396.23850098 49.24336182 396.81293945 49.00625488 397.40478516 48.76196289 C400.0302773 47.68251161 402.65958726 46.61267878 405.2890625 45.54296875 C406.64451172 44.98319336 406.64451172 44.98319336 408.02734375 44.41210938 C419.47367809 39.77509072 419.47367809 39.77509072 425.3515625 41.66796875 C428.73922561 43.52159573 429.87809105 44.15980174 431.6640625 47.48046875 C432.12833876 50.52830929 432.13208922 53.55015215 432.1328125 56.62890625 C432.14042603 57.51905426 432.14803955 58.40920227 432.15588379 59.32632446 C432.16667734 61.20743001 432.16954091 63.08859544 432.16503906 64.96972656 C432.1640681 67.83891534 432.20566755 70.70541695 432.25 73.57421875 C432.25520837 75.40494236 432.25789517 77.23567523 432.2578125 79.06640625 C432.27420776 79.91971527 432.29060303 80.77302429 432.30749512 81.65219116 C432.25732907 86.00539901 431.91889282 88.07899024 429.52587891 91.84912109 C426.55096775 94.58445572 423.91696626 96.24871161 420.28125 97.99609375 C419.66750519 98.296828 419.05376038 98.59756226 418.42141724 98.90740967 C416.46688199 99.862014 414.50374866 100.7969634 412.5390625 101.73046875 C409.99226774 102.95966231 407.44921485 104.19650006 404.90625 105.43359375 C404.25067108 105.7510405 403.59509216 106.06848724 402.91964722 106.39555359 C396.87929891 109.33622443 390.94163686 112.45904343 385.00579834 115.60414124 C376.83348821 119.93194622 368.60492518 124.14632225 360.36871338 128.35092163 C355.88244519 130.64139692 351.39823963 132.93590304 346.9140625 135.23046875 C346.02695587 135.68435471 345.13984924 136.13824066 344.2258606 136.60588074 C336.7363761 140.43963317 329.2594051 144.29707445 321.7890625 148.16796875 C310.77747522 153.87353258 299.75519346 159.55793062 288.7265625 165.23046875 C287.96273254 165.62350189 287.19890259 166.01653503 286.41192627 166.42147827 C284.23705726 167.54048982 282.06193442 168.65900624 279.88671875 169.77734375 C278.92305641 170.27319725 278.92305641 170.27319725 277.93992615 170.77906799 C274.19339649 172.70420804 270.43495445 174.60351171 266.6640625 176.48046875 C269.80376087 178.573601 272.99359525 179.96626322 276.4609375 181.39453125 C277.14866241 181.6807132 277.83638733 181.96689514 278.54495239 182.26174927 C280.83332836 183.21288941 283.12365041 184.15924332 285.4140625 185.10546875 C287.04060642 185.78008282 288.66706976 186.45489119 290.29345703 187.12988281 C303.30610785 192.5253142 316.33865643 197.87246128 329.37475586 203.2109375 C344.19923333 209.28256277 359.00692268 215.39450663 373.80981445 221.51855469 C382.85354942 225.25925253 391.90045401 228.99143582 400.9609375 232.69140625 C402.55040233 233.34156571 404.13983998 233.99179163 405.72924805 234.64208984 C408.64303838 235.83423851 411.55880974 237.02134705 414.47583008 238.20556641 C415.76913081 238.73448579 417.06234897 239.26360714 418.35546875 239.79296875 C419.46092041 240.24285156 420.56637207 240.69273437 421.70532227 241.15625 C426.04941201 243.1004981 428.99257552 244.47323829 431.6640625 248.48046875 C431.93821716 251.23054504 431.93821716 251.23054504 431.97045898 254.60083008 C431.98644638 255.86256546 432.00243378 257.12430084 432.01890564 258.42427063 C432.02528306 259.80367631 432.03067558 261.18308685 432.03515625 262.5625 C432.04412491 263.9787353 432.0532468 265.39496963 432.06251526 266.811203 C432.07900579 269.78114116 432.08670519 272.7509666 432.08959961 275.72094727 C432.0949774 279.5175627 432.1326299 283.31311104 432.17834377 287.10942554 C432.20816415 290.03577998 432.21532425 292.96187929 432.21632576 295.88837242 C432.22051987 297.2873796 432.23292191 298.68638811 432.25384331 300.08524513 C432.42312548 312.38512139 432.42312548 312.38512139 429.37597656 316.31079102 C426.06208114 318.96208635 424.48765822 319.59291547 420.35400391 319.78613281 C414.51556071 319.12269745 409.22018879 316.62802461 403.8515625 314.35546875 C402.65724609 313.86820312 401.46292969 313.3809375 400.23242188 312.87890625 C390.89097745 309.05486368 390.89097745 309.05486368 386.42041016 306.96191406 C379.98907807 304.0158767 375.5761441 302.68216531 368.6640625 304.48046875 C367.9201123 304.66883301 367.17616211 304.85719727 366.40966797 305.05126953 C363.3592124 305.88131214 360.34415821 306.81158485 357.32617188 307.75195312 C347.23078126 310.7447958 341.49452982 309.49545908 332.3515625 304.60546875 C331.39677002 304.11095215 330.44197754 303.61643555 329.45825195 303.10693359 C326.5186768 301.57986261 323.59126551 300.03109521 320.6640625 298.48046875 C318.88355839 297.55195371 317.102339 296.62480863 315.3203125 295.69921875 C307.61581509 291.68379247 307.61581509 291.68379247 303.83129883 289.63647461 C302.2818271 288.80998496 300.71715707 288.0117391 299.14331055 287.23266602 C298.32258057 286.81299561 297.50185059 286.3933252 296.65625 285.9609375 C295.90585449 285.58864014 295.15545898 285.21634277 294.38232422 284.83276367 C292.6640625 283.48046875 292.6640625 283.48046875 292.14868164 281.31469727 C292.12535767 280.25206665 292.12535767 280.25206665 292.1015625 279.16796875 C291.98503919 276.75005908 291.98503919 276.75005908 290.6640625 274.48046875 C285.85838734 270.96390982 280.12721848 268.76404306 274.6640625 266.48046875 C274.1278125 266.97546875 273.5915625 267.47046875 273.0390625 267.98046875 C269.92873968 269.94488317 268.31978374 269.81615678 264.6640625 269.48046875 C262.17513617 268.45947709 259.93482906 267.40978489 257.58203125 266.140625 C256.56372978 265.61051064 256.56372978 265.61051064 255.52485657 265.06968689 C253.29434153 263.90533296 251.07317444 262.72420798 248.8515625 261.54296875 C247.29102035 260.72465967 245.72981195 259.90762 244.16796875 259.09179688 C240.9365337 257.40248854 237.70822776 255.70740522 234.48193359 254.00830078 C229.89565999 251.59685649 225.29337862 249.21769929 220.68359375 246.8515625 C219.96780151 246.48401352 219.25200928 246.11646454 218.51452637 245.73777771 C215.70305308 244.29482568 212.89103778 242.85293481 210.07855225 241.41195679 C203.54386604 238.06211431 197.02162339 234.70506092 190.58984375 231.16015625 C189.708125 230.67804688 188.82640625 230.1959375 187.91796875 229.69921875 C186.35915936 228.84125006 184.80748508 227.97009907 183.265625 227.08203125 C178.83193545 224.64650353 176.52589654 224.29324147 171.6640625 225.48046875 C168.81959821 226.66628272 168.81959821 226.66628272 165.96484375 228.2265625 C164.30243652 229.09740479 164.30243652 229.09740479 162.60644531 229.98583984 C162.01754517 230.29930359 161.42864502 230.61276733 160.82189941 230.93572998 C158.92903699 231.9432657 157.03122116 232.94085542 155.13183594 233.93603516 C153.09731613 235.0022391 151.0631851 236.06913224 149.03060913 237.13903809 C141.9157985 240.8836644 134.76560478 244.55832233 127.61184692 248.22784424 C123.90675049 250.1288303 120.2034715 252.03335078 116.5 253.9375 C115.76409134 254.31577942 115.02818268 254.69405884 114.26997375 255.08380127 C106.52401166 259.06567755 98.78125808 263.05377515 91.0390625 267.04296875 C90.02398621 267.56597565 90.02398621 267.56597565 88.98840332 268.09954834 C85.57784348 269.85682036 82.16732749 271.61417747 78.75683594 273.37158203 C75.33333549 275.13565873 71.9097332 276.89953762 68.48600769 278.66317749 C67.10875283 279.37270173 65.73156584 280.08235772 64.35444641 280.79214478 C60.93571714 282.55398819 57.51586764 284.31358135 54.09350586 286.06835938 C47.65263329 289.3738758 41.22610794 292.70160274 34.83590698 296.10427856 C31.82188492 297.70753793 28.80160085 299.29879086 25.78076172 300.88916016 C24.34447595 301.64962246 22.91127082 302.41593611 21.48144531 303.18847656 C19.49650602 304.26047554 17.50176841 305.31170799 15.50390625 306.359375 C14.37331787 306.96338135 13.24272949 307.5673877 12.07788086 308.18969727 C6.35145831 310.35486897 1.16755925 309.93833372 -4.68359375 308.1328125 C-6.08641602 307.71999023 -6.08641602 307.71999023 -7.51757812 307.29882812 C-9.44281718 306.71016181 -11.36729584 306.11900301 -13.29101562 305.52539062 C-14.6919043 305.11450195 -14.6919043 305.11450195 -16.12109375 304.6953125 C-16.95519775 304.4387085 -17.78930176 304.18210449 -18.64868164 303.91772461 C-25.07365423 302.87228753 -30.56967756 305.14553957 -36.359375 307.60546875 C-37.89055956 308.23583607 -39.42181167 308.86603932 -40.953125 309.49609375 C-43.33297837 310.4864736 -45.71119667 311.48057757 -48.08789062 312.47851562 C-50.40358926 313.44738705 -52.72481794 314.40195724 -55.046875 315.35546875 C-55.74404633 315.65340332 -56.44121765 315.95133789 -57.15951538 316.25830078 C-62.88001936 318.59721977 -69.28458887 320.7408084 -75.2109375 318.29296875 C-78.34749557 315.61766922 -80.15614445 313.79198838 -80.73034668 309.60340881 C-80.73876587 308.49041916 -80.74718506 307.3774295 -80.75585938 306.23071289 C-80.77972717 304.33338158 -80.77972717 304.33338158 -80.80407715 302.39772034 C-80.80534442 301.02035579 -80.80552126 299.64298987 -80.8046875 298.265625 C-80.81179114 296.84842121 -80.81949044 295.4312203 -80.82775879 294.01402283 C-80.84119578 291.04580691 -80.84277602 288.07785694 -80.83691406 285.10961914 C-80.83101819 281.3117603 -80.86160589 277.51517997 -80.90203094 273.7175684 C-80.92792108 270.79122583 -80.93078429 267.86519062 -80.92713928 264.93874931 C-80.92882932 263.53893253 -80.93846094 262.13910138 -80.95628357 260.73939705 C-80.97849263 258.77959617 -80.96555427 256.81949308 -80.95117188 254.85961914 C-80.95322632 253.74583389 -80.95528076 252.63204865 -80.95739746 251.48451233 C-80.13365389 247.50266031 -78.42509748 246.03936548 -75.3359375 243.48046875 C-72.96367168 242.23656618 -70.7275055 241.18602271 -68.2578125 240.1953125 C-67.55577698 239.90207092 -66.85374146 239.60882935 -66.13043213 239.30670166 C-63.78708655 238.33166815 -61.4367465 237.37485273 -59.0859375 236.41796875 C-57.39933241 235.72079217 -55.71314483 235.0226048 -54.02734375 234.32348633 C-49.43542286 232.42378585 -44.83669874 230.54115614 -40.2355957 228.66381836 C-37.31965999 227.4738259 -34.40480647 226.28121863 -31.49023438 225.08789062 C-23.36897214 221.76365076 -15.24578323 218.44419001 -7.11767578 215.13671875 C7.2866039 209.27528202 21.66965209 203.36435319 36.0390625 197.41796875 C52.22651227 190.72007746 68.42700469 184.05736133 84.6640625 177.48046875 C81.93664288 175.33026438 79.24636587 173.65788444 76.12890625 172.1328125 C75.23494141 171.69130859 74.34097656 171.24980469 73.41992188 170.79492188 C72.48986328 170.34052734 71.55980469 169.88613281 70.6015625 169.41796875 C62.73033424 165.56089237 54.95560462 161.54493814 47.20674133 157.44937134 C38.96370538 153.09816164 30.67037537 148.84802768 22.36871338 144.61001587 C17.88244519 142.31954058 13.39823963 140.02503446 8.9140625 137.73046875 C8.02695587 137.27658279 7.13984924 136.82269684 6.2258606 136.35505676 C-2.39849638 131.94038048 -11.00496909 127.49177751 -19.60644531 123.03271484 C-26.23355568 119.59849535 -32.86706243 116.17728794 -39.5078125 112.76953125 C-40.29346588 112.36621078 -41.07911926 111.96289032 -41.88858032 111.54734802 C-45.72546407 109.57778513 -49.56304992 107.60961332 -53.40185547 105.64379883 C-56.78177823 103.91168788 -60.15554324 102.16807721 -63.5255127 100.41668701 C-65.23194175 99.53424769 -66.94535637 98.66535461 -68.65917969 97.79736328 C-69.63274414 97.29188965 -70.60630859 96.78641602 -71.609375 96.265625 C-72.84953369 95.6315271 -72.84953369 95.6315271 -74.11474609 94.98461914 C-76.98608926 93.04019781 -78.54284483 91.47894894 -80.3359375 88.48046875 C-80.90582165 85.38145381 -80.89695208 82.34345423 -80.8671875 79.19921875 C-80.8710144 78.30811401 -80.87484131 77.41700928 -80.87878418 76.49890137 C-80.88149967 74.619536 -80.8741639 72.7401326 -80.85742188 70.86083984 C-80.83600636 67.98970002 -80.85723511 65.12106231 -80.8828125 62.25 C-80.88016916 60.42056741 -80.87504405 58.59113638 -80.8671875 56.76171875 C-80.87528442 55.9063855 -80.88338135 55.05105225 -80.89172363 54.1697998 C-80.82879302 50.15530893 -80.65046652 47.99457031 -78.51367188 44.50195312 C-75.33467602 41.55104666 -72.61267157 40.40126997 -68.3359375 40.48046875 C-63.4992233 41.74722723 -58.95034462 43.5698158 -54.3359375 45.48046875 C-52.37769293 46.25152755 -50.41937168 47.02239167 -48.4609375 47.79296875 C-47.08481252 48.35271091 -45.70931881 48.91402807 -44.3359375 49.48046875 C-44.38234375 48.32289063 -44.42875 47.1653125 -44.4765625 45.97265625 C-44.51409998 44.43361969 -44.55049801 42.89455505 -44.5859375 41.35546875 C-44.61945312 40.59492188 -44.65296875 39.834375 -44.6875 39.05078125 C-44.77988393 33.69251357 -43.89826504 30.72810794 -40.3359375 26.48046875 C-36.03277015 23.37818531 -32.83270037 23.24881801 -27.77734375 23.86328125 C-24.43967082 24.70704497 -21.47576106 26.06888343 -18.3359375 27.48046875 C-18.35164795 26.51222168 -18.35164795 26.51222168 -18.36767578 25.52441406 C-18.40931022 22.59313873 -18.43528725 19.66192571 -18.4609375 16.73046875 C-18.47769531 15.7146875 -18.49445312 14.69890625 -18.51171875 13.65234375 C-18.52138672 12.1828125 -18.52138672 12.1828125 -18.53125 10.68359375 C-18.54696045 9.33249512 -18.54696045 9.33249512 -18.56298828 7.95410156 C-18.31885097 5.29431741 -17.75315674 3.72906585 -16.3359375 1.48046875 C-11.01546444 -2.7759097 -6.10106834 -2.15896675 0 0 Z " fill="#010101" transform="translate(80.3359375,190.51953125)"/>
<path d="M0 0 C0 7.59 0 15.18 0 23 C-13.73757184 30.27283215 -27.53947063 37.41401002 -41.36146545 44.52441406 C-42.07749435 44.89276367 -42.79352325 45.26111328 -43.53125 45.640625 C-44.24731918 46.00897461 -44.96338837 46.37732422 -45.70115662 46.75683594 C-52.59828542 50.30578827 -59.48711434 53.87064495 -66.375 57.4375 C-79.21664794 64.08520195 -92.07467222 70.70081164 -104.9354248 77.3114624 C-106.03860046 77.87851898 -106.03860046 77.87851898 -107.1640625 78.45703125 C-107.89983521 78.8352301 -108.63560791 79.21342896 -109.39367676 79.60308838 C-117.1397347 83.5851268 -124.88266272 87.57323338 -132.625 91.5625 C-133.30171753 91.91117126 -133.97843506 92.25984253 -134.67565918 92.61907959 C-138.08621902 94.37635161 -141.49673501 96.13370872 -144.90722656 97.89111328 C-151.08304904 101.07341884 -157.25928508 104.25492162 -163.43548584 107.43649292 C-166.87367378 109.20762982 -170.31183558 110.97881745 -173.75 112.75 C-175.12499987 113.45833358 -176.49999987 114.16666691 -177.875 114.875 C-178.555625 115.225625 -179.23625 115.57625 -179.9375 115.9375 C-186.12499989 119.12499994 -186.12499989 119.12499994 -188.18753052 120.18751526 C-189.56242929 120.89579676 -190.93732757 121.60407923 -192.31222534 122.31236267 C-195.75126994 124.0839971 -199.19032328 125.85561457 -202.62939453 127.62719727 C-208.79843924 130.80510294 -214.9674261 133.98312059 -221.13607788 137.16178894 C-224.5490086 138.92044337 -227.9620019 140.67897633 -231.375 142.4375 C-232.05040833 142.78551666 -232.72581665 143.13353333 -233.42169189 143.49209595 C-241.24793814 147.52455074 -249.07570419 151.55402514 -256.90625 155.578125 C-270.11430633 162.36601486 -283.32095871 169.15588876 -296.5 176 C-306.53100084 181.20834633 -316.57367081 186.39351292 -326.625 191.5625 C-327.70959503 192.12026627 -327.70959503 192.12026627 -328.81610107 192.68930054 C-337.69581858 197.25478905 -346.58039414 201.81072815 -355.46875 206.359375 C-356.34893799 206.81000809 -357.22912598 207.26064117 -358.13598633 207.72492981 C-362.54464053 209.98176369 -366.95458918 212.23599407 -371.3671875 214.48510742 C-378.9190449 218.33870781 -386.45301061 222.21230205 -393.90625 226.25390625 C-395.06108887 226.87483154 -396.21592773 227.49575684 -397.40576172 228.13549805 C-399.4732931 229.25267999 -401.533028 230.38448211 -403.58251953 231.53442383 C-408.8854998 234.39064746 -411.96282062 235.70453546 -418 234 C-419.59213825 233.60162494 -421.1846131 233.20459374 -422.77734375 232.80859375 C-425.36462464 232.12669008 -427.94847899 231.43449671 -430.52929688 230.72851562 C-431.79676758 230.3969043 -431.79676758 230.3969043 -433.08984375 230.05859375 C-433.84128662 229.85548584 -434.59272949 229.65237793 -435.36694336 229.44311523 C-442.58064446 228.22912659 -447.58460099 229.17507663 -454.1484375 232.0625 C-454.8870401 232.37324463 -455.6256427 232.68398926 -456.3866272 233.00415039 C-458.7220003 233.98947047 -461.04856132 234.99378995 -463.375 236 C-465.72430551 237.00238317 -468.07524802 238.00073898 -470.42764282 238.99584961 C-471.88550501 239.61400514 -473.34130019 240.23706305 -474.79476929 240.86547852 C-479.78081575 243 -479.78081575 243 -482 243 C-482 228.15 -482 213.3 -482 198 C-473.00118079 193.5005904 -473.00118079 193.5005904 -468.86474609 191.82788086 C-467.93090088 191.44830734 -466.99705566 191.06873383 -466.03491211 190.67765808 C-465.04112549 190.27742935 -464.04733887 189.87720062 -463.0234375 189.46484375 C-461.4305188 188.81851738 -461.4305188 188.81851738 -459.80541992 188.15913391 C-457.52095141 187.23247 -455.23591918 186.30719482 -452.95037842 185.38317871 C-447.46170277 183.16387194 -441.97657159 180.93584227 -436.4915657 178.7074852 C-435.24388668 178.20063289 -433.99616253 177.69389162 -432.74839401 177.18725967 C-420.60404038 172.25604244 -408.4848212 167.26533931 -396.375 162.25 C-381.5972747 156.13219566 -366.80692186 150.04680578 -352 144 C-336.98551835 137.86809442 -321.98673692 131.69940399 -307 125.5 C-292.01326222 119.30059565 -277.01441542 113.13206898 -262 107 C-246.8818062 100.82537572 -231.77860783 94.61553429 -216.6875 88.375 C-202.48653282 82.50277532 -188.28104776 76.64204154 -174.0625 70.8125 C-173.26941437 70.48730377 -172.47632874 70.16210754 -171.65921021 69.82705688 C-164.50278862 66.89287753 -157.34561403 63.96053747 -150.18798828 61.02929688 C-145.33334518 59.04112965 -140.47902513 57.05217549 -135.625 55.0625 C-134.81988983 54.73251007 -134.01477966 54.40252014 -133.18527222 54.06253052 C-119.97727675 48.6473893 -106.79028717 43.18264964 -93.60848999 37.70410156 C-76.9185917 30.77021386 -60.18887391 23.93516264 -43.44775391 17.12597656 C-41.50549293 16.33538699 -39.56327239 15.54469807 -37.62109375 14.75390625 C-36.20899628 14.17949295 -36.20899628 14.17949295 -34.76837158 13.59347534 C-29.59070399 11.48232363 -24.42503832 9.34511378 -19.27001953 7.17919922 C-18.16513687 6.71545395 -17.06025421 6.25170868 -15.92189026 5.77391052 C-13.78538454 4.87550487 -11.65018799 3.97397799 -9.51646423 3.06898499 C-8.08337669 2.46624001 -8.08337669 2.46624001 -6.62133789 1.85131836 C-5.77551651 1.49323593 -4.92969513 1.1351535 -4.0582428 0.76622009 C-2 0 -2 0 0 0 Z " fill="#925A43" transform="translate(497,249)"/>
<path d="M0 0 C0.83396805 0.33975861 1.6679361 0.67951721 2.5271759 1.02957153 C3.42707748 1.40153656 4.32697906 1.77350159 5.25415039 2.15673828 C6.20936081 2.54747528 7.16457123 2.93821228 8.14872742 3.34078979 C11.30155892 4.63185575 14.4516874 5.92938266 17.60180664 7.22705078 C19.81244443 8.13396019 22.02322115 9.04053103 24.23413086 9.94677734 C31.04709333 12.74149817 37.85625068 15.54540167 44.66430664 18.35205078 C45.70165955 18.77965698 46.73901245 19.20726318 47.80780029 19.64782715 C57.49430555 23.6415449 67.17800997 27.6420187 76.86000061 31.64666748 C88.24655139 36.35613409 99.63954304 41.04965816 111.03930664 45.72705078 C112.22659363 46.21439194 112.22659363 46.21439194 113.43786621 46.71157837 C122.00537889 50.22742076 130.57895851 53.72762814 139.16430664 57.19970703 C140.29952255 57.65917725 140.29952255 57.65917725 141.45767212 58.12792969 C145.03215308 59.57446219 148.60765133 61.01835752 152.18530273 62.45703125 C153.43615182 62.96231501 154.68696769 63.46768101 155.93774414 63.97314453 C157.02490723 64.41070068 158.11207031 64.84825684 159.23217773 65.29907227 C161.66430664 66.35205078 161.66430664 66.35205078 162.66430664 67.35205078 C162.75717925 68.76430124 162.78177436 70.18114013 162.77783203 71.59643555 C162.7777565 72.49729385 162.77768097 73.39815216 162.77760315 74.3263092 C162.77244186 75.30546799 162.76728058 76.28462677 162.76196289 77.29345703 C162.75984047 78.78956764 162.75984047 78.78956764 162.75767517 80.31590271 C162.75205778 83.51548202 162.73950235 86.71499247 162.72680664 89.91455078 C162.72179388 92.07796123 162.71723059 94.24137278 162.71313477 96.40478516 C162.70208271 101.72056403 162.68532768 107.03630249 162.66430664 112.35205078 C158.30914549 111.68023021 154.47806997 110.14022348 150.45727539 108.41064453 C149.05191316 107.82088739 147.64630634 107.23171283 146.24047852 106.64306641 C144.04590862 105.71871445 141.85341749 104.79024192 139.66503906 103.85131836 C137.53848069 102.94151079 135.40497046 102.04995837 133.26977539 101.16064453 C132.62679001 100.87942245 131.98380463 100.59820038 131.32133484 100.30845642 C124.79884048 97.62133003 119.02325988 97.63509775 112.28149414 99.69970703 C111.34176758 99.97492188 110.40204102 100.25013672 109.43383789 100.53369141 C107.49591159 101.12343821 105.5584142 101.71459619 103.62133789 102.30712891 C93.68767628 105.2107095 88.45543618 103.04512265 79.47680664 98.41455078 C78.51444092 97.92817139 77.5520752 97.44179199 76.56054688 96.94067383 C71.74816053 94.49675736 66.9753123 91.99347772 62.24243164 89.39892578 C61.39575928 88.9386499 60.54908691 88.47837402 59.67675781 88.00415039 C58.08354987 87.1330062 56.49726934 86.24902869 54.91943359 85.3503418 C50.33122369 82.84000498 47.03660605 81.71961553 41.66430664 82.35205078 C39.72060926 83.70634919 39.72060926 83.70634919 38.66430664 85.35205078 C32.12906935 83.34045372 26.0478905 80.62446294 20.66430664 76.35205078 C20.22680664 72.66455078 20.22680664 72.66455078 20.66430664 69.35205078 C16.85985006 65.59404782 12.18220759 63.38278996 7.45336914 61.00830078 C6.6565976 60.60230652 5.85982605 60.19631226 5.03890991 59.77801514 C2.45826706 58.46425723 -0.12622054 57.15825538 -2.71069336 55.85205078 C-4.48968985 54.94746662 -6.26833453 54.04219026 -8.04663086 53.13623047 C-10.6959795 51.78652107 -13.34547537 50.43711716 -15.99603271 49.08978271 C-22.79643132 45.63263474 -29.57583917 42.13795636 -36.33569336 38.60205078 C-37.22506592 38.13702148 -38.11443848 37.67199219 -39.03076172 37.19287109 C-46.48701051 33.28582803 -53.91988179 29.33526711 -61.33569336 25.35205078 C-59.08535064 22.86130603 -56.90895637 21.46744491 -53.89819336 20.00439453 C-53.01212402 19.56877197 -52.12605469 19.13314941 -51.21313477 18.68432617 C-50.2635791 18.22405029 -49.31402344 17.76377441 -48.33569336 17.28955078 C-46.34266897 16.30947997 -44.35049673 15.32767459 -42.35913086 14.34423828 C-41.35333984 13.84762695 -40.34754883 13.35101563 -39.3112793 12.83935547 C-34.055494 10.21232527 -28.86699106 7.4600766 -23.67944336 4.70141602 C-22.25628644 3.9453639 -20.83091546 3.19346067 -19.40307617 2.44628906 C-17.99076122 1.69876951 -16.58931418 0.93044372 -15.19799805 0.14453125 C-14.50867188 -0.23171387 -13.8193457 -0.60795898 -13.10913086 -0.99560547 C-12.50246582 -1.3372876 -11.89580078 -1.67896973 -11.27075195 -2.03100586 C-7.43645589 -3.25347194 -3.58702765 -1.47222705 0 0 Z " fill="#C58C79" transform="translate(334.335693359375,379.64794921875)"/>
<path d="M0 0 C7.71247774 2.43869408 15.19972177 5.38650709 22.71014404 8.37625122 C26.92313702 10.05304232 31.13962595 11.72101515 35.35546875 13.390625 C36.27455017 13.75487076 37.19363159 14.11911652 38.14056396 14.49440002 C48.86445186 18.74273754 59.60115987 22.95838882 70.3380127 27.17382812 C73.90742242 28.57522951 77.47667918 29.97701984 81.04589844 31.37890625 C92.00169214 35.68186453 102.95794436 39.98365456 113.91448975 44.28469849 C116.31906289 45.22874724 118.72356348 46.17298084 121.12799072 47.11740112 C127.01882715 49.43120319 132.9104995 51.74281654 138.80419922 54.04931641 C149.82737406 58.36720241 160.82964932 62.72745917 171.79296875 67.1953125 C174.75903701 68.39645078 177.72565088 69.59623022 180.69247437 70.79550171 C183.42012669 71.90501047 186.13926285 73.03373284 188.85864258 74.16333008 C190.49910456 74.82734143 192.1399506 75.49040503 193.78125 76.15234375 C194.50253586 76.45943268 195.22382172 76.76652161 195.96696472 77.08291626 C203.76272527 80.17363281 209.67266702 78.40148821 217.3203125 75.3671875 C218.00383286 75.09900711 218.68735321 74.83082672 219.3915863 74.55451965 C221.63961021 73.6700613 223.88219519 72.77260121 226.125 71.875 C227.72875056 71.24109585 229.33284331 70.60805684 230.93725586 69.97583008 C234.28849274 68.65350786 237.63753564 67.32583891 240.98486328 65.99365234 C245.75518573 64.09557923 250.53096489 62.21162495 255.30859375 60.33203125 C264.03210994 56.8983658 272.75028309 53.45128484 281.46759033 50.00189209 C285.85177431 48.26738629 290.23644509 46.53411198 294.62109375 44.80078125 C296.42830488 44.08634652 298.23551516 43.37190967 300.04272461 42.6574707 C300.9421579 42.30190094 301.84159119 41.94633118 302.76828003 41.57998657 C305.50254678 40.49899313 308.23675526 39.41785241 310.97094727 38.33666992 C319.53188769 34.95151647 328.09324261 31.56742197 336.65625 28.1875 C337.43397766 27.88050674 338.21170532 27.57351349 339.01300049 27.25721741 C342.8661242 25.73641522 346.71949452 24.21624188 350.57324219 22.69702148 C358.32517006 19.6402289 366.07378012 16.57537446 373.81652832 13.49539185 C377.81778486 11.90396658 381.82000569 10.31497405 385.82226562 8.72607422 C387.76481747 7.95404269 389.70688031 7.18077955 391.6484375 6.40625 C394.34255076 5.33158986 397.03827381 4.26106728 399.734375 3.19140625 C400.54388611 2.86721207 401.35339722 2.54301788 402.18743896 2.20899963 C407.77235217 0 407.77235217 0 410 0 C410 5.61 410 11.22 410 17 C408.71988037 17.52207031 407.43976074 18.04414063 406.12084961 18.58203125 C370.47003366 33.12261203 334.82001099 47.66310544 299.26379395 62.43377686 C283.75983108 68.87305729 268.22982227 75.24749915 252.68237305 81.58105469 C244.43319612 84.94364443 236.19367661 88.32327272 227.9921875 91.80078125 C226.6338351 92.37405116 225.27543828 92.94721581 223.91699219 93.52026367 C221.47217139 94.5519261 219.03443574 95.59651577 216.59863281 96.6496582 C215.53741211 97.09784912 214.47619141 97.54604004 213.3828125 98.0078125 C212.47934082 98.39598145 211.57586914 98.78415039 210.64501953 99.18408203 C203.97236674 101.24241742 199.19208658 99.17497765 193.07421875 96.546875 C192.19566727 96.17983459 191.31711578 95.81279419 190.41194153 95.43463135 C188.50379209 94.63604459 186.59766722 93.83260693 184.69335938 93.02490234 C180.57797345 91.27940646 176.45304749 89.55698875 172.32876587 87.8326416 C170.16188056 86.92625941 167.995527 86.01860501 165.8296814 85.10974121 C155.43150267 80.74837847 144.9941606 76.48588413 134.54858398 72.23956299 C116.62414954 64.95143655 98.72729959 57.59827616 80.84805298 50.20007324 C64.51450048 43.44204276 48.16167105 36.73213391 31.79760742 30.04833984 C30.08772503 29.34994185 28.3778454 28.65153707 26.66796875 27.953125 C25.85547165 27.62128204 25.04297455 27.28943909 24.20585632 26.94754028 C16.13058267 23.64779523 8.06483717 20.32516762 0 17 C0 11.39 0 5.78 0 0 Z " fill="#6CD19E" transform="translate(51,231)"/>
<path d="M0 0 C11.46016664 4.21296624 22.77891537 8.71167928 34.0625 13.375 C35.771947 14.07928005 37.48150365 14.78329399 39.19116211 15.48706055 C42.72289974 16.94107377 46.25417321 18.39620612 49.78515625 19.85205078 C54.71886146 21.8853305 59.65565701 23.91099701 64.59375 25.93359375 C65.3731192 26.25284821 66.1524884 26.57210266 66.95547485 26.90103149 C68.53177867 27.54673331 70.10808279 28.1924344 71.68438721 28.83813477 C87.66845424 35.38715938 103.63545158 41.97705478 119.59786987 48.5786438 C134.83547798 54.87954071 150.09184834 61.133331 165.3576355 67.36560059 C183.60989293 74.81926208 201.8142441 82.38569419 220 90 C217.77559104 92.48315605 215.76762958 93.73253784 212.69970703 95.00878906 C211.835159 95.3721637 210.97061096 95.73553833 210.0798645 96.10992432 C209.14858734 96.49130554 208.21731018 96.87268677 207.2578125 97.265625 C205.81702835 97.86210846 205.81702835 97.86210846 204.34713745 98.47064209 C202.31621319 99.30825434 200.28362295 100.14183687 198.24951172 100.97167969 C195.13777771 102.2447723 192.03569536 103.5395809 188.93359375 104.8359375 C186.9588846 105.64717651 184.98364109 106.45711628 183.0078125 107.265625 C182.0805838 107.65510315 181.1533551 108.0445813 180.19802856 108.44586182 C178.89175003 108.9720108 178.89175003 108.9720108 177.55908203 109.50878906 C176.41682663 109.97819916 176.41682663 109.97819916 175.25149536 110.45709229 C170.43319747 111.61893838 166.59986237 109.4660493 162.3984375 107.25390625 C161.28694336 106.67334473 160.17544922 106.0927832 159.03027344 105.49462891 C158.4372644 105.18116516 157.84425537 104.86770142 157.23327637 104.54473877 C155.33060489 103.53903385 153.42418578 102.54078602 151.51660156 101.54443359 C149.47463084 100.47780506 147.43291256 99.41072061 145.39233398 98.34143066 C138.26357312 94.60663177 131.10666856 90.92729569 123.94677734 87.25262451 C120.24230093 85.35108523 116.53919079 83.44688865 112.8359375 81.54296875 C112.1000238 81.16468933 111.36411011 80.78640991 110.605896 80.39666748 C102.85994905 76.41477162 95.11719157 72.42669154 87.375 68.4375 C86.69828247 68.08882874 86.02156494 67.74015747 85.32434082 67.38092041 C81.91378098 65.62364839 78.50326499 63.86629128 75.09277344 62.10888672 C70.29202815 59.63513711 65.49105362 57.1618326 60.68997192 54.68873596 C57.27182234 52.92799411 53.8537877 51.16703002 50.43603516 49.40551758 C43.99098111 46.08403658 37.54468799 42.76502059 31.09448242 39.45355225 C28.04651717 37.88859032 24.99918637 36.32239522 21.9519043 34.75610352 C20.49860809 34.00955497 19.04500099 33.26361127 17.59106445 32.51831055 C15.57554525 31.48509003 13.56110538 30.44979273 11.546875 29.4140625 C9.82742676 28.53161865 9.82742676 28.53161865 8.07324219 27.63134766 C7.05907227 27.09300293 6.04490234 26.5546582 5 26 C4.0500415 25.54439697 3.10008301 25.08879395 2.12133789 24.61938477 C0 23 0 23 -0.56762695 20.5480957 C-0.54144287 19.60023193 -0.51525879 18.65236816 -0.48828125 17.67578125 C-0.47216797 16.64775391 -0.45605469 15.61972656 -0.43945312 14.56054688 C-0.39755859 13.48869141 -0.35566406 12.41683594 -0.3125 11.3125 C-0.27866211 9.68731445 -0.27866211 9.68731445 -0.24414062 8.02929688 C-0.1851579 5.35148095 -0.10290307 2.67642973 0 0 Z " fill="#C48B78" transform="translate(15,249)"/>
<path d="M0 0 C0 4.29 0 8.58 0 13 C-0.94053223 13.38518799 -1.88106445 13.77037598 -2.85009766 14.16723633 C-22.47524879 22.20592734 -42.08955138 30.27020489 -61.6875 38.375 C-77.6863035 44.99108062 -93.70047576 51.56831333 -109.7281189 58.11419678 C-123.83283986 63.87559293 -137.92090253 69.67628605 -152 75.5 C-167.63412493 81.96623156 -183.27884028 88.40589564 -198.9375 94.8125 C-199.84830322 95.18536133 -200.75910645 95.55822266 -201.69750977 95.94238281 C-206.70119487 97.99036035 -211.70658702 100.03404993 -216.71502686 102.07037354 C-218.23879721 102.69030959 -219.76211318 103.31136365 -221.28497314 103.93353271 C-223.39823833 104.79637053 -225.51327349 105.65470565 -227.62890625 106.51171875 C-228.81685791 106.99471436 -230.00480957 107.47770996 -231.22875977 107.9753418 C-234 109 -234 109 -236 109 C-236 109.99 -236 110.98 -236 112 C-235.01 112.33 -234.02 112.66 -233 113 C-230.51465481 116.72801778 -230.73630835 118.47331786 -231.33203125 122.76953125 C-232.52233291 126.74416426 -234.44339816 127.91972345 -238 130 C-242.15150411 130.86489669 -243.63901152 130.21114421 -247.3125 128.0625 C-249.97480696 125.66465777 -250.39608509 123.83668401 -250.66796875 120.30859375 C-250.73653076 119.50091553 -250.80509277 118.6932373 -250.87573242 117.86108398 C-250.91674072 117.24692627 -250.95774902 116.63276855 -251 116 C-251.88631104 116.37060547 -252.77262207 116.74121094 -253.68579102 117.12304688 C-271.86255279 124.72095447 -290.05706545 132.27315437 -308.28875732 139.73834229 C-321.76616961 145.25704784 -335.2295904 150.80891586 -348.6875 156.375 C-364.67719923 162.98748521 -380.68240258 169.56079732 -396.70092773 176.1031189 C-414.19907984 183.25086161 -431.67272342 190.45727 -449.13894653 197.68264771 C-450.90648157 198.41349776 -452.67427681 199.14371889 -454.44235229 199.8732605 C-458.63361658 201.60321438 -462.82033851 203.34269911 -466.99853516 205.10400391 C-467.78380081 205.43298172 -468.56906647 205.76195953 -469.37812805 206.10090637 C-470.84641011 206.71627977 -472.31299415 207.33572691 -473.7775116 207.96000671 C-476.68908605 209.17594882 -478.81013456 210 -482 210 C-482 206.04 -482 202.08 -482 198 C-475.80195138 194.78956241 -469.49598921 192.0715413 -463.0234375 189.46484375 C-461.4305188 188.81851738 -461.4305188 188.81851738 -459.80541992 188.15913391 C-457.52095141 187.23247 -455.23591918 186.30719482 -452.95037842 185.38317871 C-447.46170277 183.16387194 -441.97657159 180.93584227 -436.4915657 178.7074852 C-435.24388668 178.20063289 -433.99616253 177.69389162 -432.74839401 177.18725967 C-420.60404038 172.25604244 -408.4848212 167.26533931 -396.375 162.25 C-381.5972747 156.13219566 -366.80692186 150.04680578 -352 144 C-336.98551835 137.86809442 -321.98673692 131.69940399 -307 125.5 C-292.01326222 119.30059565 -277.01441542 113.13206898 -262 107 C-246.8818062 100.82537572 -231.77860783 94.61553429 -216.6875 88.375 C-202.48653282 82.50277532 -188.28104776 76.64204154 -174.0625 70.8125 C-173.26941437 70.48730377 -172.47632874 70.16210754 -171.65921021 69.82705688 C-164.50278862 66.89287753 -157.34561403 63.96053747 -150.18798828 61.02929688 C-145.33334518 59.04112965 -140.47902513 57.05217549 -135.625 55.0625 C-134.81988983 54.73251007 -134.01477966 54.40252014 -133.18527222 54.06253052 C-119.97727675 48.6473893 -106.79028717 43.18264964 -93.60848999 37.70410156 C-76.9185917 30.77021386 -60.18887391 23.93516264 -43.44775391 17.12597656 C-41.50549293 16.33538699 -39.56327239 15.54469807 -37.62109375 14.75390625 C-36.20899628 14.17949295 -36.20899628 14.17949295 -34.76837158 13.59347534 C-29.59070399 11.48232363 -24.42503832 9.34511378 -19.27001953 7.17919922 C-18.16513687 6.71545395 -17.06025421 6.25170868 -15.92189026 5.77391052 C-13.78538454 4.87550487 -11.65018799 3.97397799 -9.51646423 3.06898499 C-8.08337669 2.46624001 -8.08337669 2.46624001 -6.62133789 1.85131836 C-5.77551651 1.49323593 -4.92969513 1.1351535 -4.0582428 0.76622009 C-2 0 -2 0 0 0 Z " fill="#85503D" transform="translate(497,249)"/>
<path d="M0 0 C9.01379069 6.15020376 13.78564533 14.44745462 16 25 C18.1431725 38.23099058 15.99561736 50.19367075 8.1875 61.1875 C0.07268927 71.35618342 -12.06350175 78.22123149 -25 80 C-37.21860528 80.91047362 -48.58480776 80.81093449 -60 76 C-60.77085937 75.69191406 -61.54171875 75.38382812 -62.3359375 75.06640625 C-63.90759005 74.41724541 -65.45817373 73.7171285 -67 73 C-67.04125 73.66 -67.0825 74.32 -67.125 75 C-69.15909023 81.97402363 -74.99020441 88.07137437 -81 92 C-84.90596169 93.9693466 -88.87394197 95.55369659 -93 97 C-93.70640625 97.24878906 -94.4128125 97.49757813 -95.140625 97.75390625 C-106.85500504 101.05145811 -121.63623614 100.39405597 -132.38671875 94.74609375 C-139.43710657 90.46924692 -144.3131504 84.8356583 -147 77 C-148.7776836 67.40911027 -147.88860996 59.94780775 -142.4140625 51.83203125 C-139.26284022 47.74937035 -136.68609672 45.2616357 -131.375 44.4375 C-128 45 -128 45 -125.5625 46.5625 C-123.31855021 50.06306168 -123.31587409 51.89524456 -124 56 C-125.40336258 58.1529331 -126.96743192 60.09954164 -128.58203125 62.09765625 C-130.61581433 64.82617514 -131.14186772 66.59517467 -131 70 C-129.62257381 74.18833662 -128.00817083 77.21866761 -124.5 79.9375 C-114.71501601 84.0961182 -103.56742721 82.61070053 -93.78515625 79.1875 C-88.61621986 76.98363371 -85.46520093 74.30387103 -82.625 69.375 C-77.98936201 57.57165285 -80.93842451 43.13850843 -83.57617188 31.20605469 C-84.71927249 26.00108232 -85.35343607 21.3368847 -85 16 C-83.19890388 13.4913304 -81.85201005 12.38477873 -79.0625 11.125 C-76.193884 10.95114448 -74.52161246 11.64220868 -72 13 C-69.22796432 16.05217445 -68.40261399 18.67377904 -67.6484375 22.69140625 C-67.43703125 23.80193359 -67.225625 24.91246094 -67.0078125 26.05664062 C-66.69457031 27.79204102 -66.69457031 27.79204102 -66.375 29.5625 C-66.1584375 30.69236328 -65.941875 31.82222656 -65.71875 32.98632812 C-64.54942221 39.25522435 -63.71134688 45.34486539 -63.52587891 51.72436523 C-62.82372713 54.76278523 -61.48835257 55.70376439 -59 57.5 C-57.36024339 58.38511043 -55.69281166 59.22114769 -54 60 C-53.35160156 60.33773437 -52.70320313 60.67546875 -52.03515625 61.0234375 C-41.80500146 65.43962313 -27.6535194 64.17948961 -17.55859375 60.203125 C-11.36363126 57.29007394 -7.36393921 55.12461881 -4 49 C-5.18335938 49.04640625 -6.36671875 49.0928125 -7.5859375 49.140625 C-18.0562478 49.42860561 -25.88615757 48.98728854 -34.875 43.125 C-40.32516457 37.67483543 -43.0160526 31.90754462 -43.375 24.25 C-43.18665876 16.88253366 -40.81153484 10.57743568 -35.8125 5.125 C-26.23027724 -3.63116908 -11.61733637 -5.91351779 0 0 Z M-25.4375 18.25 C-27.29331809 20.98909063 -27.29331809 20.98909063 -27 24.5625 C-25.92508595 28.25751703 -25.02271057 29.68851545 -22 32 C-18.70012125 33.09995958 -16.15967713 33.16747591 -12.6875 33.1875 C-11.02267578 33.20876953 -11.02267578 33.20876953 -9.32421875 33.23046875 C-5.9038164 32.99333157 -3.19026557 32.22108501 0 31 C-0.37920905 24.93265521 -2.19295413 20.76148836 -6 16 C-8.78959177 13.71110419 -10.37300646 13.08004173 -13.9375 12.625 C-18.79514903 13.21981417 -21.86290623 14.95037498 -25.4375 18.25 Z " fill="#000000" transform="translate(323,81)"/>
<path d="M0 0 C6.14154225 0.58490879 12.00679849 1.54066252 18 3 C18.309375 4.8871875 18.309375 4.8871875 18.625 6.8125 C19.45928089 10.05819551 19.68183883 10.76933315 22.5 12.8125 C25.18814496 13.72454918 27.85568103 14.53701519 30.58203125 15.31640625 C51.6095956 21.61241682 78.87492187 33.70855916 91 53 C91.62274891 55.98919478 91.44644659 57.93067967 91 61 C86.35924467 59.33222855 82.26185804 56.94041165 78 54.5 C54.59866899 41.3751656 29.80864653 31.34964867 4 24 C3.21093262 23.76909668 2.42186523 23.53819336 1.60888672 23.30029297 C-0.94368304 22.55793159 -3.50165128 21.83823177 -6.0625 21.125 C-6.84882813 20.89707764 -7.63515625 20.66915527 -8.4453125 20.43432617 C-13.26305014 19.13537568 -17.05455519 18.67701477 -22 20 C-24.37222995 22.89579382 -24.37222995 22.89579382 -23.75 26.5625 C-23.3141556 30.04592612 -23.3141556 30.04592612 -21 32 C-18.5100898 32.65395532 -16.04835227 33.22083227 -13.53125 33.74609375 C-3.9538085 35.877923 5.2375468 38.84983778 14.5 42.0625 C15.32294556 42.3459024 16.14589111 42.62930481 16.99377441 42.92129517 C73.41159605 62.41159605 73.41159605 62.41159605 91 80 C91.27108657 83.00363924 91.08605757 85.98798493 91 89 C83.51589029 86.9050895 76.32885406 84.28941412 69.109375 81.421875 C67.98444641 80.97882019 66.85951782 80.53576538 65.70050049 80.07928467 C62.67594009 78.88718394 59.65281128 77.69154168 56.63031006 76.49423218 C53.45134061 75.23598685 50.27049528 73.98250134 47.08984375 72.72851562 C40.82948786 70.25952669 34.57107178 67.78566384 28.31323242 65.31030273 C23.81900451 63.53294505 19.32370033 61.75832126 14.828125 59.984375 C10.44079298 58.2531322 6.05362052 56.52149943 1.66772461 54.78662109 C-7.37359561 51.21166828 -16.42278614 47.65723694 -25.47683334 44.11463165 C-29.30606715 42.61603995 -33.1347162 41.11595448 -36.96342278 39.61601639 C-40.1133858 38.38221467 -43.26380519 37.14960507 -46.4152832 35.91967773 C-49.94848179 34.54027342 -53.48021773 33.15718103 -57.01171875 31.7734375 C-58.05913742 31.36568085 -59.10655609 30.95792419 -60.18571472 30.53781128 C-66.89777697 27.90280333 -73.45732907 25.03210887 -80 22 C-80 16.06 -80 10.12 -80 4 C-78.50944092 4.16298584 -77.01888184 4.32597168 -75.4831543 4.49389648 C-68.08135709 5.16319184 -60.693203 5.12541385 -53.26953125 5.09765625 C-51.7830968 5.09578658 -50.29666173 5.09436527 -48.81022644 5.09336853 C-44.9354781 5.08958656 -41.06076843 5.07979423 -37.18603516 5.06866455 C-33.21712771 5.0583565 -29.2482139 5.05385097 -25.27929688 5.04882812 C-17.5195138 5.0381672 -9.75976236 5.02114403 -2 5 C-1.34 3.35 -0.68 1.7 0 0 Z " fill="#F8F1E8" transform="translate(157,203)"/>
<path d="M0 0 C0 5.94 0 11.88 0 18 C-11.83876494 23.00792047 -23.79750695 27.70922285 -35.75 32.4375 C-38.09920335 33.36767357 -40.4484058 34.2978494 -42.79760742 35.22802734 C-61.94502676 42.80593807 -81.10964811 50.33990864 -100.28076172 57.85766602 C-111.90628373 62.41793926 -123.52468739 66.99513111 -135.12890625 71.609375 C-136.25599503 72.0571933 -137.3830838 72.5050116 -138.54432678 72.96640015 C-143.90015525 75.09460891 -149.2546004 77.22617414 -154.60668945 79.36376953 C-156.49554973 80.11504901 -158.38446259 80.8661963 -160.2734375 81.6171875 C-161.13510025 81.96287781 -161.996763 82.30856812 -162.88453674 82.66473389 C-168.77291669 85 -168.77291669 85 -171 85 C-171.58185869 81.83210269 -171.67580975 79.16046703 -171 76 C-165.96825956 70.59917791 -158.81958765 66.85488039 -152.4375 63.25 C-151.53547852 62.73977295 -150.63345703 62.2295459 -149.70410156 61.70385742 C-125.54230324 48.27902553 -99.91219283 38.90972995 -73.29980469 31.6496582 C-64.91650288 29.4374908 -64.91650288 29.4374908 -57 26 C-55.58650231 22.60581779 -55.58650231 22.60581779 -56 19 C-57.14001655 16.27517874 -57.14001655 16.27517874 -60 15 C-67.83233059 14.80927144 -75.50195189 17.26651418 -82.9375 19.4375 C-84.15896729 19.79312012 -85.38043457 20.14874023 -86.63891602 20.51513672 C-114.50277124 28.79961479 -141.97779664 39.79486397 -166.54296875 55.5234375 C-169 57 -169 57 -171 57 C-171.5648327 49.90142688 -171.5648327 49.90142688 -169.0859375 45.9453125 C-141.58966757 17.33968298 -97.94854266 2.04989944 -58.74975586 0.61279297 C-51.55964911 0.49110558 -44.37639742 0.60595927 -37.1875 0.75 C-33.50755412 0.80024147 -29.82762254 0.84303798 -26.14753723 0.88165283 C-23.88919556 0.90775819 -21.63092614 0.94175634 -19.37284851 0.98504639 C-12.80972152 1.0900392 -6.51693432 0 0 0 Z " fill="#F9F2E8" transform="translate(435,207)"/>
<path d="M0 0 C11.46016664 4.21296624 22.77891537 8.71167928 34.0625 13.375 C35.771947 14.07928005 37.48150365 14.78329399 39.19116211 15.48706055 C42.72289974 16.94107377 46.25417321 18.39620612 49.78515625 19.85205078 C54.71886146 21.8853305 59.65565701 23.91099701 64.59375 25.93359375 C65.3731192 26.25284821 66.1524884 26.57210266 66.95547485 26.90103149 C68.53177867 27.54673331 70.10808279 28.1924344 71.68438721 28.83813477 C87.66845424 35.38715938 103.63545158 41.97705478 119.59786987 48.5786438 C134.83547798 54.87954071 150.09184834 61.133331 165.3576355 67.36560059 C183.60989293 74.81926208 201.8142441 82.38569419 220 90 C217.11334341 93.12878768 214.32079809 94.21911357 210.3125 95.6875 C208.54326172 96.34298828 208.54326172 96.34298828 206.73828125 97.01171875 C205.83464844 97.33785156 204.93101562 97.66398437 204 98 C204 97.34 204 96.68 204 96 C203.46610153 95.82984375 202.93220306 95.6596875 202.38212585 95.484375 C196.48474623 93.56664977 190.75317869 91.35827898 185.01953125 89 C184.07020721 88.61218353 183.12088318 88.22436707 182.14279175 87.82479858 C179.03149288 86.55277984 175.92197134 85.27647892 172.8125 84 C170.61636334 83.10090072 168.42015449 82.20197776 166.22387695 81.30322266 C149.78995954 74.57358801 133.37532838 67.79729784 116.96606445 61.0078125 C103.09304947 55.2689719 89.20229509 49.57458004 75.30337524 43.89880371 C58.51529943 37.0421448 41.75135828 30.12783169 24.99609375 23.19140625 C24.06636749 22.80673187 23.13664124 22.4220575 22.17874146 22.02572632 C20.45999421 21.31452931 18.74144841 20.60284517 17.02316284 19.89053345 C11.36594301 17.54976351 5.68773842 15.26564206 0 13 C0 8.71 0 4.42 0 0 Z " fill="#BA7A62" transform="translate(15,249)"/>
<path d="M0 0 C0.83396805 0.33975861 1.6679361 0.67951721 2.5271759 1.02957153 C3.42707748 1.40153656 4.32697906 1.77350159 5.25415039 2.15673828 C6.20936081 2.54747528 7.16457123 2.93821228 8.14872742 3.34078979 C11.30155892 4.63185575 14.4516874 5.92938266 17.60180664 7.22705078 C19.81244443 8.13396019 22.02322115 9.04053103 24.23413086 9.94677734 C31.04709333 12.74149817 37.85625068 15.54540167 44.66430664 18.35205078 C45.70165955 18.77965698 46.73901245 19.20726318 47.80780029 19.64782715 C57.49430555 23.6415449 67.17800997 27.6420187 76.86000061 31.64666748 C88.24655139 36.35613409 99.63954304 41.04965816 111.03930664 45.72705078 C112.22659363 46.21439194 112.22659363 46.21439194 113.43786621 46.71157837 C122.00537889 50.22742076 130.57895851 53.72762814 139.16430664 57.19970703 C140.29952255 57.65917725 140.29952255 57.65917725 141.45767212 58.12792969 C145.03215308 59.57446219 148.60765133 61.01835752 152.18530273 62.45703125 C153.43615182 62.96231501 154.68696769 63.46768101 155.93774414 63.97314453 C157.02490723 64.41070068 158.11207031 64.84825684 159.23217773 65.29907227 C161.66430664 66.35205078 161.66430664 66.35205078 162.66430664 67.35205078 C162.73674717 69.37169277 162.74807852 71.39372202 162.72680664 73.41455078 C162.7177832 74.51927734 162.70875977 75.62400391 162.69946289 76.76220703 C162.68206055 78.04417969 162.68206055 78.04417969 162.66430664 79.35205078 C157.84940402 78.64399442 153.63072303 76.83763575 149.16821289 74.98486328 C148.32443588 74.63869965 147.48065887 74.29253601 146.61131287 73.93588257 C143.81468547 72.78724311 141.02076337 71.63216952 138.22680664 70.47705078 C136.24974624 69.66352747 134.27252988 68.85038308 132.29516602 68.03759766 C126.08229876 65.48198727 119.87311192 62.91751041 113.66430664 60.35205078 C111.70843571 59.54438275 109.75254423 58.73676448 107.79663086 57.92919922 C100.16025362 54.77590238 92.52438179 51.6213864 84.88964844 48.46411133 C72.69193089 43.42095485 60.48507713 38.40069234 48.26773071 33.40527344 C45.56396553 32.29963443 42.86057435 31.19308488 40.15722656 30.08642578 C31.55126595 26.56519179 22.94072955 23.05584043 14.31988525 19.57118225 C10.19770377 17.90413352 6.07754743 16.23211406 1.95758057 14.55960083 C-0.01914382 13.75880423 -1.99687876 12.96049733 -3.97564697 12.1647644 C-6.70623286 11.06658199 -9.43337738 9.96024507 -12.15991211 8.85205078 C-13.38612022 8.36273827 -13.38612022 8.36273827 -14.63710022 7.86354065 C-20.22182988 5.57977774 -20.22182988 5.57977774 -21.33569336 3.35205078 C-19.44921292 2.31403523 -17.55105679 1.29721911 -15.64819336 0.28955078 C-14.59245117 -0.27892578 -13.53670898 -0.84740234 -12.44897461 -1.43310547 C-7.81773098 -3.24027833 -4.45361007 -1.82789927 0 0 Z " fill="#BA7B62" transform="translate(334.335693359375,379.64794921875)"/>
<path d="M0 0 C0.66 -0.01289062 1.32 -0.02578125 2 -0.0390625 C5.21411536 1.02812424 6.20678886 2.78627651 8 5.625 C8.57582976 8.61065885 8.5367866 11.5412359 8.50170898 14.57446289 C8.50711197 15.46609634 8.51251495 16.3577298 8.51808167 17.27638245 C8.53056664 20.21714696 8.51408071 23.15693213 8.49609375 26.09765625 C8.49624873 28.14359081 8.49773753 30.18952567 8.50050354 32.23545837 C8.50188738 36.52014162 8.48933062 40.80449006 8.46655273 45.08911133 C8.43815037 50.58278029 8.44091057 56.07589373 8.45364285 61.56960392 C8.4605951 65.79293061 8.45281619 70.01612873 8.44038582 74.23943901 C8.43586819 76.26524805 8.43553724 78.29107088 8.43945122 80.31688118 C8.44235942 83.14651963 8.42587571 85.97539019 8.40405273 88.80493164 C8.40855438 89.64296326 8.41305603 90.48099487 8.41769409 91.34442139 C8.3752488 94.65435565 8.24477202 97.16077858 6.6856842 100.11766052 C3.96441162 102.55102354 1.57005165 102.56344739 -2 102.625 C-4.94755732 101.27937601 -6.54277272 100.53945456 -8 97.625 C-8.114249 94.75304424 -8.16786269 91.90479124 -8.17700195 89.03198242 C-8.18685875 87.6975988 -8.18685875 87.6975988 -8.19691467 86.33625793 C-8.21666937 83.38432741 -8.22831486 80.43244779 -8.23828125 77.48046875 C-8.24235678 76.47354792 -8.2464323 75.46662708 -8.25063133 74.4291935 C-8.27150095 69.1001773 -8.28579903 63.77118692 -8.29516602 58.44213867 C-8.30623469 52.93389836 -8.34063747 47.42606156 -8.38033772 41.91796398 C-8.40646488 37.68605287 -8.41485437 33.45423848 -8.41844749 29.2222538 C-8.42332324 27.19165635 -8.4349652 25.1610635 -8.45348549 23.13054466 C-8.47779473 20.28877024 -8.47692696 17.44804741 -8.4699707 14.60620117 C-8.48278076 13.7670517 -8.49559082 12.92790222 -8.50878906 12.06332397 C-8.47291231 8.04317655 -8.29303656 6.08967679 -6.09562683 2.60517883 C-3.84832416 0.48167998 -3.03924313 -0.05936022 0 0 Z " fill="#000000" transform="translate(147,68.375)"/>
<path d="M0 0 C2.19322205 1.45581055 2.19322205 1.45581055 4 4 C4.59674902 7.00420675 4.55667456 9.96460375 4.53344727 13.01953125 C4.54206284 13.93052582 4.55067841 14.84152039 4.55955505 15.78012085 C4.58225666 18.79120296 4.5754688 21.80135762 4.56640625 24.8125 C4.57163974 26.9047066 4.5779152 28.99691083 4.58518982 31.08911133 C4.59560161 35.47390852 4.5910209 39.85838133 4.57641602 44.24316406 C4.55922178 49.86598407 4.58272773 55.48778285 4.61790562 61.11048889 C4.63985068 65.43077381 4.63844521 69.75081325 4.6301403 74.07113647 C4.6293193 76.14441041 4.63621098 78.2177021 4.65091133 80.29092407 C4.66830489 83.18808048 4.65385831 86.08338727 4.63110352 88.98046875 C4.64279572 89.83877289 4.65448792 90.69707703 4.66653442 91.58139038 C4.60005171 95.73538282 4.55681623 97.38477478 1.68321228 100.55981445 C-1 102 -1 102 -4.5625 102.0625 C-8.7712595 100.7616107 -9.72371791 99.7348411 -12 96 C-12.56567915 93.07823364 -12.53689409 90.21874365 -12.50170898 87.25 C-12.50711197 86.37947998 -12.51251495 85.50895996 -12.51808167 84.61206055 C-12.5305658 81.74102544 -12.51408006 78.87099373 -12.49609375 76 C-12.49624875 74.00130155 -12.49773781 72.00260279 -12.50050354 70.00390625 C-12.50188739 65.81757297 -12.4893316 61.63158235 -12.46655273 57.4453125 C-12.4381683 52.08177414 -12.44090568 46.71880509 -12.45364285 41.35522461 C-12.46060098 37.22879177 -12.45280916 33.10249029 -12.44038582 28.97607422 C-12.43587264 26.99854028 -12.43553335 25.02099224 -12.43945122 23.04345703 C-12.44236473 20.27867777 -12.4258497 17.51468041 -12.40405273 14.75 C-12.40855438 13.93426514 -12.41305603 13.11853027 -12.41769409 12.27807617 C-12.35788115 7.70711434 -11.95187744 4.71926252 -9 1 C-5.90826248 -0.54586876 -3.40570448 -0.29359521 0 0 Z " fill="#000000" transform="translate(382,69)"/>
<path d="M0 0 C2.5 1.625 2.5 1.625 3.5 3.625 C3.84599221 7.36171591 4.03317902 9.74409553 2.0625 13 C-1.14041399 15.03111619 -3.63949162 15.14670549 -7.37890625 15.25390625 C-10.01413621 15.71495017 -10.91257979 16.50335183 -12.5 18.625 C-12.42417454 21.65801831 -12.03315167 23.09184833 -9.875 25.25 C-6.70079464 27.08769784 -4.21125073 27.03154214 -0.5625 27.125 C4.73491021 27.2609763 8.61618264 27.74118264 12.5 31.625 C12.96660959 37.31763699 12.96660959 37.31763699 12.5 39.625 C8.3125968 44.52622149 2.76280132 46.74523298 -2.95288086 49.48095703 C-4.80433991 50.3710769 -6.64319076 51.28415149 -8.48242188 52.19921875 C-9.65998047 52.76769531 -10.83753906 53.33617187 -12.05078125 53.921875 C-13.11981689 54.44104492 -14.18885254 54.96021484 -15.2902832 55.49511719 C-18.92001599 56.77285381 -21.67776509 56.93401832 -25.5 56.625 C-27.9375 55.125 -27.9375 55.125 -29.5 52.625 C-30.1093634 49.81962888 -30.17211038 47.42258766 -29.5 44.625 C-26.81860833 41.72015903 -24.42302229 40.20618849 -20.5 39.625 C-20.5 38.965 -20.5 38.305 -20.5 37.625 C-21.36625 37.3465625 -21.36625 37.3465625 -22.25 37.0625 C-25.95779917 34.69362831 -27.83593285 30.822538 -29.09375 26.66015625 C-30.56423572 19.29358835 -29.51051541 13.00705858 -25.5 6.625 C-18.95268494 -0.96007393 -9.22170374 -3.62281218 0 0 Z " fill="#000000" transform="translate(155.5,3.375)"/>
<path d="M0 0 C3.49890004 2.11391877 4.70578686 3.11736059 6 7 C6.50695825 11.47813119 6.31516466 13.48427601 3.9375 17.375 C0.41813506 20.51996441 -1.31001693 21.0822804 -6 21 C-9.60115926 19.75344487 -11.47582284 18.64648516 -13.875 15.6875 C-15.23833511 12.43064391 -15.50047119 10.50329831 -15 7 C-11.05613311 0.03250183 -7.71929721 -0.98657685 0 0 Z " fill="#000000" transform="translate(298,49)"/>
<path d="M0 0 C3.67080764 2.52368025 4.75864984 4.17035883 6 8.4375 C6 12.61810309 5.40415469 14.58765141 3 18 C-0.41234859 20.40415469 -2.38189691 21 -6.5625 21 C-10.82964117 19.75864984 -12.47631975 18.67080764 -15 15 C-15.96393453 10.33252754 -15.65953759 7.05526014 -13.125 3 C-9.19042798 -0.70312661 -5.21282024 -0.78327351 0 0 Z " fill="#000000" transform="translate(329,49)"/>
<path d="M0 0 C3.5386994 1.65139305 4.81070153 2.71605229 7 6 C7.34207368 9.80556973 7.04155983 13.52417419 4.80078125 16.69921875 C2.37157801 18.92439442 0.20395077 19.95751026 -3 20.625 C-6.95939138 19.8001268 -9.61200819 18.22533959 -12 15 C-13.45555675 10.98913251 -13.44929785 8.03338506 -11.75 4.125 C-8.1848005 -0.20417082 -5.39444547 -0.4650384 0 0 Z " fill="#030201" transform="translate(259,359)"/>
<path d="M0 0 C0 5.94 0 11.88 0 18 C-11.875 23 -11.875 23 -13 23 C-13 16.07 -13 9.14 -13 2 C-5 0 -5 0 0 0 Z " fill="#F5E4CB" transform="translate(435,207)"/>
<path d="M0 0 C0 5.61 0 11.22 0 17 C-6.435 19.475 -6.435 19.475 -13 22 C-13 16.72 -13 11.44 -13 6 C-13.66 5.67 -14.32 5.34 -15 5 C-12.8765984 4.16260219 -10.7512272 3.33019717 -8.625 2.5 C-7.44164062 2.0359375 -6.25828125 1.571875 -5.0390625 1.09375 C-2 0 -2 0 0 0 Z " fill="#43C186" transform="translate(461,231)"/>
</svg>
