<?xml version="1.0" encoding="UTF-8"?>
<svg version="1.1" xmlns="http://www.w3.org/2000/svg" width="512" height="512">
<path d="M0 0 C1.13314312 -0.00445784 2.26628623 -0.00891569 3.43376702 -0.01350862 C4.68412973 -0.01332426 5.93449245 -0.01313989 7.22274494 -0.01294994 C8.56019377 -0.01624884 9.89764161 -0.01997446 11.23508817 -0.02409142 C14.91837821 -0.03411665 18.60165196 -0.03782905 22.28495371 -0.04048073 C26.25442328 -0.04438224 30.22387993 -0.05396069 34.19334126 -0.0626936 C43.78360719 -0.08246238 53.37387419 -0.09252475 62.96415541 -0.10142139 C67.47938208 -0.10580362 71.99460759 -0.1111706 76.50983334 -0.11641026 C91.51777592 -0.13342296 106.52571777 -0.14791741 121.53366852 -0.155159 C125.42891344 -0.15706892 129.32415836 -0.15898925 133.21940327 -0.16094494 C134.18755808 -0.16142868 135.15571289 -0.16191242 136.15320573 -0.16241082 C151.83867344 -0.17071213 167.52406491 -0.19605055 183.20949932 -0.22852562 C199.31005115 -0.26158862 215.41056422 -0.27960707 231.51115018 -0.28280324 C240.55239419 -0.28496904 249.59352703 -0.29372796 258.63473797 -0.31926441 C266.3342851 -0.34096104 274.03369405 -0.34902696 281.73326828 -0.33929763 C285.66138012 -0.33474989 289.58920681 -0.33666642 293.51727962 -0.35605907 C297.11558033 -0.37367014 300.71338743 -0.37271019 304.31169323 -0.35716178 C306.22536142 -0.3536581 308.13903465 -0.36982746 310.05263108 -0.38676625 C318.07629744 -0.32669706 323.53454079 0.66366686 329.78458881 6.02875233 C330.3143935 6.66168201 330.84419819 7.2946117 331.39005756 7.94672108 C331.93275288 8.57191639 332.47544819 9.1971117 333.03458881 9.84125233 C337.40219936 16.33185331 338.05404218 21.82633853 338.08146381 29.48578358 C338.09144901 30.4628426 338.10143421 31.43990162 338.11172199 32.44656849 C338.12684674 34.50224055 338.13394954 36.55798562 338.13346577 38.61371326 C338.14005331 41.75718953 338.19466577 44.89754914 338.25138569 48.04047108 C338.26018401 50.04306449 338.26614073 52.04567283 338.26896381 54.04828358 C338.29052036 54.98483784 338.31207691 55.9213921 338.33428669 56.88632679 C338.26768494 63.22159572 338.26768494 63.22159572 336.26551533 65.86926746 C334.13755505 67.7178852 332.47709012 69.13422108 329.57755756 69.13422108 C329.57755756 74.41422108 329.57755756 79.69422108 329.57755756 85.13422108 C331.22755756 85.46422108 332.87755756 85.79422108 334.57755756 86.13422108 C336.85607741 88.30820049 337.50738369 89.64580917 337.95590639 92.76753819 C337.95747759 93.77824907 337.9590488 94.78895994 337.96066761 95.83029842 C337.97425257 97.58340051 337.97425257 97.58340051 337.98811197 99.3719188 C337.98012008 101.29941147 337.98012008 101.29941147 337.97196674 103.26584339 C337.97685455 104.64398187 337.98304384 106.02211625 337.99042463 107.40024364 C338.00686246 111.19148871 338.00449844 114.98252636 337.99904966 118.77379465 C337.99638407 122.86123281 338.01090268 126.94861508 338.02314472 131.03603077 C338.04422333 139.04664156 338.04873809 147.05718002 338.04695684 155.06781526 C338.04565003 161.58032483 338.04944923 168.0928118 338.0568819 174.60531712 C338.05898109 176.48018197 338.06107869 178.35504683 338.06317472 180.22991168 C338.06474002 181.62964337 338.06474002 181.62964337 338.06633693 183.05765246 C338.0852503 200.71685605 338.08418621 218.37601812 338.0773676 236.03522764 C338.07179567 252.18489935 338.09260066 268.33441224 338.12572807 284.48404683 C338.15947818 301.0660374 338.17463146 317.64795193 338.17001104 334.22997749 C338.16776713 343.53955946 338.17299763 352.84899478 338.19790363 362.1585474 C338.21893423 370.08715086 338.22249172 378.01552732 338.20360404 385.94414015 C338.19445561 389.98799092 338.19327517 394.03141868 338.21395969 398.07523632 C338.23270809 401.78164602 338.22812393 405.48728744 338.20541388 409.19366823 C338.19926816 411.16048495 338.21758972 413.12733189 338.2369504 415.09406292 C338.15213005 423.60374028 336.76786498 430.72876826 330.73428202 437.072137 C327.87922196 439.66623916 325.03245241 441.4391145 321.57755756 443.13422108 C321.57391193 443.72589069 321.5702663 444.31756031 321.5665102 444.92715931 C321.52446777 451.12515003 321.45497194 457.32241515 321.37003803 463.51996326 C321.34193659 465.82815741 321.32066861 468.13644585 321.30656147 470.44476795 C321.28498202 473.77663544 321.23825366 477.10738199 321.18693256 480.43890858 C321.18570393 481.45911091 321.18447529 482.47931324 321.18320942 483.53043079 C321.027392 491.27649844 319.5735873 498.33513182 314.68302631 504.53656483 C314.05009663 505.04316639 313.41716694 505.54976795 312.76505756 506.07172108 C311.8272646 506.85869373 311.8272646 506.85869373 310.87052631 507.66156483 C303.62106573 512.31752162 297.67059593 512.56572155 289.19285297 512.52190113 C287.9450662 512.52728667 286.69727943 512.53267221 285.41168094 512.53822094 C281.95977616 512.55265227 278.50811062 512.54843814 275.05619287 512.54105413 C271.3287133 512.53631887 267.60128522 512.54883563 263.87382221 512.55907154 C256.57515692 512.57625921 249.27657771 512.57709944 241.97789744 512.57185864 C236.04327159 512.56781482 230.10867115 512.56926302 224.17404652 512.5746069 C223.32891036 512.57535532 222.4837742 512.57610374 221.61302786 512.57687484 C219.89601963 512.57840635 218.17901141 512.5799447 216.4620032 512.58148981 C200.36266836 512.59521531 184.26338213 512.58977733 168.1640484 512.5783046 C153.4475955 512.56837722 138.73126841 512.58130422 124.01483491 512.60523879 C108.89385117 512.62964541 93.77292598 512.63923351 78.65192294 512.63258606 C70.16677267 512.62909666 61.6817191 512.63130718 53.19658375 512.64883709 C45.97150794 512.66357883 38.74659687 512.66416908 31.52152422 512.64676618 C27.83807498 512.63826901 24.15491979 512.63607472 20.47148609 512.65141773 C16.47081935 512.66787515 12.47085833 512.65308264 8.47019672 512.63542652 C7.31638264 512.64503153 6.16256855 512.65463653 4.97379041 512.6645326 C-7.28161773 512.55352409 -17.57357316 508.475308 -26.58259869 500.13422108 C-34.97480832 491.34985211 -38.58455096 481.66212941 -38.5538702 469.64403725 C-38.55592283 468.89500282 -38.55797547 468.1459684 -38.5600903 467.37423596 C-38.56575928 464.85621097 -38.56430318 462.3382407 -38.56288433 459.82021046 C-38.56546802 457.99985971 -38.5684812 456.17950952 -38.57188773 454.35916013 C-38.57996047 449.35026455 -38.58174746 444.34138329 -38.5824852 439.33248198 C-38.58433527 433.93286957 -38.59188237 428.53326461 -38.59862041 423.1336565 C-38.61220611 411.32374144 -38.6182288 399.51382978 -38.62263107 387.70390821 C-38.62539304 380.33086242 -38.6296303 372.95781796 -38.63413525 365.58477306 C-38.64632812 345.17410108 -38.65662746 324.76343014 -38.66001034 304.35275459 C-38.6602299 303.04626165 -38.66044947 301.7397687 -38.66067569 300.39368505 C-38.66089397 299.08405314 -38.66111225 297.77442122 -38.66133714 296.42510349 C-38.6617806 293.77125792 -38.66222717 291.11741235 -38.66267681 288.46356678 C-38.66289824 287.14716566 -38.66311967 285.83076455 -38.66334781 284.47447249 C-38.66729619 263.14199092 -38.68475136 241.80955059 -38.70803633 220.47708116 C-38.73174539 198.57949292 -38.74421198 176.68192182 -38.74537826 154.78432053 C-38.74629525 142.48795918 -38.75205388 130.19164233 -38.77019787 117.89529324 C-38.7855928 107.42505284 -38.79072288 96.9548707 -38.78245977 86.48462114 C-38.77855116 81.14267574 -38.77949324 75.80084766 -38.79351711 70.45891666 C-38.80624312 65.56662286 -38.80506985 60.67453471 -38.7929264 55.78224125 C-38.79096717 54.01438941 -38.79405829 52.24652307 -38.80277076 50.47869162 C-38.87268893 35.33005512 -36.78685731 23.17211972 -26.42244244 11.44672108 C-19.81306398 5.17972033 -9.08560748 0.01655153 0 0 Z " fill="#54B494" transform="translate(106.42244243621826,-0.13422107696533203)"/>
<path d="M0 0 C1.13314312 -0.00445784 2.26628623 -0.00891569 3.43376702 -0.01350862 C4.68412973 -0.01332426 5.93449245 -0.01313989 7.22274494 -0.01294994 C8.56019377 -0.01624884 9.89764161 -0.01997446 11.23508817 -0.02409142 C14.91837821 -0.03411665 18.60165196 -0.03782905 22.28495371 -0.04048073 C26.25442328 -0.04438224 30.22387993 -0.05396069 34.19334126 -0.0626936 C43.78360719 -0.08246238 53.37387419 -0.09252475 62.96415541 -0.10142139 C67.47938208 -0.10580362 71.99460759 -0.1111706 76.50983334 -0.11641026 C91.51777592 -0.13342296 106.52571777 -0.14791741 121.53366852 -0.155159 C125.42891344 -0.15706892 129.32415836 -0.15898925 133.21940327 -0.16094494 C134.18755808 -0.16142868 135.15571289 -0.16191242 136.15320573 -0.16241082 C151.83867344 -0.17071213 167.52406491 -0.19605055 183.20949932 -0.22852562 C199.31005115 -0.26158862 215.41056422 -0.27960707 231.51115018 -0.28280324 C240.55239419 -0.28496904 249.59352703 -0.29372796 258.63473797 -0.31926441 C266.3342851 -0.34096104 274.03369405 -0.34902696 281.73326828 -0.33929763 C285.66138012 -0.33474989 289.58920681 -0.33666642 293.51727962 -0.35605907 C297.11558033 -0.37367014 300.71338743 -0.37271019 304.31169323 -0.35716178 C306.22536142 -0.3536581 308.13903465 -0.36982746 310.05263108 -0.38676625 C318.07629744 -0.32669706 323.53454079 0.66366686 329.78458881 6.02875233 C330.3143935 6.66168201 330.84419819 7.2946117 331.39005756 7.94672108 C331.93275288 8.57191639 332.47544819 9.1971117 333.03458881 9.84125233 C337.40219936 16.33185331 338.05404218 21.82633853 338.08146381 29.48578358 C338.09144901 30.4628426 338.10143421 31.43990162 338.11172199 32.44656849 C338.12684674 34.50224055 338.13394954 36.55798562 338.13346577 38.61371326 C338.14005331 41.75718953 338.19466577 44.89754914 338.25138569 48.04047108 C338.26018401 50.04306449 338.26614073 52.04567283 338.26896381 54.04828358 C338.29052036 54.98483784 338.31207691 55.9213921 338.33428669 56.88632679 C338.26794479 63.19687856 338.26794479 63.19687856 336.30286884 65.86487293 C333.69897003 68.16297903 332.00518126 69.11676705 328.51505756 69.25922108 C324.72274725 67.80684691 323.09419862 66.33966277 320.57755756 63.13422108 C319.87719284 60.09640204 319.9264486 57.14290385 319.97599506 54.03656483 C319.96398563 52.72964428 319.96398563 52.72964428 319.95173359 51.3963213 C319.92870221 48.62097797 319.93811624 45.84710335 319.95255756 43.07172108 C319.95640581 40.29304426 319.95297061 37.51501327 319.9319582 34.73640919 C319.9198739 33.01024199 319.9225305 31.28389327 319.94166279 29.5577898 C319.92537629 26.06325909 319.90978904 23.75653162 318.24406147 20.63641834 C315.25932983 17.94596218 312.3376583 18.0067037 308.50758553 17.99555588 C307.45277929 17.99008051 306.39797306 17.98460514 305.311203 17.97896385 C303.56804416 17.97749808 303.56804416 17.97749808 301.78966999 17.97600269 C299.94656994 17.96860821 299.94656994 17.96860821 298.06623554 17.96106434 C294.6425521 17.94833317 291.21890939 17.94007627 287.79521169 17.93364958 C284.05143311 17.92552482 280.30767511 17.91165115 276.56391144 17.89849663 C269.29156883 17.87380894 262.01922133 17.85422667 254.746859 17.83641139 C246.33766745 17.81559207 237.9285042 17.78845097 229.51933002 17.76129627 C207.30958854 17.69271131 185.09982111 17.63274663 162.89005756 17.57172108 C113.28693256 17.42734608 63.68380756 17.28297108 12.57755756 17.13422108 C12.57755756 152.43422108 12.57755756 287.73422108 12.57755756 427.13422108 C62.16005756 427.01047108 111.74255756 426.88672108 162.82755756 426.75922108 C178.50545795 426.72522205 194.18335835 426.69122303 210.33634663 426.65619373 C224.34315601 426.61630233 224.34315601 426.61630233 238.34995747 426.57376575 C244.60728055 426.55483438 250.86458672 426.54135213 257.12193012 426.53152943 C264.33305338 426.52019088 271.54412021 426.50201931 278.75520347 426.47529229 C282.44640954 426.46182886 286.13755062 426.45150974 289.82878256 426.44996667 C293.77572469 426.44824741 297.72251462 426.43126561 301.66941547 426.41269398 C303.40820532 426.4155972 303.40820532 426.4155972 305.18212223 426.41855907 C306.23891933 426.41109283 307.29571644 426.40362659 308.3845377 426.3959341 C309.75380921 426.39251662 309.75380921 426.39251662 311.15074277 426.3890301 C313.81611643 426.10917304 315.36795328 425.64822231 317.57755756 424.13422108 C319.76514597 420.99286675 319.82618226 418.2647136 319.82251072 414.50226402 C319.82627602 413.34786278 319.83004132 412.19346154 319.83392072 411.00407845 C319.82789326 409.73512747 319.82186581 408.4661765 319.81565571 407.15877247 C319.81636194 405.79769886 319.81796187 404.43662548 319.82037997 403.07555383 C319.82454503 399.33168263 319.81635515 395.58792341 319.80627751 391.84406722 C319.79764153 387.80787551 319.80061045 383.77169181 319.80242634 379.73549366 C319.80423856 372.74014147 319.7994387 365.74481926 319.79082203 358.74947262 C319.77778855 347.69593428 319.78533655 336.64245466 319.79624653 325.58891773 C319.79972473 321.80826768 319.80306976 318.02761752 319.80637455 314.24696732 C319.80720589 313.30214436 319.80803723 312.35732141 319.80889376 311.38386746 C319.81807847 300.62788311 319.82302792 289.87189825 319.82609272 279.11591053 C319.82637847 278.13258121 319.82666422 277.1492519 319.82695863 276.13612472 C319.83106495 260.19328736 319.81983256 244.25048738 319.80471721 228.30765838 C319.78976052 211.94601476 319.79770768 195.58448451 319.82533431 179.22285742 C319.8415234 169.12674368 319.83877042 159.03098643 319.81186119 148.93489396 C319.79499879 142.01906188 319.7997849 135.1034611 319.82174549 128.18764407 C319.83373256 124.19497626 319.83582897 120.20292895 319.81186581 116.2103014 C319.79012876 112.55645695 319.79588109 108.90373431 319.82367095 105.24994045 C319.83128045 103.29930423 319.80924155 101.34862232 319.78622079 99.39810711 C319.88734603 91.15631826 319.88734603 91.15631826 321.85538912 88.24194896 C324.3105211 86.08226572 326.45147099 85.15995303 329.64005756 84.50922108 C332.67465022 85.15487909 334.39347596 85.96380038 336.52543235 88.23286211 C339.01263807 92.72764166 338.2558705 98.39797235 338.21247578 103.38609791 C338.21823738 104.76510485 338.22617877 106.14410412 338.236112 107.52308732 C338.25700526 111.31222043 338.24665924 115.10072476 338.23118091 118.88986027 C338.21988073 122.97661663 338.23732381 127.06326389 338.25108051 131.14999866 C338.27333477 139.15718923 338.26850118 147.16414569 338.25401731 155.17134549 C338.24272971 161.68098134 338.2411921 168.19055153 338.24663639 174.70019436 C338.24740256 175.6263757 338.24816872 176.55255703 338.2489581 177.50680447 C338.25055673 179.38833451 338.2521778 181.26986453 338.25382106 183.15139452 C338.26808599 200.8039645 338.25167625 218.45640476 338.22481923 236.10895345 C338.20249824 251.24838184 338.20634444 266.38761845 338.22941303 281.52704334 C338.25618978 299.10827696 338.26669316 316.68939666 338.25135171 334.27064782 C338.24975899 336.14682152 338.24818714 338.02299524 338.24663639 339.89916897 C338.24586501 340.82226385 338.24509364 341.74535873 338.24429888 342.69642618 C338.23998613 349.19401619 338.24725967 355.69153385 338.25903416 362.18911266 C338.27307934 370.11405148 338.26921765 378.03874277 338.24263044 385.96365335 C338.22951643 390.00547226 338.22429796 394.04687899 338.2408762 398.08869457 C338.2558407 401.79323591 338.24748202 405.49698541 338.22098844 409.20145551 C338.21280952 411.16721307 338.22902371 413.13302614 338.24627459 415.09872502 C338.15259813 423.60344961 336.76431739 430.73231274 330.73433459 437.07216328 C327.87921637 439.66619531 325.03245398 441.43911373 321.57755756 443.13422108 C321.57391193 443.72589069 321.5702663 444.31756031 321.5665102 444.92715931 C321.52446777 451.12515003 321.45497194 457.32241515 321.37003803 463.51996326 C321.34193659 465.82815741 321.32066861 468.13644585 321.30656147 470.44476795 C321.28498202 473.77663544 321.23825366 477.10738199 321.18693256 480.43890858 C321.18570393 481.45911091 321.18447529 482.47931324 321.18320942 483.53043079 C321.027392 491.27649844 319.5735873 498.33513182 314.68302631 504.53656483 C314.05009663 505.04316639 313.41716694 505.54976795 312.76505756 506.07172108 C311.8272646 506.85869373 311.8272646 506.85869373 310.87052631 507.66156483 C303.62106573 512.31752162 297.67059593 512.56572155 289.19285297 512.52190113 C287.9450662 512.52728667 286.69727943 512.53267221 285.41168094 512.53822094 C281.95977616 512.55265227 278.50811062 512.54843814 275.05619287 512.54105413 C271.3287133 512.53631887 267.60128522 512.54883563 263.87382221 512.55907154 C256.57515692 512.57625921 249.27657771 512.57709944 241.97789744 512.57185864 C236.04327159 512.56781482 230.10867115 512.56926302 224.17404652 512.5746069 C223.32891036 512.57535532 222.4837742 512.57610374 221.61302786 512.57687484 C219.89601963 512.57840635 218.17901141 512.5799447 216.4620032 512.58148981 C200.36266836 512.59521531 184.26338213 512.58977733 168.1640484 512.5783046 C153.4475955 512.56837722 138.73126841 512.58130422 124.01483491 512.60523879 C108.89385117 512.62964541 93.77292598 512.63923351 78.65192294 512.63258606 C70.16677267 512.62909666 61.6817191 512.63130718 53.19658375 512.64883709 C45.97150794 512.66357883 38.74659687 512.66416908 31.52152422 512.64676618 C27.83807498 512.63826901 24.15491979 512.63607472 20.47148609 512.65141773 C16.47081935 512.66787515 12.47085833 512.65308264 8.47019672 512.63542652 C7.31638264 512.64503153 6.16256855 512.65463653 4.97379041 512.6645326 C-7.28161773 512.55352409 -17.57357316 508.475308 -26.58259869 500.13422108 C-34.97480832 491.34985211 -38.58455096 481.66212941 -38.5538702 469.64403725 C-38.55592283 468.89500282 -38.55797547 468.1459684 -38.5600903 467.37423596 C-38.56575928 464.85621097 -38.56430318 462.3382407 -38.56288433 459.82021046 C-38.56546802 457.99985971 -38.5684812 456.17950952 -38.57188773 454.35916013 C-38.57996047 449.35026455 -38.58174746 444.34138329 -38.5824852 439.33248198 C-38.58433527 433.93286957 -38.59188237 428.53326461 -38.59862041 423.1336565 C-38.61220611 411.32374144 -38.6182288 399.51382978 -38.62263107 387.70390821 C-38.62539304 380.33086242 -38.6296303 372.95781796 -38.63413525 365.58477306 C-38.64632812 345.17410108 -38.65662746 324.76343014 -38.66001034 304.35275459 C-38.6602299 303.04626165 -38.66044947 301.7397687 -38.66067569 300.39368505 C-38.66089397 299.08405314 -38.66111225 297.77442122 -38.66133714 296.42510349 C-38.6617806 293.77125792 -38.66222717 291.11741235 -38.66267681 288.46356678 C-38.66289824 287.14716566 -38.66311967 285.83076455 -38.66334781 284.47447249 C-38.66729619 263.14199092 -38.68475136 241.80955059 -38.70803633 220.47708116 C-38.73174539 198.57949292 -38.74421198 176.68192182 -38.74537826 154.78432053 C-38.74629525 142.48795918 -38.75205388 130.19164233 -38.77019787 117.89529324 C-38.7855928 107.42505284 -38.79072288 96.9548707 -38.78245977 86.48462114 C-38.77855116 81.14267574 -38.77949324 75.80084766 -38.79351711 70.45891666 C-38.80624312 65.56662286 -38.80506985 60.67453471 -38.7929264 55.78224125 C-38.79096717 54.01438941 -38.79405829 52.24652307 -38.80277076 50.47869162 C-38.87268893 35.33005512 -36.78685731 23.17211972 -26.42244244 11.44672108 C-19.81306398 5.17972033 -9.08560748 0.01655153 0 0 Z " fill="#373737" transform="translate(106.42244243621826,-0.13422107696533203)"/>
<path d="M0 0 C5.4102924 2.85903176 9.34903821 5.77526538 13.484375 10.31640625 C16.63512766 13.74147286 16.63512766 13.74147286 20.73828125 15.65234375 C24.32870119 15.71309536 27.16184141 15.00367227 30.59375 13.921875 C34.8121036 12.82352774 38.58731998 12.53858269 42.921875 12.50390625 C43.65083984 12.47103516 44.37980469 12.43816406 45.13085938 12.40429688 C49.25878206 12.36342635 51.07292278 12.75813113 54.65625 15.05078125 C57.51818185 18.11122861 59.23555185 20.858483 61.046875 24.62890625 C61.34303711 25.24032471 61.63919922 25.85174316 61.94433594 26.48168945 C64.01162644 30.86579081 65.54750702 35.24096735 66.65625 39.953125 C67.4927173 42.31846865 68.39297358 43.39738222 70.359375 44.94140625 C72.20607166 45.41147449 74.0549923 45.87450645 75.9140625 46.29296875 C84.25056501 48.5036068 91.25513841 51.83716966 97.359375 57.94140625 C98.87556777 60.9737918 98.59383455 64.11537023 98.609375 67.44140625 C98.61332275 68.16320068 98.61727051 68.88499512 98.62133789 69.62866211 C98.56659069 74.67725728 97.86057241 78.92739474 95.91796875 83.6328125 C95.09002638 87.05458831 95.50631575 89.54049304 96.359375 92.94140625 C98.39547109 95.51493153 98.39547109 95.51493153 101.046875 97.69140625 C106.85699382 103.17642516 112.34180715 109.7108362 113.109375 118.00390625 C112.32366331 126.75387731 104.49970586 135.21596261 98.359375 140.94140625 C97.699375 140.94140625 97.039375 140.94140625 96.359375 140.94140625 C95.19358168 147.60067081 95.19358168 147.60067081 96.796875 154.00390625 C98.47183889 158.36498734 98.70141127 162.56549682 98.734375 167.19140625 C98.75455688 168.22019897 98.75455688 168.22019897 98.77514648 169.26977539 C98.73696012 173.6751907 98.11242037 176.48480484 95.359375 179.94140625 C89.93874 184.23948437 83.6125667 186.81932889 77.09765625 188.984375 C75.74220703 189.45810547 75.74220703 189.45810547 74.359375 189.94140625 C73.14765625 190.32941406 71.9359375 190.71742188 70.6875 191.1171875 C67.11928528 192.65821815 67.11928528 192.65821815 65.79296875 196.12890625 C65.29990234 198.01609375 65.29990234 198.01609375 64.796875 199.94140625 C64.40925672 201.29274806 64.01330909 202.64172644 63.609375 203.98828125 C63.30966797 204.98891602 63.30966797 204.98891602 63.00390625 206.00976562 C60.93974842 212.19598409 57.98041853 218.40232299 52.359375 221.94140625 C50.07275391 222.3137207 50.07275391 222.3137207 47.5859375 222.3046875 C46.6784375 222.30404297 45.7709375 222.30339844 44.8359375 222.30273438 C43.89492188 222.28662109 42.95390625 222.27050781 41.984375 222.25390625 C41.05109375 222.25712891 40.1178125 222.26035156 39.15625 222.26367188 C34.13936826 222.22458852 30.07588795 221.82217958 25.359375 219.94140625 C22.31683992 219.35795149 22.31683992 219.35795149 19.359375 219.94140625 C17.21391761 221.76871337 17.21391761 221.76871337 15.89453125 223.3125 C9.68105905 229.90542088 2.0144636 235.76770862 -6.953125 237.62890625 C-16.65958203 235.81922782 -24.85371474 227.72831651 -31.640625 220.94140625 C-35.97943797 218.77199977 -41.94124856 220.74324959 -46.390625 222.00390625 C-53.01680978 223.74693879 -60.6201716 224.48139111 -66.8125 221.32421875 C-70.05735715 218.59029214 -71.44980027 216.26238341 -73.265625 212.44140625 C-73.70817627 211.52524536 -73.70817627 211.52524536 -74.15966797 210.59057617 C-76.47437947 205.66624083 -78.14117231 200.63262036 -79.5234375 195.3671875 C-80.98340937 192.19710872 -82.50848904 191.38700746 -85.640625 189.94140625 C-87.69425779 189.38789827 -87.69425779 189.38789827 -89.765625 189.12890625 C-97.79766854 187.51712494 -105.38737547 183.24530569 -110.640625 176.94140625 C-113.64037098 170.94191429 -112.13585968 160.5434285 -110.140625 154.37890625 C-109.8725 153.6003125 -109.604375 152.82171875 -109.328125 152.01953125 C-108.36750097 149.11582678 -108.07948465 146.95753563 -108.640625 143.94140625 C-110.46793212 141.79594886 -110.46793212 141.79594886 -112.01171875 140.4765625 C-118.58702798 134.27968834 -124.43787968 126.62711139 -126.328125 117.69140625 C-124.60043122 108.26762201 -118.31658485 101.02797249 -111.4609375 94.68359375 C-109.55919296 93.05933484 -109.55919296 93.05933484 -108.640625 90.94140625 C-108.7582365 86.58073359 -109.49740151 82.43847601 -110.703125 78.25390625 C-112.24431341 72.3618244 -112.63494621 65.93514672 -111.640625 59.94140625 C-108.42130318 55.05876815 -105.27824934 52.81211268 -99.953125 50.25390625 C-99.34170654 49.95774414 -98.73028809 49.66158203 -98.1003418 49.35644531 C-93.71624044 47.28915481 -89.3410639 45.75327423 -84.62890625 44.64453125 C-82.12593624 43.75939451 -81.20875615 43.10649642 -79.640625 40.94140625 C-78.78026741 38.39749177 -78.02816799 35.9026185 -77.328125 33.31640625 C-75.0367665 25.44654932 -72.11836881 17.26304453 -64.640625 12.94140625 C-58.2065946 12.18779815 -51.65341615 12.56116218 -45.328125 13.94140625 C-38.50219021 15.62165082 -38.50219021 15.62165082 -31.640625 14.94140625 C-29.16143472 12.92213643 -27.11160708 10.71445208 -24.9765625 8.3359375 C-21.38192932 4.65113793 -17.16497077 2.3246972 -12.640625 -0.05859375 C-12.00769531 -0.46207031 -11.37476563 -0.86554688 -10.72265625 -1.28125 C-6.92482549 -2.69920182 -3.63787619 -1.45837936 0 0 Z " fill="#E1C95A" transform="translate(279.640625,87.05859375)"/>
<path d="M0 0 C1.07239089 -0.0039821 2.14478179 -0.00796419 3.24966937 -0.01206696 C4.4218444 -0.00624128 5.59401942 -0.00041559 6.8017149 0.00558662 C8.05147049 0.00387777 9.30122609 0.00216892 10.58885306 0.00040829 C14.05508277 -0.00406309 17.52118884 0.00393553 20.9874028 0.01396441 C24.72627276 0.02259963 28.46513574 0.0196787 32.20401287 0.01815987 C38.68098191 0.01711106 45.15791067 0.0233872 51.63486958 0.03463554 C60.9994643 0.05088817 70.36403954 0.05609831 79.72864684 0.05861153 C94.92201516 0.062989 110.11536202 0.07629953 125.30871868 0.09521675 C140.06783217 0.11357419 154.82693983 0.12773136 169.58606243 0.13623238 C170.49578247 0.13675782 171.4055025 0.13728327 172.34278981 0.13782464 C176.90657833 0.14043471 181.4703669 0.14296213 186.03415549 0.14544845 C223.89660643 0.16618258 261.75903295 0.20140954 299.62146282 0.24609566 C299.69751722 6.72388376 299.75006436 13.20155674 299.78625774 19.67968941 C299.80134573 21.88350922 299.82181858 24.087299 299.84778118 26.29101753 C299.8841634 29.45841062 299.90118914 32.62540677 299.91443157 35.79297066 C299.92991543 36.77851936 299.94539928 37.76406807 299.96135235 38.77948189 C299.96157894 39.70013435 299.96180553 40.62078682 299.96203899 41.56933784 C299.97203175 42.78179176 299.97203175 42.78179176 299.98222637 44.0187397 C299.52657144 46.83195553 298.56253749 48.18387825 296.62146282 50.24609566 C293.65563713 51.23470422 291.72022198 51.3750863 288.62627602 51.38311005 C287.58841798 51.38818459 286.55055994 51.39325913 285.48125166 51.39848745 C284.33730879 51.39898521 283.19336592 51.39948296 282.01475811 51.3999958 C280.80235189 51.40437806 279.58994567 51.40876031 278.34079987 51.41327536 C274.96920343 51.42434587 271.59765342 51.43088964 268.22604549 51.43545651 C264.59191663 51.44141218 260.95780488 51.45302222 257.32368755 51.46374702 C248.54321103 51.48827351 239.76272885 51.50289939 230.98222861 51.51580709 C228.50193716 51.51951912 226.02164626 51.52349235 223.54135537 51.52755976 C208.13759751 51.55279851 192.73383875 51.5748507 177.33006477 51.5872879 C173.76175146 51.59021759 170.19343818 51.59317925 166.62512493 51.59619331 C165.73824134 51.59693936 164.85135775 51.59768541 163.93759889 51.59845407 C149.57586287 51.61110325 135.21425078 51.64432006 120.85257267 51.68599515 C106.10576675 51.72843672 91.35902423 51.75198558 76.6121574 51.75720847 C68.33317123 51.76062028 60.05437864 51.77234807 51.77545261 51.8053112 C44.72335419 51.8333436 37.67148903 51.84429717 30.61933922 51.83311574 C27.02304484 51.82793697 23.4272387 51.83076391 19.83101559 51.85558128 C15.92616456 51.88230267 12.02197506 51.86998642 8.11705303 51.85409737 C6.4245613 51.8749205 6.4245613 51.8749205 4.69787782 51.8961643 C-3.59672393 51.81313331 -10.23586192 49.94266994 -16.52284151 44.33269918 C-21.95816672 38.76580115 -24.34963162 32.51163051 -24.87853718 24.80859566 C-24.53576957 16.93865137 -20.53138591 10.9648358 -14.87853718 5.74609566 C-10.21153434 1.73641716 -6.17700383 -0.00507351 0 0 Z " fill="#D6D6D6" transform="translate(109.37853717803955,443.75390434265137)"/>
<path d="M0 0 C9.79864158 6.34320122 9.79864158 6.34320122 12.30859375 9.8046875 C14.78209494 11.55270451 16.78726618 10.83108341 19.64550781 10.35449219 C29.73755867 8.83503368 43.28897498 7.72961924 52.11328125 13.48046875 C53.04720703 14.23263672 53.04720703 14.23263672 54 15 C54.91845703 15.67482422 54.91845703 15.67482422 55.85546875 16.36328125 C62.61133849 22.13485208 67.92269859 32.20379509 69.85546875 40.80859375 C70.68681508 44.20346478 70.68681508 44.20346478 73.6875 45.56640625 C74.780625 45.89511719 75.87375 46.22382812 77 46.5625 C87.62159438 50.16164953 96.80648403 55.29037445 102.875 65 C106.43564921 74.49506455 105.54795989 85.52602648 104.0625 95.375 C103.75154768 98.63999938 103.60443709 100.32947263 105.28125 103.171875 C106.48184873 104.48832097 107.72904188 105.76354712 109.015625 106.99609375 C116.31777012 114.37011038 119.52557847 123.44926125 119.57226562 133.62939453 C119.25608018 143.61859598 113.93407341 150.90385704 107.5 158.1875 C104.81155686 161.34076024 104.81155686 161.34076024 103.71875 165.20703125 C103.97672762 167.5377503 103.97672762 167.5377503 104.484375 169.96484375 C106.27423015 180.50058205 106.50574846 192.78245849 100.734375 202.02734375 C94.77161313 209.87229056 84.86223397 215.02719004 75.5 217.5625 C71.91910109 218.86888657 71.13797025 219.73571896 69.3359375 223.1875 C68.56374675 225.13296721 67.86511597 227.09139719 67.18774414 229.07177734 C63.98598705 238.39563756 58.40422061 246.03256696 49.95703125 251.265625 C40.33402996 255.68274035 28.71287969 254.98763323 18.5 253 C15.41510511 252.62225777 14.33673615 252.78756243 11.671875 254.46875 C10.01105964 255.86169191 8.37122015 257.27991712 6.75 258.71875 C-1.21402924 265.32527426 -10.06318005 269.2638352 -20.484375 268.6796875 C-29.33180512 266.96918434 -36.53051942 262.48349037 -43.125 256.5 C-45.79218282 254.24848204 -47.22664381 253.08000236 -50.71875 252.71875 C-52.70485843 252.91095404 -54.68546635 253.16808938 -56.65625 253.48046875 C-68.4773687 255.31716126 -79.68440003 254.83026709 -89.625 247.625 C-96.47142528 241.26528742 -101.3371804 230.82058992 -104 222 C-104 221.01 -104 220.02 -104 219 C-105.00160156 218.90976562 -106.00320312 218.81953125 -107.03515625 218.7265625 C-111.3155889 218.1087681 -114.68365678 216.45562978 -118.4375 214.375 C-119.42145752 213.83214355 -119.42145752 213.83214355 -120.42529297 213.27832031 C-128.85344146 208.50940515 -134.65403829 203.99277731 -138.1640625 194.65234375 C-140.20113868 185.75203426 -139.66378623 176.18995609 -138.25390625 167.21875 C-137.88110519 164.04752465 -137.85646463 163.26334268 -139.44140625 160.35546875 C-140.49134766 159.28232422 -140.49134766 159.28232422 -141.5625 158.1875 C-149.40570239 149.40861733 -153.61210311 139.73610144 -153.5390625 127.9765625 C-152.67180194 118.17506469 -145.84235009 109.55145157 -139.28125 102.70703125 C-137.66155456 100.84016338 -137.66155456 100.84016338 -137.5 97.1875 C-137.9116249 93.98947156 -137.9116249 93.98947156 -139 91 C-139.99813566 80.13890727 -140.19576105 69.28320757 -133.66796875 60.1328125 C-126.4056856 51.85932537 -114.5674661 46.33750402 -104 44 C-103.8453125 42.72382812 -103.8453125 42.72382812 -103.6875 41.421875 C-101.41172759 30.09473505 -94.06540008 19.55965908 -85.09375 12.5 C-76.19010586 7.41220335 -62.52148929 9.3623353 -52.8125 10.9375 C-49.79581572 11.2716558 -48.51826872 11.31833734 -45.9140625 9.71875 C-44.57872667 8.51536435 -43.28291867 7.26685533 -42.02734375 5.98046875 C-29.70897903 -6.05307829 -14.89682366 -8.00369189 0 0 Z M-40 27 C-40.66 27.66 -41.32 28.32 -42 29 C-46.62651776 29.67802415 -51.16896714 29.04561091 -55.6875 28 C-63.18856857 26.39178968 -71.48166218 25.24083109 -78.5 28.75 C-84.10195332 34.8674705 -86.87549786 43.20934291 -88.9375 51.0625 C-90.58990184 56.72113325 -90.58990184 56.72113325 -94.125 59.125 C-95.40375 59.41375 -96.6825 59.7025 -98 60 C-107.2143622 62.40038007 -116.65593346 65.58670606 -122 74 C-123.06338524 81.54282578 -122.0887755 88.75072031 -120 96 C-119.15286309 99.09700054 -118.5879353 101.79379793 -119 105 C-120.90855979 108.09174794 -123.43685059 110.4466336 -126 113 C-133.08383004 121.26093297 -133.08383004 121.26093297 -136.4375 131.375 C-135.26953088 141.0524584 -128.11188979 149.44858198 -121 155.75 C-119 158 -119 158 -118.5 160.6875 C-118.9279524 163.52268462 -119.57500132 165.75144613 -120.5 168.4375 C-122.73597925 175.4435683 -123.75422317 184.77391691 -120.8828125 191.69140625 C-118.49423971 194.62013347 -115.7682714 196.33751303 -112.5 198.125 C-111.88141113 198.47336914 -111.26282227 198.82173828 -110.62548828 199.18066406 C-106.00136966 201.68950703 -101.49499126 203.25626305 -96.3046875 204.234375 C-93.23826747 205.25305013 -91.98670262 206.44927588 -90 209 C-88.7265625 212.3203125 -88.7265625 212.3203125 -87.625 216.125 C-85.39221678 223.34643882 -82.93335463 231.02665056 -76.6953125 235.7421875 C-69.09404298 239.28944661 -60.0430602 237.0180227 -52.37109375 234.6796875 C-48.23733815 233.49472296 -45.34414218 233.37710484 -41.4375 235.1875 C-38.68008732 237.23788379 -36.42996967 239.57003033 -34 242 C-31.40220132 244.10046044 -28.72131287 246.06336016 -26 248 C-24.7315625 248.928125 -24.7315625 248.928125 -23.4375 249.875 C-19.27815992 251.79469542 -15.95641159 251.70080415 -11.64453125 250.15625 C-4.28271779 246.77780537 1.65882887 241.8241523 6.97265625 235.7421875 C9 234 9 234 11.25390625 233.79296875 C12.39666016 233.98826172 12.39666016 233.98826172 13.5625 234.1875 C14.32691406 234.30480469 15.09132813 234.42210937 15.87890625 234.54296875 C18 235 18 235 21 236 C24.45309822 236.3042547 27.91007128 236.3234943 31.375 236.375 C32.32117188 236.41238281 33.26734375 236.44976562 34.2421875 236.48828125 C40.01919121 236.56844567 40.01919121 236.56844567 44.97265625 233.7890625 C49.73342466 227.23956607 52.88712553 220.85100652 54.9375 213 C56.61569549 207.26165414 56.61569549 207.26165414 59.9375 205 C61.28571974 204.64337413 62.64128424 204.31427686 64 204 C77.0061832 199.85666784 77.0061832 199.85666784 87.21875 191.296875 C88.34340133 187.99040008 88.33774359 184.76526154 88.3125 181.3125 C88.31193604 180.59570068 88.31137207 179.87890137 88.31079102 179.14038086 C88.22662585 174.28245564 87.41673254 170.48726629 85.6171875 166.03125 C84.52338628 162.4313979 84.64037384 158.51422499 86 155 C87.84375 153.96875 87.84375 153.96875 90 153 C96.08457427 147.32378642 101.21928561 140.40039017 102.6875 132.125 C101.94632101 122.54668687 94.94035194 115.43707642 88.07421875 109.484375 C85.40784973 106.29075786 85.13865494 104.11805178 85 100 C85.55859375 97.69140625 85.55859375 97.69140625 86.4375 95.5625 C87.9731998 90.91254385 88.40265981 86.60866616 88.5 81.75 C88.5302124 81.07654541 88.5604248 80.40309082 88.59155273 79.70922852 C88.59583117 75.8638616 87.9680651 73.95140342 85.84375 70.71875 C82.98483054 67.98549733 80.57141783 66.40815828 77 64.75 C75.989375 64.27046875 74.97875 63.7909375 73.9375 63.296875 C70.08380874 61.59551131 66.47701376 60.11514125 62.375 59.125 C58.60024348 57.86674783 57.99823458 57.29513892 56 54 C55.32915804 51.97925974 54.73070569 49.93372478 54.1875 47.875 C51.78481115 39.72236493 48.49960357 31.62389351 41 27 C38.05716461 26.65753987 35.54760165 26.52792057 32.625 26.625 C31.89539063 26.62628906 31.16578125 26.62757812 30.4140625 26.62890625 C25.63800331 26.70566434 21.58119157 27.54864306 17 29 C13.73762216 29.77543786 11.24311521 29.96705742 8 29 C5.34617473 26.74491308 3.09751689 24.26948178 0.7578125 21.69140625 C-14.51393203 6.78739494 -26.56448748 13.85370595 -40 27 Z " fill="#383938" transform="translate(290,73)"/>
<path d="M0 0 C5.4102924 2.85903176 9.34903821 5.77526538 13.484375 10.31640625 C16.63512766 13.74147286 16.63512766 13.74147286 20.73828125 15.65234375 C24.32870119 15.71309536 27.16184141 15.00367227 30.59375 13.921875 C34.8121036 12.82352774 38.58731998 12.53858269 42.921875 12.50390625 C43.65083984 12.47103516 44.37980469 12.43816406 45.13085938 12.40429688 C49.25878206 12.36342635 51.07292278 12.75813113 54.65625 15.05078125 C57.51818185 18.11122861 59.23555185 20.858483 61.046875 24.62890625 C61.34303711 25.24032471 61.63919922 25.85174316 61.94433594 26.48168945 C64.01162644 30.86579081 65.54750702 35.24096735 66.65625 39.953125 C67.4927173 42.31846865 68.39297358 43.39738222 70.359375 44.94140625 C72.20607166 45.41147449 74.0549923 45.87450645 75.9140625 46.29296875 C84.25056501 48.5036068 91.25513841 51.83716966 97.359375 57.94140625 C98.87556777 60.9737918 98.59383455 64.11537023 98.609375 67.44140625 C98.61332275 68.16320068 98.61727051 68.88499512 98.62133789 69.62866211 C98.56659069 74.67725728 97.86057241 78.92739474 95.91796875 83.6328125 C95.09002638 87.05458831 95.50631575 89.54049304 96.359375 92.94140625 C98.39547109 95.51493153 98.39547109 95.51493153 101.046875 97.69140625 C106.85699382 103.17642516 112.34180715 109.7108362 113.109375 118.00390625 C112.32366331 126.75387731 104.49970586 135.21596261 98.359375 140.94140625 C97.699375 140.94140625 97.039375 140.94140625 96.359375 140.94140625 C95.19358168 147.60067081 95.19358168 147.60067081 96.796875 154.00390625 C98.47183889 158.36498734 98.70141127 162.56549682 98.734375 167.19140625 C98.75455688 168.22019897 98.75455688 168.22019897 98.77514648 169.26977539 C98.73696012 173.6751907 98.11242037 176.48480484 95.359375 179.94140625 C89.93874 184.23948437 83.6125667 186.81932889 77.09765625 188.984375 C75.74220703 189.45810547 75.74220703 189.45810547 74.359375 189.94140625 C73.14765625 190.32941406 71.9359375 190.71742188 70.6875 191.1171875 C67.11928528 192.65821815 67.11928528 192.65821815 65.79296875 196.12890625 C65.29990234 198.01609375 65.29990234 198.01609375 64.796875 199.94140625 C64.40925672 201.29274806 64.01330909 202.64172644 63.609375 203.98828125 C63.30966797 204.98891602 63.30966797 204.98891602 63.00390625 206.00976562 C60.93974842 212.19598409 57.98041853 218.40232299 52.359375 221.94140625 C50.07275391 222.3137207 50.07275391 222.3137207 47.5859375 222.3046875 C46.6784375 222.30404297 45.7709375 222.30339844 44.8359375 222.30273438 C43.89492188 222.28662109 42.95390625 222.27050781 41.984375 222.25390625 C41.05109375 222.25712891 40.1178125 222.26035156 39.15625 222.26367188 C34.13936826 222.22458852 30.07588795 221.82217958 25.359375 219.94140625 C22.31683992 219.35795149 22.31683992 219.35795149 19.359375 219.94140625 C17.21391761 221.76871337 17.21391761 221.76871337 15.89453125 223.3125 C9.68105905 229.90542088 2.0144636 235.76770862 -6.953125 237.62890625 C-16.65958203 235.81922782 -24.85371474 227.72831651 -31.640625 220.94140625 C-35.97943797 218.77199977 -41.94124856 220.74324959 -46.390625 222.00390625 C-53.01680978 223.74693879 -60.6201716 224.48139111 -66.8125 221.32421875 C-70.05735715 218.59029214 -71.44980027 216.26238341 -73.265625 212.44140625 C-73.70817627 211.52524536 -73.70817627 211.52524536 -74.15966797 210.59057617 C-76.47437947 205.66624083 -78.14117231 200.63262036 -79.5234375 195.3671875 C-80.98340937 192.19710872 -82.50848904 191.38700746 -85.640625 189.94140625 C-87.69425779 189.38789827 -87.69425779 189.38789827 -89.765625 189.12890625 C-97.79766854 187.51712494 -105.38737547 183.24530569 -110.640625 176.94140625 C-113.64037098 170.94191429 -112.13585968 160.5434285 -110.140625 154.37890625 C-109.8725 153.6003125 -109.604375 152.82171875 -109.328125 152.01953125 C-108.36750097 149.11582678 -108.07948465 146.95753563 -108.640625 143.94140625 C-110.46793212 141.79594886 -110.46793212 141.79594886 -112.01171875 140.4765625 C-118.58702798 134.27968834 -124.43787968 126.62711139 -126.328125 117.69140625 C-124.60043122 108.26762201 -118.31658485 101.02797249 -111.4609375 94.68359375 C-109.55919296 93.05933484 -109.55919296 93.05933484 -108.640625 90.94140625 C-108.7582365 86.58073359 -109.49740151 82.43847601 -110.703125 78.25390625 C-112.24431341 72.3618244 -112.63494621 65.93514672 -111.640625 59.94140625 C-108.42130318 55.05876815 -105.27824934 52.81211268 -99.953125 50.25390625 C-99.34170654 49.95774414 -98.73028809 49.66158203 -98.1003418 49.35644531 C-93.71624044 47.28915481 -89.3410639 45.75327423 -84.62890625 44.64453125 C-82.12593624 43.75939451 -81.20875615 43.10649642 -79.640625 40.94140625 C-78.78026741 38.39749177 -78.02816799 35.9026185 -77.328125 33.31640625 C-75.0367665 25.44654932 -72.11836881 17.26304453 -64.640625 12.94140625 C-58.2065946 12.18779815 -51.65341615 12.56116218 -45.328125 13.94140625 C-38.50219021 15.62165082 -38.50219021 15.62165082 -31.640625 14.94140625 C-29.16143472 12.92213643 -27.11160708 10.71445208 -24.9765625 8.3359375 C-21.38192932 4.65113793 -17.16497077 2.3246972 -12.640625 -0.05859375 C-12.00769531 -0.46207031 -11.37476563 -0.86554688 -10.72265625 -1.28125 C-6.92482549 -2.69920182 -3.63787619 -1.45837936 0 0 Z M-27.640625 25.94140625 C-28.71054688 26.17472656 -29.78046875 26.40804687 -30.8828125 26.6484375 C-44.90266963 30.12955849 -58.01016103 37.15207326 -68.640625 46.94140625 C-69.53007812 47.73933594 -70.41953125 48.53726563 -71.3359375 49.359375 C-88.06995949 65.13783306 -99.9993899 87.91014435 -100.828125 111.140625 C-101.3807757 137.68779957 -93.64863057 162.11940744 -75.640625 181.94140625 C-75.10179687 182.56144531 -74.56296875 183.18148437 -74.0078125 183.8203125 C-66.31433754 192.15168865 -56.35434175 198.42778782 -46.203125 203.31640625 C-45.57293457 203.62570068 -44.94274414 203.93499512 -44.29345703 204.25366211 C-32.65582251 209.58576725 -21.11121382 211.60327509 -8.44140625 211.40795898 C-6.37679802 211.37871037 -4.31473252 211.38747386 -2.25 211.40039062 C5.71510002 211.38791564 12.81531614 210.54471702 20.359375 207.94140625 C22.07253906 207.37679687 22.07253906 207.37679687 23.8203125 206.80078125 C36.46575162 201.98669987 47.27394519 196.01354327 57.359375 186.94140625 C58.06707031 186.31621094 58.77476562 185.69101562 59.50390625 185.046875 C76.3991868 169.21796324 86.6579125 145.2877439 87.59765625 122.26171875 C88.18282131 94.97938199 79.33765218 71.78233239 60.359375 51.94140625 C59.43898438 50.90886719 59.43898438 50.90886719 58.5 49.85546875 C44.65032354 34.88124591 21.54483418 24.84464375 1.22607422 23.83544922 C-8.5472158 23.57017719 -18.08300284 23.68872419 -27.640625 25.94140625 Z " fill="#F9E06D" transform="translate(279.640625,87.05859375)"/>
<path d="M0 0 C18.73558418 16.65385261 32.7318765 38.24568992 34.80859375 63.86669922 C36.272819 92.36156855 27.09409105 117.45968113 8.41796875 138.80859375 C-4.54825636 152.5361385 -21.39518061 160.48045703 -39.3984375 165.3125 C-39.97271484 165.4875708 -40.54699219 165.6626416 -41.13867188 165.84301758 C-46.16489078 166.8872504 -51.42762494 166.57924795 -56.5480957 166.60766602 C-57.9703984 166.61906499 -59.39266257 166.63931963 -60.81469727 166.66918945 C-74.85593472 166.96339307 -87.21217476 164.45520012 -99.9609375 158.25 C-100.75540283 157.86787354 -101.54986816 157.48574707 -102.3684082 157.09204102 C-110.23299434 153.15065549 -116.84040286 148.13123365 -123.3984375 142.3125 C-124.54699219 141.31283203 -124.54699219 141.31283203 -125.71875 140.29296875 C-140.29802268 126.71423439 -152.26024223 103.20361778 -153.3359375 83.1015625 C-153.3565625 82.18117188 -153.3771875 81.26078125 -153.3984375 80.3125 C-153.4603125 79.00023437 -153.5221875 77.68796875 -153.5859375 76.3359375 C-154.43541942 51.78212258 -146.14887042 29.41782749 -129.8359375 11 C-128.36271612 9.43189317 -126.88405833 7.86886468 -125.3984375 6.3125 C-124.85960937 5.69890625 -124.32078125 5.0853125 -123.765625 4.453125 C-92.82816096 -29.43816726 -33.77779033 -28.30900523 0 0 Z M-111.3984375 16.3125 C-112.08035156 16.90289062 -112.76226562 17.49328125 -113.46484375 18.1015625 C-128.13573132 31.59533385 -135.56773484 50.97534772 -136.5625 70.5390625 C-137.07000109 91.34660702 -129.06336924 111.79048723 -114.86425781 127.01049805 C-101.50825997 140.62057464 -83.09457162 149.57191051 -63.94873047 149.78125 C-62.85963379 149.7709375 -61.77053711 149.760625 -60.6484375 149.75 C-58.93164795 149.73646484 -58.93164795 149.73646484 -57.18017578 149.72265625 C-36.81534529 149.30710636 -18.50995291 141.32375452 -4.0390625 126.97265625 C10.48968627 111.54195495 18.19388539 92.80166526 18.01879883 71.60986328 C17.44733354 53.46358709 10.9147157 35.82135196 -1.3984375 22.3125 C-2.12546875 21.49394531 -2.8525 20.67539063 -3.6015625 19.83203125 C-17.81965416 4.67371095 -37.74485479 -3.36637732 -58.38891602 -4.0925293 C-78.24991445 -4.35607442 -96.73571187 2.89597348 -111.3984375 16.3125 Z " fill="#393937" transform="translate(332.3984375,131.6875)"/>
<path d="M0 0 C0 134.97 0 269.94 0 409 C-4.95 410.98 -4.95 410.98 -10 413 C-11.67888441 413.97934924 -13.35178756 414.96986723 -15 416 C-15.66 416 -16.32 416 -17 416 C-17.09154117 365.57776167 -17.16203144 315.15553173 -17.20426132 264.73322666 C-17.20926419 258.78137949 -17.21444147 252.82953248 -17.21972656 246.87768555 C-17.2207758 245.69277228 -17.22182505 244.50785901 -17.22290608 243.28703927 C-17.2403147 224.09721014 -17.27185493 204.9074289 -17.30861118 185.71762819 C-17.34600785 166.02938167 -17.36823316 146.34116024 -17.37635398 126.65287966 C-17.38184438 114.50264681 -17.39918989 102.35254935 -17.43166587 90.20235818 C-17.45279799 81.87225881 -17.45920298 73.54222951 -17.45400551 65.21210528 C-17.45144172 60.4049399 -17.4553917 55.59801121 -17.4768219 50.79088783 C-17.49630604 46.38813503 -17.49725792 41.9857778 -17.48359558 37.58300667 C-17.48190734 35.99200119 -17.4869658 34.40097089 -17.49953273 32.81001414 C-17.58421159 21.42593313 -16.40119462 13.04139843 -8.51953125 4.44140625 C-5.99433603 2.04604112 -3.56789499 0 0 0 Z " fill="#41876E" transform="translate(102,19)"/>
<path d="M0 0 C1.81486656 -0.01908669 1.81486656 -0.01908669 3.66639709 -0.03855896 C5.00404553 -0.03237674 6.34169207 -0.02577072 7.67933655 -0.01878357 C9.09052432 -0.02584223 10.50170451 -0.03458703 11.91287231 -0.04489136 C15.74355147 -0.06740225 19.57381779 -0.06444175 23.40453792 -0.05556989 C26.60291334 -0.05046114 29.80121111 -0.05775166 32.99957854 -0.06504196 C40.54524394 -0.08204656 48.09070715 -0.07846982 55.6363678 -0.06175232 C63.41980528 -0.04483095 71.20268195 -0.06066407 78.98605818 -0.0929752 C85.66985567 -0.11967005 92.35347857 -0.12694741 99.03732401 -0.11846012 C103.02875212 -0.11353043 107.01984279 -0.11574829 111.01122856 -0.13624763 C114.76498834 -0.1546034 118.51794152 -0.14864857 122.27165794 -0.12404823 C123.64829353 -0.11903979 125.02499056 -0.1225312 126.401577 -0.13519669 C138.10187843 -0.23432046 138.10187843 -0.23432046 141.40835571 2.86660767 C143.48417892 6.1434948 143.80028329 7.70424985 143.08583069 11.5146637 C141.28589294 14.21457031 140.00205769 16.0565502 137.08583069 17.5146637 C135.22212737 17.61889858 133.35468721 17.65855133 131.48809814 17.66856384 C130.29776474 17.67716431 129.10743134 17.68576477 127.88102722 17.69462585 C125.91188858 17.70101578 125.91188858 17.70101578 123.90296936 17.70753479 C122.51178787 17.7154351 121.12060843 17.723704 119.72943115 17.73231506 C115.15424051 17.75854258 110.57904068 17.773843 106.00379944 17.7881012 C104.42950751 17.7934605 102.85521565 17.79883801 101.28092384 17.80423355 C94.73299929 17.82586298 88.18507721 17.84460025 81.63712597 17.85585594 C72.24922146 17.87209893 62.86173059 17.90528402 53.47398204 17.96225679 C46.87519197 18.00094021 40.27651262 18.02048669 33.67761213 18.02577651 C29.73527734 18.0294321 25.79338366 18.04147463 21.85117149 18.07387924 C18.14183914 18.10393246 14.4332154 18.11028212 10.72378731 18.09849548 C8.71486409 18.09816921 6.70598478 18.12265306 4.69721985 18.14787292 C-5.1191174 18.07975689 -5.1191174 18.07975689 -8.22305298 15.10929871 C-10.8583716 11.06599912 -10.59385338 9.2724522 -9.91416931 4.5146637 C-6.95198029 0.57711361 -4.83264051 0.01289772 0 0 Z " fill="#383838" transform="translate(146.91416931152344,460.48533630371094)"/>
<path d="M0 0 C4.3428901 0.44164984 5.90998662 1.00831712 8.6875 4.375 C9.20488658 7.63453543 9.43208924 9.30433859 8.6875 12.375 C5.12637844 17.19974533 -0.29469387 20.19377651 -5.3125 23.375 C-5.13484736 31.28861763 -3.32208609 37.78177904 -0.37109375 45.11328125 C0.74927045 48.56532593 1.26361983 50.78756473 0.6875 54.375 C-1.83171044 57.78445774 -3.39421327 59.16206395 -7.546875 60.125 C-8.70703125 60.2075 -9.8671875 60.29 -11.0625 60.375 C-17.60958208 61.08872803 -21.86910934 62.82199187 -27.3125 66.375 C-31.31662369 68.69073111 -33.77317193 68.44793209 -38.3125 67.375 C-40.37230568 65.80013691 -41.18882198 64.8455142 -41.8515625 62.32421875 C-41.97830364 58.98862239 -42.0516997 56.43404573 -40.09375 53.62890625 C-34.76587318 48.79109357 -27.5637905 44.375 -20.3125 44.375 C-20.6425 43.158125 -20.9725 41.94125 -21.3125 40.6875 C-22.11572213 37.50289396 -22.51891973 34.6777157 -22.3125 31.375 C-22.88097656 31.60316406 -23.44945312 31.83132812 -24.03515625 32.06640625 C-29.13209339 33.96393043 -32.92891475 35.06396792 -38.3125 33.375 C-40.8125 31.25 -40.8125 31.25 -42.3125 28.375 C-42.3125 24.68883223 -42.06391845 22.38621738 -39.84375 19.3984375 C-36.19137844 16.4787948 -32.17248522 15.16397934 -27.8125 13.5625 C-19.32176524 10.31500488 -8.12707395 0.92004611 0 0 Z " fill="#3A3937" transform="translate(255.3125,170.625)"/>
<path d="M0 0 C3.5 0.625 3.5 0.625 6.25 2.375 C14.85462341 14.80390048 14.23214818 37.2119684 11.74609375 51.6328125 C11.43103786 53.15465492 11.09977331 54.67325986 10.75 56.1875 C10.59313721 56.88286865 10.43627441 57.5782373 10.2746582 58.29467773 C9.19867961 62.4360342 7.90522881 65.00214015 4.5 67.625 C1.0625 68.625 1.0625 68.625 -2.5 68.625 C-5.30189446 66.85858828 -7.01524911 65.59450178 -8.5 62.625 C-8.83117409 57.87817131 -7.8506114 54.15352056 -6.5 49.625 C-4.50044084 38.08144569 -4.57419015 26.3811843 -7.8125 15.109375 C-8.7400574 11.75751984 -9.06192727 9.06680454 -8.5 5.625 C-5.90783917 1.93313458 -4.45850936 0.79616239 0 0 Z " fill="#3A3A37" transform="translate(315.5,170.375)"/>
<path d="M0 0 C4.59628238 0.82076471 5.80324315 1.80459447 8.5 5.625 C14.01700168 20.33700447 13.85049725 37.62526584 11.1875 52.9375 C11.06987305 53.62384521 10.95224609 54.31019043 10.83105469 55.01733398 C9.89813114 59.8328658 8.66533956 64.84632822 4.75 68.0625 C1.32046336 68.91988416 -1.09861914 68.53608416 -4.5 67.625 C-7 65.6875 -7 65.6875 -8.5 62.625 C-8.69433547 57.64294534 -7.56470054 52.88395631 -6.4375 48.0625 C-4.23711918 37.57346663 -3.62376398 22.37747205 -8.5 12.625 C-8.99055907 8.29172826 -8.97744439 6.30499656 -6.4375 2.6875 C-3.5 0.625 -3.5 0.625 0 0 Z " fill="#3A3A37" transform="translate(281.5,170.375)"/>
<path d="M0 0 C1.63630371 -0.00505302 1.63630371 -0.00505302 3.30566406 -0.01020813 C5.60877199 -0.00990953 7.91191975 0.00531564 10.21484375 0.03442383 C13.73821412 0.07408608 17.25781806 0.0551321 20.78125 0.02929688 C23.02084792 0.03685632 25.2604375 0.04781011 27.5 0.0625 C28.55219727 0.0555159 29.60439453 0.0485318 30.68847656 0.04133606 C37.9702585 0.18178 37.9702585 0.18178 41.91796875 3.11791992 C43.75 5.76171875 43.75 5.76171875 44.3125 8.76171875 C43.62642343 12.42079379 42.32265686 14.11339551 39.75 16.76171875 C37.36596458 17.95373646 35.85748883 17.90727562 33.19604492 17.9387207 C31.77898506 17.95797356 31.77898506 17.95797356 30.33329773 17.97761536 C29.30936417 17.98500229 28.2854306 17.99238922 27.23046875 18 C26.17974686 18.00807175 25.12902496 18.01614349 24.04646301 18.02445984 C21.81964776 18.0383069 19.59281123 18.04902626 17.3659668 18.05688477 C13.96166724 18.07409656 10.5583389 18.11797788 7.15429688 18.16210938 C4.99219465 18.1722362 2.83008416 18.18075233 0.66796875 18.1875 C-0.85882256 18.21376213 -0.85882256 18.21376213 -2.41645813 18.24055481 C-6.82146244 18.22704859 -9.50037337 18.19907446 -13.36206055 15.94604492 C-16.0496036 12.83658577 -16.39098103 10.85016874 -16.25 6.76171875 C-12.20843359 -0.35749611 -7.72556649 -0.11220853 0 0 Z " fill="#393939" transform="translate(323.25,460.23828125)"/>
</svg>
