<?xml version="1.0" encoding="utf-8"?>
<!-- Uploaded to: SVG Repo, www.svgrepo.com, Generator: SVG Repo Mixer Tools -->
<svg width="800px" height="800px" viewBox="0 0 64 64" xmlns="http://www.w3.org/2000/svg">
<title>quran</title>
<g id="quran">
<circle cx="59.207" cy="18.989" r="1.069" style="fill:#4c241d"/>
<circle cx="24.5" cy="26.5" r="21.5" style="fill:#e5efef"/>
<circle cx="9.5" cy="41.5" r="2.5" style="fill:none;stroke:#4c241d;stroke-linecap:round;stroke-linejoin:round;stroke-width:2px"/>
<path d="M19.984,9H55a0,0,0,0,1,0,0V55a0,0,0,0,1,0,0H17a0,0,0,0,1,0,0V11.984A2.984,2.984,0,0,1,19.984,9Z" style="fill:#ffce56;stroke:#4c241d;stroke-linecap:round;stroke-linejoin:round;stroke-width:2px"/>
<path d="M23,9H19.984A2.984,2.984,0,0,0,17,11.984V55h6Z" style="fill:#e66353;stroke:#4c241d;stroke-linecap:round;stroke-linejoin:round;stroke-width:2px"/>
<path d="M21,51H55a0,0,0,0,1,0,0v8a0,0,0,0,1,0,0H21a4,4,0,0,1-4-4v0A4,4,0,0,1,21,51Z" style="fill:#ffffff;stroke:#4c241d;stroke-linecap:round;stroke-linejoin:round;stroke-width:2px"/>
<line x1="34" y1="55" x2="17" y2="55" style="fill:none;stroke:#4c241d;stroke-linecap:round;stroke-linejoin:round;stroke-width:2px"/>
<path d="M36.036,28.578a10.122,10.122,0,0,1,1.4-12.238A10.12,10.12,0,1,0,47.492,33.106,10.122,10.122,0,0,1,36.036,28.578Z" style="fill:#fc8c29;stroke:#4c241d;stroke-linecap:round;stroke-linejoin:round;stroke-width:2px"/>
<path d="M41.114,16.451l1.787.911a.227.227,0,0,0,.263-.042L44.582,15.9a.226.226,0,0,1,.383.2l-.314,1.981a.225.225,0,0,0,.121.237l1.787.911a.226.226,0,0,1-.067.424l-1.981.314a.225.225,0,0,0-.188.188l-.314,1.981a.226.226,0,0,1-.425.067l-.91-1.787a.228.228,0,0,0-.237-.121l-1.981.314a.226.226,0,0,1-.2-.383l1.418-1.418a.228.228,0,0,0,.042-.263l-.911-1.787A.226.226,0,0,1,41.114,16.451Z" style="fill:#4c241d"/>
<line x1="12" y1="4" x2="15" y2="7" style="fill:none;stroke:#4c241d;stroke-linecap:round;stroke-linejoin:round;stroke-width:2px"/>
<line x1="17" y1="2" x2="17" y2="5" style="fill:none;stroke:#4c241d;stroke-linecap:round;stroke-linejoin:round;stroke-width:2px"/>
<line x1="13" y1="9" x2="10" y2="9" style="fill:none;stroke:#4c241d;stroke-linecap:round;stroke-linejoin:round;stroke-width:2px"/>
<line x1="31" y1="40" x2="45" y2="40" style="fill:none;stroke:#816982;stroke-linecap:round;stroke-linejoin:round;stroke-width:2px"/>
<line x1="36" y1="43" x2="42" y2="43" style="fill:none;stroke:#816982;stroke-linecap:round;stroke-linejoin:round;stroke-width:2px"/>
</g>
</svg>