<?xml version="1.0" encoding="UTF-8"?>
<svg version="1.1" xmlns="http://www.w3.org/2000/svg" width="512" height="512">
<path d="M0 0 C0.67343445 -0.00078552 1.3468689 -0.00157104 2.04071045 -0.00238037 C31.81284673 0.03903223 31.81284673 0.03903223 42.8125 7.625 C44.54974765 10.18515443 44.20078836 12.36317467 44 15.375 C45.01320312 15.66503906 45.01320312 15.66503906 46.046875 15.9609375 C46.93890625 16.22132812 47.8309375 16.48171875 48.75 16.75 C49.63171875 17.00523438 50.5134375 17.26046875 51.421875 17.5234375 C54 18.375 54 18.375 56.1953125 19.49609375 C57.99084273 20.5804149 57.99084273 20.5804149 60.125 20.0625 C62.0521932 19.39555654 62.0521932 19.39555654 64 18.375 C70.45483737 17.24540346 74.93016363 20.85075439 80 24.375 C83.41975198 26.94363636 86.72205593 29.62861443 90 32.375 C90.639375 32.890625 91.27875 33.40625 91.9375 33.9375 C96.47941895 37.66836199 100.29250371 41.8213946 104 46.375 C104.72445312 47.261875 105.44890625 48.14875 106.1953125 49.0625 C118.84983204 65.19165032 124.95744876 81.81500699 123 102.375 C121.48745326 110.2710067 118.33692348 116.40938135 113 122.375 C112.236875 123.24125 111.47375 124.1075 110.6875 125 C101.61012612 133.02186529 101.61012612 133.02186529 96.34375 133.734375 C95.5703125 133.94578125 94.796875 134.1571875 94 134.375 C92.76928396 136.612692 92.76928396 136.612692 92 139.375 C91.02083333 141.33333333 90.04166667 143.29166667 89.0625 145.25 C83.36617214 157.5920437 80.94120718 170.51749317 85.6875 183.5 C90.88826982 195.26231453 98.18378663 203.1306113 109.9848938 208.32949829 C114.85806239 210.01929154 119.47136277 210.10999284 124.58984375 210.07421875 C125.65562149 210.08137405 126.72139923 210.08852936 127.81947327 210.09590149 C130.05729343 210.1036322 132.29518988 210.09876563 134.53295898 210.08178711 C137.92643726 210.06256267 141.31581229 210.10202161 144.70898438 210.14648438 C160.80267235 210.27788944 160.80267235 210.27788944 175 203.375 C175.78020508 202.79983643 176.56041016 202.22467285 177.36425781 201.63208008 C186.54171985 194.46817728 191.28078503 184.59409808 192.875 173.25 C193.6638616 160.6457446 189.50151407 150.34506064 183.64453125 139.54296875 C182 136.375 182 136.375 182 134.375 C180.90171875 134.21257812 180.90171875 134.21257812 179.78125 134.046875 C171.15656907 131.96338466 164.01687479 124.33389084 159 117.375 C152.25191294 105.68325941 151.24789259 92.8224428 153.6875 79.66796875 C161.6371968 52.27463854 182.87890692 31.20282441 207.171875 17.43359375 C228.31065911 5.87837155 251.49335724 -0.07673931 275.5625 0 C276.61806091 0.00181274 276.61806091 0.00181274 277.69494629 0.00366211 C310.45426516 0.15591876 337.60083078 12.53191549 361.125 35.1875 C366.32650621 40.51285159 370.75476442 46.26940057 375 52.375 C375.54398437 53.13941406 376.08796875 53.90382812 376.6484375 54.69140625 C383.88147525 65.69404303 387.82105664 78.92939709 390.3125 91.75 C390.45961426 92.50128174 390.60672852 93.25256348 390.75830078 94.02661133 C394.00462401 112.46990381 394.33549126 131.11322029 394.37109375 149.78515625 C394.38008404 152.25662787 394.38920622 154.72809902 394.39845276 157.1995697 C394.41478932 162.33008132 394.42261744 167.46052874 394.42553711 172.59106445 C394.4309773 179.16948906 394.46895214 185.74731602 394.51428127 192.32557011 C394.54394099 197.4066748 394.55125788 202.48763147 394.55226326 207.56881523 C394.55646949 209.99657436 394.56891978 212.42433377 394.58978081 214.85200691 C394.61652856 218.22610277 394.61192439 221.59875401 394.59936523 224.97290039 C394.62161667 226.47276489 394.62161667 226.47276489 394.64431763 228.00292969 C394.57256324 234.74602895 394.57256324 234.74602895 391.58753967 238.02513123 C389 239.375 389 239.375 387 239.375 C387 245.645 387 251.915 387 258.375 C388.65 258.705 390.3 259.035 392 259.375 C394.49158934 263.11238401 394.2646479 265.08085642 394.29052734 269.54931641 C394.30060318 270.64019562 394.30060318 270.64019562 394.31088257 271.75311279 C394.32990045 274.1609987 394.3337895 276.56860611 394.3359375 278.9765625 C394.34236593 280.65465407 394.34909432 282.33274452 394.35610962 284.01083374 C394.36809406 287.53312779 394.37178956 291.05532372 394.37060547 294.57763672 C394.37040293 299.07326872 394.39763219 303.56826395 394.43214989 308.0637455 C394.45448781 311.53322182 394.45844081 315.00254702 394.45738602 318.47208786 C394.45973442 320.12815914 394.46851478 321.78423507 394.48405075 323.44023514 C394.56792124 333.30935047 394.27411069 341.33300897 388.39453125 349.64453125 C387.87246094 350.15371094 387.35039062 350.66289062 386.8125 351.1875 C386.30332031 351.70957031 385.79414063 352.23164063 385.26953125 352.76953125 C375.83032544 359.44683519 366.18561662 358.94011401 355.05932617 358.88293457 C353.1110624 358.88754576 351.1628021 358.89390014 349.21454906 358.90184355 C343.87062092 358.91852991 338.5269788 358.91029352 333.18304968 358.89789867 C327.41609104 358.88884774 321.64918154 358.90281815 315.88223267 358.91381836 C304.58862977 358.93160765 293.29513319 358.92776173 282.00152612 358.9161678 C272.8232233 358.90713539 263.64495028 358.90590865 254.46664429 358.91026306 C253.1604917 358.91087599 251.85433911 358.91148893 250.50860614 358.91212043 C247.85520751 358.91339933 245.2018089 358.91469618 242.5484103 358.9160108 C218.37507811 358.92749427 194.20179965 358.91559906 170.02847664 358.89464041 C147.96719556 358.87565837 125.90600684 358.8773569 103.84472656 358.89648438 C79.05124252 358.91790893 54.25781029 358.92631915 29.46431828 358.91403532 C26.8206641 358.91276112 24.17700991 358.91150364 21.53335571 358.91026306 C19.58224759 358.90933741 19.58224759 358.90933741 17.59172314 358.90839306 C8.4241224 358.90493892 -0.74344559 358.91076989 -9.91104126 358.92018127 C-21.08281855 358.931398 -32.25448342 358.92836797 -43.42624784 358.9070583 C-49.12658835 358.89654361 -54.82674139 358.89243339 -60.52708054 358.90565491 C-65.7455163 358.91757566 -70.96359084 358.91102114 -76.18199384 358.8897447 C-78.0694866 358.88527734 -79.95700989 358.88754788 -81.84448302 358.89724785 C-92.11773879 358.94599261 -100.61102735 358.89456585 -109.26953125 352.76953125 C-109.77871094 352.24746094 -110.28789063 351.72539062 -110.8125 351.1875 C-111.33457031 350.67832031 -111.85664062 350.16914063 -112.39453125 349.64453125 C-116.90293187 343.27134205 -118.59584275 337.11415601 -118.50120544 329.39482117 C-118.50673984 328.53709053 -118.51227424 327.6793599 -118.51797634 326.79563743 C-118.53149881 323.9450804 -118.51665854 321.09541189 -118.50170898 318.24487305 C-118.50549575 316.19047679 -118.51099873 314.13608309 -118.51808167 312.08169556 C-118.53202348 306.51223537 -118.5208677 300.94308469 -118.50437045 295.37364173 C-118.49046595 289.51576002 -118.49698751 283.65789533 -118.50050354 277.80000305 C-118.50320545 267.94352275 -118.48974549 258.08716419 -118.46655273 248.23071289 C-118.44008349 236.90492618 -118.43815117 225.57934477 -118.4499411 214.25353783 C-118.46081096 203.30096024 -118.45445132 192.34845545 -118.44038582 181.39588356 C-118.43469098 176.76626637 -118.43465695 172.13670363 -118.43945122 167.5070858 C-118.51119824 74.21229335 -118.51119824 74.21229335 -92 43.375 C-91.32195312 42.57578125 -90.64390625 41.7765625 -89.9453125 40.953125 C-66.43953853 14.01768294 -35.69578098 -0.03986376 0 0 Z " fill="#010101" transform="translate(118,76.625)"/>
<path d="M0 0 C14.57576749 5.34536653 24.98804616 22.10093081 31.37109375 35.48046875 C35.42077188 44.29041891 38.20918738 51.40435021 38.22412109 61.23852539 C38.22920181 61.97410172 38.23428253 62.70967804 38.23951721 63.46754456 C38.25018234 65.0580484 38.2588175 66.64856689 38.26563644 68.23909187 C38.27746767 70.75683965 38.29692859 73.27441914 38.3187561 75.792099 C38.38024923 82.9480125 38.43448624 90.10390486 38.46777344 97.26000977 C38.48870488 101.6425587 38.52398715 106.02479386 38.56853104 110.40716362 C38.58269408 112.07568105 38.59141417 113.74425392 38.59458542 115.41282845 C38.59948835 117.74438551 38.62262633 120.07510668 38.64990234 122.40649414 C38.64689621 123.09491394 38.64389008 123.78333374 38.64079285 124.49261475 C38.69221201 127.44876134 38.94365384 129.52722861 40.34243774 132.1547699 C42.18901162 134.13059576 42.18901162 134.13059576 46.06640625 134.7578125 C46.06640625 141.3578125 46.06640625 147.9578125 46.06640625 154.7578125 C44.08640625 155.7478125 42.10640625 156.7378125 40.06640625 157.7578125 C38.6189438 160.65273741 38.93364505 163.17293486 38.92456055 166.40722656 C38.92108612 167.09038437 38.91761169 167.77354218 38.91403198 168.47740173 C38.90667325 169.96319004 38.90132849 171.44898936 38.89774132 172.93479156 C38.89057753 175.28903619 38.87491069 177.64307218 38.85639954 179.99725342 C38.80393361 186.69166152 38.75597642 193.38595724 38.74047852 200.08056641 C38.73037942 204.17445505 38.70100397 208.26782153 38.65915871 212.3615036 C38.64686822 213.91951288 38.64172389 215.477596 38.64395714 217.03565216 C38.64631842 219.22127163 38.62408352 221.40540253 38.59643555 223.59082031 C38.59056931 224.83277161 38.58470306 226.0747229 38.57865906 227.35430908 C37.95866721 231.47365081 36.72022074 233.56821105 34.06640625 236.7578125 C30.48840992 239.31028571 27.97736443 240.14308484 23.60385132 240.23297119 C21.97662643 240.27600876 21.97662643 240.27600876 20.31652832 240.31991577 C19.13619019 240.33583771 17.95585205 240.35175964 16.73974609 240.36816406 C15.48872101 240.39590912 14.23769592 240.42365417 12.94876099 240.45223999 C8.80835412 240.5368836 4.66826212 240.59703904 0.52734375 240.6484375 C-0.17893268 240.65768092 -0.88520911 240.66692434 -1.61288786 240.67644787 C-8.28311357 240.76314734 -14.95336693 240.83847323 -21.62400246 240.88501358 C-30.13249087 240.94500793 -38.63583742 241.06199071 -47.14230502 241.25828958 C-53.13741015 241.39188914 -59.13113939 241.45956326 -65.12768781 241.47932792 C-68.70354483 241.49284178 -72.27369263 241.53438528 -75.84791946 241.64691925 C-97.48063378 242.2963022 -97.48063378 242.2963022 -103.1767807 238.10870361 C-106.80728501 234.16776215 -109.04735651 229.78830176 -111.03694725 224.85039997 C-112.38272183 221.70964045 -114.20566642 219.05215354 -116.12109375 216.2265625 C-117.39227048 214.23719855 -118.66310455 212.2476156 -119.93359375 210.2578125 C-124.45576251 203.1825315 -128.98666751 196.11355022 -133.55859375 189.0703125 C-138.33215067 181.71528523 -143.0377293 174.31785879 -147.73828125 166.91601562 C-151.31823723 161.2830805 -154.92266755 155.66726225 -158.55859375 150.0703125 C-164.43682242 141.02089084 -170.1898687 131.89301282 -175.93359375 122.7578125 C-173.56185186 120.38607061 -171.63352455 119.79965933 -168.49609375 118.6328125 C-152.11152748 111.92200811 -142.94169537 100.44080749 -135.93359375 84.7578125 C-135.55976563 83.93796875 -135.1859375 83.118125 -134.80078125 82.2734375 C-129.83562254 67.87000414 -133.18190791 52.63849478 -137.93359375 38.7578125 C-138.31773437 37.98953125 -138.701875 37.22125 -139.09765625 36.4296875 C-139.93359375 34.7578125 -139.93359375 34.7578125 -139.93359375 31.7578125 C-139.10214844 31.35949219 -138.27070313 30.96117187 -137.4140625 30.55078125 C-135.78404297 29.75607422 -135.78404297 29.75607422 -134.12109375 28.9453125 C-133.04214844 28.42324219 -131.96320313 27.90117187 -130.8515625 27.36328125 C-127.96205213 25.97603702 -127.96205213 25.97603702 -126.328125 24.0078125 C-125.86792969 23.5953125 -125.40773438 23.1828125 -124.93359375 22.7578125 C-122.83984375 22.90234375 -122.83984375 22.90234375 -120.43359375 23.5703125 C-109.98205013 25.9752263 -100.83981172 24.99967298 -90.93359375 20.7578125 C-88.68364412 19.23973055 -86.6919607 17.68782511 -84.71484375 15.83203125 C-82.13967386 14.27902309 -80.84236896 15.0494169 -77.93359375 15.7578125 C-64.98198546 17.05914811 -54.87523705 16.15262342 -43.93359375 8.7578125 C-43.27359375 8.0978125 -42.61359375 7.4378125 -41.93359375 6.7578125 C-40.2580752 7.04334094 -38.59315829 7.39075064 -36.93359375 7.7578125 C-25.30139329 8.697998 -14.33682366 8.41886678 -4.49609375 1.4453125 C-1.93359375 -0.2421875 -1.93359375 -0.2421875 0 0 Z " fill="#97E4FA" transform="translate(458.93359375,180.2421875)"/>
<path d="M0 0 C2.90478627 1.38351676 5.6274854 2.99128386 8.3828125 4.6484375 C13.96542059 7.43540048 19.14389054 8.16067575 25.33203125 8.08984375 C26.63785156 8.07824219 27.94367188 8.06664062 29.2890625 8.0546875 C32.13279155 7.93452993 34.73294143 7.66719939 37.51953125 7.15234375 C40.89453125 6.90234375 40.89453125 6.90234375 43.39453125 8.58984375 C44.21953125 9.35296875 45.04453125 10.11609375 45.89453125 10.90234375 C50.80160009 13.69529993 55.40317455 16.02644765 61.1328125 16.03515625 C62.36354492 16.03708984 62.36354492 16.03708984 63.61914062 16.0390625 C64.90014648 16.03326172 64.90014648 16.03326172 66.20703125 16.02734375 C67.47063477 16.03314453 67.47063477 16.03314453 68.75976562 16.0390625 C72.39655422 16.03337557 75.62882024 15.95950617 79.19921875 15.19140625 C81.89453125 14.90234375 81.89453125 14.90234375 84.3515625 16.23046875 C85.12886719 16.8646875 85.90617187 17.49890625 86.70703125 18.15234375 C94.71151561 24.13778653 101.9338657 25.8145465 111.89453125 24.90234375 C113.36205132 24.58840907 114.82250843 24.2377069 116.26953125 23.83984375 C119.8595995 22.91137782 121.47738795 22.60937061 124.89453125 23.90234375 C125.63703125 24.50046875 126.37953125 25.09859375 127.14453125 25.71484375 C130.75211498 28.58451263 134.65236145 30.16481015 138.89453125 31.90234375 C138.23508162 36.25471128 136.63071359 39.87440072 134.89453125 43.90234375 C130.19038264 58.27613117 129.71893285 75.68334843 136.38793945 89.45336914 C145.04114878 106.20781253 157.56158359 115.22253094 174.89453125 121.90234375 C170.9588764 129.37344779 166.69042968 136.4957362 162.01953125 143.52734375 C160.68654935 145.55276009 159.35455176 147.5788245 158.0234375 149.60546875 C157.34168457 150.64251953 156.65993164 151.67957031 155.95751953 152.74804688 C152.58733975 157.90103182 149.27081 163.08797194 145.95703125 168.27734375 C145.29759521 169.30939941 144.63815918 170.34145508 143.95874023 171.40478516 C142.61638173 173.50630765 141.27434195 175.60803377 139.93261719 177.70996094 C117.61389316 212.66918895 117.61389316 212.66918895 114.93991375 216.5673275 C112.58375849 220.06422284 110.60144415 223.423372 109.01948547 227.33779907 C106.79804063 232.3440587 104.38935927 236.62668012 99.89453125 239.90234375 C91.2169562 242.85900646 81.58105765 242.0538108 72.52407622 241.79069853 C68.90105327 241.70233079 65.27805397 241.70769038 61.65412903 241.70132446 C55.5760805 241.67743368 49.50169205 241.59041912 43.42504883 241.45947266 C35.63575321 241.29189875 27.84911822 241.22637065 20.05822277 241.1938076 C13.34018649 241.16522888 6.62271856 241.09329891 -0.09486938 241.01269197 C-2.2454398 240.9883329 -4.39601365 240.96924217 -6.5466404 240.95060349 C-10.55657614 240.91222771 -14.56435844 240.82889048 -18.57348633 240.73974609 C-19.75957993 240.73101471 -20.94567352 240.72228333 -22.16770935 240.71328735 C-31.12407736 240.45602796 -31.12407736 240.45602796 -34.76371765 237.5375061 C-38.76342006 233.03665833 -39.35673609 230.80802371 -39.36616516 224.8513031 C-39.36999071 224.12892316 -39.37381626 223.40654323 -39.37775773 222.66227299 C-39.38809898 220.2349803 -39.38409339 217.80792367 -39.38012695 215.38061523 C-39.38447304 213.64272339 -39.38965584 211.90483347 -39.39561462 210.16694641 C-39.40903292 205.43930916 -39.40957972 200.71175173 -39.40705132 195.98409915 C-39.40598266 192.03569807 -39.41086275 188.08731321 -39.41565675 184.1389156 C-39.42676357 174.81777715 -39.42718396 165.49667898 -39.42114258 156.17553711 C-39.41511267 146.57067463 -39.42738609 136.96595901 -39.44871265 127.36112159 C-39.46635662 119.11043282 -39.47232525 110.85979065 -39.4690749 102.60908371 C-39.46726499 97.68362285 -39.4698683 92.75826654 -39.48378944 87.8328228 C-39.49640718 83.19447071 -39.49438645 78.55634614 -39.48137856 73.91799736 C-39.47902109 72.22094647 -39.48171752 70.52387939 -39.49000168 68.82684708 C-39.5450909 56.65812095 -37.99415609 46.84959056 -32.35546875 35.96484375 C-32.00186279 35.27737061 -31.64825684 34.58989746 -31.28393555 33.8815918 C-30.24041223 31.87949671 -29.17803726 29.88900372 -28.10546875 27.90234375 C-27.57050781 26.9071875 -27.03554688 25.91203125 -26.484375 24.88671875 C-22.25405003 17.67090259 -9.47627778 -0.43953051 0 0 Z " fill="#98E4FA" transform="translate(54.10546875,180.09765625)"/>
<path d="M0 0 C0.98895264 0.00201416 1.97790527 0.00402832 2.99682617 0.00610352 C12.52413751 0.13362303 21.6545284 1.59035 31 3.3125 C35.97281019 4.24268805 35.97281019 4.24268805 41 4.3125 C43.25065102 2.39583079 43.25065102 2.39583079 45 0.3125 C47.5625 0.25 47.5625 0.25 51 1.3125 C51.91136719 1.5909375 52.82273438 1.869375 53.76171875 2.15625 C56.84026304 3.28303745 59.35587019 4.36606494 62 6.3125 C62.73046875 8.5859375 62.73046875 8.5859375 62.9375 11.125 C63.28072262 14.80783325 63.57119517 15.9372089 66.41015625 18.421875 C68.51187084 19.75039244 70.63274885 21.04896527 72.76953125 22.3203125 C77.74527207 25.38878629 81.79878439 29.27712184 86 33.3125 C86.78375 34.0446875 87.5675 34.776875 88.375 35.53125 C99.95910146 46.64572573 109.76800161 61.27957474 110.375 77.6875 C110.19890427 86.73053362 107.134972 92.96412553 100.9765625 99.515625 C96.12807514 103.92334078 91.44545812 106.57347448 84.8125 106.8125 C80.63024276 106.60371337 77.57939162 105.57316839 74 103.3125 C75.46232083 100.26191684 77.14365068 97.42900731 78.9375 94.5625 C84.97793237 84.54422193 87.35019637 74.02431572 86 62.3125 C84.07858016 58.88422981 84.07858016 58.88422981 81 57.3125 C77.78949624 56.85385661 76.09213585 57.28178805 73 58.3125 C72.97421875 59.41207031 72.9484375 60.51164062 72.921875 61.64453125 C72.52332512 73.44722493 71.45637166 83.71191533 62.93359375 92.65625 C57.24120476 97.53215491 50.62698192 99.65532133 43.171875 99.61328125 C39.37905059 99.088016 36.2539189 97.25100487 33 95.3125 C33.86625 94.405 34.7325 93.4975 35.625 92.5625 C44.74845153 81.84298366 48.76852059 68.03910337 48.41796875 54.1171875 C48.16291889 51.05250096 48.16291889 51.05250096 45.8125 48 C42.77912064 46.17997238 41.45466546 45.76702651 38 46.3125 C37.01 46.6425 36.02 46.9725 35 47.3125 C34.94392578 48.97925781 34.94392578 48.97925781 34.88671875 50.6796875 C34.39603847 62.69527145 33.7080301 73.19352916 25 82.3125 C17.72037169 88.8510883 11.59989161 90.66100584 1.859375 90.515625 C-1.35010323 90.28762928 -4.05750156 89.62027709 -7 88.3125 C-5.62400437 85.23515016 -4.01395144 83.11196159 -1.6875 80.6875 C9.13411179 68.515999 10.8736651 53.93117963 10 38.3125 C9.53000754 33.93170608 8.78041434 30.45524958 6.25 26.75 C3.26757716 24.84456319 1.47543552 24.79488194 -2 25.3125 C-3.81530818 26.40314371 -3.81530818 26.40314371 -5 28.3125 C-5.14275206 31.08487083 -5.14275206 31.08487083 -4.6875 34.1875 C-3.35914626 47.77293594 -2.87423798 60.15879086 -12 71.3125 C-19.03484183 78.73998416 -26.33848614 82.44385037 -36.625 82.8125 C-42.3967676 82.62303987 -46.18035978 81.36081945 -51 78.3125 C-56.14686219 75.36003642 -59.88574097 73.53432158 -66 74.3125 C-72.3421813 76.30911263 -76.93358374 80.09633006 -82 84.3125 C-82.68320313 84.86035156 -83.36640625 85.40820312 -84.0703125 85.97265625 C-88.87579634 89.95838108 -92.65407494 94.40816396 -96.43359375 99.37109375 C-96.95050781 100.01175781 -97.46742187 100.65242188 -98 101.3125 C-98.33 101.3125 -98.66 101.3125 -99 101.3125 C-100.72882196 74.67583565 -88.87582134 50.28720265 -71.78515625 30.78515625 C-53.3996387 11.30403989 -26.68957048 -0.15024007 0 0 Z " fill="#ECEAEC" transform="translate(116,91.6875)"/>
<path d="M0 0 C17.69005664 16.62439057 28.0907311 41.00024546 28.99609375 65.1640625 C29.00588592 67.49459796 28.97741818 69.81227412 28.8828125 72.140625 C26.46591074 69.80168782 24.15418698 67.45852082 21.96875 64.8984375 C14.80836047 56.54031009 5.32891729 46.61421735 -6.0703125 44.8359375 C-11.33198363 44.49453136 -14.77427398 46.283953 -19.1171875 49.140625 C-26.58797183 54.05474091 -33.88655783 54.06150423 -42.6015625 52.7734375 C-50.99664617 50.60024208 -57.80036823 43.90402123 -62.1171875 36.578125 C-67.59401775 25.3535259 -66.53296302 13.98335469 -64.9453125 1.85546875 C-64.83270673 -0.95645841 -64.83270673 -0.95645841 -66.87890625 -2.72265625 C-69.22876583 -4.11372276 -69.22876583 -4.11372276 -72.6796875 -3.984375 C-76.41027383 -3.18702004 -76.41027383 -3.18702004 -77.9921875 0.390625 C-82.23822106 14.54407021 -81.20264915 29.74677735 -74.69140625 43.0546875 C-72.01097179 47.75064244 -69.06046831 51.41641535 -65.1171875 55.140625 C-63.8046875 57.453125 -63.8046875 57.453125 -63.1171875 59.140625 C-71.08151963 62.10936557 -79.52930881 62.744253 -87.4296875 59.203125 C-94.94636907 54.88164521 -100.43020428 48.35963248 -103.1171875 40.140625 C-104.24461261 35.57289532 -104.44041532 31.00766134 -104.6796875 26.328125 C-104.72287109 25.53986328 -104.76605469 24.75160156 -104.81054688 23.93945312 C-104.91597071 22.00668285 -105.01701844 20.07367474 -105.1171875 18.140625 C-106.52705188 17.8363594 -107.94587561 17.57341592 -109.3671875 17.328125 C-110.15609375 17.17730469 -110.945 17.02648437 -111.7578125 16.87109375 C-114.34034906 16.9297895 -114.34034906 16.9297895 -116.38671875 19.25 C-120.24819505 25.70032158 -118.5446012 34.13824828 -116.9921875 41.203125 C-114.30125804 50.75402955 -109.96461001 58.96713475 -103.1171875 66.140625 C-108.93223932 69.52392787 -113.3677559 71.26744663 -120.1171875 70.140625 C-126.98200097 68.08694971 -133.44346064 64.31832322 -137.3671875 58.1875 C-138.40262156 56.19276673 -139.30442479 54.23608904 -140.1171875 52.140625 C-140.64505859 50.80644531 -140.64505859 50.80644531 -141.18359375 49.4453125 C-142.33923664 45.35462678 -142.57012701 41.49544541 -142.7421875 37.265625 C-142.80019531 36.09 -142.80019531 36.09 -142.859375 34.890625 C-142.95285372 32.97431133 -143.03607245 31.05750181 -143.1171875 29.140625 C-146.14183986 28.48786883 -149.01728463 28.05525762 -152.1171875 28.140625 C-154.97874235 29.69001945 -154.97874235 29.69001945 -156.1171875 33.140625 C-157.65767567 46.56487905 -154.31109497 57.86109079 -147.1171875 69.140625 C-145.52106287 70.94404867 -145.52106287 70.94404867 -144.1171875 72.140625 C-145.1171875 75.140625 -145.1171875 75.140625 -147.0546875 76.328125 C-153.33031751 77.99308806 -158.95158464 78.11973743 -164.8046875 75.078125 C-172.7121085 70.07661137 -177.8778703 64.38940255 -180.1171875 55.140625 C-182.0044316 40.93765391 -176.34806752 28.40827377 -168.1171875 17.140625 C-164.67523716 12.92369142 -160.91549987 9.03445706 -157.1171875 5.140625 C-156.47265625 4.42261719 -155.828125 3.70460937 -155.1640625 2.96484375 C-114.47395809 -41.17507386 -42.35754632 -37.19961632 0 0 Z " fill="#ECEAEC" transform="translate(466.1171875,120.859375)"/>
<path d="M0 0 C5.82103946 0.76997307 8.679028 2.85305176 12.26806641 7.45898438 C15.91178105 12.8598333 19.04192485 18.52080685 22.09179688 24.2734375 C24.31257564 28.38603782 26.82108698 32.24635747 29.42431641 36.12304688 C30.29431192 37.45846129 31.16146118 38.79573394 32.02587891 40.13476562 C32.46706055 40.81716309 32.90824219 41.49956055 33.36279297 42.20263672 C36.80307592 47.55016014 40.20349486 52.92322362 43.61279297 58.29052734 C47.53330523 64.45821471 51.48407072 70.60497686 55.46411133 76.734375 C60.39614628 84.33789141 65.26994506 91.97868083 70.14257812 99.62036133 C73.60137838 105.03633005 77.09772305 110.41024204 80.75708008 115.69335938 C81.79931641 117.43554688 81.79931641 117.43554688 81.79931641 119.43554688 C26.35931641 119.43554688 -29.08068359 119.43554688 -86.20068359 119.43554688 C-84.3913729 114.91227014 -82.24125986 111.20317123 -79.57568359 107.18554688 C-78.58270272 105.67044155 -77.59056847 104.15478113 -76.59912109 102.63867188 C-75.78652832 101.39827148 -75.78652832 101.39827148 -74.95751953 100.1328125 C-71.67193132 95.08845751 -68.44020928 90.00955349 -65.20068359 84.93554688 C-60.67856825 77.86023253 -56.1476095 70.79128408 -51.57568359 63.74804688 C-46.80444937 56.39659838 -42.10156854 49.00252053 -37.40258789 41.60473633 C-34.67368375 37.31163559 -31.94023519 33.02183047 -29.18115234 28.74804688 C-28.71394775 28.02351318 -28.24674316 27.29897949 -27.76538086 26.55249023 C-26.85724306 25.15655638 -25.9399274 23.7665446 -25.01293945 22.38305664 C-22.822184 19.09271893 -20.87804063 15.86958247 -19.22412109 12.27539062 C-14.91881883 3.36176406 -9.82156499 -0.00727119 0 0 Z " fill="#DA8657" transform="translate(258.20068359375,300.564453125)"/>
<path d="M0 0 C11.16405602 8.60562651 17.2285778 20.44691231 23 33 C23.28407715 33.61552734 23.5681543 34.23105469 23.86083984 34.86523438 C26.52080164 40.81917184 27.14789574 46.0146221 27.15771484 52.48071289 C27.16279556 53.21628922 27.16787628 53.95186554 27.17311096 54.70973206 C27.18377609 56.3002359 27.19241125 57.89075439 27.19923019 59.48127937 C27.21106142 61.99902715 27.23052234 64.51660664 27.25234985 67.0342865 C27.31384298 74.1902 27.36807999 81.34609236 27.40136719 88.50219727 C27.42229863 92.8847462 27.4575809 97.26698136 27.50212479 101.64935112 C27.51628783 103.31786855 27.52500792 104.98644142 27.52817917 106.65501595 C27.5330821 108.98657301 27.55622008 111.31729418 27.58349609 113.64868164 C27.58048996 114.33710144 27.57748383 115.02552124 27.5743866 115.73480225 C27.62580576 118.69094884 27.87724759 120.76941611 29.27603149 123.3969574 C31.12260537 125.37278326 31.12260537 125.37278326 35 126 C35 132.6 35 139.2 35 146 C33.02 146.99 31.04 147.98 29 149 C27.55253755 151.89492491 27.8672388 154.41512236 27.8581543 157.64941406 C27.85294266 158.67415077 27.85294266 158.67415077 27.84762573 159.71958923 C27.840267 161.20537754 27.83492224 162.69117686 27.83133507 164.17697906 C27.82417128 166.53122369 27.80850444 168.88525968 27.78999329 171.23944092 C27.73752736 177.93384902 27.68957017 184.62814474 27.67407227 191.32275391 C27.66397317 195.41664255 27.63459772 199.51000903 27.59275246 203.6036911 C27.58046197 205.16170038 27.57531764 206.7197835 27.57755089 208.27783966 C27.57991217 210.46345913 27.55767727 212.64759003 27.5300293 214.83300781 C27.52122993 216.69593475 27.52122993 216.69593475 27.51225281 218.59649658 C26.74964821 223.66338409 24.65843047 226.66752363 20.69282532 229.85371399 C17.27384 231.3091129 14.62987513 231.36037234 10.91479492 231.34057617 C10.22156128 231.34101425 9.52832764 231.34145233 8.81408691 231.34190369 C6.53592189 231.3398233 4.25850429 231.31652893 1.98046875 231.29296875 C0.39578147 231.2873701 -1.18891101 231.28310127 -2.77360535 231.28010559 C-6.93462584 231.26867794 -11.09532975 231.23922892 -15.25622559 231.20599365 C-19.50605996 231.17524775 -23.75594572 231.16159062 -28.00585938 231.14648438 C-36.33738449 231.11435699 -44.66865281 231.0631861 -53 231 C-52.3930706 230.19146324 -52.3930706 230.19146324 -51.77388 229.36659241 C-51.23917587 228.65401779 -50.70447174 227.94144318 -50.15356445 227.20727539 C-49.62519485 226.50325089 -49.09682526 225.79922638 -48.55244446 225.0738678 C-41.05946223 215.0641992 -34.21211714 204.85470629 -28 194 C-27.01580078 192.31583984 -27.01580078 192.31583984 -26.01171875 190.59765625 C-19.45826812 178.92227027 -14.76264522 166.48885376 -10 154 C-9.69288086 153.20803223 -9.38576172 152.41606445 -9.06933594 151.60009766 C-1.0431207 130.80490363 3.18157348 109.05251559 6 87 C6.15795044 85.78606567 6.15795044 85.78606567 6.3190918 84.54760742 C7.18511271 77.06903574 7.19976191 69.58302153 7.1875 62.0625 C7.18689575 61.37680939 7.1862915 60.69111877 7.18566895 59.98464966 C7.13678474 39.49590779 4.02470693 20.05486875 0 0 Z " fill="#62DAFA" transform="translate(470,189)"/>
<path d="M0 0 C19.63563051 17.17367072 31.1854018 40.20656981 33.5546875 66.234375 C33.67993057 69.57706929 33.69048092 72.89234794 33.5546875 76.234375 C31.13778574 73.89543782 28.82606198 71.55227082 26.640625 68.9921875 C18.39101426 59.36264188 8.51472841 50.19801756 -4.4453125 48.234375 C-3.7853125 47.904375 -3.1253125 47.574375 -2.4453125 47.234375 C-7.720646 37.15229063 -13.73938751 28.60080785 -21.4453125 20.234375 C-22.26 19.3371875 -23.0746875 18.44 -23.9140625 17.515625 C-45.26517039 -4.94463135 -73.96147379 -13.17217966 -103.4453125 -18.765625 C-100.28443204 -20.87287864 -98.05966393 -21.49108254 -94.3828125 -22.328125 C-92.78759766 -22.70130859 -92.78759766 -22.70130859 -91.16015625 -23.08203125 C-57.80019035 -29.22082624 -26.01183261 -21.9589975 0 0 Z " fill="#DFDBDF" transform="translate(461.4453125,116.765625)"/>
<path d="M0 0 C4.2991895 1.3051111 5.22399275 2.21683258 7.5 6.0625 C13.64561179 18.44754972 15.02447682 31.72674717 14.875 45.375 C14.86968262 46.0535907 14.86436523 46.7321814 14.85888672 47.43133545 C14.54310511 81.88897909 1.57683424 109.53529934 -22.8984375 133.62890625 C-26.02270875 136.55146029 -27.63591315 137.96823598 -31.9375 138.4375 C-35.5 138.0625 -35.5 138.0625 -37.9375 136.4375 C-39.99791771 133.30566508 -40.1767545 131.74705227 -39.5 128.0625 C-37.89594702 126.33548825 -36.21938378 124.67472672 -34.5 123.0625 C-22.32863411 111.62755289 -13.80995899 99.48309498 -7.5 84.0625 C-7.10039062 83.09054687 -6.70078125 82.11859375 -6.2890625 81.1171875 C1.31478674 60.59251172 2.91284957 34.56868787 -6.109375 14.234375 C-7.74118303 10.5123859 -8.03124546 8.08478707 -7.5 4.0625 C-5.26568948 0.48760317 -4.23610788 0.07564478 0 0 Z " fill="#020303" transform="translate(402.5,211.9375)"/>
<path d="M0 0 C3 0.5 3 0.5 5.375 2.0625 C7.59929234 5.39893852 7.2641684 7.52921872 7 11.5 C5.9765625 14.75390625 5.9765625 14.75390625 4.625 18.0625 C-3.84459888 40.73607207 -1.03426077 66.90753762 8.859375 88.71484375 C15.14506778 101.96129634 23.26194302 114.61936992 35 123.6875 C37.67155777 125.89200221 38.01285524 126.53856573 39.1875 130.0625 C39 133.5 39 133.5 37.5 136.4375 C35 138.5 35 138.5 31.875 139.375 C25.75323939 137.99266696 22.33831587 133.85200141 18 129.5 C17.30648437 128.86578125 16.61296875 128.2315625 15.8984375 127.578125 C3.21970796 115.75811419 -4.82332361 99.51454282 -10.375 83.3125 C-10.61371826 82.62518799 -10.85243652 81.93787598 -11.09838867 81.22973633 C-14.69025299 70.13457786 -15.36569638 58.77582959 -15.3125 47.1875 C-15.30758545 45.91656494 -15.3026709 44.64562988 -15.29760742 43.33618164 C-15.12777113 29.70660135 -14.3609962 13.0708233 -5.02734375 2.203125 C-3 0.5 -3 0.5 0 0 Z " fill="#020303" transform="translate(110,211.5)"/>
<path d="M0 0 C2.9375 2.0625 2.9375 2.0625 5 5 C4.72870559 10.75429712 2.803266 15.41236659 0.4375 20.5625 C0.07962402 21.35043945 -0.27825195 22.13837891 -0.64697266 22.95019531 C-9.03694309 41.11192719 -19.98804906 56.78986022 -34 71 C-34.69480469 71.70769531 -35.38960938 72.41539062 -36.10546875 73.14453125 C-38.72561211 75.61429111 -40.64334993 76.92307548 -44.1875 77.6875 C-47 77 -47 77 -49.375 74.875 C-51.30543907 71.4596078 -51.49722423 69.87159064 -51 66 C-48.98046875 63.5 -48.98046875 63.5 -46.1875 61 C-30.83416206 46.61547696 -19.22480267 28.01615999 -11.8125 8.375 C-9.45013794 2.31459438 -7.05972123 -1.29668349 0 0 Z " fill="#030405" transform="translate(450,321)"/>
<path d="M0 0 C3.73876284 3.83277429 5.35263165 7.96847969 7.1875 12.875 C14.82409085 32.24683417 27.58986486 49.53950962 42.8203125 63.69140625 C44 65 44 65 44.5 67.875 C44 71 44 71 41.9375 73.9375 C39 76 39 76 35.7109375 75.98828125 C31.01250572 74.73701468 28.93132328 72.73692245 25.6875 69.25 C25.12699951 68.66581299 24.56649902 68.08162598 23.98901367 67.47973633 C10.26936296 52.92835497 -0.12442241 36.15351474 -8.16333008 17.89892578 C-8.72639603 16.62097802 -9.30203581 15.34850469 -9.8894043 14.08154297 C-11.93952748 9.56756512 -12.39674576 6.84205197 -11 2 C-7.8090097 -1.92737267 -4.59733786 -1.3135251 0 0 Z " fill="#030405" transform="translate(69,322)"/>
<path d="M0 0 C4.875496 3.62112082 5.1436137 10.3865638 6 16 C7.27067371 34.57878984 3.42498433 52.00317903 -8 67 C-10.12561746 69.4312618 -12.12708436 71.48759154 -15 73 C-18.33278427 73.06409201 -20.01439078 72.55851189 -22.875 70.9375 C-24.7898528 67.63969795 -24.89194108 64.60571925 -24 61 C-22.45179944 58.66685742 -20.69972595 56.61782151 -18.8828125 54.48828125 C-12.23715842 45.70553923 -9.86399611 34.70951963 -9.75 23.9375 C-9.7358606 22.92768066 -9.7358606 22.92768066 -9.72143555 21.89746094 C-9.75140056 17.27719474 -10.67309883 13.40000427 -12 9 C-11.87410878 5.22326339 -11.77810971 2.95767348 -9.375 0 C-5.91616747 -1.45635054 -3.58701629 -0.91305869 0 0 Z " fill="#020404" transform="translate(361,226)"/>
<path d="M0 0 C3.0625 0.5625 3.0625 0.5625 6 2.5 C8.54484475 6.27870887 8.29199662 8.03781071 7.5546875 12.37890625 C7.24977188 13.7316668 6.91313178 15.07820196 6.52734375 16.41015625 C3.41327735 30.82906875 7.93081161 44.87805073 15.37890625 57.13671875 C16.92407326 59.54174554 16.92407326 59.54174554 18.74609375 61.1484375 C20.0625 62.5625 20.0625 62.5625 20.5625 66.5 C20.42825848 69.8072229 20.16265987 70.44171898 17.9375 73.125 C15.0625 74.5625 15.0625 74.5625 12.25 74.875 C4.27617623 71.5916608 -0.10299206 63.31096921 -3.62109375 55.82421875 C-10.04792748 39.90016485 -13.31759499 21.06028294 -6.9375 4.5625 C-4.59099351 1.72574976 -3.64966593 0.6988722 0 0 Z " fill="#020404" transform="translate(154.9375,224.4375)"/>
<path d="M0 0 C2.9375 0.625 2.9375 0.625 5.3125 2 C7.81269804 6.03878145 7.37263561 9.99544239 6.9375 14.625 C6.76669922 15.32439697 6.59589844 16.02379395 6.41992188 16.74438477 C5.77557276 20.59189247 5.89336463 24.36580517 5.98046875 28.25 C6.00284935 29.94269672 6.02430558 31.63540587 6.04492188 33.328125 C6.08204698 35.98146355 6.12520422 38.63416397 6.18432617 41.28710938 C6.23888252 43.85816672 6.26792032 46.42850803 6.29296875 49 C6.31675095 49.78971191 6.34053314 50.57942383 6.36503601 51.39306641 C6.38357545 55.30216367 6.20921153 57.18627841 4.09887695 60.59375 C1.9375 62.625 1.9375 62.625 -1 63.75 C-4.0625 63.625 -4.0625 63.625 -6.875 61.3125 C-10.3190887 57.08119102 -10.22272518 54.06907341 -10.23046875 48.79296875 C-10.23546135 47.61158073 -10.23546135 47.61158073 -10.24055481 46.40632629 C-10.24562703 44.73093245 -10.24796304 43.05552847 -10.24780273 41.38012695 C-10.24995879 38.86066 -10.26802498 36.34165324 -10.28710938 33.82226562 C-10.3761106 9.12687262 -10.3761106 9.12687262 -5.8125 2.8125 C-3.0625 0.625 -3.0625 0.625 0 0 Z " fill="#030506" transform="translate(58.0625,236.375)"/>
<path d="M0 0 C5.89511244 4.82327382 6.23871336 10.72043323 7 18 C7.33206533 23.60003102 7.37168298 29.20259714 7.37060547 34.81103516 C7.37502845 37.39159836 7.41161121 39.97051339 7.44921875 42.55078125 C7.4550799 44.20832757 7.45905398 45.86588188 7.4609375 47.5234375 C7.47530853 48.28602875 7.48967957 49.04862 7.50448608 49.83432007 C7.46061332 54.97935341 6.39810346 57.91839728 3 62 C1 62.76171875 1 62.76171875 -1 62.6875 C-1.66 62.69136719 -2.32 62.69523437 -3 62.69921875 C-6.185943 61.58538321 -7.20869446 59.82814666 -9 57 C-9.52505414 54.11341729 -9.44355912 51.30012983 -9.35546875 48.375 C-9.34743729 47.5504834 -9.33940582 46.7259668 -9.33113098 45.87646484 C-9.3022218 43.25031174 -9.24601356 40.62564545 -9.1875 38 C-9.14488216 35.37454871 -9.10798227 32.74913706 -9.07600403 30.12353516 C-9.05444384 28.49288773 -9.0258653 26.86231364 -8.98930359 25.23193359 C-8.92128869 21.33385433 -9.07442253 17.79006509 -10 14 C-10.81601153 5.31817246 -10.81601153 5.31817246 -8.375 1.375 C-5.1977677 -0.46445028 -3.61370211 -0.73749023 0 0 Z " fill="#030505" transform="translate(457,237)"/>
<path d="M0 0 C3.2664564 0.69807334 4.83326213 1.8495226 6.9375 4.4140625 C7.55949068 8.28422673 7.49616253 10.4237062 5.5625 13.8515625 C1.48810842 16.27679558 -2.45041546 16.30276982 -7.0625 15.4140625 C-9.94054768 13.01568943 -10.8108755 11.53239361 -11.625 7.9140625 C-10.23345701 1.72942697 -5.88167155 -0.42330212 0 0 Z " fill="#090503" transform="translate(230.0625,380.5859375)"/>
<path d="M0 0 C3 1.625 3 1.625 5 4 C5.625 6.9375 5.625 6.9375 5 10 C3.01181405 12.85801731 1.52395669 14.61901083 -1.9375 15.484375 C-5.91543322 15.75559772 -7.6902588 15.20860122 -11.0625 12.9375 C-13 10 -13 10 -13.0625 6.375 C-12 3 -12 3 -10.4375 1.0625 C-6.93555315 -0.46398965 -3.71348752 -0.65445622 0 0 Z " fill="#060302" transform="translate(251,354)"/>
<path d="M0 0 C3 1.5625 3 1.5625 5 4 C5.6269883 7.90126052 5.57975697 10.01693383 3.5625 13.4375 C-0.23964277 15.75587974 -3.66240478 15.77201236 -8 15 C-10.5625 13.4375 -10.5625 13.4375 -12 11 C-12.55802097 7.09385318 -12.58392818 4.94888329 -10.5 1.5625 C-7.02413311 -0.60991681 -3.93042627 -0.75495317 0 0 Z " fill="#050302" transform="translate(265,327)"/>
<path d="M0 0 C1.28197266 -0.01160156 1.28197266 -0.01160156 2.58984375 -0.0234375 C5.57036261 0.45683568 6.94305362 1.23619794 9.0625 3.375 C9.55859375 5.3125 9.55859375 5.3125 9.5 7.375 C9.49871094 8.055625 9.49742187 8.73625 9.49609375 9.4375 C8.92252774 12.00046163 8.21251555 12.86767727 6.0625 14.375 C3.46875 14.7734375 3.46875 14.7734375 0.5625 14.75 C-0.3965625 14.75773437 -1.355625 14.76546875 -2.34375 14.7734375 C-4.9375 14.375 -4.9375 14.375 -6.7578125 13.1015625 C-8.17394125 11.02895023 -8.34084163 9.86906349 -8.3125 7.375 C-8.32023437 6.694375 -8.32796875 6.01375 -8.3359375 5.3125 C-7.37161741 0.62325719 -4.36259357 -0.03936175 0 0 Z " fill="#040201" transform="translate(290.9375,388.625)"/>
</svg>
