<?xml version="1.0" encoding="UTF-8"?>
<svg version="1.1" xmlns="http://www.w3.org/2000/svg" width="512" height="512">
<path d="M0 0 C2.79649202 2.98234584 5.15418546 6.23666685 7.54896927 9.54576874 C20.73967434 27.42974751 37.29838078 48.77184048 60.44824219 52.38867188 C80.54979331 54.95289537 101.45393728 53.66663027 121.5640564 51.67071533 C135.55016916 50.34453384 135.55016916 50.34453384 142 55 C143.83984375 56.81640625 143.83984375 56.81640625 144.9375 58.5625 C145.31777344 59.14128906 145.69804687 59.72007813 146.08984375 60.31640625 C148.30978931 64.42282915 147.87675757 67.8041018 147.41186523 72.25805664 C141.6077122 119.15496696 141.6077122 119.15496696 156.88252258 161.69139099 C166.72756659 173.42256271 178.67204881 183.6480931 191.06309509 192.61540222 C196.99005104 196.96804463 200.37621025 199.70209016 202 207 C202.74981864 212.66144029 202.03847875 218.07566885 199 223 C196.01765416 225.79649202 192.76333315 228.15418546 189.45423126 230.54896927 C171.57025249 243.73967434 150.22815952 260.29838078 146.61132812 283.44824219 C144.04710463 303.54979331 145.33336973 324.45393728 147.32928467 344.5640564 C148.65546616 358.55016916 148.65546616 358.55016916 144 365 C142.18359375 366.83984375 142.18359375 366.83984375 140.4375 367.9375 C139.85871094 368.31777344 139.27992188 368.69804687 138.68359375 369.08984375 C134.57717085 371.30978931 131.1958982 370.87675757 126.74194336 370.41186523 C79.84503304 364.6077122 79.84503304 364.6077122 37.30860901 379.88252258 C25.57743729 389.72756659 15.3519069 401.67204881 6.38459778 414.06309509 C2.03195537 419.99005104 -0.70209016 423.37621025 -8 425 C-13.66144029 425.74981864 -19.07566885 425.03847875 -24 422 C-26.79649202 419.01765416 -29.15418546 415.76333315 -31.54896927 412.45423126 C-44.73967434 394.57025249 -61.29838078 373.22815952 -84.44824219 369.61132812 C-104.54979331 367.04710463 -125.45393728 368.33336973 -145.5640564 370.32928467 C-159.55016916 371.65546616 -159.55016916 371.65546616 -166 367 C-167.83984375 365.18359375 -167.83984375 365.18359375 -168.9375 363.4375 C-169.31777344 362.85871094 -169.69804687 362.27992188 -170.08984375 361.68359375 C-172.30978931 357.57717085 -171.87675757 354.1958982 -171.41186523 349.74194336 C-165.6077122 302.84503304 -165.6077122 302.84503304 -180.88252258 260.30860901 C-190.72756659 248.57743729 -202.67204881 238.3519069 -215.06309509 229.38459778 C-220.99005104 225.03195537 -224.37621025 222.29790984 -226 215 C-226.74981864 209.33855971 -226.03847875 203.92433115 -223 199 C-220.01765416 196.20350798 -216.76333315 193.84581454 -213.45423126 191.45103073 C-195.57025249 178.26032566 -174.22815952 161.70161922 -170.61132812 138.55175781 C-168.04710463 118.45020669 -169.33336973 97.54606272 -171.32928467 77.4359436 C-172.65546616 63.44983084 -172.65546616 63.44983084 -168 57 C-166.18359375 55.16015625 -166.18359375 55.16015625 -164.4375 54.0625 C-163.85871094 53.68222656 -163.27992188 53.30195312 -162.68359375 52.91015625 C-158.57717085 50.69021069 -155.1958982 51.12324243 -150.74194336 51.58813477 C-103.84503304 57.3922878 -103.84503304 57.3922878 -61.30860901 42.11747742 C-49.57743729 32.27243341 -39.3519069 20.32795119 -30.38459778 7.93690491 C-22.8961122 -2.26010188 -11.88813105 -7.33537866 0 0 Z " fill="#FEFEFE" transform="translate(268,45)"/>
<path d="M0 0 C2.79649202 2.98234584 5.15418546 6.23666685 7.54896927 9.54576874 C20.73967434 27.42974751 37.29838078 48.77184048 60.44824219 52.38867188 C80.54979331 54.95289537 101.45393728 53.66663027 121.5640564 51.67071533 C135.55016916 50.34453384 135.55016916 50.34453384 142 55 C143.83984375 56.81640625 143.83984375 56.81640625 144.9375 58.5625 C145.31777344 59.14128906 145.69804687 59.72007813 146.08984375 60.31640625 C148.30978931 64.42282915 147.87675757 67.8041018 147.41186523 72.25805664 C141.6077122 119.15496696 141.6077122 119.15496696 156.88252258 161.69139099 C166.72756659 173.42256271 178.67204881 183.6480931 191.06309509 192.61540222 C196.99005104 196.96804463 200.37621025 199.70209016 202 207 C202.74981864 212.66144029 202.03847875 218.07566885 199 223 C196.01765416 225.79649202 192.76333315 228.15418546 189.45423126 230.54896927 C171.57025249 243.73967434 150.22815952 260.29838078 146.61132812 283.44824219 C144.04710463 303.54979331 145.33336973 324.45393728 147.32928467 344.5640564 C148.65546616 358.55016916 148.65546616 358.55016916 144 365 C142.18359375 366.83984375 142.18359375 366.83984375 140.4375 367.9375 C139.85871094 368.31777344 139.27992188 368.69804687 138.68359375 369.08984375 C134.57717085 371.30978931 131.1958982 370.87675757 126.74194336 370.41186523 C79.84503304 364.6077122 79.84503304 364.6077122 37.30860901 379.88252258 C25.57743729 389.72756659 15.3519069 401.67204881 6.38459778 414.06309509 C2.03195537 419.99005104 -0.70209016 423.37621025 -8 425 C-13.66144029 425.74981864 -19.07566885 425.03847875 -24 422 C-26.79649202 419.01765416 -29.15418546 415.76333315 -31.54896927 412.45423126 C-44.73967434 394.57025249 -61.29838078 373.22815952 -84.44824219 369.61132812 C-104.54979331 367.04710463 -125.45393728 368.33336973 -145.5640564 370.32928467 C-159.55016916 371.65546616 -159.55016916 371.65546616 -166 367 C-167.83984375 365.18359375 -167.83984375 365.18359375 -168.9375 363.4375 C-169.31777344 362.85871094 -169.69804687 362.27992188 -170.08984375 361.68359375 C-172.30978931 357.57717085 -171.87675757 354.1958982 -171.41186523 349.74194336 C-165.6077122 302.84503304 -165.6077122 302.84503304 -180.88252258 260.30860901 C-190.72756659 248.57743729 -202.67204881 238.3519069 -215.06309509 229.38459778 C-220.99005104 225.03195537 -224.37621025 222.29790984 -226 215 C-226.74981864 209.33855971 -226.03847875 203.92433115 -223 199 C-220.01765416 196.20350798 -216.76333315 193.84581454 -213.45423126 191.45103073 C-195.57025249 178.26032566 -174.22815952 161.70161922 -170.61132812 138.55175781 C-168.04710463 118.45020669 -169.33336973 97.54606272 -171.32928467 77.4359436 C-172.65546616 63.44983084 -172.65546616 63.44983084 -168 57 C-166.18359375 55.16015625 -166.18359375 55.16015625 -164.4375 54.0625 C-163.85871094 53.68222656 -163.27992188 53.30195312 -162.68359375 52.91015625 C-158.57717085 50.69021069 -155.1958982 51.12324243 -150.74194336 51.58813477 C-103.84503304 57.3922878 -103.84503304 57.3922878 -61.30860901 42.11747742 C-49.57743729 32.27243341 -39.3519069 20.32795119 -30.38459778 7.93690491 C-22.8961122 -2.26010188 -11.88813105 -7.33537866 0 0 Z M-14.74319458 50.53633118 C-15.44298431 51.25564316 -16.14277405 51.97495514 -16.86376953 52.71606445 C-17.65864777 53.52723221 -18.453526 54.33839996 -19.27249146 55.17414856 C-20.1338974 56.06156235 -20.99530334 56.94897614 -21.8828125 57.86328125 C-23.70788805 59.7185371 -25.5334237 61.57334043 -27.359375 63.42773438 C-30.24256754 66.3643228 -33.12030122 69.30609244 -35.98925781 72.2565918 C-38.75269108 75.09727589 -41.53644775 77.91761463 -44.3203125 80.73828125 C-45.16957306 81.61962234 -46.01883362 82.50096344 -46.89382935 83.40901184 C-56.49511568 93.09091585 -64.21562834 93.45520703 -77.4375 93.51171875 C-78.92823749 93.5285875 -80.41896095 93.54674066 -81.90966797 93.56611633 C-85.80905775 93.61338459 -89.70839062 93.64334302 -93.60797119 93.66955566 C-97.59683467 93.69947901 -101.58550247 93.74596851 -105.57421875 93.79101562 C-113.3827149 93.87678459 -121.19122569 93.94424629 -129 94 C-129.00364563 94.83414429 -129.00729126 95.66828857 -129.01104736 96.52770996 C-129.04901435 104.41330646 -129.10596539 112.29849303 -129.18390274 120.18379974 C-129.22330485 124.23713225 -129.25552863 128.29024989 -129.27099609 132.34375 C-129.28621104 136.26032022 -129.32074091 140.17629943 -129.36830902 144.09260559 C-129.38307328 145.58196354 -129.39103816 147.0714059 -129.39188385 148.56083679 C-129.40661937 161.50738683 -131.36285938 167.81951338 -140.55181885 177.00500488 C-141.40612488 177.83866577 -142.26043091 178.67232666 -143.140625 179.53125 C-144.46389801 180.84603333 -144.46389801 180.84603333 -145.81390381 182.18737793 C-148.14122395 184.49619742 -150.4769203 186.7960663 -152.81713867 189.09179688 C-155.2109512 191.44441413 -157.59323404 193.80864576 -159.9765625 196.171875 C-164.64057849 200.79193474 -169.31584221 205.4003675 -174 210 C-172.56499667 213.29157485 -170.802969 215.42286641 -168.24047852 217.9230957 C-167.46950333 218.68100906 -166.69852814 219.43892242 -165.90419006 220.21980286 C-164.65417458 221.43551216 -164.65417458 221.43551216 -163.37890625 222.67578125 C-161.62146868 224.40792302 -159.86431606 226.14035396 -158.10742188 227.87304688 C-155.33515658 230.59570657 -152.55983979 233.31509628 -149.77905273 236.02905273 C-147.09513647 238.65244208 -144.4238889 241.28822252 -141.75390625 243.92578125 C-140.92258682 244.73018143 -140.0912674 245.5345816 -139.23475647 246.36335754 C-138.46062912 247.13072739 -137.68650177 247.89809723 -136.88891602 248.6887207 C-136.20877945 249.35394241 -135.52864288 250.01916412 -134.82789612 250.70454407 C-130.80490362 255.7565828 -129.62677462 260.68440596 -129.56762695 267.03686523 C-129.55233948 268.03326271 -129.55233948 268.03326271 -129.53674316 269.04978943 C-129.50683512 271.21947913 -129.497382 273.38872581 -129.48828125 275.55859375 C-129.47141797 277.07318056 -129.45326553 278.58775351 -129.43388367 280.10231018 C-129.3865561 284.06911896 -129.35663573 288.03587153 -129.33044434 292.00286865 C-129.30055127 296.0586659 -129.25405119 300.11426987 -129.20898438 304.16992188 C-129.12314773 312.11318589 -129.05571573 320.05646785 -129 328 C-128.1806044 328.00364563 -127.3612088 328.00729126 -126.51698303 328.01104736 C-118.7641164 328.04904223 -111.01172422 328.10602406 -103.25916386 328.18390274 C-99.2742412 328.22327536 -95.28953613 328.25551344 -91.30444336 328.27099609 C-87.45270333 328.28623069 -83.60156191 328.32079464 -79.75008965 328.36830902 C-78.28667872 328.38305323 -76.8231823 328.39103699 -75.35969734 328.39188385 C-62.42880086 328.40688068 -55.13324269 330.29590822 -45.88169861 339.55181885 C-45.05319901 340.40612488 -44.2246994 341.26043091 -43.37109375 342.140625 C-42.49598648 343.02280701 -41.62087921 343.90498901 -40.71925354 344.81390381 C-37.94663574 347.61434871 -35.19198319 350.43172776 -32.4375 353.25 C-30.5540206 355.16141699 -28.66671517 357.06903587 -26.77929688 358.9765625 C-22.17279141 363.63798269 -17.58088324 368.31340518 -13 373 C-9.70842515 371.56499667 -7.57713359 369.802969 -5.0769043 367.24047852 C-4.31899094 366.46950333 -3.56107758 365.69852814 -2.78019714 364.90419006 C-1.96972427 364.07084641 -1.1592514 363.23750275 -0.32421875 362.37890625 C1.40792302 360.62146868 3.14035396 358.86431606 4.87304688 357.10742188 C7.59570657 354.33515658 10.31509628 351.55983979 13.02905273 348.77905273 C15.65244208 346.09513647 18.28822252 343.4238889 20.92578125 340.75390625 C21.73018143 339.92258682 22.5345816 339.0912674 23.36335754 338.23475647 C24.13072739 337.46062912 24.89809723 336.68650177 25.6887207 335.88891602 C26.35394241 335.20877945 27.01916412 334.52864288 27.70454407 333.82789612 C32.7565828 329.80490362 37.68440596 328.62677462 44.03686523 328.56762695 C44.70113022 328.5574353 45.3653952 328.54724365 46.04978943 328.53674316 C48.21947913 328.50683512 50.38872581 328.497382 52.55859375 328.48828125 C54.07318056 328.47141797 55.58775351 328.45326553 57.10231018 328.43388367 C61.06911896 328.3865561 65.03587153 328.35663573 69.00286865 328.33044434 C73.0586659 328.30055127 77.11426987 328.25405119 81.16992188 328.20898438 C89.11318589 328.12314773 97.05646785 328.05571573 105 328 C105.00364563 327.16585571 105.00729126 326.33171143 105.01104736 325.47229004 C105.04901435 317.58669354 105.10596539 309.70150697 105.18390274 301.81620026 C105.22330485 297.76286775 105.25552863 293.70975011 105.27099609 289.65625 C105.28621104 285.73967978 105.32074091 281.82370057 105.36830902 277.90739441 C105.38307328 276.41803646 105.39103816 274.9285941 105.39188385 273.43916321 C105.40661937 260.49261317 107.36285938 254.18048662 116.55181885 244.99499512 C117.40612488 244.16133423 118.26043091 243.32767334 119.140625 242.46875 C120.02280701 241.59222778 120.90498901 240.71570557 121.81390381 239.81262207 C124.14122395 237.50380258 126.4769203 235.2039337 128.81713867 232.90820312 C131.2109512 230.55558587 133.59323404 228.19135424 135.9765625 225.828125 C140.64057849 221.20806526 145.31584221 216.5996325 150 212 C148.56499667 208.70842515 146.802969 206.57713359 144.24047852 204.0769043 C143.46950333 203.31899094 142.69852814 202.56107758 141.90419006 201.78019714 C141.07084641 200.96972427 140.23750275 200.1592514 139.37890625 199.32421875 C137.62146868 197.59207698 135.86431606 195.85964604 134.10742188 194.12695312 C131.33515658 191.40429343 128.55983979 188.68490372 125.77905273 185.97094727 C123.09513647 183.34755792 120.4238889 180.71177748 117.75390625 178.07421875 C116.92258682 177.26981857 116.0912674 176.4654184 115.23475647 175.63664246 C114.46062912 174.86927261 113.68650177 174.10190277 112.88891602 173.3112793 C112.20877945 172.64605759 111.52864288 171.98083588 110.82789612 171.29545593 C106.80490362 166.2434172 105.62677462 161.31559404 105.56762695 154.96313477 C105.5574353 154.29886978 105.54724365 153.6346048 105.53674316 152.95021057 C105.50683512 150.78052087 105.497382 148.61127419 105.48828125 146.44140625 C105.47141797 144.92681944 105.45326553 143.41224649 105.43388367 141.89768982 C105.3865561 137.93088104 105.35663573 133.96412847 105.33044434 129.99713135 C105.30055127 125.9413341 105.25405119 121.88573013 105.20898438 117.83007812 C105.12314773 109.88681411 105.05571573 101.94353215 105 94 C103.74878357 93.99453156 103.74878357 93.99453156 102.47229004 93.98895264 C94.58669354 93.95098565 86.70150697 93.89403461 78.81620026 93.81609726 C74.76286775 93.77669515 70.70975011 93.74447137 66.65625 93.72900391 C62.73967978 93.71378896 58.82370057 93.67925909 54.90739441 93.63169098 C53.41803646 93.61692672 51.9285941 93.60896184 50.43916321 93.60811615 C39.26302392 93.59539567 32.69102497 92.63300238 24.45166016 84.87402344 C22.80405974 83.21239671 21.16699636 81.54027412 19.5390625 79.859375 C18.66728363 78.97719299 17.79550476 78.09501099 16.89730835 77.18609619 C14.13013469 74.38345589 11.37679346 71.56773638 8.625 68.75 C5.85111142 65.91877687 3.0721506 63.0926091 0.28842163 60.27105713 C-1.43990585 58.5181498 -3.1628598 56.75992544 -4.87997437 54.99603271 C-5.65483185 54.2081134 -6.42968933 53.42019409 -7.22802734 52.60839844 C-8.25106461 51.56060211 -8.25106461 51.56060211 -9.29476929 50.49163818 C-11.66710047 48.41645871 -12.382847 48.45608402 -14.74319458 50.53633118 Z " fill="#3F8998" transform="translate(268,45)"/>
</svg>
