<?xml version="1.0" encoding="UTF-8"?>
<svg version="1.1" xmlns="http://www.w3.org/2000/svg" width="80" height="80">
<path d="M0 0 C23.76 0 47.52 0 72 0 C72 1.98 72 3.96 72 6 C73.32 6 74.64 6 76 6 C76 24.48 76 42.96 76 62 C58.5625 62.4375 58.5625 62.4375 53.05297852 62.56811523 C51.61994414 62.60622323 50.18691927 62.64469108 48.75390625 62.68359375 C48.00330933 62.70006958 47.2527124 62.71654541 46.47937012 62.73352051 C42.94307359 62.5183588 42.94307359 62.5183588 40 64 C38.1875 64.1328125 38.1875 64.1328125 36 64.125 C35.278125 64.12757812 34.55625 64.13015625 33.8125 64.1328125 C32 64 32 64 31 63 C28.408706 62.84005297 25.84026625 62.74053662 23.24609375 62.68359375 C22.55906372 62.66494263 21.87203369 62.6462915 21.16418457 62.6270752 C18.58875842 62.55858812 16.01311293 62.49856053 13.4375 62.4375 C4.8059375 62.2209375 4.8059375 62.2209375 -4 62 C-4 43.52 -4 25.04 -4 6 C-2.68 6 -1.36 6 0 6 C0 4.02 0 2.04 0 0 Z " fill="#D3DEE6" transform="translate(4,8)"/>
<path d="M0 0 C4.8675 -0.0825 9.735 -0.165 14.75 -0.25 C16.27979492 -0.28641602 17.80958984 -0.32283203 19.38574219 -0.36035156 C21.19800293 -0.37533691 21.19800293 -0.37533691 23.046875 -0.390625 C24.28276367 -0.41157227 25.51865234 -0.43251953 26.79199219 -0.45410156 C30.68178305 0.0965081 31.58742194 0.97404645 34 4 C34.48101807 6.41717529 34.48101807 6.41717529 34.45410156 9.13574219 C34.45379944 10.15649841 34.45349731 11.17725464 34.45318604 12.22894287 C34.43254089 13.32386047 34.41189575 14.41877808 34.390625 15.546875 C34.38496521 16.6732135 34.37930542 17.799552 34.37347412 18.96002197 C34.35108545 22.55711382 34.30088213 26.15320926 34.25 29.75 C34.22993833 32.1887877 34.21168698 34.62759101 34.1953125 37.06640625 C34.15121244 43.04461074 34.08427463 49.02223419 34 55 C33.40616516 54.67657623 32.81233032 54.35315247 32.20050049 54.01992798 C29.12232004 52.59319693 26.42934551 52.67193251 23.046875 52.5859375 C21.83870117 52.55032715 20.63052734 52.5147168 19.38574219 52.47802734 C17.85594727 52.44402832 16.32615234 52.4100293 14.75 52.375 C9.8825 52.25125 5.015 52.1275 0 52 C0 34.84 0 17.68 0 0 Z " fill="#EBEEF0" transform="translate(6,10)"/>
<path d="M0 0 C23.76 0 47.52 0 72 0 C72 1.98 72 3.96 72 6 C73.32 6 74.64 6 76 6 C76 24.48 76 42.96 76 62 C58.5625 62.4375 58.5625 62.4375 53.05297852 62.56811523 C51.61994414 62.60622323 50.18691927 62.64469108 48.75390625 62.68359375 C48.00330933 62.70006958 47.2527124 62.71654541 46.47937012 62.73352051 C42.94307359 62.5183588 42.94307359 62.5183588 40 64 C38.1875 64.1328125 38.1875 64.1328125 36 64.125 C35.278125 64.12757812 34.55625 64.13015625 33.8125 64.1328125 C32 64 32 64 31 63 C28.408706 62.84005297 25.84026625 62.74053662 23.24609375 62.68359375 C22.55906372 62.66494263 21.87203369 62.6462915 21.16418457 62.6270752 C18.58875842 62.55858812 16.01311293 62.49856053 13.4375 62.4375 C4.8059375 62.2209375 4.8059375 62.2209375 -4 62 C-4 43.52 -4 25.04 -4 6 C-2.68 6 -1.36 6 0 6 C0 4.02 0 2.04 0 0 Z M2 2 C2 19.16 2 36.32 2 54 C11.73761751 54.20993433 11.73761751 54.20993433 21.47583008 54.38793945 C22.68650146 54.42105225 23.89717285 54.45416504 25.14453125 54.48828125 C26.38565674 54.51446533 27.62678223 54.54064941 28.90551758 54.56762695 C32.22485034 55.03141696 32.95665379 55.49303392 35 58 C35.66 58 36.32 58 37 58 C37.39485596 57.5155542 37.78971191 57.0311084 38.1965332 56.53198242 C40.93205605 54.20825075 43.31726433 54.56292691 46.85546875 54.48828125 C48.67147583 54.43861206 48.67147583 54.43861206 50.52416992 54.38793945 C52.83251831 54.35059692 52.83251831 54.35059692 55.1875 54.3125 C60.075625 54.209375 64.96375 54.10625 70 54 C70 36.84 70 19.68 70 2 C62.45125 1.938125 62.45125 1.938125 54.75 1.875 C53.16799805 1.85679199 51.58599609 1.83858398 49.95605469 1.81982422 C48.70727539 1.8148291 47.45849609 1.80983398 46.171875 1.8046875 C44.8940918 1.79421387 43.61630859 1.78374023 42.29980469 1.77294922 C39.22530701 1.98449722 37.56261648 2.36873092 35 4 C34.01 3.34 33.02 2.68 32 2 C28.79745985 1.72271471 28.79745985 1.72271471 25.14453125 1.8046875 C23.93385986 1.80968262 22.72318848 1.81467773 21.47583008 1.81982422 C19.93693115 1.83803223 18.39803223 1.85624023 16.8125 1.875 C11.924375 1.91625 7.03625 1.9575 2 2 Z " fill="#788B9C" transform="translate(4,8)"/>
<path d="M0 0 C0.66 0 1.32 0 2 0 C2 15.84 2 31.68 2 48 C12.56 48 23.12 48 34 48 C34.66 49.32 35.32 50.64 36 52 C37.32 52 38.64 52 40 52 C40.66 50.68 41.32 49.36 42 48 C52.56 48 63.12 48 74 48 C74 32.16 74 16.32 74 0 C74.66 0 75.32 0 76 0 C76 17.16 76 34.32 76 52 C58.8125 52.4375 58.8125 52.4375 53.41333008 52.56811523 C51.99038792 52.60626572 50.56745431 52.64473717 49.14453125 52.68359375 C48.41439819 52.70006958 47.68426514 52.71654541 46.93200684 52.73352051 C43.16926391 52.84047848 39.68052354 53.25129286 36 54 C35.67 53.67 35.34 53.34 35 53 C32.408706 52.84005297 29.84026625 52.74053662 27.24609375 52.68359375 C26.55906372 52.66494263 25.87203369 52.6462915 25.16418457 52.6270752 C22.58875842 52.55858812 20.01311293 52.49856053 17.4375 52.4375 C8.8059375 52.2209375 8.8059375 52.2209375 0 52 C0 34.84 0 17.68 0 0 Z " fill="#8AB6EF" transform="translate(2,16)"/>
<path d="M0 0 C1.32 0 2.64 0 4 0 C4 0.66 4 1.32 4 2 C3.34 2 2.68 2 2 2 C2 19.16 2 36.32 2 54 C13.29335921 53.96050206 13.29335921 53.96050206 24.58666992 53.90991211 C26.0096021 53.90698963 27.43253512 53.90444185 28.85546875 53.90234375 C29.58560181 53.89722778 30.31573486 53.89211182 31.06799316 53.88684082 C34.85815326 53.88619569 38.29939423 54.22256921 42 55 C42.33 54.67 42.66 54.34 43 54 C45.59334148 53.9114933 48.16062579 53.8846683 50.75390625 53.90234375 C51.44093628 53.90335083 52.12796631 53.90435791 52.83581543 53.90539551 C55.41139384 53.91064224 57.98694853 53.92460341 60.5625 53.9375 C66.316875 53.958125 72.07125 53.97875 78 54 C78 36.84 78 19.68 78 2 C77.34 2 76.68 2 76 2 C76 1.34 76 0.68 76 0 C77.32 0 78.64 0 80 0 C80 18.48 80 36.96 80 56 C62.5625 56.4375 62.5625 56.4375 57.05297852 56.56811523 C55.61994414 56.60622323 54.18691927 56.64469108 52.75390625 56.68359375 C52.00330933 56.70006958 51.2527124 56.71654541 50.47937012 56.73352051 C46.94307359 56.5183588 46.94307359 56.5183588 44 58 C42.1875 58.1328125 42.1875 58.1328125 40 58.125 C39.278125 58.12757812 38.55625 58.13015625 37.8125 58.1328125 C36 58 36 58 35 57 C32.408706 56.84005297 29.84026625 56.74053662 27.24609375 56.68359375 C26.55906372 56.66494263 25.87203369 56.6462915 25.16418457 56.6270752 C22.58875842 56.55858812 20.01311293 56.49856053 17.4375 56.4375 C8.8059375 56.2209375 8.8059375 56.2209375 0 56 C0 37.52 0 19.04 0 0 Z " fill="#4E7AB5" transform="translate(0,14)"/>
<path d="M0 0 C0.99 0.33 1.98 0.66 3 1 C0.75 3.5 0.75 3.5 -2 6 C-3.32 6 -4.64 6 -6 6 C-6 5.34 -6 4.68 -6 4 C-5.01 4 -4.02 4 -3 4 C-2.67 3.01 -2.34 2.02 -2 1 C-1.34 0.67 -0.68 0.34 0 0 Z " fill="#7F91A2" transform="translate(44,62)"/>
</svg>
