<?xml version="1.0" encoding="UTF-8"?>
<svg version="1.1" xmlns="http://www.w3.org/2000/svg" width="256" height="256">
<path d="M0 0 C7.42875429 1.74495255 15.15226544 -0.64616149 22.48828125 -2.1953125 C24.18689477 -2.55237063 25.88611063 -2.90657611 27.5859375 -3.2578125 C28.69400757 -3.49177734 28.69400757 -3.49177734 29.82446289 -3.73046875 C39.00305406 -5.37064121 48.12954903 -5.47873235 57.42578125 -5.5078125 C58.22380157 -5.51043091 59.0218219 -5.51304932 59.84402466 -5.51574707 C73.68252784 -5.52059837 86.91966977 -4.38947471 100.42578125 -1.1953125 C101.16441406 -1.02451172 101.90304688 -0.85371094 102.6640625 -0.67773438 C110.39271642 1.17801586 110.39271642 1.17801586 113.42578125 2.8046875 C114.2421875 4.9296875 114.2421875 4.9296875 114.42578125 6.8046875 C116.03259766 6.78728516 116.03259766 6.78728516 117.671875 6.76953125 C119.06900868 6.76015451 120.46614424 6.75105419 121.86328125 6.7421875 C122.57033203 6.73380859 123.27738281 6.72542969 124.00585938 6.71679688 C125.81271684 6.70815162 127.61965728 6.75248739 129.42578125 6.8046875 C131.08729889 8.46620514 130.55041467 10.47305423 130.55952466 12.6926136 C130.55729393 13.39717123 130.55506321 14.10172886 130.55276489 14.82763672 C130.55432488 15.57099211 130.55588487 16.3143475 130.55749214 17.08022881 C130.56150489 19.58996392 130.55831144 22.09963935 130.55517578 24.609375 C130.5565297 26.40098099 130.55830958 28.19258671 130.56048584 29.98419189 C130.56506129 34.86421638 130.56327016 39.74421982 130.56010675 44.62424469 C130.55758373 49.71938638 130.55992053 54.81452621 130.56149292 59.90966797 C130.56331478 68.46777674 130.56090787 77.02587691 130.55615234 85.58398438 C130.55070969 95.49340188 130.55247234 105.4027988 130.55797875 115.31221581 C130.5625094 123.80390283 130.56316066 132.29558365 130.56054008 140.7872715 C130.55897704 145.86613935 130.55878427 150.94499751 130.56207657 156.02386475 C130.56495459 160.79752317 130.56298087 165.57115495 130.55718231 170.34481049 C130.55585434 172.1020783 130.55624945 173.85934835 130.55844498 175.6166153 C130.56115505 178.00502043 130.55777714 180.39333876 130.55276489 182.78173828 C130.55499561 183.48629591 130.55722634 184.19085354 130.55952466 184.9167614 C130.53993111 189.69053764 130.53993111 189.69053764 129.42578125 190.8046875 C126.26779785 190.90498821 123.13160302 190.93905978 119.97314453 190.93167114 C118.96844179 190.93323113 117.96373905 190.93479112 116.92859077 190.93639839 C113.53441054 190.9404131 110.14027438 190.93721693 106.74609375 190.93408203 C104.323954 190.93543586 101.90181445 190.93721569 99.47967529 190.93939209 C93.56721242 190.94349247 87.65476116 190.94287313 81.7422986 190.93997945 C76.93922096 190.93772559 72.13614687 190.93741282 67.33306885 190.93850327 C66.6507542 190.9386565 65.96843954 190.93880973 65.26544869 190.93896761 C63.87955395 190.93928732 62.49365922 190.93961153 61.10776448 190.9399402 C48.0971321 190.94279512 35.08650675 190.93950778 22.07587552 190.93413983 C10.90018953 190.92967178 -0.27548607 190.93044771 -11.45117188 190.93505859 C-24.41368086 190.94040414 -37.37618368 190.94252043 -50.33869362 190.93944633 C-51.71963119 190.93912776 -53.10056877 190.93881339 -54.48150635 190.93850327 C-55.16104177 190.93834899 -55.8405772 190.93819471 -56.54070461 190.93803576 C-61.34075688 190.93717055 -66.14080526 190.93863358 -70.94085693 190.94098282 C-77.39546001 190.94407224 -83.85004803 190.9418883 -90.30464935 190.93608856 C-92.68113929 190.93476025 -95.05763088 190.93515628 -97.43412018 190.93735123 C-100.66329694 190.94005993 -103.89240943 190.93668504 -107.12158203 190.93167114 C-108.55194951 190.93501723 -108.55194951 190.93501723 -110.0112133 190.93843091 C-116.46006895 190.9188373 -116.46006895 190.9188373 -117.57421875 189.8046875 C-117.67406249 187.45411542 -117.70864639 185.13287223 -117.70120239 182.78173828 C-117.70276238 182.03838289 -117.70432237 181.2950275 -117.70592964 180.52914619 C-117.70994239 178.01941108 -117.70674894 175.50973565 -117.70361328 173 C-117.7049672 171.20839401 -117.70674708 169.41678829 -117.70892334 167.62518311 C-117.71349879 162.74515862 -117.71170766 157.86515518 -117.70854425 152.98513031 C-117.70602123 147.88998862 -117.70835803 142.79484879 -117.70993042 137.69970703 C-117.71175228 129.14159826 -117.70934537 120.58349809 -117.70458984 112.02539062 C-117.69914719 102.11597312 -117.70090984 92.2065762 -117.70641625 82.29715919 C-117.7109469 73.80547217 -117.71159816 65.31379135 -117.70897758 56.8221035 C-117.70741454 51.74323565 -117.70722177 46.66437749 -117.71051407 41.58551025 C-117.71339209 36.81185183 -117.71141837 32.03822005 -117.70561981 27.26456451 C-117.70429184 25.5072967 -117.70468695 23.75002665 -117.70688248 21.9927597 C-117.70959255 19.60435457 -117.70621464 17.21603624 -117.70120239 14.82763672 C-117.70343311 14.12307909 -117.70566384 13.41852146 -117.70796216 12.6926136 C-117.68836861 7.91883736 -117.68836861 7.91883736 -116.57421875 6.8046875 C-114.04372473 6.73155183 -111.54117038 6.71221223 -109.01171875 6.7421875 C-108.30080078 6.74669922 -107.58988281 6.75121094 -106.85742188 6.75585938 C-105.09631862 6.76767886 -103.33525839 6.78561487 -101.57421875 6.8046875 C-101.48333984 5.8765625 -101.48333984 5.8765625 -101.390625 4.9296875 C-100.57421875 2.8046875 -100.57421875 2.8046875 -98.4765625 1.6796875 C-94.86366516 0.61343058 -91.24331497 -0.34687402 -87.57421875 -1.1953125 C-86.78660156 -1.38158203 -85.99898437 -1.56785156 -85.1875 -1.75976562 C-58.67165822 -7.74917858 -26.02240734 -8.70257557 0 0 Z M-85.57421875 7.8046875 C-88.21421875 8.4646875 -90.85421875 9.1246875 -93.57421875 9.8046875 C-93.57421875 60.9546875 -93.57421875 112.1046875 -93.57421875 164.8046875 C-84.00421875 163.1546875 -74.43421875 161.5046875 -64.57421875 159.8046875 C-58.0336721 159.40671773 -51.71582479 159.11663093 -45.19921875 159.2421875 C-44.40700928 159.24856232 -43.6147998 159.25493713 -42.79858398 159.26150513 C-30.22176175 159.36432363 -18.04174884 160.43644834 -5.76367188 163.32397461 C-3.05413166 163.918877 -0.3105539 164.34863164 2.42578125 164.8046875 C2.42578125 113.6546875 2.42578125 62.5046875 2.42578125 9.8046875 C-16.4185055 5.34891979 -16.4185055 5.34891979 -35.359375 3.56640625 C-36.08964401 3.55679367 -36.81991302 3.54718109 -37.5723114 3.53727722 C-39.92716182 3.51264826 -42.28175463 3.50002422 -44.63671875 3.4921875 C-45.83983704 3.48726288 -45.83983704 3.48726288 -47.06726074 3.48223877 C-60.2586183 3.46477506 -72.74338195 4.56906206 -85.57421875 7.8046875 Z M18.42578125 7.8046875 C15.78578125 8.4646875 13.14578125 9.1246875 10.42578125 9.8046875 C10.42578125 60.9546875 10.42578125 112.1046875 10.42578125 164.8046875 C19.99578125 163.1546875 29.56578125 161.5046875 39.42578125 159.8046875 C45.9663279 159.40671773 52.28417521 159.11663093 58.80078125 159.2421875 C59.59299072 159.24856232 60.3852002 159.25493713 61.20141602 159.26150513 C73.77823825 159.36432363 85.95825116 160.43644834 98.23632812 163.32397461 C100.94586834 163.918877 103.6894461 164.34863164 106.42578125 164.8046875 C106.42578125 113.6546875 106.42578125 62.5046875 106.42578125 9.8046875 C87.5814945 5.34891979 87.5814945 5.34891979 68.640625 3.56640625 C67.91035599 3.55679367 67.18008698 3.54718109 66.4276886 3.53727722 C64.07283818 3.51264826 61.71824537 3.50002422 59.36328125 3.4921875 C58.16016296 3.48726288 58.16016296 3.48726288 56.93273926 3.48223877 C43.7413817 3.46477506 31.25661805 4.56906206 18.42578125 7.8046875 Z " fill="#004FAC" transform="translate(121.57421875,41.1953125)"/>
<path d="M0 0 C2.64 0 5.28 0 8 0 C8.33 52.14 8.66 104.28 9 158 C13.91120803 159.01937959 13.91120803 159.01937959 18.3359375 158.07421875 C19.54830078 157.74587036 19.54830078 157.74587036 20.78515625 157.41088867 C21.63980469 157.17217041 22.49445312 156.93345215 23.375 156.6875 C50.37344696 149.64979508 81.49716643 148.7485517 108.2421875 157.69921875 C115.48176568 159.97119483 121.91542921 157.87714991 129.0625 156.0625 C156.63872824 149.45734387 187.66878805 149.24102201 214.74169922 158.4206543 C217.25771842 159.06611522 219.41256363 159.16785321 222 159 C223.82032884 157.17967116 223.14465337 154.32896965 223.15821838 151.88145447 C223.16315636 151.23539877 223.16809434 150.58934307 223.17318195 149.92370993 C223.18862786 147.74333213 223.19693661 145.56298393 223.20532227 143.38256836 C223.21489523 141.82578772 223.22490496 140.26900972 223.23532104 138.7122345 C223.26243926 134.47277627 223.28341124 130.23330684 223.30332303 125.99380946 C223.32514008 121.56816341 223.35254964 117.14255219 223.37937927 112.7169342 C223.42936424 104.33048547 223.47428146 95.94401747 223.51740164 87.55753094 C223.56672452 78.01232178 223.62166094 68.46714756 223.67708123 58.92197216 C223.79099033 39.28134729 223.89780983 19.6406891 224 0 C226.64 0 229.28 0 232 0 C232 55.44 232 110.88 232 168 C155.44 168 78.88 168 0 168 C0 112.56 0 57.12 0 0 Z " fill="#56A3FE" transform="translate(12,56)"/>
<path d="M0 0 C0.68128967 -0.00175232 1.36257935 -0.00350464 2.06451416 -0.00531006 C4.32688917 -0.00972789 6.58918663 -0.00679084 8.8515625 -0.00341797 C10.4171551 -0.00409103 11.9827476 -0.00506107 13.54833984 -0.00631714 C16.83366895 -0.00779402 20.11897092 -0.00563988 23.40429688 -0.00097656 C27.62476766 0.00472073 31.84517486 0.00144167 36.06564331 -0.00454903 C39.29972822 -0.00815491 42.53379795 -0.00701593 45.7678833 -0.00442123 C47.32448331 -0.00375204 48.88108468 -0.00458012 50.43768311 -0.00690079 C52.60953446 -0.00942777 54.78128146 -0.00558612 56.953125 0 C58.19143066 0.00079559 59.42973633 0.00159119 60.70556641 0.00241089 C63.4765625 0.12939453 63.4765625 0.12939453 64.4765625 1.12939453 C64.6015625 4.12939453 64.6015625 4.12939453 64.4765625 7.12939453 C62.60670429 8.99925274 59.44508629 8.25718801 56.953125 8.25878906 C56.27183533 8.26054138 55.59054565 8.2622937 54.88861084 8.26409912 C52.62623583 8.26851695 50.36393837 8.26557991 48.1015625 8.26220703 C46.5359699 8.26288009 44.9703774 8.26385013 43.40478516 8.2651062 C40.11945605 8.26658308 36.83415408 8.26442894 33.54882812 8.25976562 C29.32835734 8.25406834 25.10795014 8.25734739 20.88748169 8.26333809 C17.65339678 8.26694397 14.41932705 8.26580499 11.1852417 8.2632103 C9.62864169 8.2625411 8.07204032 8.26336919 6.51544189 8.26568985 C4.34359054 8.26821683 2.17184354 8.26437518 0 8.25878906 C-1.23830566 8.25799347 -2.47661133 8.25719788 -3.75244141 8.25637817 C-6.5234375 8.12939453 -6.5234375 8.12939453 -7.5234375 7.12939453 C-7.6484375 4.12939453 -7.6484375 4.12939453 -7.5234375 1.12939453 C-5.65357929 -0.74046368 -2.49196129 0.00160105 0 0 Z " fill="#004EAC" transform="translate(151.5234375,175.87060546875)"/>
<path d="M0 0 C0.68128967 -0.00175232 1.36257935 -0.00350464 2.06451416 -0.00531006 C4.32688917 -0.00972789 6.58918663 -0.00679084 8.8515625 -0.00341797 C10.4171551 -0.00409103 11.9827476 -0.00506107 13.54833984 -0.00631714 C16.83366895 -0.00779402 20.11897092 -0.00563988 23.40429688 -0.00097656 C27.62476766 0.00472073 31.84517486 0.00144167 36.06564331 -0.00454903 C39.29972822 -0.00815491 42.53379795 -0.00701593 45.7678833 -0.00442123 C47.32448331 -0.00375204 48.88108468 -0.00458012 50.43768311 -0.00690079 C52.60953446 -0.00942777 54.78128146 -0.00558612 56.953125 0 C58.19143066 0.00079559 59.42973633 0.00159119 60.70556641 0.00241089 C63.4765625 0.12939453 63.4765625 0.12939453 64.4765625 1.12939453 C64.6015625 4.12939453 64.6015625 4.12939453 64.4765625 7.12939453 C62.60670429 8.99925274 59.44508629 8.25718801 56.953125 8.25878906 C56.27183533 8.26054138 55.59054565 8.2622937 54.88861084 8.26409912 C52.62623583 8.26851695 50.36393837 8.26557991 48.1015625 8.26220703 C46.5359699 8.26288009 44.9703774 8.26385013 43.40478516 8.2651062 C40.11945605 8.26658308 36.83415408 8.26442894 33.54882812 8.25976562 C29.32835734 8.25406834 25.10795014 8.25734739 20.88748169 8.26333809 C17.65339678 8.26694397 14.41932705 8.26580499 11.1852417 8.2632103 C9.62864169 8.2625411 8.07204032 8.26336919 6.51544189 8.26568985 C4.34359054 8.26821683 2.17184354 8.26437518 0 8.25878906 C-1.23830566 8.25799347 -2.47661133 8.25719788 -3.75244141 8.25637817 C-6.5234375 8.12939453 -6.5234375 8.12939453 -7.5234375 7.12939453 C-7.6484375 4.12939453 -7.6484375 4.12939453 -7.5234375 1.12939453 C-5.65357929 -0.74046368 -2.49196129 0.00160105 0 0 Z " fill="#004EAC" transform="translate(47.5234375,175.87060546875)"/>
<path d="M0 0 C0.68128967 -0.00175232 1.36257935 -0.00350464 2.06451416 -0.00531006 C4.32688917 -0.00972789 6.58918663 -0.00679084 8.8515625 -0.00341797 C10.4171551 -0.00409103 11.9827476 -0.00506107 13.54833984 -0.00631714 C16.83366895 -0.00779402 20.11897092 -0.00563988 23.40429688 -0.00097656 C27.62476766 0.00472073 31.84517486 0.00144167 36.06564331 -0.00454903 C39.29972822 -0.00815491 42.53379795 -0.00701593 45.7678833 -0.00442123 C47.32448331 -0.00375204 48.88108468 -0.00458012 50.43768311 -0.00690079 C52.60953446 -0.00942777 54.78128146 -0.00558612 56.953125 0 C58.19143066 0.00079559 59.42973633 0.00159119 60.70556641 0.00241089 C63.4765625 0.12939453 63.4765625 0.12939453 64.4765625 1.12939453 C64.6015625 4.12939453 64.6015625 4.12939453 64.4765625 7.12939453 C62.60670429 8.99925274 59.44508629 8.25718801 56.953125 8.25878906 C56.27183533 8.26054138 55.59054565 8.2622937 54.88861084 8.26409912 C52.62623583 8.26851695 50.36393837 8.26557991 48.1015625 8.26220703 C46.5359699 8.26288009 44.9703774 8.26385013 43.40478516 8.2651062 C40.11945605 8.26658308 36.83415408 8.26442894 33.54882812 8.25976562 C29.32835734 8.25406834 25.10795014 8.25734739 20.88748169 8.26333809 C17.65339678 8.26694397 14.41932705 8.26580499 11.1852417 8.2632103 C9.62864169 8.2625411 8.07204032 8.26336919 6.51544189 8.26568985 C4.34359054 8.26821683 2.17184354 8.26437518 0 8.25878906 C-1.23830566 8.25799347 -2.47661133 8.25719788 -3.75244141 8.25637817 C-6.5234375 8.12939453 -6.5234375 8.12939453 -7.5234375 7.12939453 C-7.6484375 4.12939453 -7.6484375 4.12939453 -7.5234375 1.12939453 C-5.65357929 -0.74046368 -2.49196129 0.00160105 0 0 Z " fill="#004EAC" transform="translate(151.5234375,135.87060546875)"/>
<path d="M0 0 C0.68128967 -0.00175232 1.36257935 -0.00350464 2.06451416 -0.00531006 C4.32688917 -0.00972789 6.58918663 -0.00679084 8.8515625 -0.00341797 C10.4171551 -0.00409103 11.9827476 -0.00506107 13.54833984 -0.00631714 C16.83366895 -0.00779402 20.11897092 -0.00563988 23.40429688 -0.00097656 C27.62476766 0.00472073 31.84517486 0.00144167 36.06564331 -0.00454903 C39.29972822 -0.00815491 42.53379795 -0.00701593 45.7678833 -0.00442123 C47.32448331 -0.00375204 48.88108468 -0.00458012 50.43768311 -0.00690079 C52.60953446 -0.00942777 54.78128146 -0.00558612 56.953125 0 C58.19143066 0.00079559 59.42973633 0.00159119 60.70556641 0.00241089 C63.4765625 0.12939453 63.4765625 0.12939453 64.4765625 1.12939453 C64.6015625 4.12939453 64.6015625 4.12939453 64.4765625 7.12939453 C62.60670429 8.99925274 59.44508629 8.25718801 56.953125 8.25878906 C56.27183533 8.26054138 55.59054565 8.2622937 54.88861084 8.26409912 C52.62623583 8.26851695 50.36393837 8.26557991 48.1015625 8.26220703 C46.5359699 8.26288009 44.9703774 8.26385013 43.40478516 8.2651062 C40.11945605 8.26658308 36.83415408 8.26442894 33.54882812 8.25976562 C29.32835734 8.25406834 25.10795014 8.25734739 20.88748169 8.26333809 C17.65339678 8.26694397 14.41932705 8.26580499 11.1852417 8.2632103 C9.62864169 8.2625411 8.07204032 8.26336919 6.51544189 8.26568985 C4.34359054 8.26821683 2.17184354 8.26437518 0 8.25878906 C-1.23830566 8.25799347 -2.47661133 8.25719788 -3.75244141 8.25637817 C-6.5234375 8.12939453 -6.5234375 8.12939453 -7.5234375 7.12939453 C-7.6484375 4.12939453 -7.6484375 4.12939453 -7.5234375 1.12939453 C-5.65357929 -0.74046368 -2.49196129 0.00160105 0 0 Z " fill="#004EAC" transform="translate(47.5234375,135.87060546875)"/>
<path d="M0 0 C0.68128967 -0.00175232 1.36257935 -0.00350464 2.06451416 -0.00531006 C4.32688917 -0.00972789 6.58918663 -0.00679084 8.8515625 -0.00341797 C10.4171551 -0.00409103 11.9827476 -0.00506107 13.54833984 -0.00631714 C16.83366895 -0.00779402 20.11897092 -0.00563988 23.40429688 -0.00097656 C27.62476766 0.00472073 31.84517486 0.00144167 36.06564331 -0.00454903 C39.29972822 -0.00815491 42.53379795 -0.00701593 45.7678833 -0.00442123 C47.32448331 -0.00375204 48.88108468 -0.00458012 50.43768311 -0.00690079 C52.60953446 -0.00942777 54.78128146 -0.00558612 56.953125 0 C58.19143066 0.00079559 59.42973633 0.00159119 60.70556641 0.00241089 C63.4765625 0.12939453 63.4765625 0.12939453 64.4765625 1.12939453 C64.6015625 4.12939453 64.6015625 4.12939453 64.4765625 7.12939453 C62.60670429 8.99925274 59.44508629 8.25718801 56.953125 8.25878906 C56.27183533 8.26054138 55.59054565 8.2622937 54.88861084 8.26409912 C52.62623583 8.26851695 50.36393837 8.26557991 48.1015625 8.26220703 C46.5359699 8.26288009 44.9703774 8.26385013 43.40478516 8.2651062 C40.11945605 8.26658308 36.83415408 8.26442894 33.54882812 8.25976562 C29.32835734 8.25406834 25.10795014 8.25734739 20.88748169 8.26333809 C17.65339678 8.26694397 14.41932705 8.26580499 11.1852417 8.2632103 C9.62864169 8.2625411 8.07204032 8.26336919 6.51544189 8.26568985 C4.34359054 8.26821683 2.17184354 8.26437518 0 8.25878906 C-1.23830566 8.25799347 -2.47661133 8.25719788 -3.75244141 8.25637817 C-6.5234375 8.12939453 -6.5234375 8.12939453 -7.5234375 7.12939453 C-7.6484375 4.12939453 -7.6484375 4.12939453 -7.5234375 1.12939453 C-5.65357929 -0.74046368 -2.49196129 0.00160105 0 0 Z " fill="#004EAC" transform="translate(151.5234375,79.87060546875)"/>
<path d="M0 0 C0.68128967 -0.00175232 1.36257935 -0.00350464 2.06451416 -0.00531006 C4.32688917 -0.00972789 6.58918663 -0.00679084 8.8515625 -0.00341797 C10.4171551 -0.00409103 11.9827476 -0.00506107 13.54833984 -0.00631714 C16.83366895 -0.00779402 20.11897092 -0.00563988 23.40429688 -0.00097656 C27.62476766 0.00472073 31.84517486 0.00144167 36.06564331 -0.00454903 C39.29972822 -0.00815491 42.53379795 -0.00701593 45.7678833 -0.00442123 C47.32448331 -0.00375204 48.88108468 -0.00458012 50.43768311 -0.00690079 C52.60953446 -0.00942777 54.78128146 -0.00558612 56.953125 0 C58.19143066 0.00079559 59.42973633 0.00159119 60.70556641 0.00241089 C63.4765625 0.12939453 63.4765625 0.12939453 64.4765625 1.12939453 C64.6015625 4.12939453 64.6015625 4.12939453 64.4765625 7.12939453 C62.60670429 8.99925274 59.44508629 8.25718801 56.953125 8.25878906 C56.27183533 8.26054138 55.59054565 8.2622937 54.88861084 8.26409912 C52.62623583 8.26851695 50.36393837 8.26557991 48.1015625 8.26220703 C46.5359699 8.26288009 44.9703774 8.26385013 43.40478516 8.2651062 C40.11945605 8.26658308 36.83415408 8.26442894 33.54882812 8.25976562 C29.32835734 8.25406834 25.10795014 8.25734739 20.88748169 8.26333809 C17.65339678 8.26694397 14.41932705 8.26580499 11.1852417 8.2632103 C9.62864169 8.2625411 8.07204032 8.26336919 6.51544189 8.26568985 C4.34359054 8.26821683 2.17184354 8.26437518 0 8.25878906 C-1.23830566 8.25799347 -2.47661133 8.25719788 -3.75244141 8.25637817 C-6.5234375 8.12939453 -6.5234375 8.12939453 -7.5234375 7.12939453 C-7.6484375 4.12939453 -7.6484375 4.12939453 -7.5234375 1.12939453 C-5.65357929 -0.74046368 -2.49196129 0.00160105 0 0 Z " fill="#004EAC" transform="translate(47.5234375,79.87060546875)"/>
<path d="M0 0 C0.68128967 -0.00175232 1.36257935 -0.00350464 2.06451416 -0.00531006 C4.32688917 -0.00972789 6.58918663 -0.00679084 8.8515625 -0.00341797 C10.4171551 -0.00409103 11.9827476 -0.00506107 13.54833984 -0.00631714 C16.83366895 -0.00779402 20.11897092 -0.00563988 23.40429688 -0.00097656 C27.62476766 0.00472073 31.84517486 0.00144167 36.06564331 -0.00454903 C39.29972822 -0.00815491 42.53379795 -0.00701593 45.7678833 -0.00442123 C47.32448331 -0.00375204 48.88108468 -0.00458012 50.43768311 -0.00690079 C52.60953446 -0.00942777 54.78128146 -0.00558612 56.953125 0 C58.19143066 0.00079559 59.42973633 0.00159119 60.70556641 0.00241089 C63.4765625 0.12939453 63.4765625 0.12939453 64.4765625 1.12939453 C64.6015625 4.12939453 64.6015625 4.12939453 64.4765625 7.12939453 C62.60670429 8.99925274 59.44508629 8.25718801 56.953125 8.25878906 C56.27183533 8.26054138 55.59054565 8.2622937 54.88861084 8.26409912 C52.62623583 8.26851695 50.36393837 8.26557991 48.1015625 8.26220703 C46.5359699 8.26288009 44.9703774 8.26385013 43.40478516 8.2651062 C40.11945605 8.26658308 36.83415408 8.26442894 33.54882812 8.25976562 C29.32835734 8.25406834 25.10795014 8.25734739 20.88748169 8.26333809 C17.65339678 8.26694397 14.41932705 8.26580499 11.1852417 8.2632103 C9.62864169 8.2625411 8.07204032 8.26336919 6.51544189 8.26568985 C4.34359054 8.26821683 2.17184354 8.26437518 0 8.25878906 C-1.23830566 8.25799347 -2.47661133 8.25719788 -3.75244141 8.25637817 C-6.5234375 8.12939453 -6.5234375 8.12939453 -7.5234375 7.12939453 C-7.6484375 4.12939453 -7.6484375 4.12939453 -7.5234375 1.12939453 C-5.65357929 -0.74046368 -2.49196129 0.00160105 0 0 Z " fill="#004EAC" transform="translate(151.5234375,63.87060546875)"/>
<path d="M0 0 C0.68128967 -0.00175232 1.36257935 -0.00350464 2.06451416 -0.00531006 C4.32688917 -0.00972789 6.58918663 -0.00679084 8.8515625 -0.00341797 C10.4171551 -0.00409103 11.9827476 -0.00506107 13.54833984 -0.00631714 C16.83366895 -0.00779402 20.11897092 -0.00563988 23.40429688 -0.00097656 C27.62476766 0.00472073 31.84517486 0.00144167 36.06564331 -0.00454903 C39.29972822 -0.00815491 42.53379795 -0.00701593 45.7678833 -0.00442123 C47.32448331 -0.00375204 48.88108468 -0.00458012 50.43768311 -0.00690079 C52.60953446 -0.00942777 54.78128146 -0.00558612 56.953125 0 C58.19143066 0.00079559 59.42973633 0.00159119 60.70556641 0.00241089 C63.4765625 0.12939453 63.4765625 0.12939453 64.4765625 1.12939453 C64.6015625 4.12939453 64.6015625 4.12939453 64.4765625 7.12939453 C62.60670429 8.99925274 59.44508629 8.25718801 56.953125 8.25878906 C56.27183533 8.26054138 55.59054565 8.2622937 54.88861084 8.26409912 C52.62623583 8.26851695 50.36393837 8.26557991 48.1015625 8.26220703 C46.5359699 8.26288009 44.9703774 8.26385013 43.40478516 8.2651062 C40.11945605 8.26658308 36.83415408 8.26442894 33.54882812 8.25976562 C29.32835734 8.25406834 25.10795014 8.25734739 20.88748169 8.26333809 C17.65339678 8.26694397 14.41932705 8.26580499 11.1852417 8.2632103 C9.62864169 8.2625411 8.07204032 8.26336919 6.51544189 8.26568985 C4.34359054 8.26821683 2.17184354 8.26437518 0 8.25878906 C-1.23830566 8.25799347 -2.47661133 8.25719788 -3.75244141 8.25637817 C-6.5234375 8.12939453 -6.5234375 8.12939453 -7.5234375 7.12939453 C-7.6484375 4.12939453 -7.6484375 4.12939453 -7.5234375 1.12939453 C-5.65357929 -0.74046368 -2.49196129 0.00160105 0 0 Z " fill="#004EAC" transform="translate(47.5234375,63.87060546875)"/>
<path d="M0 0 C0.91765137 -0.00315216 1.83530273 -0.00630432 2.78076172 -0.009552 C4.27760498 -0.00651566 4.27760498 -0.00651566 5.8046875 -0.00341797 C6.82191895 -0.00437469 7.83915039 -0.00533142 8.88720703 -0.00631714 C11.04264386 -0.00699908 13.19808272 -0.00514382 15.35351562 -0.00097656 C18.66541121 0.00437148 21.97717117 -0.0009211 25.2890625 -0.00732422 C27.37760447 -0.00666344 29.46614635 -0.00538228 31.5546875 -0.00341797 C32.55258301 -0.0054422 33.55047852 -0.00746643 34.57861328 -0.009552 C35.49626465 -0.00639984 36.41391602 -0.00324768 37.359375 0 C38.17132324 0.00079559 38.98327148 0.00159119 39.81982422 0.00241089 C41.6796875 0.12939453 41.6796875 0.12939453 42.6796875 1.12939453 C42.8046875 4.12939453 42.8046875 4.12939453 42.6796875 7.12939453 C41.10668422 8.70239781 39.54284705 8.25664957 37.359375 8.25878906 C36.44172363 8.26194122 35.52407227 8.26509338 34.57861328 8.26834106 C33.58071777 8.26631683 32.58282227 8.2642926 31.5546875 8.26220703 C30.53745605 8.26316376 29.52022461 8.26412048 28.47216797 8.2651062 C26.31673114 8.26578814 24.16129228 8.26393288 22.00585938 8.25976562 C18.69396379 8.25441758 15.38220383 8.25971016 12.0703125 8.26611328 C9.98177053 8.2654525 7.89322865 8.26417135 5.8046875 8.26220703 C4.30784424 8.26524338 4.30784424 8.26524338 2.78076172 8.26834106 C1.86311035 8.2651889 0.94545898 8.26203674 0 8.25878906 C-0.81194824 8.25799347 -1.62389648 8.25719788 -2.46044922 8.25637817 C-4.3203125 8.12939453 -4.3203125 8.12939453 -5.3203125 7.12939453 C-5.4453125 4.12939453 -5.4453125 4.12939453 -5.3203125 1.12939453 C-3.74730922 -0.44360875 -2.18347205 0.00213949 0 0 Z " fill="#004EAC" transform="translate(161.3203125,119.87060546875)"/>
<path d="M0 0 C0.91765137 -0.00315216 1.83530273 -0.00630432 2.78076172 -0.009552 C4.27760498 -0.00651566 4.27760498 -0.00651566 5.8046875 -0.00341797 C6.82191895 -0.00437469 7.83915039 -0.00533142 8.88720703 -0.00631714 C11.04264386 -0.00699908 13.19808272 -0.00514382 15.35351562 -0.00097656 C18.66541121 0.00437148 21.97717117 -0.0009211 25.2890625 -0.00732422 C27.37760447 -0.00666344 29.46614635 -0.00538228 31.5546875 -0.00341797 C32.55258301 -0.0054422 33.55047852 -0.00746643 34.57861328 -0.009552 C35.49626465 -0.00639984 36.41391602 -0.00324768 37.359375 0 C38.17132324 0.00079559 38.98327148 0.00159119 39.81982422 0.00241089 C41.6796875 0.12939453 41.6796875 0.12939453 42.6796875 1.12939453 C42.8046875 4.12939453 42.8046875 4.12939453 42.6796875 7.12939453 C41.10668422 8.70239781 39.54284705 8.25664957 37.359375 8.25878906 C36.44172363 8.26194122 35.52407227 8.26509338 34.57861328 8.26834106 C33.58071777 8.26631683 32.58282227 8.2642926 31.5546875 8.26220703 C30.53745605 8.26316376 29.52022461 8.26412048 28.47216797 8.2651062 C26.31673114 8.26578814 24.16129228 8.26393288 22.00585938 8.25976562 C18.69396379 8.25441758 15.38220383 8.25971016 12.0703125 8.26611328 C9.98177053 8.2654525 7.89322865 8.26417135 5.8046875 8.26220703 C4.30784424 8.26524338 4.30784424 8.26524338 2.78076172 8.26834106 C1.86311035 8.2651889 0.94545898 8.26203674 0 8.25878906 C-0.81194824 8.25799347 -1.62389648 8.25719788 -2.46044922 8.25637817 C-4.3203125 8.12939453 -4.3203125 8.12939453 -5.3203125 7.12939453 C-5.4453125 4.12939453 -5.4453125 4.12939453 -5.3203125 1.12939453 C-3.74730922 -0.44360875 -2.18347205 0.00213949 0 0 Z " fill="#004EAC" transform="translate(57.3203125,119.87060546875)"/>
<path d="M0 0 C0.82290527 0.00202423 1.64581055 0.00404846 2.49365234 0.00613403 C3.33331543 0.00517731 4.17297852 0.00422058 5.03808594 0.00323486 C6.81689529 0.00255306 8.59570712 0.00440737 10.37451172 0.00857544 C13.10699011 0.01392371 15.83930411 0.00863048 18.57177734 0.00222778 C20.29573604 0.00288856 22.01969464 0.00416973 23.74365234 0.00613403 C24.56655762 0.0041098 25.38946289 0.00208557 26.23730469 0 C32.0037018 0.02399599 32.0037018 0.02399599 33.11865234 1.13894653 C33.24365234 4.13894653 33.24365234 4.13894653 33.11865234 7.13894653 C31.27588726 8.98171162 28.68901476 8.26769065 26.23730469 8.27789307 C25.41439941 8.27586884 24.59149414 8.2738446 23.74365234 8.27175903 C22.90398926 8.27271576 22.06432617 8.27367249 21.19921875 8.2746582 C19.4204094 8.27534001 17.64159757 8.2734857 15.86279297 8.26931763 C13.13031458 8.26396936 10.39800058 8.26926259 7.66552734 8.27566528 C5.94156865 8.2750045 4.21761005 8.27372334 2.49365234 8.27175903 C1.67074707 8.27378326 0.8478418 8.2758075 0 8.27789307 C-5.76639711 8.25389708 -5.76639711 8.25389708 -6.88134766 7.13894653 C-7.00634766 4.13894653 -7.00634766 4.13894653 -6.88134766 1.13894653 C-5.03858257 -0.70381855 -2.45171007 0.01020242 0 0 Z " fill="#004EAC" transform="translate(166.88134765625,151.86105346679688)"/>
<path d="M0 0 C0.82290527 0.00202423 1.64581055 0.00404846 2.49365234 0.00613403 C3.33331543 0.00517731 4.17297852 0.00422058 5.03808594 0.00323486 C6.81689529 0.00255306 8.59570712 0.00440737 10.37451172 0.00857544 C13.10699011 0.01392371 15.83930411 0.00863048 18.57177734 0.00222778 C20.29573604 0.00288856 22.01969464 0.00416973 23.74365234 0.00613403 C24.56655762 0.0041098 25.38946289 0.00208557 26.23730469 0 C32.0037018 0.02399599 32.0037018 0.02399599 33.11865234 1.13894653 C33.24365234 4.13894653 33.24365234 4.13894653 33.11865234 7.13894653 C31.27588726 8.98171162 28.68901476 8.26769065 26.23730469 8.27789307 C25.41439941 8.27586884 24.59149414 8.2738446 23.74365234 8.27175903 C22.90398926 8.27271576 22.06432617 8.27367249 21.19921875 8.2746582 C19.4204094 8.27534001 17.64159757 8.2734857 15.86279297 8.26931763 C13.13031458 8.26396936 10.39800058 8.26926259 7.66552734 8.27566528 C5.94156865 8.2750045 4.21761005 8.27372334 2.49365234 8.27175903 C1.67074707 8.27378326 0.8478418 8.2758075 0 8.27789307 C-5.76639711 8.25389708 -5.76639711 8.25389708 -6.88134766 7.13894653 C-7.00634766 4.13894653 -7.00634766 4.13894653 -6.88134766 1.13894653 C-5.03858257 -0.70381855 -2.45171007 0.01020242 0 0 Z " fill="#004EAC" transform="translate(62.88134765625,151.86105346679688)"/>
<path d="M0 0 C0.82290527 0.00202423 1.64581055 0.00404846 2.49365234 0.00613403 C3.33331543 0.00517731 4.17297852 0.00422058 5.03808594 0.00323486 C6.81689529 0.00255306 8.59570712 0.00440737 10.37451172 0.00857544 C13.10699011 0.01392371 15.83930411 0.00863048 18.57177734 0.00222778 C20.29573604 0.00288856 22.01969464 0.00416973 23.74365234 0.00613403 C24.56655762 0.0041098 25.38946289 0.00208557 26.23730469 0 C32.0037018 0.02399599 32.0037018 0.02399599 33.11865234 1.13894653 C33.24365234 4.13894653 33.24365234 4.13894653 33.11865234 7.13894653 C31.27588726 8.98171162 28.68901476 8.26769065 26.23730469 8.27789307 C25.41439941 8.27586884 24.59149414 8.2738446 23.74365234 8.27175903 C22.90398926 8.27271576 22.06432617 8.27367249 21.19921875 8.2746582 C19.4204094 8.27534001 17.64159757 8.2734857 15.86279297 8.26931763 C13.13031458 8.26396936 10.39800058 8.26926259 7.66552734 8.27566528 C5.94156865 8.2750045 4.21761005 8.27372334 2.49365234 8.27175903 C1.67074707 8.27378326 0.8478418 8.2758075 0 8.27789307 C-5.76639711 8.25389708 -5.76639711 8.25389708 -6.88134766 7.13894653 C-7.00634766 4.13894653 -7.00634766 4.13894653 -6.88134766 1.13894653 C-5.03858257 -0.70381855 -2.45171007 0.01020242 0 0 Z " fill="#004EAC" transform="translate(166.88134765625,95.86105346679688)"/>
<path d="M0 0 C0.82290527 0.00202423 1.64581055 0.00404846 2.49365234 0.00613403 C3.33331543 0.00517731 4.17297852 0.00422058 5.03808594 0.00323486 C6.81689529 0.00255306 8.59570712 0.00440737 10.37451172 0.00857544 C13.10699011 0.01392371 15.83930411 0.00863048 18.57177734 0.00222778 C20.29573604 0.00288856 22.01969464 0.00416973 23.74365234 0.00613403 C24.56655762 0.0041098 25.38946289 0.00208557 26.23730469 0 C32.0037018 0.02399599 32.0037018 0.02399599 33.11865234 1.13894653 C33.24365234 4.13894653 33.24365234 4.13894653 33.11865234 7.13894653 C31.27588726 8.98171162 28.68901476 8.26769065 26.23730469 8.27789307 C25.41439941 8.27586884 24.59149414 8.2738446 23.74365234 8.27175903 C22.90398926 8.27271576 22.06432617 8.27367249 21.19921875 8.2746582 C19.4204094 8.27534001 17.64159757 8.2734857 15.86279297 8.26931763 C13.13031458 8.26396936 10.39800058 8.26926259 7.66552734 8.27566528 C5.94156865 8.2750045 4.21761005 8.27372334 2.49365234 8.27175903 C1.67074707 8.27378326 0.8478418 8.2758075 0 8.27789307 C-5.76639711 8.25389708 -5.76639711 8.25389708 -6.88134766 7.13894653 C-7.00634766 4.13894653 -7.00634766 4.13894653 -6.88134766 1.13894653 C-5.03858257 -0.70381855 -2.45171007 0.01020242 0 0 Z " fill="#004EAC" transform="translate(62.88134765625,95.86105346679688)"/>
</svg>
