<?xml version="1.0" encoding="UTF-8"?>
<svg version="1.1" xmlns="http://www.w3.org/2000/svg" width="80" height="80">
<path d="M0 0 C1.43653931 -0.00472824 1.43653931 -0.00472824 2.90209961 -0.009552 C3.94374268 -0.00752777 4.98538574 -0.00550354 6.05859375 -0.00341797 C7.12021729 -0.00437469 8.18184082 -0.00533142 9.27563477 -0.00631714 C11.52522847 -0.00699911 13.77482412 -0.00514366 16.02441406 -0.00097656 C19.48116446 0.00437143 22.93778492 -0.00092101 26.39453125 -0.00732422 C28.57421904 -0.00666344 30.75390675 -0.00538228 32.93359375 -0.00341797 C34.49605835 -0.00645432 34.49605835 -0.00645432 36.09008789 -0.009552 C37.04778076 -0.00639984 38.00547363 -0.00324768 38.9921875 0 C39.83966553 0.00079559 40.68714355 0.00159119 41.56030273 0.00241089 C43.49609375 0.12939453 43.49609375 0.12939453 44.49609375 1.12939453 C44.59102097 3.47193235 44.62169166 5.78485557 44.60961914 8.12768555 C44.60976517 8.85934937 44.60991119 9.59101318 44.61006165 10.34484863 C44.60936242 12.77436237 44.6015696 15.20380037 44.59375 17.63330078 C44.59188585 19.31338967 44.59046194 20.9934791 44.58946228 22.67356873 C44.58563682 27.10413096 44.57580631 31.53466063 44.5647583 35.96520996 C44.55454478 40.48282429 44.54996479 45.00044387 44.54492188 49.51806641 C44.53418406 58.38852346 44.51710731 67.25895629 44.49609375 76.12939453 C40.10078127 75.29651277 38.13669401 72.90925041 35.30859375 69.62939453 C34.34157896 68.53931109 33.37280314 67.45078751 32.40234375 66.36376953 C31.91894531 65.82042969 31.43554688 65.27708984 30.9375 64.71728516 C27.60474691 61.04583765 24.04036095 57.59490024 20.49609375 54.12939453 C17.42962416 55.49727223 15.32582562 57.05252585 12.96484375 59.43017578 C12.31902344 60.07792969 11.67320313 60.72568359 11.0078125 61.39306641 C10.34394531 62.06917969 9.68007813 62.74529297 8.99609375 63.44189453 C8.00029297 64.43866211 8.00029297 64.43866211 6.984375 65.45556641 C4.21146721 68.25338055 1.61276669 70.97696054 -0.78515625 74.10986328 C-1.35234375 74.77630859 -1.91953125 75.44275391 -2.50390625 76.12939453 C-3.49390625 76.12939453 -4.48390625 76.12939453 -5.50390625 76.12939453 C-5.52703071 66.36788465 -5.54482186 56.60638123 -5.55571842 46.84484959 C-5.56094703 42.31265359 -5.56804426 37.78047626 -5.5793457 33.24829102 C-5.59017539 28.87816623 -5.59618326 24.50805945 -5.59878349 20.13792229 C-5.6006376 18.4668849 -5.60425793 16.79584856 -5.60963631 15.1248188 C-5.61684784 12.79241902 -5.61789715 10.4600946 -5.61743164 8.12768555 C-5.62102692 7.42997543 -5.62462219 6.73226532 -5.62832642 6.01341248 C-5.61644694 0.5480708 -5.41687604 0.00508524 0 0 Z " fill="#54C8F3" transform="translate(20.50390625,1.87060546875)"/>
<path d="M0 0 C1.43653931 -0.00472824 1.43653931 -0.00472824 2.90209961 -0.009552 C3.94374268 -0.00752777 4.98538574 -0.00550354 6.05859375 -0.00341797 C7.12021729 -0.00437469 8.18184082 -0.00533142 9.27563477 -0.00631714 C11.52522847 -0.00699911 13.77482412 -0.00514366 16.02441406 -0.00097656 C19.48116446 0.00437143 22.93778492 -0.00092101 26.39453125 -0.00732422 C28.57421904 -0.00666344 30.75390675 -0.00538228 32.93359375 -0.00341797 C34.49605835 -0.00645432 34.49605835 -0.00645432 36.09008789 -0.009552 C37.04778076 -0.00639984 38.00547363 -0.00324768 38.9921875 0 C39.83966553 0.00079559 40.68714355 0.00159119 41.56030273 0.00241089 C43.49609375 0.12939453 43.49609375 0.12939453 44.49609375 1.12939453 C44.59102097 3.47193235 44.62169166 5.78485557 44.60961914 8.12768555 C44.60976517 8.85934937 44.60991119 9.59101318 44.61006165 10.34484863 C44.60936242 12.77436237 44.6015696 15.20380037 44.59375 17.63330078 C44.59188585 19.31338967 44.59046194 20.9934791 44.58946228 22.67356873 C44.58563682 27.10413096 44.57580631 31.53466063 44.5647583 35.96520996 C44.55454478 40.48282429 44.54996479 45.00044387 44.54492188 49.51806641 C44.53418406 58.38852346 44.51710731 67.25895629 44.49609375 76.12939453 C40.10078127 75.29651277 38.13669401 72.90925041 35.30859375 69.62939453 C34.34157896 68.53931109 33.37280314 67.45078751 32.40234375 66.36376953 C31.91894531 65.82042969 31.43554688 65.27708984 30.9375 64.71728516 C27.60474691 61.04583765 24.04036095 57.59490024 20.49609375 54.12939453 C17.42962416 55.49727223 15.32582562 57.05252585 12.96484375 59.43017578 C12.31902344 60.07792969 11.67320313 60.72568359 11.0078125 61.39306641 C10.34394531 62.06917969 9.68007813 62.74529297 8.99609375 63.44189453 C8.00029297 64.43866211 8.00029297 64.43866211 6.984375 65.45556641 C4.21146721 68.25338055 1.61276669 70.97696054 -0.78515625 74.10986328 C-1.35234375 74.77630859 -1.91953125 75.44275391 -2.50390625 76.12939453 C-3.49390625 76.12939453 -4.48390625 76.12939453 -5.50390625 76.12939453 C-5.52703071 66.36788465 -5.54482186 56.60638123 -5.55571842 46.84484959 C-5.56094703 42.31265359 -5.56804426 37.78047626 -5.5793457 33.24829102 C-5.59017539 28.87816623 -5.59618326 24.50805945 -5.59878349 20.13792229 C-5.6006376 18.4668849 -5.60425793 16.79584856 -5.60963631 15.1248188 C-5.61684784 12.79241902 -5.61789715 10.4600946 -5.61743164 8.12768555 C-5.62102692 7.42997543 -5.62462219 6.73226532 -5.62832642 6.01341248 C-5.61644694 0.5480708 -5.41687604 0.00508524 0 0 Z M-2.50390625 3.12939453 C-2.50390625 25.23939453 -2.50390625 47.34939453 -2.50390625 70.12939453 C3.11991968 65.36717289 3.11991968 65.36717289 8.2421875 60.26220703 C8.85126953 59.60478516 9.46035156 58.94736328 10.08789062 58.27001953 C10.69697266 57.60486328 11.30605469 56.93970703 11.93359375 56.25439453 C12.56974609 55.56603516 13.20589844 54.87767578 13.86132812 54.16845703 C15.40976705 52.49195173 16.95458237 50.81226722 18.49609375 49.12939453 C21.44503015 50.54479283 23.51870247 51.90438678 25.80859375 54.25439453 C26.41058594 54.87185547 27.01257813 55.48931641 27.6328125 56.12548828 C30.08084956 58.75828285 32.41857588 61.47558655 34.72265625 64.23486328 C36.8876657 66.63831154 36.8876657 66.63831154 41.49609375 70.12939453 C41.49609375 48.01939453 41.49609375 25.90939453 41.49609375 3.12939453 C26.97609375 3.12939453 12.45609375 3.12939453 -2.50390625 3.12939453 Z " fill="#08759E" transform="translate(20.50390625,1.87060546875)"/>
</svg>
