<?xml version="1.0" encoding="UTF-8"?>
<svg version="1.1" xmlns="http://www.w3.org/2000/svg" width="80" height="80">
<path d="M0 0 C1.43158447 -0.00945648 1.43158447 -0.00945648 2.89208984 -0.019104 C3.92543457 -0.01505554 4.9587793 -0.01100708 6.0234375 -0.00683594 C7.08127441 -0.00874939 8.13911133 -0.01066284 9.22900391 -0.01263428 C11.46842689 -0.01399696 13.70785776 -0.01029476 15.94726562 -0.00195312 C19.38429427 0.00874504 22.8208002 -0.00184581 26.2578125 -0.01464844 C28.42968866 -0.01332686 30.60156449 -0.0107645 32.7734375 -0.00683594 C33.80678223 -0.0108844 34.84012695 -0.01493286 35.90478516 -0.019104 C36.8591748 -0.01279968 37.81356445 -0.00649536 38.796875 0 C39.63911621 0.00159119 40.48135742 0.00318237 41.34912109 0.00482178 C43.3984375 0.25878906 43.3984375 0.25878906 45.3984375 2.25878906 C45.59140093 4.72274974 45.66082963 7.07378681 45.64135742 9.53833008 C45.64325577 10.28804077 45.64515411 11.03775146 45.64710999 11.81018066 C45.65082229 14.29445774 45.64010812 16.77844411 45.62890625 19.26269531 C45.6277147 20.9837999 45.62726123 22.70490515 45.6275177 24.42601013 C45.6259521 28.03494328 45.61765599 31.64377733 45.60424805 35.25268555 C45.58724535 39.88902483 45.58343402 44.52525524 45.58419323 49.16162205 C45.58392191 52.71568347 45.57844708 56.26972088 45.57119179 59.82377434 C45.56799989 61.5338822 45.5660365 63.24399279 45.56529808 64.95410347 C45.56314073 67.33899747 45.55441012 69.72377369 45.54370117 72.10864258 C45.54415436 72.82191208 45.54460754 73.53518158 45.54507446 74.27006531 C45.51291261 79.14431395 45.51291261 79.14431395 44.3984375 80.25878906 C41.79928819 80.73657386 40.05666639 80.64824115 37.7578125 79.28808594 C35.91991088 77.91586885 34.1548987 76.48376609 32.3984375 75.00878906 C31.79515625 74.51765625 31.191875 74.02652344 30.5703125 73.52050781 C29.39046591 72.55867635 28.21453639 71.59201585 27.04296875 70.62011719 C24.85033001 68.80507063 22.62598727 67.03070365 20.3984375 65.25878906 C16.46136924 66.96678191 13.24756561 69.56483126 9.8984375 72.19628906 C8.76315394 73.08057456 7.62774037 73.96469317 6.4921875 74.84863281 C4.7055819 76.24047076 2.92473016 77.63990439 1.16015625 79.05957031 C-1.18987502 80.659259 -2.82133475 80.55935422 -5.6015625 80.25878906 C-7.28116949 78.57918208 -6.73340045 76.51291027 -6.74819946 74.27006531 C-6.74774628 73.55679581 -6.74729309 72.84352631 -6.74682617 72.10864258 C-6.75018478 71.3606842 -6.7535434 70.61272583 -6.75700378 69.84210205 C-6.76654152 67.35728314 -6.7684583 64.87253141 -6.76953125 62.38769531 C-6.77274188 60.66755647 -6.77610579 58.94741791 -6.77961731 57.22727966 C-6.78561565 53.61660122 -6.78745649 50.00594675 -6.78686523 46.39526367 C-6.78676357 41.76007921 -6.80041678 37.1250478 -6.81763744 32.48989964 C-6.82873569 28.93579904 -6.83078511 25.3817357 -6.83025551 21.82761955 C-6.83143888 20.11833099 -6.83588051 18.40904157 -6.84358788 16.69976997 C-6.85334409 14.31251316 -6.85052722 11.92559186 -6.84448242 9.53833008 C-6.85010193 8.82708481 -6.85572144 8.11583954 -6.86151123 7.38304138 C-6.82437186 1.63486527 -5.76041646 0.01088275 0 0 Z M-2.6015625 3.25878906 C-2.6015625 27.34878906 -2.6015625 51.43878906 -2.6015625 76.25878906 C3.06027351 72.02395778 3.06027351 72.02395778 8.62890625 67.66894531 C9.60472656 66.89421875 10.58054687 66.11949219 11.5859375 65.32128906 C12.56949219 64.52851562 13.55304687 63.73574219 14.56640625 62.91894531 C17.3984375 61.25878906 17.3984375 61.25878906 19.75390625 61.13378906 C23.81363944 62.86082475 27.06672209 65.48569528 30.5234375 68.19628906 C31.94233413 69.28922296 33.36159094 70.38168945 34.78125 71.47363281 C35.40402832 71.95952881 36.02680664 72.4454248 36.66845703 72.94604492 C38.2018568 74.10961965 39.796828 75.19104939 41.3984375 76.25878906 C41.3984375 52.16878906 41.3984375 28.07878906 41.3984375 3.25878906 C26.8784375 3.25878906 12.3584375 3.25878906 -2.6015625 3.25878906 Z " fill="#323232" transform="translate(20.6015625,-0.2587890625)"/>
</svg>
