<?xml version="1.0" encoding="UTF-8"?>
<svg version="1.1" xmlns="http://www.w3.org/2000/svg" width="64" height="64">
<path d="M0 0 C0.74472061 -0.0033284 1.48944122 -0.0066568 2.25672913 -0.01008606 C3.83284894 -0.01515151 5.40897948 -0.0174945 6.98510742 -0.01733398 C9.39715235 -0.01951947 11.80873922 -0.03767593 14.22070312 -0.05664062 C15.75130052 -0.05957482 17.28190008 -0.06155944 18.8125 -0.0625 C19.53445053 -0.06968552 20.25640106 -0.07687103 21.00022888 -0.08427429 C24.71509087 -0.06731753 26.29753881 0.05122379 29.47265625 2.16796875 C30.42427997 5.0228399 30.59428764 6.77251192 30.58618164 9.73120117 C30.58610611 10.65192917 30.58603058 11.57265717 30.58595276 12.52128601 C30.58079147 13.511996 30.57563019 14.50270599 30.5703125 15.5234375 C30.56889755 16.54021072 30.5674826 17.55698395 30.56602478 18.60456848 C30.56042332 21.85489839 30.54787057 25.10515963 30.53515625 28.35546875 C30.53014144 30.55794171 30.5255785 32.76041576 30.52148438 34.96289062 C30.51045342 40.36460679 30.49371387 45.76628287 30.47265625 51.16796875 C25.83447266 52.37451172 25.83447266 52.37451172 22.578125 50.515625 C21.61519531 49.76152344 20.65226562 49.00742187 19.66015625 48.23046875 C18.68433594 47.47894531 17.70851563 46.72742187 16.703125 45.953125 C15.96707031 45.36402344 15.23101562 44.77492187 14.47265625 44.16796875 C10.93576163 46.10979325 7.88129877 47.80797415 4.84765625 50.48046875 C4.06390625 51.03734375 3.28015625 51.59421875 2.47265625 52.16796875 C0.82265625 51.83796875 -0.82734375 51.50796875 -2.52734375 51.16796875 C-2.52734375 41.59796875 -2.52734375 32.02796875 -2.52734375 22.16796875 C-5.16734375 22.16796875 -7.80734375 22.16796875 -10.52734375 22.16796875 C-12.55426504 20.14104746 -11.71241592 16.13048267 -11.71484375 13.35546875 C-11.72708984 12.63037109 -11.73933594 11.90527344 -11.75195312 11.15820312 C-11.77079616 4.29305859 -11.77079616 4.29305859 -9.52734375 1.16796875 C-6.49077516 -0.35031554 -3.33129107 0.00512054 0 0 Z " fill="#00AAE8" transform="translate(22.52734375,5.83203125)"/>
<path d="M0 0 C0.74472061 -0.0033284 1.48944122 -0.0066568 2.25672913 -0.01008606 C3.83284894 -0.01515151 5.40897948 -0.0174945 6.98510742 -0.01733398 C9.39715235 -0.01951947 11.80873922 -0.03767593 14.22070312 -0.05664062 C15.75130052 -0.05957482 17.28190008 -0.06155944 18.8125 -0.0625 C19.53445053 -0.06968552 20.25640106 -0.07687103 21.00022888 -0.08427429 C24.71509087 -0.06731753 26.29753881 0.05122379 29.47265625 2.16796875 C30.42427997 5.0228399 30.59428764 6.77251192 30.58618164 9.73120117 C30.58610611 10.65192917 30.58603058 11.57265717 30.58595276 12.52128601 C30.58079147 13.511996 30.57563019 14.50270599 30.5703125 15.5234375 C30.56889755 16.54021072 30.5674826 17.55698395 30.56602478 18.60456848 C30.56042332 21.85489839 30.54787057 25.10515963 30.53515625 28.35546875 C30.53014144 30.55794171 30.5255785 32.76041576 30.52148438 34.96289062 C30.51045342 40.36460679 30.49371387 45.76628287 30.47265625 51.16796875 C25.83447266 52.37451172 25.83447266 52.37451172 22.578125 50.515625 C21.61519531 49.76152344 20.65226562 49.00742187 19.66015625 48.23046875 C18.68433594 47.47894531 17.70851563 46.72742187 16.703125 45.953125 C15.96707031 45.36402344 15.23101562 44.77492187 14.47265625 44.16796875 C10.93576163 46.10979325 7.88129877 47.80797415 4.84765625 50.48046875 C4.06390625 51.03734375 3.28015625 51.59421875 2.47265625 52.16796875 C0.82265625 51.83796875 -0.82734375 51.50796875 -2.52734375 51.16796875 C-2.52734375 41.59796875 -2.52734375 32.02796875 -2.52734375 22.16796875 C-5.16734375 22.16796875 -7.80734375 22.16796875 -10.52734375 22.16796875 C-12.55426504 20.14104746 -11.71241592 16.13048267 -11.71484375 13.35546875 C-11.72708984 12.63037109 -11.73933594 11.90527344 -11.75195312 11.15820312 C-11.77079616 4.29305859 -11.77079616 4.29305859 -9.52734375 1.16796875 C-6.49077516 -0.35031554 -3.33129107 0.00512054 0 0 Z M0.47265625 3.16796875 C0.47265625 18.34796875 0.47265625 33.52796875 0.47265625 49.16796875 C6.25589217 45.51346103 6.25589217 45.51346103 11.47265625 41.16796875 C17.16655967 41.02909306 20.46289309 44.2134423 24.6171875 47.671875 C26.20515077 49.27258348 26.20515077 49.27258348 27.47265625 49.16796875 C27.52325506 42.93834898 27.55834687 36.70878195 27.58251953 30.47900391 C27.59259376 28.35854105 27.60625358 26.23809214 27.62353516 24.11767578 C27.64772114 21.07450932 27.65912494 18.03152609 27.66796875 14.98828125 C27.67829132 14.03615753 27.68861389 13.08403381 27.69924927 12.10305786 C27.69940033 11.22229584 27.69955139 10.34153381 27.69970703 9.43408203 C27.70636887 8.26826096 27.70636887 8.26826096 27.71316528 7.07888794 C27.6407702 4.92723486 27.6407702 4.92723486 25.47265625 3.16796875 C22.85109205 2.88969623 22.85109205 2.88969623 19.80859375 2.97265625 C18.79845215 2.97765137 17.78831055 2.98264648 16.74755859 2.98779297 C14.81710693 3.01510498 14.81710693 3.01510498 12.84765625 3.04296875 C6.72203125 3.10484375 6.72203125 3.10484375 0.47265625 3.16796875 Z " fill="#073A65" transform="translate(22.52734375,5.83203125)"/>
<path d="M0 0 C1.65 0 3.3 0 5 0 C5 5.28 5 10.56 5 16 C2.69 16 0.38 16 -2 16 C-2.05384521 13.70858714 -2.09272087 11.41681812 -2.125 9.125 C-2.14820313 7.84882813 -2.17140625 6.57265625 -2.1953125 5.2578125 C-2 2 -2 2 0 0 Z " fill="#01D6C2" transform="translate(16,9)"/>
</svg>
