<?xml version="1.0" standalone="no"?>
<!DOCTYPE svg PUBLIC "-//W3C//DTD SVG 20010904//EN"
 "http://www.w3.org/TR/2001/REC-SVG-20010904/DTD/svg10.dtd">
<svg version="1.0" xmlns="http://www.w3.org/2000/svg"
 width="300.000000pt" height="240.000000pt" viewBox="0 0 300.000000 240.000000"
 preserveAspectRatio="xMidYMid meet">
<metadata>
Created by potrace 1.16, written by Peter Selinger 2001-2019
</metadata>
<g transform="translate(0.000000,240.000000) scale(0.100000,-0.100000)"
fill="#000000" stroke="none">
<path d="M1300 1785 l0 -115 -65 0 -65 0 0 -75 0 -75 115 0 115 0 0 -25 c0
-23 -3 -25 -50 -25 l-50 0 0 -160 0 -160 50 0 50 0 0 -50 0 -50 215 0 215 0 0
75 c0 73 -1 75 -25 75 -23 0 -25 -3 -25 -50 l0 -50 -165 0 -165 0 0 25 0 25
141 0 c140 0 140 0 137 23 -3 21 -6 22 -140 25 l-138 3 0 109 0 110 100 0 100
0 0 75 0 75 -100 0 -100 0 0 115 0 115 -25 0 -25 0 0 -115 0 -115 -90 0 c-89
0 -90 0 -90 25 0 24 2 25 65 25 l65 0 0 115 0 115 215 0 215 0 0 -25 0 -25
-135 0 -135 0 0 -25 0 -25 160 0 160 0 0 75 0 75 -265 0 -265 0 0 -115z"/>
<path d="M1152 885 c-34 -24 -45 -61 -31 -102 18 -56 83 -72 133 -32 32 25 36
85 9 118 -24 29 -81 37 -111 16z"/>
<path d="M1965 823 c-9 -43 -19 -81 -22 -85 -2 -5 5 -8 16 -8 14 0 22 8 27 28
13 64 20 68 34 18 15 -56 39 -59 53 -6 14 54 25 57 32 6 6 -36 11 -46 26 -46
23 0 23 -4 1 90 -23 96 -42 104 -68 28 l-17 -53 -16 50 c-25 79 -45 72 -66
-22z"/>
</g>
</svg>
