<?xml version="1.0" encoding="UTF-8"?>
<svg version="1.1" xmlns="http://www.w3.org/2000/svg" width="300" height="240">
<path d="M0 0 C99 0 198 0 300 0 C300 79.2 300 158.4 300 240 C201 240 102 240 0 240 C0 160.8 0 81.6 0 0 Z " fill="#FEFEFE" transform="translate(0,0)"/>
<path d="M0 0 C17.49 0 34.98 0 53 0 C53 4.95 53 9.9 53 15 C42.44 15 31.88 15 21 15 C21 13.35 21 11.7 21 10 C29.91 10 38.82 10 48 10 C48 8.35 48 6.7 48 5 C33.81 5 19.62 5 5 5 C5 12.59 5 20.18 5 28 C0.71 28 -3.58 28 -8 28 C-8 29.65 -8 31.3 -8 33 C-2.06 33 3.88 33 10 33 C10 25.41 10 17.82 10 10 C11.65 10 13.3 10 15 10 C15 17.59 15 25.18 15 33 C21.6 33 28.2 33 35 33 C35 37.95 35 42.9 35 48 C28.4 48 21.8 48 15 48 C15 55.26 15 62.52 15 70 C24.24 70 33.48 70 43 70 C43 71.65 43 73.3 43 75 C33.76 75 24.52 75 15 75 C15 76.65 15 78.3 15 80 C25.89 80 36.78 80 48 80 C48 76.7 48 73.4 48 70 C49.65 70 51.3 70 53 70 C53 74.95 53 79.9 53 85 C38.81 85 24.62 85 10 85 C10 81.7 10 78.4 10 75 C6.7 75 3.4 75 0 75 C0 64.44 0 53.88 0 43 C3.3 43 6.6 43 10 43 C10 41.35 10 39.7 10 38 C2.41 38 -5.18 38 -13 38 C-13 33.05 -13 28.1 -13 23 C-8.71 23 -4.42 23 0 23 C0 15.41 0 7.82 0 0 Z " fill="#0C0C0C" transform="translate(130,50)"/>
<path d="M0 0 C2.875 1.4375 2.875 1.4375 5 4 C5.71555259 7.14496906 5.70993955 9.85433287 5 13 C2.30081929 16.35352755 0.68563364 16.90377072 -3.5625 17.5 C-7 17 -7 17 -9.375 15.4375 C-11.55226285 12.17160572 -12 9.92016134 -12 6 C-8.68791982 0.74635558 -6.16206486 -0.60412401 0 0 Z " fill="#121212" transform="translate(123,150)"/>
<path d="M0 0 C1.32 0 2.64 0 4 0 C4.99 2.64 5.98 5.28 7 8 C7.99 5.36 8.98 2.72 10 0 C11.32 0.33 12.64 0.66 14 1 C14.50588147 2.91512272 15.00448391 4.83216922 15.5 6.75 C15.7784375 7.81734375 16.056875 8.8846875 16.34375 9.984375 C17 13 17 13 17 17 C15.68 17 14.36 17 13 17 C12.34 14.36 11.68 11.72 11 9 C10.01 11.64 9.02 14.28 8 17 C7.01 17 6.02 17 5 17 C4.01 14.36 3.02 11.72 2 9 C1.34 11.64 0.68 14.28 0 17 C-1.32 17 -2.64 17 -4 17 C-2.68 11.39 -1.36 5.78 0 0 Z " fill="#161616" transform="translate(198,150)"/>
<path d="M0 0 C1.796875 0.06640625 1.796875 0.06640625 4 1 C5.28902399 3.33857333 6.2915507 5.47047105 7.25 7.9375 C7.518125 8.58396484 7.78625 9.23042969 8.0625 9.89648438 C10 14.65621014 10 14.65621014 10 17 C8.68 17 7.36 17 6 17 C5.67 16.34 5.34 15.68 5 15 C2.67843403 14.59270772 0.3431213 14.25561323 -2 14 C-2 14.99 -2 15.98 -2 17 C-3.32 17 -4.64 17 -6 17 C-5.34496718 12.94180817 -4.05440879 9.46028718 -2.4375 5.6875 C-1.75494141 4.08455078 -1.75494141 4.08455078 -1.05859375 2.44921875 C-0.53458984 1.23685547 -0.53458984 1.23685547 0 0 Z " fill="#262626" transform="translate(181,150)"/>
<path d="M0 0 C3.65706566 0.68569981 5.38806014 1.95056014 8 4.5625 C8 5.2225 8 5.8825 8 6.5625 C7.28972656 6.47871094 6.57945313 6.39492187 5.84765625 6.30859375 C4.46900391 6.15583984 4.46900391 6.15583984 3.0625 6 C2.14597656 5.89558594 1.22945312 5.79117188 0.28515625 5.68359375 C-0.84599609 5.62365234 -0.84599609 5.62365234 -2 5.5625 C-3.41577477 6.74674326 -3.41577477 6.74674326 -3.0625 10.125 C-3.041875 11.259375 -3.02125 12.39375 -3 13.5625 C-1.02 13.5625 0.96 13.5625 3 13.5625 C3.33 12.9025 3.66 12.2425 4 11.5625 C5.32 11.5625 6.64 11.5625 8 11.5625 C7.6875 13.4375 7.6875 13.4375 7 15.5625 C3.24952518 18.06281654 1.44143734 18.09853554 -3 17.5625 C-6.69186542 14.97033917 -7.82883761 13.52100936 -8.625 9.0625 C-7.67703424 3.75389177 -5.38444917 1.00958422 0 0 Z " fill="#181818" transform="translate(78,149.4375)"/>
<path d="M0 0 C1.32 0 2.64 0 4 0 C4 5.61 4 11.22 4 17 C2.68 17 1.36 17 0 17 C0 14.69 0 12.38 0 10 C-2.31 10 -4.62 10 -7 10 C-7 12.31 -7 14.62 -7 17 C-7.99 17 -8.98 17 -10 17 C-10 11.72 -10 6.44 -10 1 C-9.01 1 -8.02 1 -7 1 C-7 2.98 -7 4.96 -7 7 C-4.69 7 -2.38 7 0 7 C0 4.69 0 2.38 0 0 Z " fill="#0E0E0E" transform="translate(102,150)"/>
<path d="M0 0 C2.375 1.3125 2.375 1.3125 4 3 C4 3.99 4 4.98 4 6 C3.28972656 5.91621094 2.57945312 5.83242187 1.84765625 5.74609375 C0.46900391 5.59333984 0.46900391 5.59333984 -0.9375 5.4375 C-1.85402344 5.33308594 -2.77054688 5.22867188 -3.71484375 5.12109375 C-4.84599609 5.06115234 -4.84599609 5.06115234 -6 5 C-7.27003323 6.05310277 -7.27003323 6.05310277 -7.1875 8.4375 C-7.26839983 11.16734675 -7.26839983 11.16734675 -5 13 C-2.60611077 12.72197162 -2.60611077 12.72197162 0 12 C0.928125 11.814375 1.85625 11.62875 2.8125 11.4375 C3.534375 11.293125 4.25625 11.14875 5 11 C3.63016497 14.16115776 3.0109362 14.9927092 0 17 C-3.80121737 17.41467826 -6.10847173 17.52577308 -9.4375 15.5625 C-11.75071492 11.76882754 -11.91245385 8.32423783 -11 4 C-7.75774078 0.09021682 -4.98055927 -0.74178542 0 0 Z " fill="#121212" transform="translate(241,150)"/>
<path d="M0 0 C0.33 1.32 0.66 2.64 1 4 C-1.31 3.67 -3.62 3.34 -6 3 C-6.33 3.66 -6.66 4.32 -7 5 C-5.88625 5.28875 -4.7725 5.5775 -3.625 5.875 C0 7 0 7 2 9 C1.75 12.0625 1.75 12.0625 1 15 C-2.04983996 16.52491998 -4.6423369 16.23562548 -8 16 C-9.9375 14.6875 -9.9375 14.6875 -11 13 C-11 12.01 -11 11.02 -11 10 C-9.68 10 -8.36 10 -7 10 C-6.67 10.66 -6.34 11.32 -6 12 C-3.97536745 12.65213292 -3.97536745 12.65213292 -2 13 C-2.33 12.01 -2.66 11.02 -3 10 C-6.50294871 8.28432339 -6.50294871 8.28432339 -10 7 C-10.1875 4.125 -10.1875 4.125 -10 1 C-6.1496895 -1.56687367 -4.41430237 -0.83288724 0 0 Z " fill="#141414" transform="translate(154,151)"/>
<path d="M0 0 C3.3 0 6.6 0 10 0 C10 1.32 10 2.64 10 4 C8.02 4 6.04 4 4 4 C4 4.99 4 5.98 4 7 C5.98 7 7.96 7 10 7 C10 7.99 10 8.98 10 10 C8.02 10 6.04 10 4 10 C4 11.32 4 12.64 4 14 C5.98 14 7.96 14 10 14 C10 14.99 10 15.98 10 17 C6.7 17 3.4 17 0 17 C0 11.39 0 5.78 0 0 Z " fill="#1B1B1B" transform="translate(55,150)"/>
<path d="M0 0 C2 2 2 2 2.3125 4.9375 C2 8 2 8 0.875 9.875 C-1.88090884 11.52854531 -3.85075452 11.39365568 -7 11 C-8.875 9.875 -8.875 9.875 -10 8 C-10.39310741 4.85514075 -10.47555213 2.86718329 -8.9375 0.0625 C-5.81651045 -1.6490104 -3.35466116 -0.79291991 0 0 Z " fill="#212121" transform="translate(113,175)"/>
<path d="M0 0 C1.65 0 3.3 0 5 0 C5 7.26 5 14.52 5 22 C3.35 22 1.7 22 0 22 C0 14.74 0 7.48 0 0 Z " fill="#FDFDFD" transform="translate(135,98)"/>
<path d="M0 0 C1.98 0 3.96 0 6 0 C6.66 0.66 7.32 1.32 8 2 C7.835 3.134375 7.67 4.26875 7.5 5.4375 C6.58389695 9.09622069 6.58389695 9.09622069 9 12 C7.68 12 6.36 12 5 12 C4.67 11.34 4.34 10.68 4 10 C3.67 10.66 3.34 11.32 3 12 C2.01 12 1.02 12 0 12 C0 8.04 0 4.08 0 0 Z " fill="#131313" transform="translate(201,174)"/>
<path d="M0 0 C4 2 4 2 6 5 C6.33 3.35 6.66 1.7 7 0 C7.99 0 8.98 0 10 0 C10 3.96 10 7.92 10 12 C6 11 6 11 4.25 8.4375 C3.8375 7.633125 3.425 6.82875 3 6 C2.67 7.98 2.34 9.96 2 12 C1.34 12 0.68 12 0 12 C0 8.04 0 4.08 0 0 Z " fill="#222222" transform="translate(151,174)"/>
<path d="M0 0 C0.99 0.103125 1.98 0.20625 3 0.3125 C5 3.3125 5 3.3125 4.75 5.875 C4 8.3125 4 8.3125 2 10.3125 C-1.29714793 9.98278521 -2.6226839 9.6898161 -5 7.3125 C-5.25 4.8125 -5.25 4.8125 -5 2.3125 C-3 0.3125 -3 0.3125 0 0 Z " fill="#EDEDED" transform="translate(120,153.6875)"/>
<path d="M0 0 C0.99 0 1.98 0 3 0 C3 1.65 3 3.3 3 5 C4.32 5 5.64 5 7 5 C7 3.35 7 1.7 7 0 C7.99 0 8.98 0 10 0 C10 3.96 10 7.92 10 12 C9.01 12 8.02 12 7 12 C7 10.35 7 8.7 7 7 C5.68 7 4.36 7 3 7 C3 8.65 3 10.3 3 12 C2.01 12 1.02 12 0 12 C0 8.04 0 4.08 0 0 Z " fill="#1D1D1D" transform="translate(173,174)"/>
<path d="M0 0 C1.8125 2 1.8125 2 3 4 C0.36 4 -2.28 4 -5 4 C-4.67 5.65 -4.34 7.3 -4 9 C-3.01 9 -2.02 9 -1 9 C-1.33 8.01 -1.66 7.02 -2 6 C-0.35 6 1.3 6 3 6 C2.125 10.875 2.125 10.875 1 12 C-2.4375 12.1875 -2.4375 12.1875 -6 12 C-8.32528287 9.67471713 -8.29511025 9.15334102 -8.3125 6 C-8.32925781 5.29875 -8.34601563 4.5975 -8.36328125 3.875 C-8.24339844 3.25625 -8.12351562 2.6375 -8 2 C-4.77856724 -0.14762184 -3.7404533 -0.561068 0 0 Z " fill="#171717" transform="translate(128,174)"/>
<path d="M0 0 C4.95 0 9.9 0 15 0 C15 1.65 15 3.3 15 5 C10.05 5 5.1 5 0 5 C0 3.35 0 1.7 0 0 Z " fill="#FFFFFF" transform="translate(145,88)"/>
<path d="M0 0 C0.99 0 1.98 0 3 0 C3.6708712 1.6232687 4.33657029 3.24867578 5 4.875 C5.556875 6.23238281 5.556875 6.23238281 6.125 7.6171875 C7 10 7 10 7 12 C6.01 12 5.02 12 4 12 C4 11.34 4 10.68 4 10 C1.36 10.66 -1.28 11.32 -4 12 C-3.33501617 7.61110675 -1.81242323 4.0188515 0 0 Z " fill="#141414" transform="translate(139,174)"/>
<path d="M0 0 C1.2065625 0.0309375 1.2065625 0.0309375 2.4375 0.0625 C3.0975 1.3825 3.7575 2.7025 4.4375 4.0625 C3.4475 4.0625 2.4575 4.0625 1.4375 4.0625 C1.4375 3.4025 1.4375 2.7425 1.4375 2.0625 C0.4475 2.0625 -0.5425 2.0625 -1.5625 2.0625 C-0.17054085 4.8464183 1.59325779 5.04148997 4.4375 6.0625 C4.480221 7.72861905 4.47813832 9.39632885 4.4375 11.0625 C3.4375 12.0625 3.4375 12.0625 0.375 12.125 C-0.594375 12.104375 -1.56375 12.08375 -2.5625 12.0625 C-3.2225 10.7425 -3.8825 9.4225 -4.5625 8.0625 C-3.5725 8.0625 -2.5825 8.0625 -1.5625 8.0625 C-1.5625 8.7225 -1.5625 9.3825 -1.5625 10.0625 C-0.5725 10.0625 0.4175 10.0625 1.4375 10.0625 C0.06058038 7.30866077 -1.92970042 6.54766899 -4.5625 5.0625 C-3.43829114 0.08386076 -3.43829114 0.08386076 0 0 Z " fill="#262626" transform="translate(82.5625,173.9375)"/>
<path d="M0 0 C1.32 0 2.64 0 4 0 C4 5.61 4 11.22 4 17 C2.68 17 1.36 17 0 17 C0 11.39 0 5.78 0 0 Z " fill="#1E1E1E" transform="translate(220,150)"/>
<path d="M0 0 C1.32 0 2.64 0 4 0 C4 5.61 4 11.22 4 17 C2.68 17 1.36 17 0 17 C0 11.39 0 5.78 0 0 Z " fill="#212121" transform="translate(134,150)"/>
<path d="M0 0 C0.99 0 1.98 0 3 0 C3 4.29 3 8.58 3 13 C4.98 13 6.96 13 9 13 C9 13.99 9 14.98 9 16 C6.03 16 3.06 16 0 16 C0 10.72 0 5.44 0 0 Z " fill="#020202" transform="translate(162,151)"/>
<path d="M0 0 C2.31 0 4.62 0 7 0 C7 0.99 7 1.98 7 3 C5.68 3 4.36 3 3 3 C3 3.66 3 4.32 3 5 C3.99 5 4.98 5 6 5 C6 5.66 6 6.32 6 7 C4.68 7 3.36 7 2 7 C2 7.99 2 8.98 2 10 C3.65 10 5.3 10 7 10 C7 10.66 7 11.32 7 12 C4.69 12 2.38 12 0 12 C0 8.04 0 4.08 0 0 Z " fill="#181818" transform="translate(189,174)"/>
<path d="M0 0 C1.98 0 3.96 0 6 0 C6 0.66 6 1.32 6 2 C4.68 2 3.36 2 2 2 C2 2.99 2 3.98 2 5 C3.32 5 4.64 5 6 5 C6 5.66 6 6.32 6 7 C4.68 7 3.36 7 2 7 C2 7.99 2 8.98 2 10 C3.32 10 4.64 10 6 10 C6 10.66 6 11.32 6 12 C4.02 12 2.04 12 0 12 C0 8.04 0 4.08 0 0 Z " fill="#060606" transform="translate(215,174)"/>
<path d="M0 0 C0.99 0 1.98 0 3 0 C3 3.3 3 6.6 3 10 C4.32 10 5.64 10 7 10 C7 10.66 7 11.32 7 12 C4.69 12 2.38 12 0 12 C0 8.04 0 4.08 0 0 Z " fill="#1B1B1B" transform="translate(92,174)"/>
<path d="M0 0 C1.32 0.33 2.64 0.66 4 1 C4 1.66 4 2.32 4 3 C4.66 3.33 5.32 3.66 6 4 C6 5.32 6 6.64 6 8 C6.33 8.66 6.66 9.32 7 10 C5.68 10 4.36 10 3 10 C2.67 9.34 2.34 8.68 2 8 C1.34 8.66 0.68 9.32 0 10 C0 6.7 0 3.4 0 0 Z " fill="#434343" transform="translate(203,176)"/>
<path d="M0 0 C2.64 0.33 5.28 0.66 8 1 C8 1.66 8 2.32 8 3 C6.35 3 4.7 3 3 3 C3 3.66 3 4.32 3 5 C3.66 5.33 4.32 5.66 5 6 C3.125 6.625 3.125 6.625 1 7 C0.34 6.34 -0.32 5.68 -1 5 C-0.625 2.375 -0.625 2.375 0 0 Z " fill="#DEDEDE" transform="translate(123,177)"/>
<path d="M0 0 C1.66611905 -0.042721 3.33382885 -0.04063832 5 0 C6 1 6 1 6.0625 3.5625 C6.041875 4.366875 6.02125 5.17125 6 6 C4.34385343 6.38218767 2.67542976 6.71395102 1 7 C0 6 0 6 -0.0625 2.9375 C-0.041875 1.968125 -0.02125 0.99875 0 0 Z " fill="#EAEAEA" transform="translate(106,177)"/>
<path d="M0 0 C0.66 0 1.32 0 2 0 C2.66 1.65 3.32 3.3 4 5 C5.32 5 6.64 5 8 5 C9.77409808 3.07977297 9.77409808 3.07977297 11 1 C11.125 3.375 11.125 3.375 11 6 C9 8 9 8 6.0625 8.3125 C3 8 3 8 1.125 6.8125 C-0.34781139 4.43963721 -0.22223194 2.74086056 0 0 Z " fill="#0A0A0A" transform="translate(103,178)"/>
<path d="M0 0 C1.98 0.99 1.98 0.99 4 2 C4.33 2.99 4.66 3.98 5 5 C4.01 5 3.02 5 2 5 C2 7.31 2 9.62 2 12 C1.34 12 0.68 12 0 12 C0 8.04 0 4.08 0 0 Z " fill="#080808" transform="translate(151,174)"/>
<path d="M0 0 C0.66 0.66 1.32 1.32 2 2 C2.66 1.67 3.32 1.34 4 1 C4.66 3.31 5.32 5.62 6 8 C5.01 8 4.02 8 3 8 C3 7.34 3 6.68 3 6 C1.35 6 -0.3 6 -2 6 C-1.34 4.02 -0.68 2.04 0 0 Z " fill="#454545" transform="translate(140,178)"/>
<path d="M0 0 C0.99 0 1.98 0 3 0 C3 0.66 3 1.32 3 2 C4.65 1.67 6.3 1.34 8 1 C8 1.99 8 2.98 8 4 C6.02 4 4.04 4 2 4 C1.34 2.68 0.68 1.36 0 0 Z " fill="#141414" transform="translate(78,182)"/>
<path d="M0 0 C-0.33 0.99 -0.66 1.98 -1 3 C-2.32 3 -3.64 3 -5 3 C-5 4.65 -5 6.3 -5 8 C-5.12375 7.360625 -5.2475 6.72125 -5.375 6.0625 C-5.684375 5.0415625 -5.684375 5.0415625 -6 4 C-6.66 3.67 -7.32 3.34 -8 3 C-5.53387212 -0.1151089 -3.89156016 -0.31553191 0 0 Z " fill="#363636" transform="translate(111,174)"/>
<path d="M0 0 C2.64 0.33 5.28 0.66 8 1 C8 1.66 8 2.32 8 3 C1.25 4.125 1.25 4.125 -1 3 C-0.67 2.01 -0.34 1.02 0 0 Z " fill="#C5C5C5" transform="translate(148,153)"/>
<path d="M0 0 C2.475 0.495 2.475 0.495 5 1 C5 1.99 5 2.98 5 4 C3.35 3.67 1.7 3.34 0 3 C0 2.01 0 1.02 0 0 Z " fill="#EEEEEE" transform="translate(147,160)"/>
</svg>
