<?xml version="1.0" encoding="UTF-8"?>
<svg version="1.1" xmlns="http://www.w3.org/2000/svg" width="124" height="115">
<path d="M0 0 C40.92 0 81.84 0 124 0 C124 37.95 124 75.9 124 115 C83.08 115 42.16 115 0 115 C0 77.05 0 39.1 0 0 Z " fill="#000080" transform="translate(0,0)"/>
<path d="M0 0 C17.49 0 34.98 0 53 0 C53 4.95 53 9.9 53 15 C42.44 15 31.88 15 21 15 C21 13.35 21 11.7 21 10 C29.91 10 38.82 10 48 10 C48 8.35 48 6.7 48 5 C33.81 5 19.62 5 5 5 C5 12.59 5 20.18 5 28 C0.71 28 -3.58 28 -8 28 C-8 29.65 -8 31.3 -8 33 C-2.06 33 3.88 33 10 33 C10 25.41 10 17.82 10 10 C11.65 10 13.3 10 15 10 C15 17.59 15 25.18 15 33 C21.6 33 28.2 33 35 33 C35 37.95 35 42.9 35 48 C28.4 48 21.8 48 15 48 C15 55.26 15 62.52 15 70 C24.24 70 33.48 70 43 70 C43 71.65 43 73.3 43 75 C33.76 75 24.52 75 15 75 C15 76.65 15 78.3 15 80 C25.89 80 36.78 80 48 80 C48 76.7 48 73.4 48 70 C49.65 70 51.3 70 53 70 C53 74.95 53 79.9 53 85 C38.81 85 24.62 85 10 85 C10 81.7 10 78.4 10 75 C6.7 75 3.4 75 0 75 C0 64.44 0 53.88 0 43 C3.3 43 6.6 43 10 43 C10 41.35 10 39.7 10 38 C2.41 38 -5.18 38 -13 38 C-13 33.05 -13 28.1 -13 23 C-8.71 23 -4.42 23 0 23 C0 15.41 0 7.82 0 0 Z " fill="#FFFFFF" transform="translate(42,15)"/>
<path d="M0 0 C1.65 0 3.3 0 5 0 C5 7.26 5 14.52 5 22 C3.35 22 1.7 22 0 22 C0 14.74 0 7.48 0 0 Z " fill="#FDFDFD" transform="translate(47,63)"/>
<path d="M0 0 C4.95 0 9.9 0 15 0 C15 1.65 15 3.3 15 5 C10.05 5 5.1 5 0 5 C0 3.35 0 1.7 0 0 Z " fill="#FFFFFF" transform="translate(57,53)"/>
</svg>
